G04 #@! TF.GenerationSoftware,KiCad,Pcbnew,6.0.2-378541a8eb~116~ubuntu20.04.1*
G04 #@! TF.CreationDate,2022-03-04T10:43:16-05:00*
G04 #@! TF.ProjectId,gp-mpu,67702d6d-7075-42e6-9b69-6361645f7063,rev?*
G04 #@! TF.SameCoordinates,Original*
G04 #@! TF.FileFunction,Copper,L2,Bot*
G04 #@! TF.FilePolarity,Positive*
%FSLAX46Y46*%
G04 Gerber Fmt 4.6, Leading zero omitted, Abs format (unit mm)*
G04 Created by KiCad (PCBNEW 6.0.2-378541a8eb~116~ubuntu20.04.1) date 2022-03-04 10:43:16*
%MOMM*%
%LPD*%
G01*
G04 APERTURE LIST*
G04 #@! TA.AperFunction,ComponentPad*
%ADD10R,1.600000X1.600000*%
G04 #@! TD*
G04 #@! TA.AperFunction,ComponentPad*
%ADD11O,1.600000X1.600000*%
G04 #@! TD*
G04 #@! TA.AperFunction,ComponentPad*
%ADD12C,1.600000*%
G04 #@! TD*
G04 #@! TA.AperFunction,ComponentPad*
%ADD13R,1.600000X2.400000*%
G04 #@! TD*
G04 #@! TA.AperFunction,ComponentPad*
%ADD14O,1.600000X2.400000*%
G04 #@! TD*
G04 #@! TA.AperFunction,ComponentPad*
%ADD15R,1.700000X1.700000*%
G04 #@! TD*
G04 #@! TA.AperFunction,ComponentPad*
%ADD16O,1.700000X1.700000*%
G04 #@! TD*
G04 #@! TA.AperFunction,ComponentPad*
%ADD17C,3.000000*%
G04 #@! TD*
G04 #@! TA.AperFunction,ComponentPad*
%ADD18R,2.200000X2.200000*%
G04 #@! TD*
G04 #@! TA.AperFunction,ComponentPad*
%ADD19O,2.200000X2.200000*%
G04 #@! TD*
G04 #@! TA.AperFunction,ComponentPad*
%ADD20R,1.800000X1.800000*%
G04 #@! TD*
G04 #@! TA.AperFunction,ComponentPad*
%ADD21C,1.800000*%
G04 #@! TD*
G04 #@! TA.AperFunction,ComponentPad*
%ADD22R,2.400000X1.600000*%
G04 #@! TD*
G04 #@! TA.AperFunction,ComponentPad*
%ADD23O,2.400000X1.600000*%
G04 #@! TD*
G04 #@! TA.AperFunction,ComponentPad*
%ADD24C,2.000000*%
G04 #@! TD*
G04 #@! TA.AperFunction,ComponentPad*
%ADD25R,1.050000X1.500000*%
G04 #@! TD*
G04 #@! TA.AperFunction,ComponentPad*
%ADD26O,1.050000X1.500000*%
G04 #@! TD*
G04 #@! TA.AperFunction,ConnectorPad*
%ADD27R,9.525000X1.780000*%
G04 #@! TD*
G04 #@! TA.AperFunction,ConnectorPad*
%ADD28R,9.000000X2.500000*%
G04 #@! TD*
G04 #@! TA.AperFunction,ComponentPad*
%ADD29C,1.500000*%
G04 #@! TD*
G04 #@! TA.AperFunction,ViaPad*
%ADD30C,0.685800*%
G04 #@! TD*
G04 #@! TA.AperFunction,Conductor*
%ADD31C,0.304800*%
G04 #@! TD*
G04 #@! TA.AperFunction,Conductor*
%ADD32C,0.254000*%
G04 #@! TD*
G04 #@! TA.AperFunction,Conductor*
%ADD33C,1.524000*%
G04 #@! TD*
G04 #@! TA.AperFunction,Conductor*
%ADD34C,0.762000*%
G04 #@! TD*
G04 #@! TA.AperFunction,Conductor*
%ADD35C,1.270000*%
G04 #@! TD*
G04 #@! TA.AperFunction,Conductor*
%ADD36C,0.152400*%
G04 #@! TD*
G04 APERTURE END LIST*
D10*
X203200000Y-73710800D03*
D11*
X210820000Y-73710800D03*
D12*
X152345000Y-153665000D03*
X147345000Y-153665000D03*
D13*
X44445000Y-36835000D03*
D14*
X46985000Y-36835000D03*
X49525000Y-36835000D03*
X52065000Y-36835000D03*
X54605000Y-36835000D03*
X57145000Y-36835000D03*
X59685000Y-36835000D03*
X62225000Y-36835000D03*
X64765000Y-36835000D03*
X67305000Y-36835000D03*
X69845000Y-36835000D03*
X72385000Y-36835000D03*
X74925000Y-36835000D03*
X77465000Y-36835000D03*
X80005000Y-36835000D03*
X82545000Y-36835000D03*
X82545000Y-21595000D03*
X80005000Y-21595000D03*
X77465000Y-21595000D03*
X74925000Y-21595000D03*
X72385000Y-21595000D03*
X69845000Y-21595000D03*
X67305000Y-21595000D03*
X64765000Y-21595000D03*
X62225000Y-21595000D03*
X59685000Y-21595000D03*
X57145000Y-21595000D03*
X54605000Y-21595000D03*
X52065000Y-21595000D03*
X49525000Y-21595000D03*
X46985000Y-21595000D03*
X44445000Y-21595000D03*
D10*
X203327000Y-124587000D03*
D11*
X210947000Y-124587000D03*
D12*
X270510000Y-67310000D03*
D11*
X260350000Y-67310000D03*
D12*
X97745000Y-161290000D03*
X92745000Y-161290000D03*
D13*
X67300000Y-176545000D03*
D14*
X69840000Y-176545000D03*
X72380000Y-176545000D03*
X74920000Y-176545000D03*
X77460000Y-176545000D03*
X80000000Y-176545000D03*
X82540000Y-176545000D03*
X82540000Y-168925000D03*
X80000000Y-168925000D03*
X77460000Y-168925000D03*
X74920000Y-168925000D03*
X72380000Y-168925000D03*
X69840000Y-168925000D03*
X67300000Y-168925000D03*
D15*
X279400000Y-115316000D03*
D16*
X279400000Y-112776000D03*
X279400000Y-110236000D03*
X279400000Y-107696000D03*
X279400000Y-105156000D03*
X279400000Y-102616000D03*
X279400000Y-100076000D03*
X279400000Y-97536000D03*
X279400000Y-94996000D03*
D12*
X40635000Y-133350000D03*
D11*
X30475000Y-133350000D03*
D17*
X88895000Y-153670000D03*
D12*
X88895000Y-161290000D03*
D11*
X78735000Y-161290000D03*
D12*
X125715000Y-126995000D03*
D11*
X125715000Y-116835000D03*
D12*
X23368000Y-77724000D03*
D11*
X23368000Y-87884000D03*
D10*
X285750000Y-171450000D03*
D11*
X278130000Y-171450000D03*
D10*
X285750000Y-161290000D03*
D11*
X278130000Y-161290000D03*
D18*
X251460000Y-57150000D03*
D19*
X241300000Y-57150000D03*
D12*
X270510000Y-64262000D03*
D11*
X260350000Y-64262000D03*
D12*
X264922000Y-177800000D03*
D11*
X264922000Y-167640000D03*
D20*
X28656200Y-184353200D03*
D21*
X26116200Y-184353200D03*
D12*
X177698400Y-66852800D03*
D11*
X167538400Y-66852800D03*
D12*
X130860800Y-121412000D03*
D11*
X141020800Y-121412000D03*
D22*
X146035000Y-157475000D03*
D23*
X146035000Y-160015000D03*
X146035000Y-162555000D03*
X146035000Y-165095000D03*
X146035000Y-167635000D03*
X146035000Y-170175000D03*
X146035000Y-172715000D03*
X153655000Y-172715000D03*
X153655000Y-170175000D03*
X153655000Y-167635000D03*
X153655000Y-165095000D03*
X153655000Y-162555000D03*
X153655000Y-160015000D03*
X153655000Y-157475000D03*
D12*
X82545000Y-130810000D03*
D11*
X72385000Y-130810000D03*
D12*
X30475000Y-82550000D03*
X30475000Y-77550000D03*
D10*
X203327000Y-40767000D03*
D11*
X210947000Y-40767000D03*
D22*
X229855000Y-102865000D03*
D23*
X229855000Y-105405000D03*
X229855000Y-107945000D03*
X229855000Y-110485000D03*
X229855000Y-113025000D03*
X229855000Y-115565000D03*
X229855000Y-118105000D03*
X237475000Y-118105000D03*
X237475000Y-115565000D03*
X237475000Y-113025000D03*
X237475000Y-110485000D03*
X237475000Y-107945000D03*
X237475000Y-105405000D03*
X237475000Y-102865000D03*
D22*
X204455000Y-157495000D03*
D23*
X204455000Y-160035000D03*
X204455000Y-162575000D03*
X204455000Y-165115000D03*
X204455000Y-167655000D03*
X204455000Y-170195000D03*
X204455000Y-172735000D03*
X204455000Y-175275000D03*
X212075000Y-175275000D03*
X212075000Y-172735000D03*
X212075000Y-170195000D03*
X212075000Y-167655000D03*
X212075000Y-165115000D03*
X212075000Y-162575000D03*
X212075000Y-160035000D03*
X212075000Y-157495000D03*
D12*
X132080000Y-170180000D03*
D11*
X142240000Y-170180000D03*
D13*
X20310000Y-49545000D03*
D14*
X22850000Y-49545000D03*
X25390000Y-49545000D03*
X27930000Y-49545000D03*
X30470000Y-49545000D03*
X33010000Y-49545000D03*
X35550000Y-49545000D03*
X35550000Y-41925000D03*
X33010000Y-41925000D03*
X30470000Y-41925000D03*
X27930000Y-41925000D03*
X25390000Y-41925000D03*
X22850000Y-41925000D03*
X20310000Y-41925000D03*
D12*
X20315000Y-67310000D03*
D11*
X20315000Y-77470000D03*
D12*
X64765000Y-161290000D03*
D11*
X74925000Y-161290000D03*
D12*
X44577000Y-51094000D03*
X44577000Y-56094000D03*
X110998000Y-33782000D03*
D11*
X121158000Y-33782000D03*
D24*
X128560000Y-66750000D03*
X128560000Y-60250000D03*
X133060000Y-66750000D03*
X133060000Y-60250000D03*
D12*
X120650000Y-69850000D03*
D11*
X120650000Y-80010000D03*
D10*
X203327000Y-96647000D03*
D11*
X210947000Y-96647000D03*
D12*
X130860800Y-130860800D03*
D11*
X141020800Y-130860800D03*
D20*
X28605400Y-179425600D03*
D21*
X26065400Y-179425600D03*
D10*
X285750000Y-176530000D03*
D11*
X278130000Y-176530000D03*
D10*
X203200000Y-78841600D03*
D11*
X210820000Y-78841600D03*
D10*
X203200000Y-63500000D03*
D11*
X210820000Y-63500000D03*
D12*
X210805000Y-152415000D03*
X205805000Y-152415000D03*
D25*
X133350000Y-80010000D03*
D26*
X132080000Y-80010000D03*
X130810000Y-80010000D03*
D10*
X203200000Y-71120000D03*
D11*
X210820000Y-71120000D03*
D10*
X203327000Y-116967000D03*
D11*
X210947000Y-116967000D03*
D12*
X107950000Y-143510000D03*
D11*
X97790000Y-143510000D03*
D12*
X110998000Y-27686000D03*
D11*
X121158000Y-27686000D03*
D10*
X203327000Y-94107000D03*
D11*
X210947000Y-94107000D03*
D10*
X203200000Y-68580000D03*
D11*
X210820000Y-68580000D03*
D17*
X33015000Y-99060000D03*
D15*
X280660000Y-11430000D03*
D16*
X278120000Y-11430000D03*
X275580000Y-11430000D03*
X273040000Y-11430000D03*
X270500000Y-11430000D03*
X267960000Y-11430000D03*
X265420000Y-11430000D03*
X262880000Y-11430000D03*
X260340000Y-11430000D03*
D13*
X49535000Y-62210000D03*
D14*
X52075000Y-62210000D03*
X54615000Y-62210000D03*
X57155000Y-62210000D03*
X59695000Y-62210000D03*
X62235000Y-62210000D03*
X64775000Y-62210000D03*
X67315000Y-62210000D03*
X69855000Y-62210000D03*
X72395000Y-62210000D03*
X74935000Y-62210000D03*
X77475000Y-62210000D03*
X80015000Y-62210000D03*
X82555000Y-62210000D03*
X82555000Y-46970000D03*
X80015000Y-46970000D03*
X77475000Y-46970000D03*
X74935000Y-46970000D03*
X72395000Y-46970000D03*
X69855000Y-46970000D03*
X67315000Y-46970000D03*
X64775000Y-46970000D03*
X62235000Y-46970000D03*
X59695000Y-46970000D03*
X57155000Y-46970000D03*
X54615000Y-46970000D03*
X52075000Y-46970000D03*
X49535000Y-46970000D03*
D10*
X203200000Y-60960000D03*
D11*
X210820000Y-60960000D03*
D10*
X285750000Y-173990000D03*
D11*
X278130000Y-173990000D03*
D12*
X260350000Y-42926000D03*
D11*
X270510000Y-42926000D03*
D12*
X132080000Y-160020000D03*
D11*
X142240000Y-160020000D03*
D12*
X100838000Y-11430000D03*
D11*
X100838000Y-21590000D03*
D12*
X177698400Y-63703200D03*
D11*
X167538400Y-63703200D03*
D12*
X260350000Y-55118000D03*
D11*
X270510000Y-55118000D03*
D20*
X127000000Y-80010000D03*
D21*
X124460000Y-80010000D03*
D10*
X110490000Y-99055000D03*
D11*
X110490000Y-96515000D03*
X110490000Y-93975000D03*
X110490000Y-91435000D03*
X110490000Y-88895000D03*
X110490000Y-86355000D03*
X110490000Y-83815000D03*
X110490000Y-81275000D03*
X110490000Y-78735000D03*
X110490000Y-76195000D03*
X110490000Y-73655000D03*
X110490000Y-71115000D03*
X110490000Y-68575000D03*
X110490000Y-66035000D03*
X110490000Y-63495000D03*
X110490000Y-60955000D03*
X110490000Y-58415000D03*
X110490000Y-55875000D03*
X110490000Y-53335000D03*
X110490000Y-50795000D03*
X95250000Y-50795000D03*
X95250000Y-53335000D03*
X95250000Y-55875000D03*
X95250000Y-58415000D03*
X95250000Y-60955000D03*
X95250000Y-63495000D03*
X95250000Y-66035000D03*
X95250000Y-68575000D03*
X95250000Y-71115000D03*
X95250000Y-73655000D03*
X95250000Y-76195000D03*
X95250000Y-78735000D03*
X95250000Y-81275000D03*
X95250000Y-83815000D03*
X95250000Y-86355000D03*
X95250000Y-88895000D03*
X95250000Y-91435000D03*
X95250000Y-93975000D03*
X95250000Y-96515000D03*
X95250000Y-99055000D03*
D18*
X251460000Y-46990000D03*
D19*
X241300000Y-46990000D03*
D13*
X67300000Y-151145000D03*
D14*
X69840000Y-151145000D03*
X72380000Y-151145000D03*
X74920000Y-151145000D03*
X77460000Y-151145000D03*
X80000000Y-151145000D03*
X82540000Y-151145000D03*
X82540000Y-143525000D03*
X80000000Y-143525000D03*
X77460000Y-143525000D03*
X74920000Y-143525000D03*
X72380000Y-143525000D03*
X69840000Y-143525000D03*
X67300000Y-143525000D03*
D10*
X133350000Y-54610000D03*
D11*
X133350000Y-46990000D03*
D12*
X220980000Y-118070000D03*
X220980000Y-113070000D03*
X130860800Y-124561600D03*
D11*
X141020800Y-124561600D03*
D20*
X28554600Y-174650400D03*
D21*
X26014600Y-174650400D03*
D12*
X168910000Y-99060000D03*
D11*
X158750000Y-99060000D03*
D12*
X130860800Y-105206800D03*
D11*
X141020800Y-105206800D03*
D12*
X260350000Y-52070000D03*
D11*
X270510000Y-52070000D03*
D12*
X168960800Y-131064000D03*
D11*
X158800800Y-131064000D03*
D12*
X110998000Y-24638000D03*
D11*
X121158000Y-24638000D03*
D10*
X203327000Y-43307000D03*
D11*
X210947000Y-43307000D03*
D12*
X168808400Y-102209600D03*
D11*
X158648400Y-102209600D03*
D10*
X203327000Y-88900000D03*
D11*
X210947000Y-88900000D03*
D22*
X260335000Y-102875000D03*
D23*
X260335000Y-105415000D03*
X260335000Y-107955000D03*
X260335000Y-110495000D03*
X260335000Y-113035000D03*
X260335000Y-115575000D03*
X260335000Y-118115000D03*
X260335000Y-120655000D03*
X260335000Y-123195000D03*
X260335000Y-125735000D03*
X267955000Y-125735000D03*
X267955000Y-123195000D03*
X267955000Y-120655000D03*
X267955000Y-118115000D03*
X267955000Y-115575000D03*
X267955000Y-113035000D03*
X267955000Y-110495000D03*
X267955000Y-107955000D03*
X267955000Y-105415000D03*
X267955000Y-102875000D03*
D12*
X97790000Y-149860000D03*
D11*
X107950000Y-149860000D03*
D12*
X18084800Y-158851600D03*
D11*
X18084800Y-169011600D03*
D13*
X20310000Y-62245000D03*
D14*
X22850000Y-62245000D03*
X25390000Y-62245000D03*
X27930000Y-62245000D03*
X30470000Y-62245000D03*
X33010000Y-62245000D03*
X35550000Y-62245000D03*
X35550000Y-54625000D03*
X33010000Y-54625000D03*
X30470000Y-54625000D03*
X27930000Y-54625000D03*
X25390000Y-54625000D03*
X22850000Y-54625000D03*
X20310000Y-54625000D03*
D12*
X168910000Y-172720000D03*
D11*
X158750000Y-172720000D03*
D10*
X203327000Y-35687000D03*
D11*
X210947000Y-35687000D03*
D18*
X251460000Y-52070000D03*
D19*
X241300000Y-52070000D03*
D12*
X130810000Y-102108000D03*
D11*
X140970000Y-102108000D03*
D12*
X110998000Y-36830000D03*
D11*
X121158000Y-36830000D03*
D12*
X15235000Y-55880000D03*
X15235000Y-60880000D03*
X256286000Y-177800000D03*
D11*
X256286000Y-167640000D03*
D12*
X259334000Y-177800000D03*
D11*
X259334000Y-167640000D03*
D12*
X267970000Y-177800000D03*
D11*
X267970000Y-167640000D03*
D12*
X168910000Y-162560000D03*
D11*
X158750000Y-162560000D03*
D12*
X177800000Y-54610000D03*
D11*
X167640000Y-54610000D03*
D10*
X203327000Y-129667000D03*
D11*
X210947000Y-129667000D03*
D12*
X152360000Y-33020000D03*
X147360000Y-33020000D03*
X38354000Y-26710000D03*
X38354000Y-31710000D03*
X100325000Y-106680000D03*
D11*
X100325000Y-116840000D03*
D12*
X168859200Y-105359200D03*
D11*
X158699200Y-105359200D03*
D12*
X122580400Y-127050800D03*
D11*
X122580400Y-116890800D03*
D10*
X203327000Y-127127000D03*
D11*
X210947000Y-127127000D03*
D15*
X161285000Y-182880000D03*
D16*
X163825000Y-182880000D03*
X166365000Y-182880000D03*
X168905000Y-182880000D03*
X171445000Y-182880000D03*
X173985000Y-182880000D03*
X176525000Y-182880000D03*
X179065000Y-182880000D03*
X181605000Y-182880000D03*
D12*
X260350000Y-70358000D03*
D11*
X270510000Y-70358000D03*
D12*
X96275000Y-106680000D03*
D11*
X96275000Y-116840000D03*
D12*
X168910000Y-95961200D03*
D11*
X158750000Y-95961200D03*
D12*
X30475000Y-138430000D03*
X25475000Y-138430000D03*
D22*
X245095000Y-102875000D03*
D23*
X245095000Y-105415000D03*
X245095000Y-107955000D03*
X245095000Y-110495000D03*
X245095000Y-113035000D03*
X245095000Y-115575000D03*
X245095000Y-118115000D03*
X245095000Y-120655000D03*
X245095000Y-123195000D03*
X245095000Y-125735000D03*
X252715000Y-125735000D03*
X252715000Y-123195000D03*
X252715000Y-120655000D03*
X252715000Y-118115000D03*
X252715000Y-115575000D03*
X252715000Y-113035000D03*
X252715000Y-110495000D03*
X252715000Y-107955000D03*
X252715000Y-105415000D03*
X252715000Y-102875000D03*
D10*
X203200000Y-66040000D03*
D11*
X210820000Y-66040000D03*
D12*
X110998000Y-18542000D03*
D11*
X121158000Y-18542000D03*
D22*
X146035000Y-36845000D03*
D23*
X146035000Y-39385000D03*
X146035000Y-41925000D03*
X146035000Y-44465000D03*
X146035000Y-47005000D03*
X146035000Y-49545000D03*
X146035000Y-52085000D03*
X146035000Y-54625000D03*
X153655000Y-54625000D03*
X153655000Y-52085000D03*
X153655000Y-49545000D03*
X153655000Y-47005000D03*
X153655000Y-44465000D03*
X153655000Y-41925000D03*
X153655000Y-39385000D03*
X153655000Y-36845000D03*
D12*
X100370000Y-45720000D03*
X105370000Y-45720000D03*
D22*
X146035000Y-114295000D03*
D23*
X146035000Y-116835000D03*
X146035000Y-119375000D03*
X146035000Y-121915000D03*
X146035000Y-124455000D03*
X146035000Y-126995000D03*
X146035000Y-129535000D03*
X153655000Y-129535000D03*
X153655000Y-126995000D03*
X153655000Y-124455000D03*
X153655000Y-121915000D03*
X153655000Y-119375000D03*
X153655000Y-116835000D03*
X153655000Y-114295000D03*
D12*
X40386000Y-175260000D03*
D11*
X40386000Y-185420000D03*
D13*
X34290000Y-87635000D03*
D14*
X36830000Y-87635000D03*
X39370000Y-87635000D03*
X41910000Y-87635000D03*
X44450000Y-87635000D03*
X46990000Y-87635000D03*
X49530000Y-87635000D03*
X52070000Y-87635000D03*
X54610000Y-87635000D03*
X57150000Y-87635000D03*
X59690000Y-87635000D03*
X62230000Y-87635000D03*
X64770000Y-87635000D03*
X67310000Y-87635000D03*
X69850000Y-87635000D03*
X72390000Y-87635000D03*
X74930000Y-87635000D03*
X77470000Y-87635000D03*
X80010000Y-87635000D03*
X82550000Y-87635000D03*
X82550000Y-72395000D03*
X80010000Y-72395000D03*
X77470000Y-72395000D03*
X74930000Y-72395000D03*
X72390000Y-72395000D03*
X69850000Y-72395000D03*
X67310000Y-72395000D03*
X64770000Y-72395000D03*
X62230000Y-72395000D03*
X59690000Y-72395000D03*
X57150000Y-72395000D03*
X54610000Y-72395000D03*
X52070000Y-72395000D03*
X49530000Y-72395000D03*
X46990000Y-72395000D03*
X44450000Y-72395000D03*
X41910000Y-72395000D03*
X39370000Y-72395000D03*
X36830000Y-72395000D03*
X34290000Y-72395000D03*
D12*
X25395000Y-74930000D03*
X25395000Y-72430000D03*
D10*
X203327000Y-38227000D03*
D11*
X210947000Y-38227000D03*
D10*
X237490000Y-72390000D03*
D11*
X229870000Y-72390000D03*
D12*
X260350000Y-33782000D03*
D11*
X270510000Y-33782000D03*
D10*
X203327000Y-122047000D03*
D11*
X210947000Y-122047000D03*
D10*
X203327000Y-111887000D03*
D11*
X210947000Y-111887000D03*
D10*
X203327000Y-91567000D03*
D11*
X210947000Y-91567000D03*
D12*
X168960800Y-127863600D03*
D11*
X158800800Y-127863600D03*
D12*
X64765000Y-157480000D03*
D11*
X74925000Y-157480000D03*
D12*
X177647600Y-69951600D03*
D11*
X167487600Y-69951600D03*
D12*
X130810000Y-95961200D03*
D11*
X140970000Y-95961200D03*
D12*
X177800000Y-51460400D03*
D11*
X167640000Y-51460400D03*
D27*
X297130200Y-181827200D03*
X297130200Y-179287200D03*
X297130200Y-176747200D03*
X297168300Y-174258000D03*
X297130200Y-171667200D03*
X297130200Y-169127200D03*
X297130200Y-166587200D03*
X297130200Y-164047200D03*
X297130200Y-161507200D03*
X297130200Y-158967200D03*
X297130200Y-156427200D03*
X297130200Y-153887200D03*
X297142900Y-151321800D03*
D12*
X141020800Y-127711200D03*
D11*
X130860800Y-127711200D03*
D22*
X187960000Y-111887000D03*
D23*
X187960000Y-114427000D03*
X187960000Y-116967000D03*
X187960000Y-119507000D03*
X187960000Y-122047000D03*
X187960000Y-124587000D03*
X187960000Y-127127000D03*
X187960000Y-129667000D03*
X195580000Y-129667000D03*
X195580000Y-127127000D03*
X195580000Y-124587000D03*
X195580000Y-122047000D03*
X195580000Y-119507000D03*
X195580000Y-116967000D03*
X195580000Y-114427000D03*
X195580000Y-111887000D03*
D12*
X250190000Y-177800000D03*
D11*
X250190000Y-167640000D03*
D12*
X260350000Y-49022000D03*
D11*
X270510000Y-49022000D03*
D10*
X203327000Y-50927000D03*
D11*
X210947000Y-50927000D03*
D12*
X168859200Y-124460000D03*
D11*
X158699200Y-124460000D03*
D10*
X22860000Y-179425600D03*
D11*
X15240000Y-179425600D03*
D22*
X146035000Y-88895000D03*
D23*
X146035000Y-91435000D03*
X146035000Y-93975000D03*
X146035000Y-96515000D03*
X146035000Y-99055000D03*
X146035000Y-101595000D03*
X146035000Y-104135000D03*
X153655000Y-104135000D03*
X153655000Y-101595000D03*
X153655000Y-99055000D03*
X153655000Y-96515000D03*
X153655000Y-93975000D03*
X153655000Y-91435000D03*
X153655000Y-88895000D03*
D12*
X110998000Y-39878000D03*
D11*
X121158000Y-39878000D03*
D12*
X173975000Y-126995000D03*
D11*
X173975000Y-116835000D03*
D12*
X110998000Y-21590000D03*
D11*
X121158000Y-21590000D03*
D10*
X22860000Y-174599600D03*
D11*
X15240000Y-174599600D03*
D12*
X251405000Y-99060000D03*
X246405000Y-99060000D03*
D10*
X203327000Y-48387000D03*
D11*
X210947000Y-48387000D03*
D10*
X203327000Y-53467000D03*
D11*
X210947000Y-53467000D03*
D12*
X177088800Y-127050800D03*
D11*
X177088800Y-116890800D03*
D10*
X237490000Y-57150000D03*
D11*
X229870000Y-57150000D03*
D28*
X297475000Y-89564000D03*
X297475000Y-85614000D03*
X297475000Y-81564000D03*
X297475000Y-73564000D03*
X297475000Y-69614000D03*
X297475000Y-65564000D03*
X297475000Y-61614000D03*
X297475000Y-57564000D03*
X297475000Y-53614000D03*
X297475000Y-49564000D03*
X297475000Y-45614000D03*
D10*
X203200000Y-76250800D03*
D11*
X210820000Y-76250800D03*
D12*
X132080000Y-165100000D03*
D11*
X142240000Y-165100000D03*
D29*
X17865000Y-92680000D03*
X22765000Y-92680000D03*
D18*
X251460000Y-72390000D03*
D19*
X241300000Y-72390000D03*
D12*
X173975000Y-101600000D03*
D11*
X173975000Y-91440000D03*
D12*
X30485000Y-158765000D03*
D11*
X40645000Y-158765000D03*
D12*
X260350000Y-39878000D03*
D11*
X270510000Y-39878000D03*
D10*
X203327000Y-119507000D03*
D11*
X210947000Y-119507000D03*
D12*
X126238000Y-101600000D03*
D11*
X126238000Y-91440000D03*
D10*
X237490000Y-52070000D03*
D11*
X229870000Y-52070000D03*
D12*
X158735000Y-83820000D03*
D11*
X168895000Y-83820000D03*
D12*
X260350000Y-36830000D03*
D11*
X270510000Y-36830000D03*
D10*
X285750000Y-168910000D03*
D11*
X278130000Y-168910000D03*
D10*
X237490000Y-67310000D03*
D11*
X229870000Y-67310000D03*
D12*
X123175000Y-101600000D03*
D11*
X123175000Y-91440000D03*
D22*
X187960000Y-61087000D03*
D23*
X187960000Y-63627000D03*
X187960000Y-66167000D03*
X187960000Y-68707000D03*
X187960000Y-71247000D03*
X187960000Y-73787000D03*
X187960000Y-76327000D03*
X187960000Y-78867000D03*
X195580000Y-78867000D03*
X195580000Y-76327000D03*
X195580000Y-73787000D03*
X195580000Y-71247000D03*
X195580000Y-68707000D03*
X195580000Y-66167000D03*
X195580000Y-63627000D03*
X195580000Y-61087000D03*
D12*
X97795000Y-11430000D03*
D11*
X97795000Y-21590000D03*
D13*
X35565000Y-171465000D03*
D14*
X38105000Y-171465000D03*
X40645000Y-171465000D03*
X43185000Y-171465000D03*
X43185000Y-163845000D03*
X40645000Y-163845000D03*
X38105000Y-163845000D03*
X35565000Y-163845000D03*
D22*
X187960000Y-86487000D03*
D23*
X187960000Y-89027000D03*
X187960000Y-91567000D03*
X187960000Y-94107000D03*
X187960000Y-96647000D03*
X187960000Y-99187000D03*
X187960000Y-101727000D03*
X187960000Y-104267000D03*
X195580000Y-104267000D03*
X195580000Y-101727000D03*
X195580000Y-99187000D03*
X195580000Y-96647000D03*
X195580000Y-94107000D03*
X195580000Y-91567000D03*
X195580000Y-89027000D03*
X195580000Y-86487000D03*
D12*
X260350000Y-73406000D03*
D11*
X270510000Y-73406000D03*
D12*
X94742000Y-11430000D03*
D11*
X94742000Y-21590000D03*
D12*
X38095000Y-109220000D03*
D11*
X38095000Y-99060000D03*
D17*
X49276000Y-158750000D03*
D13*
X95255000Y-33035000D03*
D14*
X97795000Y-33035000D03*
X100335000Y-33035000D03*
X102875000Y-33035000D03*
X102875000Y-25415000D03*
X100335000Y-25415000D03*
X97795000Y-25415000D03*
X95255000Y-25415000D03*
D12*
X62225000Y-170180000D03*
X62225000Y-175180000D03*
D10*
X203327000Y-104267000D03*
D11*
X210947000Y-104267000D03*
D15*
X8885000Y-146055000D03*
D16*
X8885000Y-148595000D03*
X8885000Y-151135000D03*
X8885000Y-153675000D03*
X8885000Y-156215000D03*
X8885000Y-158755000D03*
X8885000Y-161295000D03*
X8885000Y-163835000D03*
X8885000Y-166375000D03*
X8885000Y-168915000D03*
X8885000Y-171455000D03*
X8885000Y-173995000D03*
X8885000Y-176535000D03*
X8885000Y-179075000D03*
X8885000Y-181615000D03*
D10*
X203327000Y-114427000D03*
D11*
X210947000Y-114427000D03*
D12*
X177647600Y-73101200D03*
D11*
X167487600Y-73101200D03*
D12*
X103886000Y-11430000D03*
D11*
X103886000Y-21590000D03*
D12*
X167625000Y-109215000D03*
X162625000Y-109215000D03*
D22*
X187960000Y-35687000D03*
D23*
X187960000Y-38227000D03*
X187960000Y-40767000D03*
X187960000Y-43307000D03*
X187960000Y-45847000D03*
X187960000Y-48387000D03*
X187960000Y-50927000D03*
X187960000Y-53467000D03*
X195580000Y-53467000D03*
X195580000Y-50927000D03*
X195580000Y-48387000D03*
X195580000Y-45847000D03*
X195580000Y-43307000D03*
X195580000Y-40767000D03*
X195580000Y-38227000D03*
X195580000Y-35687000D03*
D10*
X30475000Y-146050000D03*
D12*
X27975000Y-146050000D03*
X177139600Y-101600000D03*
D11*
X177139600Y-91440000D03*
D12*
X72385000Y-120650000D03*
D11*
X82545000Y-120650000D03*
D22*
X146035000Y-62245000D03*
D23*
X146035000Y-64785000D03*
X146035000Y-67325000D03*
X146035000Y-69865000D03*
X146035000Y-72405000D03*
X146035000Y-74945000D03*
X146035000Y-77485000D03*
X146035000Y-80025000D03*
X153655000Y-80025000D03*
X153655000Y-77485000D03*
X153655000Y-74945000D03*
X153655000Y-72405000D03*
X153655000Y-69865000D03*
X153655000Y-67325000D03*
X153655000Y-64785000D03*
X153655000Y-62245000D03*
D12*
X260350000Y-45974000D03*
D11*
X270510000Y-45974000D03*
D10*
X237490000Y-46990000D03*
D11*
X229870000Y-46990000D03*
D12*
X97790000Y-154940000D03*
D11*
X107950000Y-154940000D03*
D15*
X279400000Y-72385000D03*
D16*
X279400000Y-69845000D03*
X279400000Y-67305000D03*
X279400000Y-64765000D03*
X279400000Y-62225000D03*
X279400000Y-59685000D03*
X279400000Y-57145000D03*
X279400000Y-54605000D03*
X279400000Y-52065000D03*
X279400000Y-49525000D03*
X279400000Y-46985000D03*
X279400000Y-44445000D03*
X279400000Y-41905000D03*
X279400000Y-39365000D03*
X279400000Y-36825000D03*
D12*
X168895000Y-114295000D03*
D11*
X158735000Y-114295000D03*
D13*
X49510000Y-113035000D03*
D14*
X52050000Y-113035000D03*
X54590000Y-113035000D03*
X57130000Y-113035000D03*
X59670000Y-113035000D03*
X62210000Y-113035000D03*
X64750000Y-113035000D03*
X67290000Y-113035000D03*
X69830000Y-113035000D03*
X72370000Y-113035000D03*
X74910000Y-113035000D03*
X77450000Y-113035000D03*
X79990000Y-113035000D03*
X82530000Y-113035000D03*
X82530000Y-97795000D03*
X79990000Y-97795000D03*
X77450000Y-97795000D03*
X74910000Y-97795000D03*
X72370000Y-97795000D03*
X69830000Y-97795000D03*
X67290000Y-97795000D03*
X64750000Y-97795000D03*
X62210000Y-97795000D03*
X59670000Y-97795000D03*
X57130000Y-97795000D03*
X54590000Y-97795000D03*
X52050000Y-97795000D03*
X49510000Y-97795000D03*
D12*
X266645000Y-99065000D03*
X261645000Y-99065000D03*
X23266400Y-184302400D03*
D11*
X13106400Y-184302400D03*
D12*
X110998000Y-30734000D03*
D11*
X121158000Y-30734000D03*
D17*
X40386000Y-143256000D03*
D10*
X285750000Y-166370000D03*
D11*
X278130000Y-166370000D03*
D18*
X251460000Y-67310000D03*
D19*
X241300000Y-67310000D03*
D12*
X229870000Y-154940000D03*
X224870000Y-154940000D03*
X147345000Y-109220000D03*
X152345000Y-109220000D03*
D10*
X203327000Y-99187000D03*
D11*
X210947000Y-99187000D03*
D10*
X203327000Y-101727000D03*
D11*
X210947000Y-101727000D03*
D18*
X251460000Y-62230000D03*
D19*
X241300000Y-62230000D03*
D12*
X271018000Y-177800000D03*
D11*
X271018000Y-167640000D03*
D12*
X168859200Y-121259600D03*
D11*
X158699200Y-121259600D03*
D12*
X253238000Y-177800000D03*
D11*
X253238000Y-167640000D03*
D10*
X203327000Y-45847000D03*
D11*
X210947000Y-45847000D03*
D12*
X130795000Y-99060000D03*
D11*
X140955000Y-99060000D03*
D10*
X237490000Y-62230000D03*
D11*
X229870000Y-62230000D03*
D12*
X224790000Y-107950000D03*
D11*
X224790000Y-118110000D03*
D10*
X285750000Y-163830000D03*
D11*
X278130000Y-163830000D03*
D12*
X236165000Y-99055000D03*
X231165000Y-99055000D03*
D22*
X223520000Y-160020000D03*
D23*
X223520000Y-162560000D03*
X223520000Y-165100000D03*
X223520000Y-167640000D03*
X223520000Y-170180000D03*
X223520000Y-172720000D03*
X223520000Y-175260000D03*
X231140000Y-175260000D03*
X231140000Y-172720000D03*
X231140000Y-170180000D03*
X231140000Y-167640000D03*
X231140000Y-165100000D03*
X231140000Y-162560000D03*
X231140000Y-160020000D03*
D12*
X152400000Y-58420000D03*
X147400000Y-58420000D03*
D15*
X180325000Y-11430000D03*
D16*
X177785000Y-11430000D03*
X175245000Y-11430000D03*
X172705000Y-11430000D03*
X170165000Y-11430000D03*
X167625000Y-11430000D03*
X165085000Y-11430000D03*
X162545000Y-11430000D03*
X160005000Y-11430000D03*
D12*
X260350000Y-61214000D03*
D11*
X270510000Y-61214000D03*
D12*
X260350000Y-58166000D03*
D11*
X270510000Y-58166000D03*
D10*
X203327000Y-86309200D03*
D11*
X210947000Y-86309200D03*
D17*
X49276000Y-166624000D03*
D12*
X189230000Y-170195000D03*
D11*
X199390000Y-170195000D03*
D12*
X45715000Y-102910000D03*
X45715000Y-107910000D03*
D30*
X220980000Y-99212400D03*
X138049000Y-54483000D03*
X42819400Y-180345000D03*
X148463000Y-93472000D03*
X229768400Y-24790400D03*
X260335000Y-136209800D03*
X1630600Y-180345000D03*
X278536400Y-159841720D03*
X80010000Y-67437000D03*
X143891000Y-83947000D03*
X149621000Y-49545000D03*
X153873200Y-135077200D03*
X131013200Y-111709200D03*
X237490000Y-29972000D03*
X264922000Y-47778489D03*
X170180000Y-39624000D03*
X216763600Y-146354800D03*
X252882400Y-89204800D03*
X284581600Y-178816000D03*
X245618000Y-64770000D03*
X233883200Y-96164400D03*
X272796000Y-55626000D03*
X281076400Y-179222400D03*
X263601200Y-147167600D03*
X273812000Y-74168000D03*
X239268000Y-69850000D03*
X291358000Y-53614000D03*
X291782200Y-180035200D03*
X264261600Y-146304000D03*
X273812000Y-52324000D03*
X288188400Y-179324000D03*
X114808000Y-151130000D03*
X272288000Y-50038000D03*
X291626000Y-49564000D03*
X262737600Y-147980400D03*
X281228800Y-183540400D03*
X280162000Y-179374800D03*
X143002000Y-151130000D03*
X291084000Y-65278000D03*
X244348000Y-59436000D03*
X288925000Y-66675000D03*
X291465000Y-69850000D03*
X222560783Y-177006405D03*
X284480000Y-69850000D03*
X273456400Y-169926000D03*
X287655000Y-63500000D03*
X274650200Y-165735000D03*
X285750000Y-63500000D03*
X261328267Y-161290000D03*
X269697200Y-95148400D03*
X250190000Y-162052000D03*
X211023200Y-31546800D03*
X217424000Y-112014000D03*
X128727680Y-73456320D03*
X136728680Y-73456320D03*
X217297000Y-86487000D03*
X217424000Y-60960000D03*
X214122000Y-66040000D03*
X213995000Y-91567000D03*
X214122000Y-116840000D03*
X206502000Y-95504000D03*
X206502000Y-121920000D03*
X206502000Y-71120000D03*
X208026000Y-127000000D03*
X226060000Y-51308000D03*
X208026000Y-100838000D03*
X208026000Y-75438000D03*
X208915000Y-32385000D03*
X215646000Y-63500000D03*
X215646000Y-88900000D03*
X215646000Y-114300000D03*
X129336800Y-113131600D03*
X212852000Y-50292000D03*
X207358000Y-73500000D03*
X207264000Y-124460000D03*
X207264000Y-98298000D03*
X208788000Y-129540000D03*
X265493011Y-130848589D03*
X18694400Y-152400000D03*
X265328178Y-143052889D03*
X290576000Y-146354800D03*
X284327600Y-80822800D03*
X254000000Y-75285600D03*
X230378000Y-6502400D03*
X274980400Y-146100800D03*
X230174800Y-13817600D03*
X277926800Y-145034000D03*
X21336000Y-133858000D03*
X283464000Y-137058400D03*
X291465000Y-81915000D03*
X152908000Y-140970000D03*
X255905000Y-81915000D03*
X255016000Y-129540000D03*
X241046000Y-140716000D03*
X240284000Y-163830000D03*
X258445000Y-96520000D03*
X256540000Y-132842000D03*
X219964000Y-166624000D03*
X291465000Y-85725000D03*
X291628800Y-153887200D03*
X242874800Y-145707600D03*
X165100000Y-144894800D03*
X291465000Y-90805000D03*
X284189200Y-158967200D03*
X272415000Y-90805000D03*
X272288000Y-147066000D03*
X272288000Y-116840000D03*
X264363200Y-76301600D03*
X289915600Y-76200000D03*
X257810000Y-131826000D03*
X251968000Y-161290000D03*
X264363200Y-118364000D03*
X140573000Y-78724000D03*
X222250000Y-60198000D03*
X222250000Y-81280000D03*
X140573000Y-64754000D03*
X217881200Y-123139200D03*
X218071211Y-11442211D03*
X218821000Y-122351800D03*
X218821000Y-9753600D03*
X219456000Y-8636000D03*
X219532200Y-120726200D03*
X231444800Y-17221200D03*
X105410000Y-71120000D03*
X109524800Y-15494000D03*
X104038400Y-76149200D03*
X108407200Y-13766800D03*
X103022400Y-73660000D03*
X107391200Y-11430000D03*
X182880000Y-165735000D03*
X173990000Y-41467880D03*
X117983000Y-58420000D03*
X43180000Y-78740000D03*
X82530000Y-104882000D03*
X31242000Y-107442000D03*
X124460000Y-55880000D03*
X128016000Y-53340000D03*
X127635000Y-115316000D03*
X126492000Y-51054000D03*
X129159000Y-47625000D03*
X149225000Y-53213000D03*
X117335789Y-50177211D03*
X116459000Y-52197000D03*
X160528000Y-60198000D03*
X130970689Y-57310689D03*
X105316689Y-85250689D03*
X113030000Y-113284000D03*
X102768400Y-88900000D03*
X54483000Y-50292000D03*
X54483000Y-59182000D03*
X182626000Y-75184000D03*
X174932680Y-73840680D03*
X73494320Y-70523680D03*
X75946000Y-78486000D03*
X74930000Y-90932000D03*
X116586000Y-101346000D03*
X36322000Y-60452000D03*
X85191600Y-74320400D03*
X62230000Y-84074000D03*
X78994000Y-76200000D03*
X84950800Y-102235000D03*
X42164000Y-44958000D03*
X52070000Y-52324000D03*
X78232000Y-77978000D03*
X30480000Y-80772000D03*
X51422800Y-54864000D03*
X47117000Y-56515000D03*
X237475000Y-126832600D03*
X160274000Y-137160000D03*
X235970680Y-139695320D03*
X106172000Y-86614000D03*
X115316000Y-99060000D03*
X128938680Y-169070680D03*
X123444000Y-167640000D03*
X114300000Y-93980000D03*
X127005000Y-162555000D03*
X124973000Y-157475000D03*
X147828000Y-138684000D03*
X162052000Y-160020000D03*
X162052000Y-138430000D03*
X122428000Y-145542000D03*
X122428000Y-146812000D03*
X122428000Y-148082000D03*
X142621000Y-45974000D03*
X143002000Y-92710000D03*
X138303000Y-93726000D03*
X143749000Y-41925000D03*
X138303000Y-67183000D03*
X135001000Y-94602800D03*
X139065000Y-65786000D03*
X135001000Y-65786000D03*
X142240000Y-97790000D03*
X142255000Y-62245000D03*
X223266000Y-44577000D03*
X224521000Y-41925000D03*
X218440000Y-163830000D03*
D31*
X220980000Y-118070000D02*
X224750000Y-118070000D01*
X224750000Y-118070000D02*
X224790000Y-118110000D01*
X65684400Y-95758000D02*
X67793000Y-95758000D01*
D32*
X28991080Y-40446080D02*
X30470000Y-41925000D01*
D31*
X130810000Y-45720000D02*
X143510000Y-33020000D01*
X250175000Y-120655000D02*
X245095000Y-125735000D01*
D33*
X19050000Y-114046000D02*
X28448000Y-104648000D01*
D31*
X232269311Y-97950689D02*
X245295689Y-97950689D01*
X245295689Y-97950689D02*
X246405000Y-99060000D01*
D33*
X42819400Y-171830600D02*
X43185000Y-171465000D01*
D32*
X27483097Y-40446080D02*
X28991080Y-40446080D01*
D31*
X220980000Y-113070000D02*
X224820000Y-113070000D01*
D33*
X82804000Y-180340000D02*
X92745000Y-170399000D01*
X19050000Y-138430000D02*
X25475000Y-138430000D01*
D31*
X280554311Y-105641378D02*
X279654000Y-106541689D01*
X205559320Y-176379320D02*
X222400680Y-176379320D01*
X67310000Y-172466000D02*
X69840000Y-169936000D01*
X74920000Y-143525000D02*
X72380000Y-143525000D01*
X280554311Y-102093911D02*
X280554311Y-105641378D01*
D33*
X284581600Y-8534400D02*
X246024400Y-8534400D01*
X204908740Y-165115000D02*
X208178000Y-161845740D01*
X116636800Y-152857200D02*
X148082000Y-152857200D01*
D31*
X91455000Y-36835000D02*
X95255000Y-33035000D01*
X72380000Y-168925000D02*
X72380000Y-169916000D01*
X278245689Y-107217868D02*
X275458532Y-107217868D01*
X19336733Y-64770000D02*
X15875000Y-64770000D01*
X69840000Y-168925000D02*
X72380000Y-168925000D01*
X64939000Y-172466000D02*
X67310000Y-172466000D01*
D33*
X92745000Y-170399000D02*
X92745000Y-161290000D01*
X148082000Y-152857200D02*
X148117400Y-152892600D01*
X1625600Y-31496000D02*
X1625600Y-132181600D01*
D31*
X62225000Y-175180000D02*
X64939000Y-172466000D01*
D33*
X1630600Y-132186600D02*
X1625600Y-132181600D01*
D31*
X273913600Y-108762800D02*
X273105800Y-107955000D01*
X231165000Y-99055000D02*
X232269311Y-97950689D01*
X293275000Y-45614000D02*
X292806800Y-45614000D01*
X133350000Y-80010000D02*
X146020000Y-80010000D01*
X274320000Y-97282000D02*
X278536400Y-101498400D01*
X80000000Y-168925000D02*
X80000000Y-167650000D01*
X278921868Y-106541689D02*
X278245689Y-107217868D01*
D33*
X246024400Y-8534400D02*
X241096800Y-3606800D01*
X28448000Y-104648000D02*
X37388800Y-104648000D01*
D31*
X292530200Y-156427200D02*
X291809200Y-156427200D01*
D33*
X271337800Y-136209800D02*
X291642800Y-156514800D01*
X260335000Y-136209800D02*
X271337800Y-136209800D01*
X42819400Y-180345000D02*
X79023848Y-180345000D01*
D31*
X220980000Y-99212400D02*
X221137400Y-99055000D01*
X133350000Y-82169000D02*
X133350000Y-80010000D01*
X67793000Y-95758000D02*
X69830000Y-97795000D01*
X15875000Y-64770000D02*
X15235000Y-64130000D01*
X72380000Y-169916000D02*
X73660000Y-171196000D01*
X278536400Y-101498400D02*
X278573111Y-101461689D01*
X152350000Y-109215000D02*
X152345000Y-109220000D01*
X29250000Y-72430000D02*
X30475000Y-73655000D01*
X146020000Y-80010000D02*
X146035000Y-80025000D01*
D33*
X29514800Y-3606800D02*
X1625600Y-31496000D01*
D31*
X77460000Y-168925000D02*
X80000000Y-168925000D01*
X34671000Y-39370000D02*
X81788000Y-39370000D01*
D33*
X204455000Y-165115000D02*
X204908740Y-165115000D01*
X13436600Y-144043400D02*
X19050000Y-138430000D01*
X80000000Y-167650000D02*
X86360000Y-161290000D01*
D31*
X43185000Y-171465000D02*
X52593000Y-171465000D01*
D33*
X208178000Y-154788000D02*
X205805000Y-152415000D01*
D31*
X82540000Y-143525000D02*
X80000000Y-143525000D01*
X138191000Y-54625000D02*
X138049000Y-54483000D01*
X105370000Y-45720000D02*
X130810000Y-45720000D01*
D33*
X1630600Y-180345000D02*
X1630600Y-132186600D01*
X151150000Y-149860000D02*
X148117400Y-152892600D01*
D31*
X82545000Y-36835000D02*
X86101000Y-36835000D01*
X45715000Y-107910000D02*
X54545000Y-107910000D01*
D33*
X79023848Y-180345000D02*
X79028848Y-180340000D01*
X88895000Y-161290000D02*
X92745000Y-161290000D01*
X203977000Y-165115000D02*
X188722000Y-149860000D01*
D31*
X148463000Y-93472000D02*
X148966000Y-93975000D01*
D32*
X95255000Y-33035000D02*
X97795000Y-33035000D01*
D33*
X27507000Y-140462000D02*
X25475000Y-138430000D01*
D31*
X278573111Y-101461689D02*
X279922089Y-101461689D01*
X110490000Y-83815000D02*
X131704000Y-83815000D01*
X279922089Y-101461689D02*
X280554311Y-102093911D01*
D32*
X26004177Y-41925000D02*
X27483097Y-40446080D01*
D33*
X79028848Y-180340000D02*
X82804000Y-180340000D01*
D31*
X148966000Y-93975000D02*
X153655000Y-93975000D01*
X260335000Y-125735000D02*
X257795000Y-125735000D01*
X33010000Y-41031000D02*
X34671000Y-39370000D01*
X224820000Y-113070000D02*
X229855000Y-118105000D01*
X262875000Y-125735000D02*
X267955000Y-120655000D01*
X279654000Y-106541689D02*
X278921868Y-106541689D01*
D33*
X224870000Y-154940000D02*
X208330000Y-154940000D01*
D32*
X100335000Y-33035000D02*
X102875000Y-33035000D01*
D31*
X247509311Y-97955689D02*
X260535689Y-97955689D01*
D33*
X69317000Y-140462000D02*
X27507000Y-140462000D01*
X1625600Y-132181600D02*
X13436600Y-143992600D01*
X37388800Y-104648000D02*
X40650800Y-107910000D01*
X188722000Y-149860000D02*
X151150000Y-149860000D01*
D31*
X56308000Y-175180000D02*
X62225000Y-175180000D01*
D33*
X82804000Y-180340000D02*
X82540000Y-180076000D01*
D31*
X86101000Y-36835000D02*
X91455000Y-36835000D01*
X59309000Y-68326000D02*
X41631000Y-68326000D01*
D32*
X97795000Y-33035000D02*
X100335000Y-33035000D01*
X62210000Y-97795000D02*
X64750000Y-97795000D01*
D31*
X15235000Y-64130000D02*
X15235000Y-60880000D01*
X222400680Y-176379320D02*
X223520000Y-175260000D01*
X33010000Y-41925000D02*
X33010000Y-41031000D01*
D33*
X13436600Y-143992600D02*
X13436600Y-144043400D01*
X8885000Y-148595000D02*
X9799400Y-148595000D01*
D31*
X73660000Y-171196000D02*
X75189000Y-171196000D01*
X25395000Y-70828267D02*
X19336733Y-64770000D01*
X260335000Y-125735000D02*
X262875000Y-125735000D01*
D33*
X246024400Y-8534400D02*
X229768400Y-24790400D01*
X292806800Y-45614000D02*
X284581600Y-37388800D01*
D31*
X146035000Y-54625000D02*
X146035000Y-57055000D01*
X80000000Y-143525000D02*
X77460000Y-143525000D01*
D33*
X148117400Y-152892600D02*
X147345000Y-153665000D01*
X42819400Y-180345000D02*
X42819400Y-171830600D01*
D31*
X273105800Y-107955000D02*
X267955000Y-107955000D01*
X82545000Y-38613000D02*
X82545000Y-36835000D01*
X77460000Y-143525000D02*
X74920000Y-143525000D01*
X25395000Y-72430000D02*
X25395000Y-70828267D01*
X131704000Y-83815000D02*
X133350000Y-82169000D01*
D33*
X40650800Y-107910000D02*
X45715000Y-107910000D01*
X9799400Y-148595000D02*
X13563600Y-144830800D01*
D31*
X275458532Y-107217868D02*
X273913600Y-108762800D01*
X260535689Y-97955689D02*
X261645000Y-99065000D01*
X75189000Y-171196000D02*
X77460000Y-168925000D01*
X261645000Y-99065000D02*
X263428000Y-97282000D01*
D33*
X107950000Y-154940000D02*
X114554000Y-154940000D01*
X208178000Y-161845740D02*
X208178000Y-154788000D01*
D31*
X62230000Y-72395000D02*
X62230000Y-71247000D01*
D32*
X30470000Y-41925000D02*
X33010000Y-41925000D01*
D33*
X82540000Y-180076000D02*
X82540000Y-176545000D01*
D31*
X146035000Y-54625000D02*
X138191000Y-54625000D01*
X162625000Y-109215000D02*
X152350000Y-109215000D01*
X146035000Y-57055000D02*
X147400000Y-58420000D01*
X64750000Y-97795000D02*
X64750000Y-96692400D01*
X263428000Y-97282000D02*
X274320000Y-97282000D01*
X246405000Y-99060000D02*
X247509311Y-97955689D01*
D33*
X19050000Y-138430000D02*
X19050000Y-114046000D01*
X93876370Y-161290000D02*
X100226370Y-154940000D01*
X86360000Y-161290000D02*
X88895000Y-161290000D01*
D32*
X25390000Y-41925000D02*
X26004177Y-41925000D01*
D31*
X92745000Y-161290000D02*
X93876370Y-161290000D01*
X252715000Y-120655000D02*
X250175000Y-120655000D01*
X208330000Y-154940000D02*
X208178000Y-154788000D01*
X257795000Y-125735000D02*
X252715000Y-120655000D01*
X204455000Y-175275000D02*
X205559320Y-176379320D01*
D33*
X241096800Y-3606800D02*
X29514800Y-3606800D01*
X100226370Y-154940000D02*
X107950000Y-154940000D01*
D31*
X221137400Y-99055000D02*
X231165000Y-99055000D01*
X204455000Y-165115000D02*
X203977000Y-165115000D01*
X52593000Y-171465000D02*
X56308000Y-175180000D01*
X69840000Y-169936000D02*
X69840000Y-168925000D01*
D33*
X114554000Y-154940000D02*
X116636800Y-152857200D01*
D31*
X62230000Y-71247000D02*
X59309000Y-68326000D01*
X143510000Y-33020000D02*
X147360000Y-33020000D01*
X64750000Y-96692400D02*
X65684400Y-95758000D01*
X54545000Y-107910000D02*
X59670000Y-113035000D01*
X30475000Y-77550000D02*
X30475000Y-73655000D01*
X41631000Y-68326000D02*
X35550000Y-62245000D01*
X81788000Y-39370000D02*
X82545000Y-38613000D01*
D33*
X284581600Y-37388800D02*
X284581600Y-8534400D01*
D31*
X72380000Y-143525000D02*
X69317000Y-140462000D01*
X82540000Y-151145000D02*
X80000000Y-151145000D01*
D32*
X22850000Y-41925000D02*
X25390000Y-41925000D01*
D31*
X29250000Y-72430000D02*
X25395000Y-72430000D01*
X20315000Y-69850000D02*
X20315000Y-67310000D01*
X25395000Y-74930000D02*
X20315000Y-69850000D01*
X96275000Y-106680000D02*
X100325000Y-106680000D01*
X66294000Y-149098000D02*
X64765000Y-150627000D01*
D34*
X285750000Y-173990000D02*
X285750000Y-176530000D01*
D31*
X257302000Y-53340000D02*
X260974100Y-53340000D01*
X40645000Y-175001000D02*
X40386000Y-175260000D01*
D34*
X228615000Y-157495000D02*
X231140000Y-160020000D01*
X158735000Y-83820000D02*
X144018000Y-83820000D01*
X32258000Y-90424000D02*
X30475000Y-88641000D01*
X30475000Y-88641000D02*
X30475000Y-82550000D01*
X285750000Y-163830000D02*
X285750000Y-166370000D01*
X146654600Y-119375000D02*
X150317200Y-123037600D01*
D31*
X63510000Y-168925000D02*
X67300000Y-168925000D01*
D34*
X148336000Y-155702000D02*
X136398000Y-155702000D01*
D31*
X96685689Y-62059311D02*
X116669311Y-62059311D01*
D35*
X44445000Y-21595000D02*
X46985000Y-21595000D01*
D31*
X80010000Y-67437000D02*
X83952000Y-63495000D01*
X260974100Y-53340000D02*
X262244100Y-52070000D01*
D35*
X30485000Y-176839800D02*
X35966400Y-182321200D01*
D34*
X285750000Y-166370000D02*
X285750000Y-168910000D01*
X150317200Y-123037600D02*
X150317200Y-133858000D01*
X45715000Y-102910000D02*
X45715000Y-97531000D01*
X151536400Y-135077200D02*
X153873200Y-135077200D01*
X153655000Y-157475000D02*
X150109000Y-157475000D01*
X251405000Y-99060000D02*
X249881000Y-100584000D01*
D32*
X94996000Y-11430000D02*
X97795000Y-11430000D01*
D34*
X231140000Y-160020000D02*
X231140000Y-159766000D01*
X168910000Y-162560000D02*
X163825000Y-157475000D01*
D31*
X59670000Y-99080000D02*
X59670000Y-97795000D01*
D34*
X231140000Y-159766000D02*
X273050000Y-159766000D01*
X249881000Y-100584000D02*
X243840000Y-100584000D01*
X38095000Y-109220000D02*
X42926000Y-109220000D01*
X273050000Y-159766000D02*
X273125720Y-159841720D01*
D31*
X19055000Y-55880000D02*
X20310000Y-54625000D01*
D34*
X150109000Y-157475000D02*
X148336000Y-155702000D01*
X285750000Y-161290000D02*
X285750000Y-163830000D01*
D31*
X40645000Y-171465000D02*
X40645000Y-175001000D01*
X116669311Y-62059311D02*
X120650000Y-66040000D01*
D34*
X45715000Y-97531000D02*
X38608000Y-90424000D01*
D31*
X15235000Y-55880000D02*
X19055000Y-55880000D01*
D35*
X35966400Y-182321200D02*
X119938800Y-182321200D01*
D31*
X267955000Y-100375000D02*
X266645000Y-99065000D01*
D34*
X56438800Y-122732800D02*
X81991200Y-122732800D01*
X42926000Y-109220000D02*
X56438800Y-122732800D01*
X136398000Y-155702000D02*
X132080000Y-160020000D01*
D35*
X119938800Y-182321200D02*
X132080000Y-170180000D01*
D34*
X146035000Y-119375000D02*
X146654600Y-119375000D01*
X152219320Y-63680680D02*
X153655000Y-62245000D01*
D31*
X83952000Y-63495000D02*
X95250000Y-63495000D01*
X63495000Y-168910000D02*
X63510000Y-168925000D01*
X40645000Y-169667000D02*
X61712000Y-169667000D01*
X100838000Y-11430000D02*
X103886000Y-11430000D01*
X265540689Y-100169311D02*
X252514311Y-100169311D01*
D34*
X38608000Y-90424000D02*
X32258000Y-90424000D01*
D31*
X267955000Y-102875000D02*
X267955000Y-100375000D01*
D34*
X81991200Y-122732800D02*
X82545000Y-122179000D01*
X149621000Y-49545000D02*
X146035000Y-49545000D01*
D31*
X61712000Y-169667000D02*
X62225000Y-170180000D01*
D34*
X82545000Y-122179000D02*
X82545000Y-120650000D01*
X150317200Y-133858000D02*
X151536400Y-135077200D01*
X168910000Y-172720000D02*
X186705000Y-172720000D01*
D31*
X40645000Y-171465000D02*
X40645000Y-169667000D01*
X106857800Y-18592800D02*
X103886000Y-15621000D01*
X103886000Y-15621000D02*
X103886000Y-11430000D01*
X95250000Y-63495000D02*
X96685689Y-62059311D01*
D32*
X100335000Y-11430000D02*
X97795000Y-11430000D01*
D31*
X72380000Y-151145000D02*
X72380000Y-149850000D01*
D32*
X72390000Y-72395000D02*
X74930000Y-72395000D01*
D34*
X55840000Y-102910000D02*
X59670000Y-99080000D01*
D31*
X126819320Y-63680680D02*
X152219320Y-63680680D01*
X62225000Y-170180000D02*
X63495000Y-168910000D01*
D34*
X285750000Y-168910000D02*
X285750000Y-171450000D01*
D31*
X64765000Y-150627000D02*
X64765000Y-157480000D01*
D34*
X212075000Y-157495000D02*
X228615000Y-157495000D01*
D31*
X120650000Y-69850000D02*
X126819320Y-63680680D01*
X266645000Y-99065000D02*
X265540689Y-100169311D01*
X72380000Y-149850000D02*
X71628000Y-149098000D01*
D34*
X242311000Y-99055000D02*
X236165000Y-99055000D01*
D35*
X30485000Y-158765000D02*
X30485000Y-176839800D01*
D31*
X120650000Y-66040000D02*
X120650000Y-69850000D01*
X144018000Y-83820000D02*
X143891000Y-83947000D01*
X110998000Y-18592800D02*
X106857800Y-18592800D01*
D34*
X273125720Y-159841720D02*
X278536400Y-159841720D01*
X285750000Y-171450000D02*
X285750000Y-173990000D01*
X186705000Y-172720000D02*
X189230000Y-170195000D01*
D31*
X251460000Y-52070000D02*
X256032000Y-52070000D01*
D34*
X30485000Y-158765000D02*
X35565000Y-163845000D01*
D31*
X256032000Y-52070000D02*
X257302000Y-53340000D01*
D34*
X163825000Y-157475000D02*
X153655000Y-157475000D01*
X243840000Y-100584000D02*
X242311000Y-99055000D01*
D31*
X252514311Y-100169311D02*
X251405000Y-99060000D01*
X71628000Y-149098000D02*
X66294000Y-149098000D01*
X262244100Y-52070000D02*
X270510000Y-52070000D01*
D34*
X45715000Y-102910000D02*
X55840000Y-102910000D01*
D31*
X166928800Y-111709200D02*
X131013200Y-111709200D01*
X167625000Y-111013000D02*
X166928800Y-111709200D01*
X167625000Y-109215000D02*
X167625000Y-111013000D01*
X256794000Y-48768000D02*
X258064000Y-47498000D01*
X249936000Y-48768000D02*
X256794000Y-48768000D01*
D32*
X167625000Y-54625000D02*
X167640000Y-54610000D01*
D31*
X237490000Y-29972000D02*
X178308000Y-29972000D01*
X241300000Y-46990000D02*
X248158000Y-46990000D01*
X170180000Y-38100000D02*
X170180000Y-39624000D01*
X241300000Y-46990000D02*
X237490000Y-46990000D01*
X264641511Y-47498000D02*
X264922000Y-47778489D01*
X248158000Y-46990000D02*
X249936000Y-48768000D01*
X178308000Y-29972000D02*
X170180000Y-38100000D01*
X258064000Y-47498000D02*
X264641511Y-47498000D01*
D32*
X153655000Y-54625000D02*
X167625000Y-54625000D01*
D31*
X240842800Y-89204800D02*
X233883200Y-96164400D01*
X179578000Y-55880000D02*
X178308000Y-57150000D01*
X284836411Y-159994967D02*
X284836411Y-158496811D01*
X169672000Y-52832000D02*
X168910000Y-52070000D01*
X249072400Y-146354800D02*
X250240800Y-145186400D01*
D32*
X147113920Y-51006080D02*
X146035000Y-52085000D01*
X167640000Y-52070000D02*
X166576080Y-51006080D01*
D31*
X284581600Y-160249778D02*
X284836411Y-159994967D01*
X178308000Y-57150000D02*
X172212000Y-57150000D01*
X241300000Y-52070000D02*
X237490000Y-52070000D01*
X291606000Y-67945000D02*
X293275000Y-69614000D01*
X284836411Y-158496811D02*
X271526000Y-145186400D01*
D32*
X166576080Y-51006080D02*
X147113920Y-51006080D01*
D31*
X216763600Y-146354800D02*
X249072400Y-146354800D01*
X169672000Y-54610000D02*
X169672000Y-52832000D01*
X257379378Y-64184622D02*
X260350000Y-61214000D01*
X278107211Y-65366311D02*
X278780900Y-66040000D01*
X257975689Y-65366311D02*
X278107211Y-65366311D01*
X278780900Y-66040000D02*
X281940000Y-66040000D01*
X168910000Y-52070000D02*
X167640000Y-52070000D01*
X284581600Y-178816000D02*
X284581600Y-160249778D01*
X237490000Y-52070000D02*
X233680000Y-55880000D01*
X257379378Y-64770000D02*
X245618000Y-64770000D01*
X172212000Y-57150000D02*
X169672000Y-54610000D01*
X257379378Y-64770000D02*
X257975689Y-65366311D01*
X282575000Y-67945000D02*
X291606000Y-67945000D01*
X257379378Y-64770000D02*
X257379378Y-64184622D01*
X271526000Y-145186400D02*
X250240800Y-145186400D01*
X281940000Y-67310000D02*
X282575000Y-67945000D01*
X252882400Y-89204800D02*
X240842800Y-89204800D01*
X233680000Y-55880000D02*
X179578000Y-55880000D01*
X281940000Y-66040000D02*
X281940000Y-67310000D01*
X271780000Y-56642000D02*
X258318000Y-56642000D01*
X185928000Y-58420000D02*
X236220000Y-58420000D01*
X281076400Y-160172400D02*
X281076400Y-179222400D01*
X256794000Y-55118000D02*
X243332000Y-55118000D01*
X274726400Y-158292800D02*
X279196800Y-158292800D01*
X153655000Y-64785000D02*
X166456600Y-64785000D01*
X258318000Y-56642000D02*
X256794000Y-55118000D01*
X291129689Y-55759311D02*
X272929311Y-55759311D01*
X167538400Y-63703200D02*
X174396400Y-63703200D01*
X243332000Y-55118000D02*
X241300000Y-57150000D01*
X174396400Y-63703200D02*
X179679600Y-58420000D01*
X263601200Y-147167600D02*
X274726400Y-158292800D01*
X279196800Y-158292800D02*
X281076400Y-160172400D01*
X236220000Y-58420000D02*
X237490000Y-57150000D01*
X272929311Y-55759311D02*
X272796000Y-55626000D01*
X241300000Y-57150000D02*
X237490000Y-57150000D01*
X179679600Y-58420000D02*
X185928000Y-58420000D01*
X166456600Y-64785000D02*
X167538400Y-63703200D01*
X272796000Y-55626000D02*
X271780000Y-56642000D01*
X293275000Y-53614000D02*
X291129689Y-55759311D01*
X227838000Y-67310000D02*
X232918000Y-62230000D01*
X187395256Y-67310000D02*
X227838000Y-67310000D01*
X167640000Y-67310000D02*
X168744311Y-68414311D01*
X168744311Y-68414311D02*
X186290945Y-68414311D01*
D32*
X167640000Y-67310000D02*
X153670000Y-67310000D01*
D31*
X272542000Y-75438000D02*
X273812000Y-74168000D01*
X258572000Y-73152000D02*
X258826000Y-73406000D01*
X186290945Y-68414311D02*
X187395256Y-67310000D01*
X264261600Y-146304000D02*
X275386800Y-157429200D01*
X263144000Y-73406000D02*
X265176000Y-75438000D01*
X275386800Y-157429200D02*
X279806400Y-157429200D01*
X291358000Y-53614000D02*
X291194689Y-53450689D01*
X287985200Y-179527200D02*
X288188400Y-179324000D01*
X260350000Y-73406000D02*
X263144000Y-73406000D01*
X291782200Y-180035200D02*
X292530200Y-179287200D01*
X282092400Y-178003200D02*
X283159200Y-179070000D01*
X282092400Y-159715200D02*
X282092400Y-178003200D01*
X283159200Y-179070000D02*
X283616400Y-179527200D01*
X258826000Y-73406000D02*
X260350000Y-73406000D01*
D32*
X153670000Y-67310000D02*
X153655000Y-67325000D01*
D31*
X283616400Y-179527200D02*
X287985200Y-179527200D01*
X232918000Y-62230000D02*
X237490000Y-62230000D01*
X257810000Y-69850000D02*
X239268000Y-69850000D01*
X258572000Y-70612000D02*
X258572000Y-73152000D01*
X257810000Y-69850000D02*
X258572000Y-70612000D01*
X291194689Y-53450689D02*
X278891588Y-53450689D01*
X277764899Y-52324000D02*
X273812000Y-52324000D01*
X279806400Y-157429200D02*
X282092400Y-159715200D01*
X278891588Y-53450689D02*
X277764899Y-52324000D01*
X241300000Y-62230000D02*
X237490000Y-62230000D01*
X265176000Y-75438000D02*
X272542000Y-75438000D01*
X167640000Y-69850000D02*
X169926000Y-69850000D01*
X143002000Y-151130000D02*
X114808000Y-151130000D01*
X278841200Y-159156400D02*
X280162000Y-160477200D01*
X242704311Y-68714311D02*
X260839789Y-68714311D01*
X281228800Y-183540400D02*
X290817000Y-183540400D01*
X262244100Y-67310000D02*
X270510000Y-67310000D01*
X273913600Y-159156400D02*
X278841200Y-159156400D01*
X228308267Y-72390000D02*
X233388267Y-67310000D01*
X241300000Y-67310000D02*
X242704311Y-68714311D01*
X169926000Y-69850000D02*
X171704000Y-71628000D01*
X241300000Y-67310000D02*
X237490000Y-67310000D01*
X233388267Y-67310000D02*
X237490000Y-67310000D01*
D32*
X153655000Y-69865000D02*
X167625000Y-69865000D01*
D31*
X291626000Y-49564000D02*
X290510689Y-50679311D01*
X280162000Y-160477200D02*
X280162000Y-179374800D01*
X186036945Y-71285689D02*
X187141256Y-72390000D01*
X290510689Y-50679311D02*
X278660211Y-50679311D01*
X171704000Y-71628000D02*
X172046311Y-71285689D01*
X260839789Y-68714311D02*
X262244100Y-67310000D01*
X172046311Y-71285689D02*
X186036945Y-71285689D01*
X278018900Y-50038000D02*
X272288000Y-50038000D01*
X262737600Y-147980400D02*
X273913600Y-159156400D01*
X278660211Y-50679311D02*
X278018900Y-50038000D01*
X187141256Y-72390000D02*
X228308267Y-72390000D01*
D32*
X167625000Y-69865000D02*
X167640000Y-69850000D01*
D31*
X290817000Y-183540400D02*
X292530200Y-181827200D01*
X234848400Y-75031600D02*
X237490000Y-72390000D01*
D32*
X167640000Y-72390000D02*
X153670000Y-72390000D01*
D31*
X268948267Y-58166000D02*
X270052578Y-59270311D01*
X253238000Y-58674000D02*
X253746000Y-58166000D01*
X260350000Y-58166000D02*
X268948267Y-58166000D01*
X284988000Y-65278000D02*
X291084000Y-65278000D01*
X186695689Y-74935689D02*
X207269689Y-74935689D01*
X281432000Y-58928000D02*
X281432000Y-61722000D01*
X176631600Y-74422000D02*
X186182000Y-74422000D01*
X210667600Y-75031600D02*
X234848400Y-75031600D01*
X186182000Y-74422000D02*
X186695689Y-74935689D01*
X281432000Y-61722000D02*
X284988000Y-65278000D01*
X176123600Y-73914000D02*
X176631600Y-74422000D01*
X245110000Y-58674000D02*
X253238000Y-58674000D01*
X176123600Y-73253600D02*
X176123600Y-73914000D01*
X207414589Y-74790789D02*
X210426789Y-74790789D01*
X280803311Y-58299311D02*
X281432000Y-58928000D01*
X167640000Y-72390000D02*
X175260000Y-72390000D01*
X207269689Y-74935689D02*
X207414589Y-74790789D01*
X241300000Y-72390000D02*
X237490000Y-72390000D01*
X270052578Y-59270311D02*
X278182246Y-59270311D01*
X175260000Y-72390000D02*
X176123600Y-73253600D01*
X278182246Y-59270311D02*
X279153246Y-58299311D01*
X279153246Y-58299311D02*
X280803311Y-58299311D01*
X244348000Y-59436000D02*
X245110000Y-58674000D01*
D32*
X153670000Y-72390000D02*
X153655000Y-72405000D01*
D31*
X210426789Y-74790789D02*
X210667600Y-75031600D01*
X253746000Y-58166000D02*
X260350000Y-58166000D01*
X272288000Y-162052000D02*
X255143000Y-162052000D01*
X278130000Y-163830000D02*
X274066000Y-163830000D01*
X234188000Y-160528000D02*
X233426000Y-161290000D01*
X254000000Y-162052000D02*
X252476000Y-160528000D01*
X292576000Y-65564000D02*
X291465000Y-66675000D01*
X255143000Y-162052000D02*
X254000000Y-163195000D01*
X254000000Y-163195000D02*
X254000000Y-162052000D01*
X227330000Y-162560000D02*
X228600000Y-161290000D01*
X252476000Y-160528000D02*
X234188000Y-160528000D01*
X291465000Y-66675000D02*
X288925000Y-66675000D01*
X223520000Y-162560000D02*
X227330000Y-162560000D01*
X274066000Y-163830000D02*
X272288000Y-162052000D01*
X293275000Y-65564000D02*
X292576000Y-65564000D01*
X254000000Y-163195000D02*
X254000000Y-167640000D01*
X233426000Y-161290000D02*
X228600000Y-161290000D01*
X273202400Y-170180000D02*
X273456400Y-169926000D01*
X267970000Y-170180000D02*
X273202400Y-170180000D01*
X222589859Y-176836040D02*
X171464307Y-176836040D01*
X162263267Y-167635000D02*
X153655000Y-167635000D01*
X265430000Y-167640000D02*
X267970000Y-170180000D01*
X171464307Y-176836040D02*
X162263267Y-167635000D01*
X284480000Y-69850000D02*
X291465000Y-69850000D01*
X260350000Y-171450000D02*
X256540000Y-167640000D01*
X278130000Y-171450000D02*
X260350000Y-171450000D01*
X293275000Y-61614000D02*
X289541000Y-61614000D01*
X289541000Y-61614000D02*
X287655000Y-63500000D01*
X259080000Y-167640000D02*
X260985000Y-165735000D01*
X293275000Y-57564000D02*
X291686000Y-57564000D01*
X277495000Y-165735000D02*
X278130000Y-166370000D01*
X291686000Y-57564000D02*
X285750000Y-63500000D01*
X274650200Y-165735000D02*
X277495000Y-165735000D01*
X260985000Y-165735000D02*
X274650200Y-165735000D01*
X278130000Y-168910000D02*
X271780000Y-168910000D01*
X271780000Y-168910000D02*
X270510000Y-167640000D01*
X269697200Y-95148400D02*
X269849600Y-94996000D01*
X250190000Y-167640000D02*
X250190000Y-162052000D01*
X269849600Y-94996000D02*
X279400000Y-94996000D01*
X231140000Y-165100000D02*
X247650000Y-165100000D01*
X261328267Y-161290000D02*
X278130000Y-161290000D01*
X247650000Y-165100000D02*
X250190000Y-167640000D01*
X203327000Y-35687000D02*
X195580000Y-35687000D01*
X186486800Y-31546800D02*
X211023200Y-31546800D01*
X210820000Y-60960000D02*
X217424000Y-60960000D01*
X280670000Y-45715000D02*
X279400000Y-46985000D01*
X217424000Y-112014000D02*
X217297000Y-111887000D01*
X217297000Y-111887000D02*
X210947000Y-111887000D01*
X246126000Y-28448000D02*
X274828000Y-28448000D01*
X267716000Y-45974000D02*
X269240000Y-44450000D01*
X221488000Y-32258000D02*
X242316000Y-32258000D01*
X269240000Y-44450000D02*
X276865000Y-44450000D01*
X280670000Y-36462557D02*
X280670000Y-45715000D01*
X276865000Y-44450000D02*
X279400000Y-46985000D01*
X274828000Y-28448000D02*
X278384000Y-32004000D01*
X278384000Y-34544000D02*
X278727001Y-34887001D01*
X177212920Y-40820680D02*
X186486800Y-31546800D01*
X139519320Y-40820680D02*
X177212920Y-40820680D01*
X278727001Y-34887001D02*
X279094444Y-34887001D01*
X210947000Y-35687000D02*
X212852000Y-33782000D01*
X242316000Y-32258000D02*
X246126000Y-28448000D01*
X133350000Y-46990000D02*
X139519320Y-40820680D01*
X278384000Y-32004000D02*
X278384000Y-34544000D01*
X212852000Y-33782000D02*
X219964000Y-33782000D01*
X260350000Y-45974000D02*
X267716000Y-45974000D01*
X219964000Y-33782000D02*
X221488000Y-32258000D01*
X279094444Y-34887001D02*
X280670000Y-36462557D01*
X210947000Y-86487000D02*
X217297000Y-86487000D01*
X128727680Y-73456320D02*
X136728680Y-73456320D01*
X203327000Y-40767000D02*
X195580000Y-40767000D01*
X204431320Y-120942680D02*
X208407000Y-116967000D01*
X263652000Y-30480000D02*
X273055000Y-30480000D01*
X214884000Y-36830000D02*
X240792000Y-36830000D01*
X184619320Y-120942680D02*
X204431320Y-120942680D01*
X168859200Y-124460000D02*
X181102000Y-124460000D01*
X240792000Y-36830000D02*
X243840000Y-33782000D01*
X213995000Y-116967000D02*
X210947000Y-116967000D01*
X208407000Y-116967000D02*
X210947000Y-116967000D01*
X181102000Y-124460000D02*
X184619320Y-120942680D01*
X210820000Y-66040000D02*
X214122000Y-66040000D01*
X210947000Y-91567000D02*
X213995000Y-91567000D01*
X214122000Y-116840000D02*
X213995000Y-116967000D01*
X243840000Y-33782000D02*
X260350000Y-33782000D01*
X260350000Y-33782000D02*
X263652000Y-30480000D01*
X273055000Y-30480000D02*
X279400000Y-36825000D01*
X210947000Y-40767000D02*
X214884000Y-36830000D01*
X203327000Y-45847000D02*
X195580000Y-45847000D01*
X186024104Y-95504000D02*
X206502000Y-95504000D01*
X130810000Y-95961200D02*
X138836400Y-95961200D01*
X207645000Y-96647000D02*
X206502000Y-95504000D01*
X138836400Y-95961200D02*
X139940711Y-94856889D01*
X156939480Y-95079320D02*
X157632400Y-94386400D01*
X144945689Y-94856889D02*
X145168120Y-95079320D01*
X223393000Y-45847000D02*
X231394000Y-37846000D01*
X157632400Y-94386400D02*
X184353200Y-94386400D01*
X210947000Y-45847000D02*
X223393000Y-45847000D01*
X185470800Y-95504000D02*
X186024104Y-95504000D01*
X145168120Y-95079320D02*
X156939480Y-95079320D01*
X206502000Y-121920000D02*
X206629000Y-122047000D01*
X242824000Y-37846000D02*
X243840000Y-36830000D01*
X231394000Y-37846000D02*
X242824000Y-37846000D01*
X263906000Y-36830000D02*
X265430000Y-35306000D01*
X210820000Y-71120000D02*
X206502000Y-71120000D01*
X275341000Y-35306000D02*
X279400000Y-39365000D01*
X210947000Y-96647000D02*
X207645000Y-96647000D01*
X260350000Y-36830000D02*
X263906000Y-36830000D01*
X243840000Y-36830000D02*
X260350000Y-36830000D01*
X265430000Y-35306000D02*
X275341000Y-35306000D01*
X206629000Y-122047000D02*
X210947000Y-122047000D01*
X184353200Y-94386400D02*
X185470800Y-95504000D01*
X139940711Y-94856889D02*
X144945689Y-94856889D01*
X203327000Y-50927000D02*
X195580000Y-50927000D01*
X260350000Y-42926000D02*
X265176000Y-42926000D01*
X276611000Y-41656000D02*
X279400000Y-44445000D01*
X266446000Y-41656000D02*
X276611000Y-41656000D01*
X210947000Y-50927000D02*
X211328000Y-51308000D01*
X168895000Y-99060000D02*
X172539311Y-102704311D01*
X207518000Y-100330000D02*
X208026000Y-100838000D01*
X208915000Y-101727000D02*
X208026000Y-100838000D01*
X175410689Y-101957311D02*
X175410689Y-100687311D01*
X208628000Y-76040000D02*
X208026000Y-75438000D01*
X210947000Y-101727000D02*
X208915000Y-101727000D01*
X211328000Y-51308000D02*
X226060000Y-51308000D01*
X172539311Y-102704311D02*
X174663689Y-102704311D01*
X265176000Y-42926000D02*
X266446000Y-41656000D01*
X175768000Y-100330000D02*
X207518000Y-100330000D01*
X210820000Y-76040000D02*
X208628000Y-76040000D01*
X175410689Y-100687311D02*
X175768000Y-100330000D01*
X174663689Y-102704311D02*
X175410689Y-101957311D01*
X208026000Y-127000000D02*
X210820000Y-127000000D01*
X210820000Y-127000000D02*
X210947000Y-127127000D01*
X203200000Y-60960000D02*
X195707000Y-60960000D01*
X195707000Y-60960000D02*
X195580000Y-61087000D01*
X203200000Y-66040000D02*
X195707000Y-66040000D01*
X195707000Y-66040000D02*
X195580000Y-66167000D01*
X203200000Y-71120000D02*
X195707000Y-71120000D01*
X195707000Y-71120000D02*
X195580000Y-71247000D01*
X203200000Y-76040000D02*
X195867000Y-76040000D01*
X195867000Y-76040000D02*
X195580000Y-76327000D01*
X203327000Y-86487000D02*
X195580000Y-86487000D01*
X203327000Y-91567000D02*
X195580000Y-91567000D01*
X203327000Y-96647000D02*
X195580000Y-96647000D01*
X203327000Y-101727000D02*
X195580000Y-101727000D01*
X195580000Y-111887000D02*
X203327000Y-111887000D01*
X195580000Y-116967000D02*
X203327000Y-116967000D01*
X195580000Y-122047000D02*
X203327000Y-122047000D01*
X195580000Y-127127000D02*
X203327000Y-127127000D01*
X195580000Y-38227000D02*
X203327000Y-38227000D01*
X210947000Y-114427000D02*
X206019400Y-114427000D01*
X212090000Y-32385000D02*
X212725000Y-31750000D01*
X260350000Y-52070000D02*
X261620000Y-50800000D01*
X261620000Y-50800000D02*
X278135000Y-50800000D01*
X212725000Y-31369000D02*
X213360000Y-30734000D01*
X280660000Y-23378000D02*
X280660000Y-11430000D01*
X210947000Y-88900000D02*
X215646000Y-88900000D01*
X208915000Y-32385000D02*
X212090000Y-32385000D01*
X213360000Y-30734000D02*
X237643296Y-30734000D01*
X278135000Y-50800000D02*
X279400000Y-52065000D01*
X204724000Y-113131600D02*
X129336800Y-113131600D01*
X210820000Y-63500000D02*
X215646000Y-63500000D01*
X206019400Y-114427000D02*
X204724000Y-113131600D01*
X215519000Y-114427000D02*
X210947000Y-114427000D01*
X244999296Y-23378000D02*
X280660000Y-23378000D01*
X215646000Y-114300000D02*
X215519000Y-114427000D01*
X237643296Y-30734000D02*
X244999296Y-23378000D01*
X212725000Y-31750000D02*
X212725000Y-31369000D01*
X195580000Y-43307000D02*
X203327000Y-43307000D01*
X168960800Y-131064000D02*
X179070000Y-131064000D01*
X246888000Y-54610000D02*
X242570000Y-50292000D01*
X278300689Y-53505689D02*
X261454311Y-53505689D01*
X261454311Y-53505689D02*
X260350000Y-54610000D01*
X207899000Y-119507000D02*
X210947000Y-119507000D01*
X204254680Y-123151320D02*
X207899000Y-119507000D01*
X186982680Y-123151320D02*
X204254680Y-123151320D01*
X179070000Y-131064000D02*
X186982680Y-123151320D01*
X260350000Y-54610000D02*
X246888000Y-54610000D01*
X279400000Y-54605000D02*
X278300689Y-53505689D01*
X242570000Y-50292000D02*
X212852000Y-50292000D01*
X195580000Y-48387000D02*
X203327000Y-48387000D01*
X277373000Y-47498000D02*
X279400000Y-49525000D01*
X268986000Y-47498000D02*
X277373000Y-47498000D01*
X182372000Y-109474000D02*
X209296000Y-109474000D01*
X145287456Y-102920800D02*
X149402800Y-102920800D01*
X210947000Y-99187000D02*
X208153000Y-99187000D01*
X208153000Y-99187000D02*
X207264000Y-98298000D01*
X138379200Y-103479600D02*
X144728656Y-103479600D01*
X210820000Y-73500000D02*
X207358000Y-73500000D01*
X212598000Y-99568000D02*
X212217000Y-99187000D01*
X153416000Y-106934000D02*
X179832000Y-106934000D01*
X137007600Y-102108000D02*
X138379200Y-103479600D01*
X260350000Y-49022000D02*
X267462000Y-49022000D01*
X179832000Y-106934000D02*
X182372000Y-109474000D01*
X207391000Y-124587000D02*
X207264000Y-124460000D01*
X210947000Y-48387000D02*
X212090000Y-49530000D01*
X212090000Y-49530000D02*
X260350000Y-49530000D01*
X212598000Y-106172000D02*
X212598000Y-99568000D01*
X212217000Y-99187000D02*
X210947000Y-99187000D01*
X209296000Y-109474000D02*
X212598000Y-106172000D01*
X210947000Y-124587000D02*
X207391000Y-124587000D01*
X267462000Y-49022000D02*
X268986000Y-47498000D01*
X130810000Y-102108000D02*
X137007600Y-102108000D01*
X144728656Y-103479600D02*
X145287456Y-102920800D01*
X149402800Y-102920800D02*
X153416000Y-106934000D01*
X195580000Y-53467000D02*
X203327000Y-53467000D01*
X183388000Y-107696000D02*
X207518000Y-107696000D01*
X168859200Y-105359200D02*
X181051200Y-105359200D01*
X207518000Y-107696000D02*
X210947000Y-104267000D01*
X210947000Y-129667000D02*
X208915000Y-129667000D01*
X266192000Y-39878000D02*
X267716000Y-38354000D01*
X208915000Y-129667000D02*
X208788000Y-129540000D01*
X223520000Y-47244000D02*
X230886000Y-39878000D01*
X209296000Y-47244000D02*
X223520000Y-47244000D01*
X267716000Y-38354000D02*
X275849000Y-38354000D01*
X230886000Y-39878000D02*
X260350000Y-39878000D01*
X181051200Y-105359200D02*
X183388000Y-107696000D01*
X210947000Y-53467000D02*
X209296000Y-51816000D01*
X275849000Y-38354000D02*
X279400000Y-41905000D01*
X260350000Y-39878000D02*
X266192000Y-39878000D01*
X209296000Y-51816000D02*
X209296000Y-47244000D01*
X203073000Y-63627000D02*
X203200000Y-63500000D01*
X195580000Y-63627000D02*
X203073000Y-63627000D01*
X203073000Y-68707000D02*
X203200000Y-68580000D01*
X195580000Y-68707000D02*
X203073000Y-68707000D01*
X195580000Y-73787000D02*
X202913000Y-73787000D01*
X202913000Y-73787000D02*
X203200000Y-73500000D01*
X195580000Y-78867000D02*
X203073000Y-78867000D01*
X203073000Y-78867000D02*
X203200000Y-78740000D01*
X195580000Y-89027000D02*
X203200000Y-89027000D01*
X203200000Y-89027000D02*
X203327000Y-88900000D01*
X195580000Y-94107000D02*
X203327000Y-94107000D01*
X195580000Y-99187000D02*
X203327000Y-99187000D01*
X195580000Y-104267000D02*
X203327000Y-104267000D01*
X203327000Y-114427000D02*
X195580000Y-114427000D01*
X203327000Y-119507000D02*
X195580000Y-119507000D01*
X203327000Y-124587000D02*
X195580000Y-124587000D01*
X203327000Y-129667000D02*
X195580000Y-129667000D01*
D32*
X127000000Y-80010000D02*
X130810000Y-80010000D01*
X120650000Y-80010000D02*
X124460000Y-80010000D01*
D35*
X265480800Y-130505200D02*
X265480800Y-130836378D01*
X273608800Y-130505200D02*
X265480800Y-130505200D01*
X18694400Y-152400000D02*
X59944000Y-152400000D01*
X283311600Y-139090400D02*
X282194000Y-139090400D01*
X59944000Y-152400000D02*
X65379600Y-146964400D01*
X265480800Y-130836378D02*
X265493011Y-130848589D01*
X65379600Y-146964400D02*
X117652800Y-146964400D01*
X117652800Y-146964400D02*
X120852211Y-143764989D01*
X282194000Y-139090400D02*
X273608800Y-130505200D01*
X264616078Y-143764989D02*
X265328178Y-143052889D01*
X290576000Y-146354800D02*
X283311600Y-139090400D01*
X120852211Y-143764989D02*
X264616078Y-143764989D01*
D31*
X18084800Y-158851600D02*
X18084800Y-154940000D01*
X8885000Y-151135000D02*
X16911400Y-151135000D01*
X90220800Y-145745200D02*
X92456000Y-143510000D01*
X53492400Y-149606000D02*
X57353200Y-145745200D01*
X92456000Y-143510000D02*
X97790000Y-143510000D01*
X18084800Y-154940000D02*
X16911400Y-153766600D01*
X18440400Y-149606000D02*
X53492400Y-149606000D01*
X16911400Y-151135000D02*
X18440400Y-149606000D01*
X57353200Y-145745200D02*
X90220800Y-145745200D01*
X16911400Y-153766600D02*
X16911400Y-151135000D01*
D33*
X230378000Y-13614400D02*
X230174800Y-13817600D01*
X290894800Y-169127200D02*
X288493200Y-166725600D01*
X291592000Y-75247000D02*
X291592000Y-78028800D01*
D35*
X291592000Y-80060800D02*
X285089600Y-80060800D01*
D33*
X291592000Y-78028800D02*
X291592000Y-80060800D01*
X230378000Y-6502400D02*
X230378000Y-13614400D01*
X248285000Y-181991000D02*
X242062000Y-188214000D01*
X292530200Y-176811000D02*
X289763200Y-179578000D01*
D36*
X292892000Y-81564000D02*
X293275000Y-81564000D01*
D31*
X292530200Y-174296100D02*
X292568300Y-174258000D01*
D33*
X292530200Y-176747200D02*
X292530200Y-176811000D01*
X289763200Y-179578000D02*
X289763200Y-181965600D01*
X292568300Y-174258000D02*
X292568300Y-171705300D01*
D31*
X292568300Y-171705300D02*
X292530200Y-171667200D01*
D33*
X293275000Y-73564000D02*
X291592000Y-75247000D01*
X291592000Y-78028800D02*
X256743200Y-78028800D01*
X248310400Y-181965600D02*
X248285000Y-181991000D01*
X288493200Y-166725600D02*
X288493200Y-159512000D01*
D35*
X285089600Y-80060800D02*
X284327600Y-80822800D01*
D33*
X242062000Y-188214000D02*
X7366000Y-188214000D01*
X291592000Y-80264000D02*
X292892000Y-81564000D01*
X7107000Y-161295000D02*
X8885000Y-161295000D01*
X256743200Y-78028800D02*
X254000000Y-75285600D01*
X3810000Y-164592000D02*
X7107000Y-161295000D01*
D36*
X291592000Y-80060800D02*
X291592000Y-80264000D01*
D33*
X292530200Y-176747200D02*
X292530200Y-174296100D01*
X288493200Y-159512000D02*
X274980400Y-145999200D01*
X3810000Y-184658000D02*
X3810000Y-164592000D01*
X289763200Y-181965600D02*
X248310400Y-181965600D01*
X7366000Y-188214000D02*
X3810000Y-184658000D01*
X292530200Y-171667200D02*
X292530200Y-169127200D01*
X292530200Y-169127200D02*
X290894800Y-169127200D01*
X31242000Y-123952000D02*
X39878000Y-123952000D01*
D35*
X112192280Y-142215080D02*
X239826800Y-142215080D01*
X108966000Y-136906000D02*
X108966000Y-138988800D01*
D33*
X39878000Y-123952000D02*
X52832000Y-136906000D01*
X293275000Y-89564000D02*
X293275000Y-91027000D01*
X266649200Y-141224000D02*
X243027769Y-141224000D01*
X293275000Y-85614000D02*
X293275000Y-89564000D01*
X293275000Y-91027000D02*
X283464000Y-100838000D01*
X283464000Y-100838000D02*
X283464000Y-100888800D01*
D35*
X52832000Y-136906000D02*
X108966000Y-136906000D01*
X242570000Y-142177469D02*
X243027769Y-141719700D01*
D33*
X291725092Y-158967200D02*
X275217746Y-142459854D01*
X292530200Y-158967200D02*
X291725092Y-158967200D01*
X283464000Y-100888800D02*
X283464000Y-137058400D01*
D31*
X292530200Y-164047200D02*
X292530200Y-161507200D01*
X292530200Y-166587200D02*
X292530200Y-164047200D01*
D35*
X243027769Y-141719700D02*
X243027769Y-141224000D01*
X239864411Y-142177469D02*
X242570000Y-142177469D01*
D33*
X21336000Y-133858000D02*
X31242000Y-123952000D01*
D35*
X108966000Y-138988800D02*
X112192280Y-142215080D01*
D31*
X292530200Y-161507200D02*
X292530200Y-158967200D01*
D33*
X275217746Y-142459854D02*
X267885054Y-142459854D01*
X8885000Y-166375000D02*
X8885000Y-163835000D01*
X267885054Y-142459854D02*
X266649200Y-141224000D01*
D35*
X239826800Y-142215080D02*
X239864411Y-142177469D01*
D31*
X256540000Y-177800000D02*
X259080000Y-177800000D01*
X259080000Y-177800000D02*
X265430000Y-177800000D01*
X254000000Y-177800000D02*
X256540000Y-177800000D01*
X250190000Y-177800000D02*
X241046000Y-186944000D01*
X267970000Y-177800000D02*
X270510000Y-177800000D01*
X8885000Y-176535000D02*
X15753000Y-176535000D01*
X15753000Y-176789000D02*
X15753000Y-176535000D01*
X250190000Y-177800000D02*
X254000000Y-177800000D01*
X25908000Y-186944000D02*
X23266400Y-184302400D01*
X241046000Y-186944000D02*
X25908000Y-186944000D01*
X23266400Y-184302400D02*
X15753000Y-176789000D01*
X265430000Y-177800000D02*
X267970000Y-177800000D01*
X255130789Y-133718789D02*
X255130789Y-129679211D01*
X152908000Y-140970000D02*
X240792000Y-140970000D01*
X146030000Y-165100000D02*
X146035000Y-165095000D01*
X255130789Y-129679211D02*
X255270000Y-129540000D01*
X255270000Y-129540000D02*
X255016000Y-129540000D01*
X270370789Y-133718789D02*
X255130789Y-133718789D01*
X259230680Y-109390680D02*
X260335000Y-110495000D01*
X291186411Y-154534411D02*
X270370789Y-133718789D01*
X291465000Y-81915000D02*
X255905000Y-81915000D01*
X291896885Y-154534411D02*
X291186411Y-154534411D01*
X292530200Y-153887200D02*
X292530200Y-153901096D01*
X245095000Y-110495000D02*
X246199320Y-109390680D01*
X292530200Y-153901096D02*
X291896885Y-154534411D01*
X246199320Y-109390680D02*
X259230680Y-109390680D01*
X142240000Y-165100000D02*
X146030000Y-165100000D01*
X240792000Y-140970000D02*
X241046000Y-140716000D01*
X142240000Y-160020000D02*
X146030000Y-160020000D01*
X220218000Y-166370000D02*
X227908256Y-166370000D01*
X227908256Y-166370000D02*
X230448256Y-163830000D01*
X246199320Y-106850680D02*
X259230680Y-106850680D01*
X219964000Y-166624000D02*
X220218000Y-166370000D01*
X245095000Y-107955000D02*
X246199320Y-106850680D01*
X266065000Y-89535000D02*
X259080000Y-96520000D01*
X291628800Y-153887200D02*
X291628800Y-152182800D01*
X259080000Y-96520000D02*
X258445000Y-96520000D01*
X259230680Y-106850680D02*
X260335000Y-107955000D01*
X291628800Y-152182800D02*
X272288000Y-132842000D01*
X146030000Y-160020000D02*
X146035000Y-160015000D01*
X269875000Y-85725000D02*
X266065000Y-89535000D01*
X272288000Y-132842000D02*
X256540000Y-132842000D01*
X230448256Y-163830000D02*
X240284000Y-163830000D01*
X291465000Y-85725000D02*
X269875000Y-85725000D01*
X273309000Y-62225000D02*
X279400000Y-62225000D01*
X242062000Y-144894800D02*
X165100000Y-144894800D01*
X242874800Y-145707600D02*
X242062000Y-144894800D01*
X266192000Y-64262000D02*
X267716000Y-62738000D01*
X272796000Y-62738000D02*
X273309000Y-62225000D01*
X267716000Y-62738000D02*
X272796000Y-62738000D01*
X260350000Y-64262000D02*
X266192000Y-64262000D01*
X146035000Y-170175000D02*
X148585000Y-170175000D01*
X263568680Y-116679320D02*
X272127320Y-116679320D01*
X142240000Y-170180000D02*
X146030000Y-170180000D01*
X272288000Y-147066000D02*
X272288000Y-148336000D01*
X173985000Y-180980900D02*
X173985000Y-182880000D01*
X148585000Y-170175000D02*
X154940000Y-176530000D01*
X272288000Y-148336000D02*
X283057600Y-159105600D01*
X146030000Y-170180000D02*
X146035000Y-170175000D01*
X259230680Y-117010680D02*
X260335000Y-118115000D01*
X246199320Y-117010680D02*
X259230680Y-117010680D01*
X291465000Y-90805000D02*
X272415000Y-90805000D01*
X284212000Y-158967200D02*
X284189200Y-158967200D01*
X245095000Y-118115000D02*
X246199320Y-117010680D01*
X169534100Y-176530000D02*
X173985000Y-180980900D01*
X272288000Y-116840000D02*
X272127320Y-116679320D01*
X283057600Y-159105600D02*
X284073600Y-159105600D01*
X284073600Y-159105600D02*
X284212000Y-158967200D01*
X154940000Y-176530000D02*
X169534100Y-176530000D01*
X262133000Y-118115000D02*
X263568680Y-116679320D01*
X262133000Y-118115000D02*
X260335000Y-118115000D01*
X176525000Y-179700000D02*
X176525000Y-182880000D01*
X261564200Y-120655000D02*
X260335000Y-120655000D01*
X264363200Y-76301600D02*
X289814000Y-76301600D01*
X292542900Y-151321800D02*
X273047100Y-131826000D01*
X245242000Y-179700000D02*
X251968000Y-172974000D01*
X251968000Y-172974000D02*
X251968000Y-161290000D01*
X153655000Y-172715000D02*
X158745000Y-172715000D01*
X289814000Y-76301600D02*
X289915600Y-76200000D01*
X246370000Y-119380000D02*
X259060000Y-119380000D01*
X273047100Y-131826000D02*
X257810000Y-131826000D01*
X158750000Y-172720000D02*
X166370000Y-172720000D01*
X166370000Y-172720000D02*
X172085000Y-178435000D01*
X176525000Y-179700000D02*
X245242000Y-179700000D01*
X264566400Y-118364000D02*
X263855200Y-118364000D01*
X245095000Y-120655000D02*
X246370000Y-119380000D01*
X172085000Y-178435000D02*
X175260000Y-178435000D01*
X175260000Y-178435000D02*
X176525000Y-179700000D01*
X259060000Y-119380000D02*
X260335000Y-120655000D01*
X158745000Y-172715000D02*
X158750000Y-172720000D01*
X263855200Y-118364000D02*
X261564200Y-120655000D01*
X273728680Y-119550680D02*
X277963360Y-115316000D01*
X277963360Y-115316000D02*
X279400000Y-115316000D01*
X260335000Y-123195000D02*
X263979320Y-119550680D01*
X263979320Y-119550680D02*
X273728680Y-119550680D01*
X261610000Y-114300000D02*
X277876000Y-114300000D01*
X260335000Y-115575000D02*
X261610000Y-114300000D01*
X277876000Y-114300000D02*
X279400000Y-112776000D01*
X261610000Y-111760000D02*
X273812000Y-111760000D01*
X277876000Y-107696000D02*
X279400000Y-107696000D01*
X273812000Y-111760000D02*
X277876000Y-107696000D01*
X260335000Y-113035000D02*
X261610000Y-111760000D01*
X260335000Y-105415000D02*
X261439320Y-106519320D01*
X278036680Y-106519320D02*
X279400000Y-105156000D01*
X261439320Y-106519320D02*
X278036680Y-106519320D01*
X278379000Y-73406000D02*
X279400000Y-72385000D01*
X270510000Y-73406000D02*
X278379000Y-73406000D01*
X279400000Y-69845000D02*
X278300689Y-68745689D01*
X261454311Y-68745689D02*
X260350000Y-69850000D01*
X278300689Y-68745689D02*
X261454311Y-68745689D01*
X261454311Y-66205689D02*
X260350000Y-67310000D01*
X279400000Y-67305000D02*
X278300689Y-66205689D01*
X278300689Y-66205689D02*
X261454311Y-66205689D01*
X188411256Y-81280000D02*
X222250000Y-81280000D01*
X254508000Y-60198000D02*
X255016000Y-59690000D01*
X264414000Y-61214000D02*
X270510000Y-61214000D01*
X185871256Y-78740000D02*
X188411256Y-81280000D01*
X271526000Y-61214000D02*
X272796000Y-59944000D01*
X255016000Y-59690000D02*
X262890000Y-59690000D01*
X272796000Y-59944000D02*
X278638000Y-59944000D01*
X140550000Y-78740000D02*
X185871256Y-78740000D01*
X128560000Y-66750000D02*
X130556000Y-64754000D01*
X270510000Y-61214000D02*
X271526000Y-61214000D01*
X222250000Y-60198000D02*
X254508000Y-60198000D01*
X130556000Y-64754000D02*
X140573000Y-64754000D01*
X262890000Y-59690000D02*
X264414000Y-61214000D01*
X270510000Y-58166000D02*
X278379000Y-58166000D01*
X278379000Y-58166000D02*
X279400000Y-57145000D01*
X224543267Y-123195000D02*
X224487467Y-123139200D01*
X218059000Y-11430000D02*
X180325000Y-11430000D01*
X245095000Y-123195000D02*
X224543267Y-123195000D01*
X224487467Y-123139200D02*
X217881200Y-123139200D01*
X218071211Y-11442211D02*
X218059000Y-11430000D01*
X177785000Y-10327400D02*
X177785000Y-11430000D01*
X244419200Y-115575000D02*
X242849400Y-117144800D01*
X241935000Y-122555000D02*
X219024200Y-122555000D01*
X219024200Y-122555000D02*
X218821000Y-122351800D01*
X178358800Y-9753600D02*
X177785000Y-10327400D01*
X245095000Y-115575000D02*
X244419200Y-115575000D01*
X242849400Y-117144800D02*
X242849400Y-121640600D01*
X242849400Y-121640600D02*
X241935000Y-122555000D01*
X218821000Y-9753600D02*
X178358800Y-9753600D01*
X240563400Y-115747800D02*
X240563400Y-120599200D01*
X240563400Y-120599200D02*
X240436400Y-120726200D01*
X219456000Y-8636000D02*
X174117000Y-8636000D01*
X243276200Y-113035000D02*
X240563400Y-115747800D01*
X245095000Y-113035000D02*
X243276200Y-113035000D01*
X240436400Y-120726200D02*
X219532200Y-120726200D01*
X174117000Y-8636000D02*
X172705000Y-10048000D01*
X172705000Y-10048000D02*
X172705000Y-11430000D01*
X170165000Y-14086600D02*
X170165000Y-11430000D01*
X170129200Y-14122400D02*
X170165000Y-14086600D01*
X173228000Y-17221200D02*
X170129200Y-14122400D01*
X231444800Y-17221200D02*
X173228000Y-17221200D01*
X105410000Y-71120000D02*
X105415000Y-71115000D01*
X105415000Y-71115000D02*
X110490000Y-71115000D01*
X165085000Y-11430000D02*
X161021000Y-15494000D01*
X161021000Y-15494000D02*
X109524800Y-15494000D01*
X108559600Y-13919200D02*
X108407200Y-13766800D01*
X104084200Y-76195000D02*
X110490000Y-76195000D01*
X104038400Y-76149200D02*
X104084200Y-76195000D01*
X162545000Y-11430000D02*
X160055800Y-13919200D01*
X160055800Y-13919200D02*
X108559600Y-13919200D01*
X103027400Y-73655000D02*
X110490000Y-73655000D01*
X160005000Y-11430000D02*
X107391200Y-11430000D01*
X103022400Y-73660000D02*
X103027400Y-73655000D01*
X280162000Y-33020000D02*
X281305000Y-33020000D01*
X278130000Y-25908000D02*
X279146000Y-26924000D01*
X209550000Y-33655000D02*
X210185000Y-33020000D01*
X173990000Y-41468280D02*
X177606720Y-41468280D01*
X210185000Y-33020000D02*
X213360000Y-33020000D01*
X177606720Y-41468280D02*
X185420000Y-33655000D01*
X153655000Y-162555000D02*
X158745000Y-162555000D01*
X185420000Y-33655000D02*
X209550000Y-33655000D01*
X245110000Y-25908000D02*
X278130000Y-25908000D01*
X281305000Y-33020000D02*
X282575000Y-34290000D01*
X279146000Y-26924000D02*
X279146000Y-32004000D01*
X163195000Y-165735000D02*
X182880000Y-165735000D01*
X160020000Y-162560000D02*
X163195000Y-165735000D01*
X282575000Y-38864000D02*
X293275000Y-49564000D01*
X158745000Y-162555000D02*
X158750000Y-162560000D01*
X158750000Y-162560000D02*
X160020000Y-162560000D01*
X173990000Y-41467880D02*
X173990000Y-41468280D01*
X239522000Y-31496000D02*
X245110000Y-25908000D01*
X279146000Y-32004000D02*
X280162000Y-33020000D01*
X213360000Y-33020000D02*
X214884000Y-31496000D01*
X214884000Y-31496000D02*
X239522000Y-31496000D01*
X282575000Y-34290000D02*
X282575000Y-38864000D01*
X117983000Y-58420000D02*
X117978000Y-58415000D01*
X117978000Y-58415000D02*
X110490000Y-58415000D01*
X78740000Y-109855000D02*
X77450000Y-111145000D01*
X84328000Y-103251000D02*
X84328000Y-106680000D01*
X74549000Y-103251000D02*
X84328000Y-103251000D01*
X71265680Y-88759320D02*
X71265680Y-99967680D01*
X72390000Y-87635000D02*
X71265680Y-88759320D01*
X77450000Y-111145000D02*
X77450000Y-113035000D01*
X81153000Y-109855000D02*
X78740000Y-109855000D01*
X71265680Y-99967680D02*
X74549000Y-103251000D01*
X84328000Y-106680000D02*
X81153000Y-109855000D01*
X52065000Y-21595000D02*
X52065000Y-20325000D01*
X93345000Y-18415000D02*
X94996000Y-20066000D01*
X52065000Y-20325000D02*
X53975000Y-18415000D01*
X53975000Y-18415000D02*
X93345000Y-18415000D01*
X94996000Y-20066000D02*
X94996000Y-21590000D01*
X49525000Y-36835000D02*
X49525000Y-34930000D01*
X97155000Y-28575000D02*
X97795000Y-27935000D01*
X49525000Y-34930000D02*
X55880000Y-28575000D01*
X55880000Y-28575000D02*
X97155000Y-28575000D01*
X97795000Y-27935000D02*
X97795000Y-25415000D01*
X100335000Y-25415000D02*
X100335000Y-22093000D01*
X100335000Y-22093000D02*
X100838000Y-21590000D01*
X99695000Y-23495000D02*
X100335000Y-22855000D01*
X100335000Y-22855000D02*
X100335000Y-21590000D01*
X57080200Y-26035000D02*
X90170000Y-26035000D01*
X46985000Y-36130200D02*
X57080200Y-26035000D01*
X46985000Y-36835000D02*
X46985000Y-36130200D01*
X90170000Y-26035000D02*
X92710000Y-23495000D01*
X92710000Y-23495000D02*
X99695000Y-23495000D01*
X103886000Y-24404000D02*
X102875000Y-25415000D01*
X103886000Y-20066000D02*
X103886000Y-21590000D01*
X103886000Y-21590000D02*
X103886000Y-24404000D01*
X53975000Y-17145000D02*
X100965000Y-17145000D01*
X100965000Y-17145000D02*
X103886000Y-20066000D01*
X49525000Y-21595000D02*
X53975000Y-17145000D01*
X229850000Y-107950000D02*
X229855000Y-107945000D01*
X224790000Y-107950000D02*
X229850000Y-107950000D01*
X22850000Y-62245000D02*
X25390000Y-62245000D01*
X20315000Y-77470000D02*
X22855000Y-77470000D01*
X27930000Y-62245000D02*
X30470000Y-62245000D01*
X49261000Y-158765000D02*
X49276000Y-158750000D01*
X40645000Y-158765000D02*
X49261000Y-158765000D01*
X82530000Y-104882000D02*
X82510000Y-104902000D01*
X41402000Y-104902000D02*
X38095000Y-101595000D01*
X37934320Y-73494320D02*
X43180000Y-78740000D01*
X33010000Y-62245000D02*
X37934320Y-67169320D01*
X37934320Y-67169320D02*
X37934320Y-73494320D01*
X33015000Y-99060000D02*
X38095000Y-99060000D01*
X82510000Y-104902000D02*
X41402000Y-104902000D01*
X38095000Y-101595000D02*
X38095000Y-99060000D01*
X107950000Y-149860000D02*
X106845689Y-150964311D01*
X106845689Y-150964311D02*
X84682433Y-150964311D01*
X79350000Y-153035000D02*
X77460000Y-151145000D01*
X84682433Y-150964311D02*
X82611744Y-153035000D01*
X82611744Y-153035000D02*
X79350000Y-153035000D01*
X74925000Y-161290000D02*
X78735000Y-161290000D01*
X44704000Y-112522000D02*
X32766000Y-112522000D01*
X31242000Y-110998000D02*
X31242000Y-107442000D01*
X62992000Y-130810000D02*
X44704000Y-112522000D01*
X85085000Y-157480000D02*
X88895000Y-153670000D01*
X74925000Y-157480000D02*
X85085000Y-157480000D01*
X32766000Y-112522000D02*
X31242000Y-110998000D01*
X72385000Y-130810000D02*
X62992000Y-130810000D01*
X69840000Y-152395000D02*
X74925000Y-157480000D01*
X69840000Y-151145000D02*
X69840000Y-152395000D01*
X199390000Y-170195000D02*
X204455000Y-170195000D01*
X125715000Y-126995000D02*
X128021000Y-126995000D01*
X128879600Y-126136400D02*
X139446000Y-126136400D01*
X146035000Y-124455000D02*
X140955000Y-124455000D01*
X139446000Y-126136400D02*
X141020800Y-124561600D01*
X128021000Y-126995000D02*
X128879600Y-126136400D01*
X140955000Y-121915000D02*
X146035000Y-121915000D01*
X140360400Y-132486400D02*
X141020800Y-131826000D01*
X141020800Y-131826000D02*
X141020800Y-130860800D01*
X128320800Y-132486400D02*
X140360400Y-132486400D01*
X122834400Y-127000000D02*
X128320800Y-132486400D01*
X141020800Y-130860800D02*
X144709200Y-130860800D01*
X144709200Y-130860800D02*
X146035000Y-129535000D01*
X141020800Y-127711200D02*
X145318800Y-127711200D01*
X145318800Y-127711200D02*
X146035000Y-126995000D01*
X170340689Y-125890689D02*
X162710689Y-125890689D01*
X173975000Y-126995000D02*
X171445000Y-126995000D01*
X171445000Y-126995000D02*
X170340689Y-125890689D01*
X153655000Y-121915000D02*
X158043800Y-121915000D01*
X162710689Y-125271089D02*
X162710689Y-125890689D01*
X158043800Y-121915000D02*
X158699200Y-121259600D01*
X158699200Y-121259600D02*
X162710689Y-125271089D01*
X158735000Y-124455000D02*
X153655000Y-124455000D01*
X163372800Y-129489200D02*
X161747200Y-127863600D01*
X157932200Y-126995000D02*
X158800800Y-127863600D01*
X176885600Y-126995000D02*
X174391400Y-129489200D01*
X161747200Y-127863600D02*
X158800800Y-127863600D01*
X174391400Y-129489200D02*
X163372800Y-129489200D01*
X153655000Y-126995000D02*
X157932200Y-126995000D01*
X153655000Y-129535000D02*
X157271800Y-129535000D01*
X157271800Y-129535000D02*
X158800800Y-131064000D01*
X140955000Y-99060000D02*
X146030000Y-99060000D01*
X139519311Y-100495689D02*
X126819311Y-100495689D01*
X126819311Y-100495689D02*
X125715000Y-101600000D01*
X146030000Y-99060000D02*
X146035000Y-99055000D01*
X140955000Y-99060000D02*
X139519311Y-100495689D01*
X140970000Y-95961200D02*
X145481200Y-95961200D01*
X145481200Y-95961200D02*
X146035000Y-96515000D01*
X144963200Y-105206800D02*
X146035000Y-104135000D01*
X126644400Y-108153200D02*
X138074400Y-108153200D01*
X123175000Y-101600000D02*
X123175000Y-104683800D01*
X138074400Y-108153200D02*
X141020800Y-105206800D01*
X123175000Y-104683800D02*
X126644400Y-108153200D01*
X141020800Y-105206800D02*
X144963200Y-105206800D01*
X146035000Y-101595000D02*
X140457000Y-101595000D01*
X160005000Y-97790000D02*
X158735000Y-96520000D01*
X170165000Y-97790000D02*
X160005000Y-97790000D01*
X173975000Y-101600000D02*
X170165000Y-97790000D01*
X158735000Y-96520000D02*
X153660000Y-96520000D01*
X153660000Y-96520000D02*
X153655000Y-96515000D01*
X158730000Y-99055000D02*
X158735000Y-99060000D01*
X153655000Y-99055000D02*
X158730000Y-99055000D01*
X158735000Y-101600000D02*
X159839311Y-102704311D01*
X176515000Y-103393000D02*
X176515000Y-101600000D01*
X159854311Y-102704311D02*
X161086800Y-103936800D01*
X175971200Y-103936800D02*
X176515000Y-103393000D01*
X161086800Y-103936800D02*
X175971200Y-103936800D01*
X153660000Y-101600000D02*
X158735000Y-101600000D01*
X153655000Y-101595000D02*
X153660000Y-101600000D01*
X159839311Y-102704311D02*
X159854311Y-102704311D01*
X153655000Y-104135000D02*
X157475000Y-104135000D01*
X157475000Y-104135000D02*
X158699200Y-105359200D01*
X146035000Y-116835000D02*
X125715000Y-116835000D01*
X124460000Y-55880000D02*
X124455000Y-55875000D01*
X124455000Y-55875000D02*
X110490000Y-55875000D01*
X128011000Y-53335000D02*
X110490000Y-53335000D01*
X125379400Y-114295000D02*
X122834400Y-116840000D01*
X146035000Y-114295000D02*
X125379400Y-114295000D01*
X128016000Y-53340000D02*
X128011000Y-53335000D01*
X173975000Y-116835000D02*
X153655000Y-116835000D01*
X110749000Y-51054000D02*
X110490000Y-50795000D01*
X151252000Y-116835000D02*
X149860000Y-115443000D01*
X149860000Y-115443000D02*
X127762000Y-115443000D01*
X126492000Y-51054000D02*
X110749000Y-51054000D01*
X127762000Y-115443000D02*
X127635000Y-115316000D01*
X153655000Y-116835000D02*
X151252000Y-116835000D01*
X153655000Y-114295000D02*
X155090689Y-115730689D01*
X130873500Y-49085500D02*
X130873500Y-49212500D01*
X129159000Y-47625000D02*
X129413000Y-47625000D01*
X175781289Y-115730689D02*
X176885600Y-116835000D01*
X98420000Y-47625000D02*
X129159000Y-47625000D01*
X129413000Y-47625000D02*
X130873500Y-49085500D01*
X95250000Y-50795000D02*
X98420000Y-47625000D01*
X155090689Y-115730689D02*
X175781289Y-115730689D01*
X134874000Y-53213000D02*
X130873500Y-49212500D01*
X149225000Y-53213000D02*
X134874000Y-53213000D01*
X98894311Y-49690689D02*
X95250000Y-53335000D01*
X117335789Y-50177211D02*
X116849267Y-49690689D01*
X116849267Y-49690689D02*
X98894311Y-49690689D01*
X146035000Y-91435000D02*
X125720000Y-91435000D01*
X125720000Y-88895000D02*
X123175000Y-91440000D01*
X116459000Y-52197000D02*
X98928000Y-52197000D01*
X98928000Y-52197000D02*
X95250000Y-55875000D01*
X146035000Y-88895000D02*
X125720000Y-88895000D01*
X160528000Y-60198000D02*
X135636000Y-60198000D01*
X173975000Y-91440000D02*
X153660000Y-91440000D01*
X132748689Y-57310689D02*
X130970689Y-57310689D01*
X135636000Y-60198000D02*
X132748689Y-57310689D01*
X153660000Y-91440000D02*
X153655000Y-91435000D01*
X96354311Y-57310689D02*
X95250000Y-58415000D01*
X130970689Y-57310689D02*
X96354311Y-57310689D01*
X150010689Y-85250689D02*
X105316689Y-85250689D01*
X115062000Y-39878000D02*
X111506000Y-43434000D01*
X153655000Y-88895000D02*
X150010689Y-85250689D01*
X111506000Y-43434000D02*
X93980000Y-43434000D01*
X121158000Y-39878000D02*
X115062000Y-39878000D01*
X91948000Y-57653000D02*
X95250000Y-60955000D01*
X173970000Y-88895000D02*
X153655000Y-88895000D01*
X176515000Y-91440000D02*
X173970000Y-88895000D01*
X93980000Y-43434000D02*
X91948000Y-45466000D01*
X91948000Y-45466000D02*
X91948000Y-57653000D01*
X68750680Y-46144680D02*
X68750680Y-50462680D01*
X66294000Y-44958000D02*
X67564000Y-44958000D01*
X64775000Y-46970000D02*
X64775000Y-46477000D01*
X67564000Y-44958000D02*
X68750680Y-46144680D01*
X99831000Y-113284000D02*
X113030000Y-113284000D01*
X64775000Y-46477000D02*
X66294000Y-44958000D01*
X68750680Y-50462680D02*
X78910680Y-60622680D01*
X102768400Y-88900000D02*
X102773400Y-88895000D01*
X99831000Y-113284000D02*
X96275000Y-116840000D01*
X62210000Y-115042000D02*
X62210000Y-113035000D01*
X64008000Y-116840000D02*
X62210000Y-115042000D01*
X78910680Y-67734680D02*
X82550000Y-71374000D01*
X102773400Y-88895000D02*
X110490000Y-88895000D01*
X96275000Y-116840000D02*
X64008000Y-116840000D01*
X82550000Y-71374000D02*
X82550000Y-72395000D01*
X78910680Y-60622680D02*
X78910680Y-67734680D01*
X80010000Y-72395000D02*
X80010000Y-71120000D01*
X52075000Y-49281000D02*
X53086000Y-50292000D01*
X53086000Y-50292000D02*
X54483000Y-50292000D01*
X52075000Y-46970000D02*
X52075000Y-49281000D01*
X76200000Y-67310000D02*
X76200000Y-60198000D01*
X75184000Y-59182000D02*
X54483000Y-59182000D01*
X76200000Y-60198000D02*
X75184000Y-59182000D01*
X80010000Y-71120000D02*
X76200000Y-67310000D01*
X182387000Y-74945000D02*
X182626000Y-75184000D01*
X153655000Y-74945000D02*
X182387000Y-74945000D01*
X154813000Y-76327000D02*
X153655000Y-77485000D01*
X187960000Y-76327000D02*
X154813000Y-76327000D01*
X187960000Y-86487000D02*
X181498000Y-80025000D01*
X181498000Y-80025000D02*
X153655000Y-80025000D01*
X165760400Y-74320400D02*
X174452960Y-74320400D01*
X149679320Y-73840680D02*
X165280680Y-73840680D01*
X165280680Y-73840680D02*
X165760400Y-74320400D01*
X174452960Y-74320400D02*
X174932680Y-73840680D01*
X146035000Y-77485000D02*
X149679320Y-73840680D01*
X46497000Y-163845000D02*
X49276000Y-166624000D01*
X43185000Y-163845000D02*
X46497000Y-163845000D01*
X90429000Y-73655000D02*
X95250000Y-73655000D01*
X50800000Y-82296000D02*
X75184000Y-82296000D01*
X49530000Y-83566000D02*
X50800000Y-82296000D01*
X82296000Y-75184000D02*
X88900000Y-75184000D01*
X88900000Y-75184000D02*
X90429000Y-73655000D01*
X75184000Y-82296000D02*
X82296000Y-75184000D01*
X49530000Y-87635000D02*
X49530000Y-83566000D01*
X76200000Y-83312000D02*
X82296000Y-77216000D01*
X54610000Y-84836000D02*
X56134000Y-83312000D01*
X56134000Y-83312000D02*
X76200000Y-83312000D01*
X84665311Y-77299311D02*
X95928689Y-77299311D01*
X82296000Y-77216000D02*
X84582000Y-77216000D01*
X96354311Y-76873689D02*
X96354311Y-72219311D01*
X84582000Y-77216000D02*
X84665311Y-77299311D01*
X96354311Y-72219311D02*
X95250000Y-71115000D01*
X95928689Y-77299311D02*
X96354311Y-76873689D01*
X54610000Y-87635000D02*
X54610000Y-84836000D01*
X21745680Y-55482424D02*
X21745680Y-53692320D01*
X21745680Y-53692320D02*
X22317320Y-53120680D01*
X69264640Y-66294000D02*
X44704000Y-66294000D01*
X73494320Y-70523680D02*
X69264640Y-66294000D01*
X22317320Y-53120680D02*
X23885680Y-53120680D01*
X25953256Y-59690000D02*
X21745680Y-55482424D01*
X44704000Y-66294000D02*
X38100000Y-59690000D01*
X38100000Y-59690000D02*
X25953256Y-59690000D01*
X23885680Y-53120680D02*
X25390000Y-54625000D01*
X84752689Y-79839311D02*
X95928689Y-79839311D01*
X57150000Y-86106000D02*
X58420000Y-84836000D01*
X98298000Y-77470000D02*
X98298000Y-71623000D01*
X58420000Y-84836000D02*
X79756000Y-84836000D01*
X79756000Y-84836000D02*
X84752689Y-79839311D01*
X98298000Y-71623000D02*
X95250000Y-68575000D01*
X57150000Y-87635000D02*
X57150000Y-86106000D01*
X95928689Y-79839311D02*
X98298000Y-77470000D01*
X65532000Y-85598000D02*
X83312000Y-85598000D01*
X99568000Y-70353000D02*
X95250000Y-66035000D01*
X83312000Y-85598000D02*
X86360000Y-82550000D01*
X86360000Y-82550000D02*
X99568000Y-82550000D01*
X99568000Y-82550000D02*
X99568000Y-70353000D01*
X64770000Y-86360000D02*
X65532000Y-85598000D01*
X64770000Y-87635000D02*
X64770000Y-86360000D01*
X89916000Y-85090000D02*
X100584000Y-85090000D01*
X64008000Y-76454000D02*
X66040000Y-78486000D01*
X100584000Y-85090000D02*
X106939000Y-78735000D01*
X60706000Y-76454000D02*
X59690000Y-75438000D01*
X74930000Y-90932000D02*
X74910000Y-90952000D01*
X74910000Y-90952000D02*
X74910000Y-97795000D01*
X84074000Y-90932000D02*
X89916000Y-85090000D01*
X66040000Y-78486000D02*
X75946000Y-78486000D01*
X59690000Y-75438000D02*
X59690000Y-72395000D01*
X64008000Y-76454000D02*
X60706000Y-76454000D01*
X106939000Y-78735000D02*
X110490000Y-78735000D01*
X74930000Y-90932000D02*
X84074000Y-90932000D01*
X73406000Y-101346000D02*
X116586000Y-101346000D01*
X72370000Y-97795000D02*
X72370000Y-100310000D01*
X72370000Y-100310000D02*
X73406000Y-101346000D01*
X36322000Y-60452000D02*
X32258000Y-60452000D01*
X32258000Y-60452000D02*
X31750000Y-60960000D01*
X31750000Y-60960000D02*
X31750000Y-78232000D01*
X28702000Y-81280000D02*
X28702000Y-88646000D01*
X35814000Y-95758000D02*
X39624000Y-95758000D01*
X31750000Y-78232000D02*
X28702000Y-81280000D01*
X43180000Y-99314000D02*
X43180000Y-101936733D01*
X61070689Y-104014311D02*
X67290000Y-97795000D01*
X43180000Y-101936733D02*
X45257578Y-104014311D01*
X28702000Y-88646000D02*
X35814000Y-95758000D01*
X39624000Y-95758000D02*
X43180000Y-99314000D01*
X45257578Y-104014311D02*
X61070689Y-104014311D01*
X67300000Y-176545000D02*
X69840000Y-176545000D01*
X74935000Y-62210000D02*
X74935000Y-70106896D01*
X76365680Y-71537576D02*
X76365680Y-73266880D01*
X57130000Y-97795000D02*
X57130000Y-93746000D01*
X57130000Y-93746000D02*
X59690000Y-91186000D01*
X77419200Y-74320400D02*
X85191600Y-74320400D01*
X65532000Y-91186000D02*
X67310000Y-89408000D01*
X67310000Y-89408000D02*
X67310000Y-87635000D01*
X59690000Y-91186000D02*
X65532000Y-91186000D01*
X76365680Y-73266880D02*
X77419200Y-74320400D01*
X74935000Y-70106896D02*
X76365680Y-71537576D01*
X54590000Y-97795000D02*
X54590000Y-99040000D01*
X67818000Y-92456000D02*
X69850000Y-90424000D01*
X69850000Y-90424000D02*
X69850000Y-87635000D01*
X59944000Y-92456000D02*
X67818000Y-92456000D01*
X57404000Y-100076000D02*
X58420000Y-99060000D01*
X55626000Y-100076000D02*
X57404000Y-100076000D01*
X58420000Y-93980000D02*
X59944000Y-92456000D01*
X58420000Y-99060000D02*
X58420000Y-93980000D01*
X54590000Y-99040000D02*
X55626000Y-100076000D01*
X79248000Y-84074000D02*
X62230000Y-84074000D01*
X61722000Y-90424000D02*
X62230000Y-89916000D01*
X62230000Y-89916000D02*
X62230000Y-87635000D01*
X55880000Y-90424000D02*
X61722000Y-90424000D01*
X52050000Y-97795000D02*
X52050000Y-94254000D01*
X95250000Y-78735000D02*
X84587000Y-78735000D01*
X52050000Y-94254000D02*
X55880000Y-90424000D01*
X84587000Y-78735000D02*
X79248000Y-84074000D01*
X71115000Y-76200000D02*
X78994000Y-76200000D01*
X84950800Y-110614200D02*
X82530000Y-113035000D01*
X67310000Y-72395000D02*
X71115000Y-76200000D01*
X84950800Y-102235000D02*
X84950800Y-110614200D01*
X52070000Y-87635000D02*
X52070000Y-84582000D01*
X52070000Y-84582000D02*
X53848000Y-82804000D01*
X53848000Y-82804000D02*
X75692000Y-82804000D01*
X82301000Y-76195000D02*
X95250000Y-76195000D01*
X75692000Y-82804000D02*
X82301000Y-76195000D01*
X42164000Y-44958000D02*
X60223000Y-44958000D01*
X60223000Y-44958000D02*
X62235000Y-46970000D01*
X43688000Y-57912000D02*
X45974000Y-60198000D01*
X22850000Y-54625000D02*
X26137000Y-57912000D01*
X45974000Y-60198000D02*
X62763000Y-60198000D01*
X26137000Y-57912000D02*
X43688000Y-57912000D01*
X62763000Y-60198000D02*
X64775000Y-62210000D01*
X56388000Y-52070000D02*
X57155000Y-51303000D01*
X57155000Y-51303000D02*
X57155000Y-46970000D01*
X52324000Y-52070000D02*
X56388000Y-52070000D01*
X52070000Y-52324000D02*
X52324000Y-52070000D01*
X74536789Y-81673211D02*
X64401211Y-81673211D01*
X74536789Y-81673211D02*
X78232000Y-77978000D01*
X64401211Y-81673211D02*
X63500000Y-80772000D01*
X30480000Y-80772000D02*
X63500000Y-80772000D01*
X55118000Y-54864000D02*
X59695000Y-50287000D01*
X59695000Y-50287000D02*
X59695000Y-46970000D01*
X51422800Y-54864000D02*
X55118000Y-54864000D01*
X47117000Y-56515000D02*
X47879000Y-57277000D01*
X58547000Y-57277000D02*
X47879000Y-57277000D01*
X67315000Y-48509000D02*
X58547000Y-57277000D01*
X67315000Y-46970000D02*
X67315000Y-48509000D01*
X21745680Y-41067576D02*
X38048256Y-24765000D01*
X38048256Y-24765000D02*
X68580000Y-24765000D01*
X21745680Y-45900680D02*
X21745680Y-41067576D01*
X25390000Y-49545000D02*
X21745680Y-45900680D01*
X68580000Y-24765000D02*
X69845000Y-23500000D01*
X69845000Y-23500000D02*
X69845000Y-21595000D01*
X69855000Y-45217000D02*
X69855000Y-46970000D01*
X36322000Y-44196000D02*
X68834000Y-44196000D01*
X68834000Y-44196000D02*
X69855000Y-45217000D01*
X33010000Y-47508000D02*
X36322000Y-44196000D01*
X33010000Y-49545000D02*
X33010000Y-47508000D01*
X252715000Y-125735000D02*
X251610680Y-126839320D01*
X252715000Y-125735000D02*
X253819320Y-126839320D01*
X253819320Y-126839320D02*
X266850680Y-126839320D01*
X266850680Y-126839320D02*
X267955000Y-125735000D01*
X237475000Y-126832600D02*
X241670600Y-126832600D01*
X251610680Y-126839320D02*
X241393320Y-126839320D01*
X229855000Y-115565000D02*
X237475000Y-115565000D01*
X72380000Y-176545000D02*
X74920000Y-176545000D01*
X162814000Y-137160000D02*
X160274000Y-137160000D01*
X235970680Y-139695320D02*
X165349320Y-139695320D01*
X165349320Y-139695320D02*
X162814000Y-137160000D01*
X106172000Y-86614000D02*
X106431000Y-86355000D01*
X106431000Y-86355000D02*
X110490000Y-86355000D01*
X153655000Y-170175000D02*
X150363000Y-170175000D01*
X115311000Y-99055000D02*
X110490000Y-99055000D01*
X150363000Y-170175000D02*
X149258680Y-169070680D01*
X149258680Y-169070680D02*
X128938680Y-169070680D01*
X115316000Y-99060000D02*
X115311000Y-99055000D01*
X123449000Y-167635000D02*
X123444000Y-167640000D01*
X146035000Y-167635000D02*
X123947000Y-167635000D01*
X123947000Y-167635000D02*
X123703000Y-167635000D01*
X123703000Y-167635000D02*
X123449000Y-167635000D01*
X146035000Y-162555000D02*
X127005000Y-162555000D01*
X114295000Y-93975000D02*
X110490000Y-93975000D01*
X114300000Y-93980000D02*
X114295000Y-93975000D01*
X136042400Y-161645600D02*
X140213000Y-157475000D01*
X140213000Y-157475000D02*
X146035000Y-157475000D01*
X129143600Y-161645600D02*
X136042400Y-161645600D01*
X124973000Y-157475000D02*
X129143600Y-161645600D01*
X162052000Y-160020000D02*
X162047000Y-160015000D01*
X162047000Y-160015000D02*
X153655000Y-160015000D01*
X161798000Y-138684000D02*
X162052000Y-138430000D01*
X147828000Y-138684000D02*
X161798000Y-138684000D01*
X122428000Y-145542000D02*
X192502000Y-145542000D01*
X192502000Y-145542000D02*
X204455000Y-157495000D01*
X191232000Y-146812000D02*
X204455000Y-160035000D01*
X122428000Y-146812000D02*
X191232000Y-146812000D01*
X122428000Y-148082000D02*
X189962000Y-148082000D01*
X189962000Y-148082000D02*
X204455000Y-162575000D01*
X122174000Y-92837000D02*
X142875000Y-92837000D01*
X95250000Y-91435000D02*
X96515000Y-90170000D01*
X142621000Y-45974000D02*
X144130000Y-44465000D01*
X96515000Y-90170000D02*
X119507000Y-90170000D01*
X119507000Y-90170000D02*
X122174000Y-92837000D01*
X144130000Y-44465000D02*
X146035000Y-44465000D01*
X142875000Y-92837000D02*
X143002000Y-92710000D01*
X96515000Y-92710000D02*
X120904000Y-92710000D01*
X146035000Y-41925000D02*
X143749000Y-41925000D01*
X138445000Y-67325000D02*
X146035000Y-67325000D01*
X95250000Y-93975000D02*
X96515000Y-92710000D01*
X121920000Y-93726000D02*
X138303000Y-93726000D01*
X120904000Y-92710000D02*
X121920000Y-93726000D01*
X138303000Y-67183000D02*
X138445000Y-67325000D01*
X114401600Y-95250000D02*
X96515000Y-95250000D01*
X135001000Y-65786000D02*
X145034000Y-65786000D01*
X96515000Y-95250000D02*
X95250000Y-96515000D01*
X115048800Y-94602800D02*
X114401600Y-95250000D01*
X135001000Y-94602800D02*
X115048800Y-94602800D01*
X145034000Y-65786000D02*
X146035000Y-64785000D01*
X146035000Y-62245000D02*
X142255000Y-62245000D01*
X95250000Y-99055000D02*
X96354311Y-97950689D01*
X96354311Y-97950689D02*
X142079311Y-97950689D01*
X142079311Y-97950689D02*
X142240000Y-97790000D01*
X223154000Y-44465000D02*
X223266000Y-44577000D01*
X229855000Y-105405000D02*
X230959320Y-104300680D01*
X153655000Y-44465000D02*
X223154000Y-44465000D01*
X258909320Y-104300680D02*
X260335000Y-102875000D01*
X230959320Y-104300680D02*
X258909320Y-104300680D01*
X167020000Y-41925000D02*
X168275000Y-43180000D01*
X232664000Y-101092000D02*
X243312000Y-101092000D01*
X186055000Y-41910000D02*
X224506000Y-41910000D01*
X153655000Y-41925000D02*
X167020000Y-41925000D01*
X229855000Y-102865000D02*
X230891000Y-102865000D01*
X168275000Y-43180000D02*
X184785000Y-43180000D01*
X230891000Y-102865000D02*
X232664000Y-101092000D01*
X184785000Y-43180000D02*
X186055000Y-41910000D01*
X224506000Y-41910000D02*
X224521000Y-41925000D01*
X243312000Y-101092000D02*
X245095000Y-102875000D01*
X231140000Y-162560000D02*
X229870000Y-162560000D01*
X228600000Y-163830000D02*
X218440000Y-163830000D01*
X229870000Y-162560000D02*
X228600000Y-163830000D01*
X224211744Y-171450000D02*
X228021744Y-167640000D01*
X219075000Y-171450000D02*
X224211744Y-171450000D01*
X228021744Y-167640000D02*
X231140000Y-167640000D01*
X212075000Y-172735000D02*
X217790000Y-172735000D01*
X217790000Y-172735000D02*
X219075000Y-171450000D01*
X210820000Y-173990000D02*
X229870000Y-173990000D01*
X210170000Y-170195000D02*
X209550000Y-170815000D01*
X229870000Y-173990000D02*
X231140000Y-172720000D01*
X209550000Y-172720000D02*
X210820000Y-173990000D01*
X209550000Y-170815000D02*
X209550000Y-172720000D01*
X212075000Y-170195000D02*
X210170000Y-170195000D01*
X212075000Y-167655000D02*
X220995000Y-167655000D01*
X220995000Y-167655000D02*
X223520000Y-170180000D01*
X212075000Y-165115000D02*
X223505000Y-165115000D01*
X223505000Y-165115000D02*
X223520000Y-165100000D01*
X212075000Y-160035000D02*
X223505000Y-160035000D01*
X223505000Y-160035000D02*
X223520000Y-160020000D01*
X25963800Y-174599600D02*
X26014600Y-174650400D01*
X22860000Y-174599600D02*
X25963800Y-174599600D01*
X15240000Y-171856400D02*
X18084800Y-169011600D01*
X15240000Y-174599600D02*
X15240000Y-171856400D01*
X22860000Y-179425600D02*
X26065400Y-179425600D01*
X13106400Y-184302400D02*
X13106400Y-181559200D01*
X13106400Y-181559200D02*
X15240000Y-179425600D01*
X26426000Y-182168800D02*
X32004000Y-182168800D01*
X26116200Y-184353200D02*
X26116200Y-182478600D01*
X35255200Y-185420000D02*
X40386000Y-185420000D01*
X26116200Y-182478600D02*
X26426000Y-182168800D01*
X32004000Y-182168800D02*
X35255200Y-185420000D01*
G04 #@! TA.AperFunction,Conductor*
G36*
X22048574Y-110560802D02*
G01*
X22095067Y-110614458D01*
X22105171Y-110684732D01*
X22077035Y-110747719D01*
X19100800Y-114300000D01*
X19100880Y-114312568D01*
X19252846Y-138221929D01*
X19233278Y-138290176D01*
X19212279Y-138315346D01*
X13396811Y-143679614D01*
X13333177Y-143711098D01*
X13310865Y-143712997D01*
X13012807Y-143711775D01*
X1090492Y-143662913D01*
X1022453Y-143642632D01*
X976181Y-143588786D01*
X965008Y-143537107D01*
X942807Y-129061878D01*
X5888490Y-129061878D01*
X5927814Y-129373161D01*
X5928800Y-129377000D01*
X6004855Y-129673218D01*
X6004858Y-129673226D01*
X6005842Y-129677060D01*
X6121344Y-129968784D01*
X6272497Y-130243731D01*
X6456919Y-130497566D01*
X6671700Y-130726284D01*
X6913454Y-130926280D01*
X7178367Y-131094400D01*
X7181946Y-131096084D01*
X7181953Y-131096088D01*
X7458673Y-131226302D01*
X7458677Y-131226304D01*
X7462263Y-131227991D01*
X7760663Y-131324947D01*
X8068862Y-131383739D01*
X8162386Y-131389623D01*
X8301645Y-131398385D01*
X8301661Y-131398386D01*
X8303640Y-131398510D01*
X8460360Y-131398510D01*
X8462339Y-131398386D01*
X8462355Y-131398385D01*
X8601614Y-131389623D01*
X8695138Y-131383739D01*
X9003337Y-131324947D01*
X9301737Y-131227991D01*
X9305323Y-131226304D01*
X9305327Y-131226302D01*
X9582047Y-131096088D01*
X9582054Y-131096084D01*
X9585633Y-131094400D01*
X9850546Y-130926280D01*
X10092300Y-130726284D01*
X10307081Y-130497566D01*
X10491503Y-130243731D01*
X10642656Y-129968784D01*
X10758158Y-129677060D01*
X10759142Y-129673226D01*
X10759145Y-129673218D01*
X10835200Y-129377000D01*
X10836186Y-129373161D01*
X10875510Y-129061878D01*
X10875510Y-128748122D01*
X10836186Y-128436839D01*
X10807397Y-128324713D01*
X10759145Y-128136782D01*
X10759142Y-128136774D01*
X10758158Y-128132940D01*
X10642656Y-127841216D01*
X10491503Y-127566269D01*
X10307081Y-127312434D01*
X10092300Y-127083716D01*
X9850546Y-126883720D01*
X9585633Y-126715600D01*
X9582054Y-126713916D01*
X9582047Y-126713912D01*
X9305327Y-126583698D01*
X9305323Y-126583696D01*
X9301737Y-126582009D01*
X9003337Y-126485053D01*
X8695138Y-126426261D01*
X8601614Y-126420377D01*
X8462355Y-126411615D01*
X8462339Y-126411614D01*
X8460360Y-126411490D01*
X8303640Y-126411490D01*
X8301661Y-126411614D01*
X8301645Y-126411615D01*
X8162386Y-126420377D01*
X8068862Y-126426261D01*
X7760663Y-126485053D01*
X7462263Y-126582009D01*
X7458677Y-126583696D01*
X7458673Y-126583698D01*
X7181953Y-126713912D01*
X7181946Y-126713916D01*
X7178367Y-126715600D01*
X6913454Y-126883720D01*
X6671700Y-127083716D01*
X6456919Y-127312434D01*
X6272497Y-127566269D01*
X6121344Y-127841216D01*
X6005842Y-128132940D01*
X6004858Y-128136774D01*
X6004855Y-128136782D01*
X5956603Y-128324713D01*
X5927814Y-128436839D01*
X5888490Y-128748122D01*
X5888490Y-129061878D01*
X942807Y-129061878D01*
X914594Y-110666993D01*
X934492Y-110598842D01*
X988076Y-110552267D01*
X1040594Y-110540800D01*
X21980453Y-110540800D01*
X22048574Y-110560802D01*
G37*
G04 #@! TD.AperFunction*
G04 #@! TA.AperFunction,Conductor*
G36*
X300932342Y-2915651D02*
G01*
X300978880Y-2969268D01*
X300990311Y-3021394D01*
X301016811Y-13754217D01*
X301050112Y-27241753D01*
X301030278Y-27309923D01*
X300976737Y-27356548D01*
X300923718Y-27368063D01*
X285020208Y-27318052D01*
X284952152Y-27297836D01*
X284905828Y-27244035D01*
X284894614Y-27193484D01*
X284717303Y-11586878D01*
X292146490Y-11586878D01*
X292185814Y-11898161D01*
X292186800Y-11902000D01*
X292262855Y-12198218D01*
X292262858Y-12198226D01*
X292263842Y-12202060D01*
X292379344Y-12493784D01*
X292381246Y-12497243D01*
X292381247Y-12497246D01*
X292527549Y-12763368D01*
X292530497Y-12768731D01*
X292714919Y-13022566D01*
X292929700Y-13251284D01*
X293171454Y-13451280D01*
X293436367Y-13619400D01*
X293439946Y-13621084D01*
X293439953Y-13621088D01*
X293716673Y-13751302D01*
X293716677Y-13751304D01*
X293720263Y-13752991D01*
X294018663Y-13849947D01*
X294326862Y-13908739D01*
X294420386Y-13914623D01*
X294559645Y-13923385D01*
X294559661Y-13923386D01*
X294561640Y-13923510D01*
X294718360Y-13923510D01*
X294720339Y-13923386D01*
X294720355Y-13923385D01*
X294859614Y-13914623D01*
X294953138Y-13908739D01*
X295261337Y-13849947D01*
X295559737Y-13752991D01*
X295563323Y-13751304D01*
X295563327Y-13751302D01*
X295840047Y-13621088D01*
X295840054Y-13621084D01*
X295843633Y-13619400D01*
X296108546Y-13451280D01*
X296350300Y-13251284D01*
X296565081Y-13022566D01*
X296749503Y-12768731D01*
X296752452Y-12763368D01*
X296898753Y-12497246D01*
X296898754Y-12497243D01*
X296900656Y-12493784D01*
X297016158Y-12202060D01*
X297017142Y-12198226D01*
X297017145Y-12198218D01*
X297093200Y-11902000D01*
X297094186Y-11898161D01*
X297133510Y-11586878D01*
X297133510Y-11273122D01*
X297094186Y-10961839D01*
X297041510Y-10756680D01*
X297017145Y-10661782D01*
X297017142Y-10661774D01*
X297016158Y-10657940D01*
X296982187Y-10572138D01*
X296902110Y-10369889D01*
X296900656Y-10366216D01*
X296818481Y-10216739D01*
X296751412Y-10094741D01*
X296751410Y-10094738D01*
X296749503Y-10091269D01*
X296565081Y-9837434D01*
X296350300Y-9608716D01*
X296108546Y-9408720D01*
X295843633Y-9240600D01*
X295840054Y-9238916D01*
X295840047Y-9238912D01*
X295563327Y-9108698D01*
X295563323Y-9108696D01*
X295559737Y-9107009D01*
X295261337Y-9010053D01*
X294953138Y-8951261D01*
X294859614Y-8945377D01*
X294720355Y-8936615D01*
X294720339Y-8936614D01*
X294718360Y-8936490D01*
X294561640Y-8936490D01*
X294559661Y-8936614D01*
X294559645Y-8936615D01*
X294420386Y-8945377D01*
X294326862Y-8951261D01*
X294018663Y-9010053D01*
X293720263Y-9107009D01*
X293716677Y-9108696D01*
X293716673Y-9108698D01*
X293439953Y-9238912D01*
X293439946Y-9238916D01*
X293436367Y-9240600D01*
X293171454Y-9408720D01*
X292929700Y-9608716D01*
X292714919Y-9837434D01*
X292530497Y-10091269D01*
X292528590Y-10094738D01*
X292528588Y-10094741D01*
X292461519Y-10216739D01*
X292379344Y-10366216D01*
X292377890Y-10369889D01*
X292297814Y-10572138D01*
X292263842Y-10657940D01*
X292262858Y-10661774D01*
X292262855Y-10661782D01*
X292238490Y-10756680D01*
X292185814Y-10961839D01*
X292146490Y-11273122D01*
X292146490Y-11586878D01*
X284717303Y-11586878D01*
X284683406Y-8603315D01*
X284683406Y-8603314D01*
X284683200Y-8585200D01*
X261929246Y-8495500D01*
X246079530Y-8433017D01*
X246011489Y-8412747D01*
X245987146Y-8392159D01*
X241188524Y-3157299D01*
X241157237Y-3093568D01*
X241165373Y-3023039D01*
X241210349Y-2968105D01*
X241281298Y-2946158D01*
X300864204Y-2895707D01*
X300932342Y-2915651D01*
G37*
G04 #@! TD.AperFunction*
G04 #@! TA.AperFunction,Conductor*
G36*
X225883313Y-2997088D02*
G01*
X225951415Y-3017151D01*
X225997860Y-3070847D01*
X226009200Y-3123088D01*
X226009200Y-7240112D01*
X225989198Y-7308233D01*
X225935542Y-7354726D01*
X225883314Y-7366112D01*
X54152800Y-7518400D01*
X54203600Y-2844800D01*
X225883313Y-2997088D01*
G37*
G04 #@! TD.AperFunction*
G04 #@! TA.AperFunction,Conductor*
G36*
X54203600Y-2844800D02*
G01*
X54203600Y-8376603D01*
X54183598Y-8444724D01*
X54161790Y-8470348D01*
X12344400Y-46024800D01*
X12344431Y-46034459D01*
X12547432Y-109167745D01*
X12527649Y-109235930D01*
X12510739Y-109257035D01*
X1778000Y-120040400D01*
X1712173Y-110540800D01*
X1703278Y-109257036D01*
X1026482Y-11586878D01*
X5888490Y-11586878D01*
X5927814Y-11898161D01*
X5928800Y-11902000D01*
X6004855Y-12198218D01*
X6004858Y-12198226D01*
X6005842Y-12202060D01*
X6121344Y-12493784D01*
X6272497Y-12768731D01*
X6456919Y-13022566D01*
X6671700Y-13251284D01*
X6913454Y-13451280D01*
X7178367Y-13619400D01*
X7181946Y-13621084D01*
X7181953Y-13621088D01*
X7458673Y-13751302D01*
X7458677Y-13751304D01*
X7462263Y-13752991D01*
X7760663Y-13849947D01*
X8068862Y-13908739D01*
X8162386Y-13914623D01*
X8301645Y-13923385D01*
X8301661Y-13923386D01*
X8303640Y-13923510D01*
X8460360Y-13923510D01*
X8462339Y-13923386D01*
X8462355Y-13923385D01*
X8601614Y-13914623D01*
X8695138Y-13908739D01*
X9003337Y-13849947D01*
X9301737Y-13752991D01*
X9305323Y-13751304D01*
X9305327Y-13751302D01*
X9582047Y-13621088D01*
X9582054Y-13621084D01*
X9585633Y-13619400D01*
X9850546Y-13451280D01*
X10092300Y-13251284D01*
X10307081Y-13022566D01*
X10491503Y-12768731D01*
X10642656Y-12493784D01*
X10758158Y-12202060D01*
X10759142Y-12198226D01*
X10759145Y-12198218D01*
X10835200Y-11902000D01*
X10836186Y-11898161D01*
X10875510Y-11586878D01*
X10875510Y-11273122D01*
X10836186Y-10961839D01*
X10807397Y-10849713D01*
X10759145Y-10661782D01*
X10759142Y-10661774D01*
X10758158Y-10657940D01*
X10642656Y-10366216D01*
X10491503Y-10091269D01*
X10307081Y-9837434D01*
X10092300Y-9608716D01*
X9850546Y-9408720D01*
X9585633Y-9240600D01*
X9582054Y-9238916D01*
X9582047Y-9238912D01*
X9305327Y-9108698D01*
X9305323Y-9108696D01*
X9301737Y-9107009D01*
X9003337Y-9010053D01*
X8695138Y-8951261D01*
X8601614Y-8945377D01*
X8462355Y-8936615D01*
X8462339Y-8936614D01*
X8460360Y-8936490D01*
X8303640Y-8936490D01*
X8301661Y-8936614D01*
X8301645Y-8936615D01*
X8162386Y-8945377D01*
X8068862Y-8951261D01*
X7760663Y-9010053D01*
X7462263Y-9107009D01*
X7458677Y-9108696D01*
X7458673Y-9108698D01*
X7181953Y-9238912D01*
X7181946Y-9238916D01*
X7178367Y-9240600D01*
X6913454Y-9408720D01*
X6671700Y-9608716D01*
X6456919Y-9837434D01*
X6272497Y-10091269D01*
X6121344Y-10366216D01*
X6005842Y-10657940D01*
X6004858Y-10661774D01*
X6004855Y-10661782D01*
X5956603Y-10849713D01*
X5927814Y-10961839D01*
X5888490Y-11273122D01*
X5888490Y-11586878D01*
X1026482Y-11586878D01*
X966081Y-2870316D01*
X985611Y-2802058D01*
X1038943Y-2755195D01*
X1092318Y-2743443D01*
X54203600Y-2844800D01*
G37*
G04 #@! TD.AperFunction*
M02*
