M48
INCH,TZ
T1C0.0130
T2C0.0200
T3C0.0260
T4C0.0295
T5C0.0315
T6C0.0354
T7C0.0394
T8C0.0433
T9C0.0512
%
G90
G05
T1
X7300Y-59500
X7300Y-59800
X7300Y-60100
X7600Y-60000
X7900Y-60000
X12000Y-31800
X12300Y-42300
X14300Y-23800
X16600Y-17700
X17000Y-31000
X18550Y-22250
X19500Y-16500
X20245Y-21600
X20500Y-20600
X21450Y-19800
X21450Y-23300
X21500Y-16500
X24500Y-33100
X28935Y-27765
X29500Y-35800
X29900Y-30900
X30800Y-30700
X31100Y-30000
X31500Y-26550
X32492Y-41292
X33445Y-40250
X33540Y-29260
X40460Y-35000
X40560Y-29000
X40960Y-29980
X41463Y-33563
X41500Y-28000
X41800Y-34100
X42280Y-4500
X42680Y-5420
X43120Y-6100
X44500Y-44600
X45000Y-37000
X45200Y-59500
X45400Y-39000
X45850Y-20550
X45900Y-39900
X46195Y-19755
X46450Y-23000
X48200Y-57300
X48200Y-57800
X48200Y-58300
X48600Y-66000
X49000Y-22000
X49202Y-61998
X49800Y-20100
X50002Y-63998
X50250Y-45400
X50400Y-21000
X50680Y-28920
X50763Y-66563
X50850Y-18750
X50920Y-44540
X51563Y-22563
X51580Y-43980
X53150Y-25900
X53150Y-37245
X53830Y-28920
X54350Y-21450
X54450Y-26450
X54450Y-36900
X54750Y-25900
X55344Y-25494
X55344Y-30994
X56000Y-38500
X56006Y-24506
X56150Y-18100
X56300Y-36500
X56300Y-59500
X56594Y-16506
X56650Y-33050
X58200Y-54600
X58450Y-36800
X58750Y-20950
X58906Y-19506
X60200Y-55500
X60580Y-53180
X63100Y-54000
X63200Y-23700
X63800Y-54500
X63800Y-63000
X65000Y-57045
X67000Y-15600
X68500Y-16326
X68871Y-29071
X71900Y-29600
X72000Y-65250
X81300Y-28000
X81300Y-37600
X81300Y-48000
X81600Y-38700
X81600Y-49000
X81637Y-28937
X81900Y-29700
X81900Y-39700
X81900Y-50000
X82200Y-51000
X82250Y-12750
X83080Y-12420
X83700Y-3860
X83700Y-4500
X83800Y-19800
X84200Y-3400
X84250Y-36050
X84300Y-26000
X84300Y-46000
X84900Y-25000
X84900Y-35000
X84900Y-45000
X85340Y-57620
X85550Y-34050
X85600Y-24000
X85600Y-44100
X85780Y-48480
X86000Y-64500
X86150Y-48170
X86430Y-47530
X86600Y-65600
X87000Y-39060
X87500Y-23700
X87500Y-32000
X87622Y-69688
X87900Y-17550
X88394Y-16506
X89000Y-20200
X89600Y-5580
X90460Y-9760
X90500Y-10100
X90500Y-10400
X90500Y-10700
X90500Y-11000
X90620Y-5440
X90700Y-2100
X90700Y-2400
X90700Y-2700
X90900Y-5500
X91120Y-8000
X91200Y-5500
X91500Y-5500
X91800Y-5500
X92080Y-37860
X92100Y-5500
X92902Y-54998
X93494Y-49934
X93500Y-11800
X94200Y-27500
X94600Y-64500
X94900Y-55400
X95620Y-57365
X96200Y-23400
X96700Y-25500
X98500Y-63800
X99200Y-63500
X99560Y-35120
X100400Y-51000
X100750Y-32250
X101000Y-52300
X101500Y-51900
X101750Y-38000
X102494Y-53626
X102885Y-63500
X103440Y-58260
X103780Y-57940
X104040Y-57600
X104080Y-30040
X104080Y-46600
X104300Y-18810
X104460Y-56320
X104525Y-51515
X106180Y-37460
X107200Y-19700
X107200Y-46000
X107200Y-57900
X107250Y-35750
X107400Y-21900
X107660Y-66900
X107800Y-20600
X107800Y-29200
X108130Y-65250
X108260Y-57520
X108500Y-57700
X108700Y-57900
X108900Y-58100
X109300Y-56900
X109400Y-57200
X109600Y-57400
X109660Y-62930
X109800Y-57600
X110300Y-70620
X110660Y-70560
X110720Y-72260
X111600Y-52400
X111600Y-52700
X111600Y-53000
X111600Y-53300
X111600Y-53600
X111600Y-53960
X111886Y-62586
X111900Y-31820
X112000Y-27500
X112040Y-70400
X112080Y-30720
X112100Y-31000
X112100Y-31300
X112100Y-31600
X112500Y-25000
X113250Y-25000
X113460Y-70600
X113750Y-26250
X114140Y-30000
X114200Y-57400
X114400Y-57620
X114400Y-57900
X114400Y-58200
X114600Y-25700
X114708Y-21108
X114750Y-27500
X114750Y-32250
X114750Y-33750
X114750Y-35750
X114813Y-19513
X114814Y-60586
X114875Y-70880
T2
X12998Y-39000
X15900Y-56400
X19400Y-62500
X19400Y-65600
X34998Y-60500
T3
X642Y-71002
X8400Y-52700
X16858Y-71002
X100000Y-29640
T4
X51500Y-31500
X52000Y-31500
X52500Y-31500
T5
X5160Y-72560
X5998Y-22000
X5998Y-23969
X6000Y-68740
X6000Y-70640
X7033Y-36488
X7120Y-62540
X7120Y-66540
X7996Y-16506
X7996Y-19506
X7996Y-21506
X7996Y-24506
X7998Y-26500
X7998Y-30500
X8963Y-36488
X8996Y-16506
X8996Y-19506
X8996Y-21506
X8996Y-24506
X9000Y-68740
X9000Y-70640
X9160Y-72560
X9200Y-30600
X9200Y-34600
X9996Y-16506
X9996Y-19506
X9996Y-21506
X9996Y-24506
X9998Y-28516
X9998Y-29500
X10030Y-54500
X10996Y-16506
X10996Y-19506
X10996Y-21506
X10996Y-24506
X11014Y-57500
X11996Y-16506
X11996Y-19506
X11996Y-21506
X11996Y-24506
X11998Y-30531
X11998Y-32500
X11998Y-52500
X11998Y-54500
X11998Y-57500
X12002Y-62506
X12996Y-16506
X12996Y-19506
X12996Y-21506
X12996Y-24506
X13500Y-28502
X13500Y-34502
X13996Y-16506
X13996Y-19506
X13996Y-21506
X13996Y-24506
X14002Y-64506
X14002Y-67506
X14500Y-28502
X14500Y-34502
X14998Y-39000
X14998Y-43000
X15002Y-64506
X15002Y-67506
X15100Y-10516
X15100Y-12484
X15500Y-28502
X15500Y-34502
X15900Y-69000
X15900Y-73000
X15998Y-52500
X16002Y-62506
X16002Y-64506
X16002Y-67506
X16500Y-28502
X16500Y-34502
X17002Y-64506
X17002Y-67506
X17498Y-8502
X17498Y-14502
X17500Y-28502
X17500Y-34502
X17550Y-20116
X17550Y-22084
X17998Y-40516
X17998Y-42484
X18498Y-8502
X18498Y-14502
X18500Y-28502
X18500Y-34502
X19492Y-38502
X19492Y-44502
X19498Y-8502
X19498Y-14502
X19500Y-28502
X19500Y-34502
X19502Y-18492
X19502Y-24492
X20492Y-38502
X20492Y-44502
X20498Y-8502
X20498Y-14502
X20500Y-28502
X20500Y-34502
X20502Y-18492
X20502Y-24492
X21492Y-38502
X21492Y-44502
X21498Y-8502
X21498Y-14502
X21500Y-28502
X21500Y-34502
X21502Y-18492
X21502Y-24492
X22492Y-38502
X22492Y-44502
X22498Y-8502
X22498Y-14502
X22500Y-28502
X22500Y-34502
X22502Y-18492
X22502Y-24492
X23492Y-38502
X23492Y-44502
X23498Y-8502
X23498Y-14502
X23500Y-28502
X23500Y-34502
X23502Y-18492
X23502Y-24492
X24492Y-38502
X24492Y-44502
X24498Y-8502
X24498Y-14502
X24498Y-67000
X24498Y-68969
X24500Y-28502
X24500Y-34502
X24502Y-18492
X24502Y-24492
X25492Y-38502
X25492Y-44502
X25498Y-8502
X25498Y-14502
X25498Y-62000
X25498Y-63500
X25500Y-28502
X25500Y-34502
X25502Y-18492
X25502Y-24492
X26492Y-38502
X26492Y-44502
X26496Y-56506
X26496Y-59506
X26496Y-66506
X26496Y-69506
X26498Y-8502
X26498Y-14502
X26500Y-28502
X26500Y-34502
X26502Y-18492
X26502Y-24492
X27492Y-38502
X27492Y-44502
X27496Y-56506
X27496Y-59506
X27496Y-66506
X27496Y-69506
X27498Y-8502
X27498Y-14502
X27500Y-28502
X27500Y-34502
X27502Y-18492
X27502Y-24492
X28492Y-38502
X28492Y-44502
X28496Y-56506
X28496Y-59506
X28496Y-66506
X28496Y-69506
X28498Y-8502
X28498Y-14502
X28498Y-47500
X28498Y-51500
X28500Y-28502
X28500Y-34502
X28502Y-18492
X28502Y-24492
X29492Y-38502
X29492Y-44502
X29496Y-56506
X29496Y-59506
X29496Y-66506
X29496Y-69506
X29498Y-8502
X29498Y-14502
X29498Y-62000
X29498Y-63500
X29500Y-28502
X29500Y-34502
X29502Y-18492
X29502Y-24492
X30492Y-38502
X30492Y-44502
X30496Y-56506
X30496Y-59506
X30496Y-66506
X30496Y-69506
X30498Y-8502
X30498Y-14502
X30500Y-28502
X30500Y-34502
X30502Y-18492
X30502Y-24492
X30998Y-63500
X31492Y-38502
X31492Y-44502
X31496Y-56506
X31496Y-59506
X31496Y-66506
X31496Y-69506
X31498Y-8502
X31498Y-14502
X31500Y-28502
X31500Y-34502
X31502Y-18492
X31502Y-24492
X32492Y-38502
X32492Y-44502
X32496Y-56506
X32496Y-59506
X32496Y-66506
X32496Y-69506
X32498Y-8502
X32498Y-14502
X32498Y-47500
X32498Y-51500
X32500Y-28502
X32500Y-34502
X32502Y-18492
X32502Y-24492
X34998Y-63500
X36514Y-63500
X37300Y-4500
X37300Y-8500
X37500Y-19998
X37500Y-20998
X37500Y-21998
X37500Y-22998
X37500Y-23998
X37500Y-24998
X37500Y-25998
X37500Y-26998
X37500Y-27998
X37500Y-28998
X37500Y-29998
X37500Y-30998
X37500Y-31998
X37500Y-32998
X37500Y-33998
X37500Y-34998
X37500Y-35998
X37500Y-36998
X37500Y-37998
X37500Y-38998
X37502Y-10006
X37502Y-13006
X37904Y-42000
X37904Y-46000
X38482Y-63500
X38500Y-56500
X38500Y-59000
X38500Y-61000
X38502Y-4500
X38502Y-8500
X38502Y-10006
X38502Y-13006
X39498Y-42000
X39498Y-46000
X39502Y-10006
X39502Y-13006
X39516Y-18000
X39700Y-4500
X39700Y-8500
X40502Y-10006
X40502Y-13006
X40900Y-4500
X40900Y-8500
X41484Y-18000
X42500Y-56500
X42500Y-59000
X42500Y-61000
X43500Y-19998
X43500Y-20998
X43500Y-21998
X43500Y-22998
X43500Y-23998
X43500Y-24998
X43500Y-25998
X43500Y-26998
X43500Y-27998
X43500Y-28998
X43500Y-29998
X43500Y-30998
X43500Y-31998
X43500Y-32998
X43500Y-33998
X43500Y-34998
X43500Y-35998
X43500Y-36998
X43500Y-37998
X43500Y-38998
X43700Y-7300
X43700Y-8500
X43700Y-9700
X43700Y-10900
X43700Y-12100
X43700Y-13300
X43700Y-14500
X43700Y-15700
X47500Y-27500
X47500Y-31500
X47700Y-7300
X47700Y-8500
X47700Y-9700
X47700Y-10900
X47700Y-12100
X47700Y-13300
X47700Y-14500
X47700Y-15700
X48260Y-46020
X48260Y-50020
X48494Y-36000
X48494Y-40000
X49494Y-45998
X49494Y-49998
X49700Y-36000
X49700Y-40000
X51494Y-39000
X51500Y-37780
X51500Y-40200
X51520Y-41420
X51520Y-47800
X51520Y-49040
X51520Y-50280
X51520Y-51520
X52000Y-63000
X52000Y-65000
X52000Y-67000
X52500Y-18500
X52500Y-21500
X55494Y-39000
X55500Y-37780
X55500Y-40200
X55520Y-41420
X55520Y-47800
X55520Y-49040
X55520Y-50280
X55520Y-51520
X56000Y-63000
X56000Y-65000
X56000Y-67000
X57494Y-14506
X57494Y-15506
X57494Y-16506
X57494Y-17506
X57494Y-18506
X57494Y-19506
X57494Y-20506
X57494Y-21506
X57494Y-24506
X57494Y-25506
X57494Y-26506
X57494Y-27506
X57494Y-28506
X57494Y-29506
X57494Y-30506
X57494Y-31506
X57494Y-34998
X57494Y-35998
X57494Y-36998
X57494Y-37998
X57494Y-38998
X57494Y-39998
X57494Y-40998
X57494Y-44998
X57494Y-45998
X57494Y-46998
X57494Y-47998
X57494Y-48998
X57494Y-49998
X57494Y-50998
X57494Y-61998
X57494Y-62998
X57494Y-63998
X57494Y-64998
X57494Y-65998
X57494Y-66998
X57494Y-67998
X58010Y-43000
X58010Y-60498
X58016Y-13000
X58031Y-23000
X59978Y-43000
X59978Y-60498
X59984Y-13000
X60000Y-23000
X60494Y-14506
X60494Y-15506
X60494Y-16506
X60494Y-17506
X60494Y-18506
X60494Y-19506
X60494Y-20506
X60494Y-21506
X60494Y-24506
X60494Y-25506
X60494Y-26506
X60494Y-27506
X60494Y-28506
X60494Y-29506
X60494Y-30506
X60494Y-31506
X60494Y-34998
X60494Y-35998
X60494Y-36998
X60494Y-37998
X60494Y-38998
X60494Y-39998
X60494Y-40998
X60494Y-44998
X60494Y-45998
X60494Y-46998
X60494Y-47998
X60494Y-48998
X60494Y-49998
X60494Y-50998
X60494Y-61998
X60494Y-62998
X60494Y-63998
X60494Y-64998
X60494Y-65998
X60494Y-66998
X60494Y-67998
X62460Y-40240
X62480Y-41480
X62480Y-47740
X62480Y-49000
X62494Y-33000
X62494Y-44998
X62500Y-37780
X62500Y-39000
X62500Y-64000
X62500Y-68000
X62520Y-50340
X62520Y-51600
X64026Y-42998
X65940Y-27540
X65940Y-28780
X65960Y-25080
X65960Y-26320
X65994Y-42998
X66000Y-20260
X66000Y-21500
X66460Y-40240
X66480Y-41480
X66480Y-47740
X66480Y-49000
X66494Y-33000
X66494Y-44998
X66500Y-37780
X66500Y-39000
X66500Y-64000
X66500Y-68000
X66520Y-50340
X66520Y-51600
X68494Y-36000
X68494Y-40000
X68494Y-45998
X68494Y-49998
X69720Y-46020
X69720Y-50020
X69740Y-36000
X69740Y-40000
X69940Y-27540
X69940Y-28780
X69960Y-25080
X69960Y-26320
X70000Y-20260
X70000Y-21500
X74000Y-14050
X74000Y-15050
X74000Y-16050
X74000Y-17050
X74000Y-18050
X74000Y-19050
X74000Y-20050
X74000Y-21050
X74000Y-24050
X74000Y-25050
X74000Y-26050
X74000Y-27050
X74000Y-28050
X74000Y-29050
X74000Y-30050
X74000Y-31050
X74000Y-34050
X74000Y-35050
X74000Y-36050
X74000Y-37050
X74000Y-38050
X74000Y-39050
X74000Y-40050
X74000Y-41050
X74000Y-44050
X74000Y-45050
X74000Y-46050
X74000Y-47050
X74000Y-48050
X74000Y-49050
X74000Y-50050
X74000Y-51050
X74500Y-67006
X76200Y-6700
X76200Y-9700
X77000Y-14050
X77000Y-15050
X77000Y-16050
X77000Y-17050
X77000Y-18050
X77000Y-19050
X77000Y-20050
X77000Y-21050
X77000Y-24050
X77000Y-25050
X77000Y-26050
X77000Y-27050
X77000Y-28050
X77000Y-29050
X77000Y-30050
X77000Y-31050
X77000Y-34050
X77000Y-35050
X77000Y-36050
X77000Y-37050
X77000Y-38050
X77000Y-39050
X77000Y-40050
X77000Y-41050
X77000Y-44050
X77000Y-45050
X77000Y-46050
X77000Y-47050
X77000Y-48050
X77000Y-49050
X77000Y-50050
X77000Y-51050
X78500Y-67006
X80000Y-24000
X80000Y-25000
X80000Y-26000
X80000Y-27000
X80000Y-28000
X80000Y-29020
X80000Y-30020
X80000Y-31040
X80050Y-14050
X80050Y-15050
X80050Y-16050
X80050Y-17050
X80050Y-18050
X80050Y-19050
X80050Y-20050
X80050Y-21050
X80050Y-33980
X80050Y-35000
X80050Y-36050
X80050Y-37050
X80050Y-38050
X80050Y-39050
X80050Y-40050
X80050Y-41050
X80050Y-44050
X80050Y-45050
X80050Y-46050
X80050Y-47050
X80050Y-48050
X80050Y-49050
X80050Y-50050
X80050Y-51050
X80494Y-62006
X80494Y-63006
X80494Y-64006
X80494Y-65006
X80494Y-66006
X80494Y-67006
X80494Y-68006
X80494Y-69006
X81026Y-60006
X82994Y-60006
X83000Y-24000
X83000Y-25000
X83000Y-26000
X83000Y-27000
X83000Y-28000
X83000Y-29020
X83000Y-30020
X83000Y-31040
X83050Y-14050
X83050Y-15050
X83050Y-16050
X83050Y-17050
X83050Y-18050
X83050Y-19050
X83050Y-20050
X83050Y-21050
X83050Y-33980
X83050Y-35000
X83050Y-36050
X83050Y-37050
X83050Y-38050
X83050Y-39050
X83050Y-40050
X83050Y-41050
X83050Y-44050
X83050Y-45050
X83050Y-46050
X83050Y-47050
X83050Y-48050
X83050Y-49050
X83050Y-50050
X83050Y-51050
X83494Y-62006
X83494Y-63006
X83494Y-64006
X83494Y-65006
X83494Y-66006
X83494Y-67006
X83494Y-68006
X83494Y-69006
X87000Y-44516
X87000Y-46484
X88000Y-63000
X88000Y-64000
X88000Y-65000
X88000Y-66000
X88000Y-67000
X88000Y-68000
X88000Y-69000
X88500Y-42500
X88500Y-46500
X88531Y-61000
X90494Y-40498
X90494Y-41498
X90494Y-42498
X90494Y-43498
X90494Y-44498
X90494Y-45498
X90494Y-46498
X90500Y-18500
X90500Y-20500
X90500Y-22500
X90500Y-24500
X90500Y-26500
X90500Y-28500
X90500Y-61000
X91000Y-63000
X91000Y-64000
X91000Y-65000
X91000Y-66000
X91000Y-67000
X91000Y-68000
X91000Y-69000
X91010Y-38998
X92978Y-38998
X93494Y-40498
X93494Y-41498
X93494Y-42498
X93494Y-43498
X93494Y-44498
X93494Y-45498
X93494Y-46498
X93500Y-18500
X93500Y-20500
X93500Y-22500
X93500Y-24500
X93500Y-26500
X93500Y-28500
X96494Y-40502
X96494Y-41502
X96494Y-42502
X96494Y-43502
X96494Y-44502
X96494Y-45502
X96494Y-46502
X96494Y-47502
X96494Y-48502
X96494Y-49502
X97010Y-39000
X98500Y-66000
X98500Y-70000
X98978Y-39000
X99494Y-40502
X99494Y-41502
X99494Y-42502
X99494Y-43502
X99494Y-44502
X99494Y-45502
X99494Y-46502
X99494Y-47502
X99494Y-48502
X99494Y-49502
X99700Y-66000
X99700Y-70000
X100900Y-66000
X100900Y-70000
X102100Y-66000
X102100Y-70000
X102494Y-40502
X102494Y-41502
X102494Y-42502
X102494Y-43502
X102494Y-44502
X102494Y-45502
X102494Y-46502
X102494Y-47502
X102494Y-48502
X102494Y-49502
X102500Y-13300
X102500Y-14500
X102500Y-15700
X102500Y-16900
X102500Y-18100
X102500Y-19300
X102500Y-20500
X102500Y-21700
X102500Y-22900
X102500Y-24100
X102500Y-25300
X102500Y-26500
X102500Y-27700
X102500Y-28900
X103010Y-39002
X104300Y-66000
X104300Y-70000
X104978Y-39002
X105494Y-40502
X105494Y-41502
X105494Y-42502
X105494Y-43502
X105494Y-44502
X105494Y-45502
X105494Y-46502
X105494Y-47502
X105494Y-48502
X105494Y-49502
X105500Y-66000
X105500Y-70000
X106500Y-13300
X106500Y-14500
X106500Y-15700
X106500Y-16900
X106500Y-18100
X106500Y-19300
X106500Y-20500
X106500Y-21700
X106500Y-22900
X106500Y-24100
X106500Y-25300
X106500Y-26500
X106500Y-27700
X106500Y-28900
X106700Y-66000
X106700Y-70000
X109500Y-63500
X109500Y-64500
X109500Y-65500
X109500Y-66500
X109500Y-67500
X109500Y-68500
X109500Y-69500
X112500Y-63500
X112500Y-64500
X112500Y-65500
X112500Y-66500
X112500Y-67500
X112500Y-68500
X112500Y-69500
T6
X10242Y-68760
X10262Y-70640
X10282Y-72580
X11242Y-68760
X11262Y-70640
X11282Y-72580
X49000Y-31500
X50000Y-31500
T7
X3498Y-57502
X3498Y-58502
X3498Y-59502
X3498Y-60502
X3498Y-61502
X3498Y-62502
X3498Y-63502
X3498Y-64502
X3498Y-65502
X3498Y-66502
X3498Y-67502
X3498Y-68502
X3498Y-69502
X3498Y-70502
X3498Y-71502
X62994Y-4500
X63498Y-72000
X63994Y-4500
X64498Y-72000
X64994Y-4500
X65498Y-72000
X65994Y-4500
X66498Y-72000
X66994Y-4500
X67498Y-72000
X67994Y-4500
X68498Y-72000
X68994Y-4500
X69498Y-72000
X69994Y-4500
X70498Y-72000
X70994Y-4500
X71498Y-72000
X91900Y-4400
X92900Y-4400
X93900Y-4400
X102496Y-4500
X103496Y-4500
X104496Y-4500
X105496Y-4500
X106496Y-4500
X107496Y-4500
X108496Y-4500
X109496Y-4500
X110000Y-14498
X110000Y-15498
X110000Y-16498
X110000Y-17498
X110000Y-18498
X110000Y-19498
X110000Y-20498
X110000Y-21498
X110000Y-22498
X110000Y-23498
X110000Y-24498
X110000Y-25498
X110000Y-26498
X110000Y-27498
X110000Y-28498
X110000Y-37400
X110000Y-38400
X110000Y-39400
X110000Y-40400
X110000Y-41400
X110000Y-42400
X110000Y-43400
X110000Y-44400
X110000Y-45400
X110496Y-4500
T8
X50614Y-23720
X50614Y-26280
X52386Y-23720
X52386Y-26280
X74500Y-5700
X74500Y-9700
X95000Y-18500
X95000Y-20500
X95000Y-22500
X95000Y-24500
X95000Y-26500
X95000Y-28500
X99000Y-18500
X99000Y-20500
X99000Y-22500
X99000Y-24500
X99000Y-26500
X99000Y-28500
T9
X77968Y-6700
X85842Y-6700
T0
M30
