G04 #@! TF.GenerationSoftware,KiCad,Pcbnew,6.0.4-6f826c9f35~116~ubuntu20.04.1*
G04 #@! TF.CreationDate,2022-04-15T20:21:11-04:00*
G04 #@! TF.ProjectId,gp-mpu,67702d6d-7075-42e6-9b69-6361645f7063,rev?*
G04 #@! TF.SameCoordinates,Original*
G04 #@! TF.FileFunction,Soldermask,Top*
G04 #@! TF.FilePolarity,Negative*
%FSLAX46Y46*%
G04 Gerber Fmt 4.6, Leading zero omitted, Abs format (unit mm)*
G04 Created by KiCad (PCBNEW 6.0.4-6f826c9f35~116~ubuntu20.04.1) date 2022-04-15 20:21:11*
%MOMM*%
%LPD*%
G01*
G04 APERTURE LIST*
%ADD10R,1.600000X1.600000*%
%ADD11O,1.600000X1.600000*%
%ADD12C,1.600000*%
%ADD13R,1.600000X2.400000*%
%ADD14O,1.600000X2.400000*%
%ADD15R,1.700000X1.700000*%
%ADD16O,1.700000X1.700000*%
%ADD17C,3.000000*%
%ADD18R,2.200000X2.200000*%
%ADD19O,2.200000X2.200000*%
%ADD20R,1.800000X1.800000*%
%ADD21C,1.800000*%
%ADD22R,2.400000X1.600000*%
%ADD23O,2.400000X1.600000*%
%ADD24C,2.000000*%
%ADD25R,1.050000X1.500000*%
%ADD26O,1.050000X1.500000*%
%ADD27C,3.970020*%
%ADD28R,2.100000X2.100000*%
%ADD29C,2.100000*%
%ADD30R,9.525000X1.780000*%
%ADD31R,9.000000X2.500000*%
%ADD32C,1.500000*%
G04 APERTURE END LIST*
D10*
X203200000Y-73710800D03*
D11*
X210820000Y-73710800D03*
D12*
X152345000Y-153665000D03*
X147345000Y-153665000D03*
D13*
X44445000Y-36835000D03*
D14*
X46985000Y-36835000D03*
X49525000Y-36835000D03*
X52065000Y-36835000D03*
X54605000Y-36835000D03*
X57145000Y-36835000D03*
X59685000Y-36835000D03*
X62225000Y-36835000D03*
X64765000Y-36835000D03*
X67305000Y-36835000D03*
X69845000Y-36835000D03*
X72385000Y-36835000D03*
X74925000Y-36835000D03*
X77465000Y-36835000D03*
X80005000Y-36835000D03*
X82545000Y-36835000D03*
X82545000Y-21595000D03*
X80005000Y-21595000D03*
X77465000Y-21595000D03*
X74925000Y-21595000D03*
X72385000Y-21595000D03*
X69845000Y-21595000D03*
X67305000Y-21595000D03*
X64765000Y-21595000D03*
X62225000Y-21595000D03*
X59685000Y-21595000D03*
X57145000Y-21595000D03*
X54605000Y-21595000D03*
X52065000Y-21595000D03*
X49525000Y-21595000D03*
X46985000Y-21595000D03*
X44445000Y-21595000D03*
D10*
X203327000Y-124587000D03*
D11*
X210947000Y-124587000D03*
D12*
X270510000Y-67310000D03*
D11*
X260350000Y-67310000D03*
D12*
X97745000Y-161290000D03*
X92745000Y-161290000D03*
D13*
X67300000Y-176545000D03*
D14*
X69840000Y-176545000D03*
X72380000Y-176545000D03*
X74920000Y-176545000D03*
X77460000Y-176545000D03*
X80000000Y-176545000D03*
X82540000Y-176545000D03*
X82540000Y-168925000D03*
X80000000Y-168925000D03*
X77460000Y-168925000D03*
X74920000Y-168925000D03*
X72380000Y-168925000D03*
X69840000Y-168925000D03*
X67300000Y-168925000D03*
D15*
X279400000Y-115316000D03*
D16*
X279400000Y-112776000D03*
X279400000Y-110236000D03*
X279400000Y-107696000D03*
X279400000Y-105156000D03*
X279400000Y-102616000D03*
X279400000Y-100076000D03*
X279400000Y-97536000D03*
X279400000Y-94996000D03*
D12*
X40635000Y-133350000D03*
D11*
X30475000Y-133350000D03*
D17*
X88895000Y-153670000D03*
D12*
X88895000Y-161290000D03*
D11*
X78735000Y-161290000D03*
D12*
X125715000Y-126995000D03*
D11*
X125715000Y-116835000D03*
D12*
X23368000Y-77724000D03*
D11*
X23368000Y-87884000D03*
D10*
X285750000Y-171450000D03*
D11*
X278130000Y-171450000D03*
D10*
X285750000Y-161290000D03*
D11*
X278130000Y-161290000D03*
D18*
X251460000Y-57150000D03*
D19*
X241300000Y-57150000D03*
D12*
X270510000Y-64262000D03*
D11*
X260350000Y-64262000D03*
D12*
X264922000Y-177800000D03*
D11*
X264922000Y-167640000D03*
D20*
X28656200Y-184353200D03*
D21*
X26116200Y-184353200D03*
D12*
X177698400Y-66852800D03*
D11*
X167538400Y-66852800D03*
D12*
X130860800Y-121412000D03*
D11*
X141020800Y-121412000D03*
D22*
X146035000Y-157475000D03*
D23*
X146035000Y-160015000D03*
X146035000Y-162555000D03*
X146035000Y-165095000D03*
X146035000Y-167635000D03*
X146035000Y-170175000D03*
X146035000Y-172715000D03*
X153655000Y-172715000D03*
X153655000Y-170175000D03*
X153655000Y-167635000D03*
X153655000Y-165095000D03*
X153655000Y-162555000D03*
X153655000Y-160015000D03*
X153655000Y-157475000D03*
D12*
X82545000Y-130810000D03*
D11*
X72385000Y-130810000D03*
D12*
X30475000Y-82550000D03*
X30475000Y-77550000D03*
D10*
X203327000Y-40767000D03*
D11*
X210947000Y-40767000D03*
D22*
X229855000Y-102865000D03*
D23*
X229855000Y-105405000D03*
X229855000Y-107945000D03*
X229855000Y-110485000D03*
X229855000Y-113025000D03*
X229855000Y-115565000D03*
X229855000Y-118105000D03*
X237475000Y-118105000D03*
X237475000Y-115565000D03*
X237475000Y-113025000D03*
X237475000Y-110485000D03*
X237475000Y-107945000D03*
X237475000Y-105405000D03*
X237475000Y-102865000D03*
D22*
X204455000Y-157495000D03*
D23*
X204455000Y-160035000D03*
X204455000Y-162575000D03*
X204455000Y-165115000D03*
X204455000Y-167655000D03*
X204455000Y-170195000D03*
X204455000Y-172735000D03*
X204455000Y-175275000D03*
X212075000Y-175275000D03*
X212075000Y-172735000D03*
X212075000Y-170195000D03*
X212075000Y-167655000D03*
X212075000Y-165115000D03*
X212075000Y-162575000D03*
X212075000Y-160035000D03*
X212075000Y-157495000D03*
D12*
X132080000Y-170180000D03*
D11*
X142240000Y-170180000D03*
D13*
X20310000Y-49545000D03*
D14*
X22850000Y-49545000D03*
X25390000Y-49545000D03*
X27930000Y-49545000D03*
X30470000Y-49545000D03*
X33010000Y-49545000D03*
X35550000Y-49545000D03*
X35550000Y-41925000D03*
X33010000Y-41925000D03*
X30470000Y-41925000D03*
X27930000Y-41925000D03*
X25390000Y-41925000D03*
X22850000Y-41925000D03*
X20310000Y-41925000D03*
D12*
X20315000Y-67310000D03*
D11*
X20315000Y-77470000D03*
D12*
X64765000Y-161290000D03*
D11*
X74925000Y-161290000D03*
D12*
X44577000Y-51094000D03*
X44577000Y-56094000D03*
X110998000Y-33782000D03*
D11*
X121158000Y-33782000D03*
D24*
X128560000Y-66750000D03*
X128560000Y-60250000D03*
X133060000Y-66750000D03*
X133060000Y-60250000D03*
D12*
X120650000Y-69850000D03*
D11*
X120650000Y-80010000D03*
D10*
X203327000Y-96647000D03*
D11*
X210947000Y-96647000D03*
D12*
X130860800Y-130860800D03*
D11*
X141020800Y-130860800D03*
D20*
X28605400Y-179425600D03*
D21*
X26065400Y-179425600D03*
D10*
X285750000Y-176530000D03*
D11*
X278130000Y-176530000D03*
D10*
X203200000Y-78841600D03*
D11*
X210820000Y-78841600D03*
D10*
X203200000Y-63500000D03*
D11*
X210820000Y-63500000D03*
D12*
X210805000Y-152415000D03*
X205805000Y-152415000D03*
D25*
X133350000Y-80010000D03*
D26*
X132080000Y-80010000D03*
X130810000Y-80010000D03*
D10*
X203200000Y-71120000D03*
D11*
X210820000Y-71120000D03*
D10*
X203327000Y-116967000D03*
D11*
X210947000Y-116967000D03*
D12*
X107950000Y-143510000D03*
D11*
X97790000Y-143510000D03*
D12*
X110998000Y-27686000D03*
D11*
X121158000Y-27686000D03*
D27*
X8382000Y-11430000D03*
D10*
X203327000Y-94107000D03*
D11*
X210947000Y-94107000D03*
D10*
X203200000Y-68580000D03*
D11*
X210820000Y-68580000D03*
D17*
X33015000Y-99060000D03*
D15*
X280660000Y-11430000D03*
D16*
X278120000Y-11430000D03*
X275580000Y-11430000D03*
X273040000Y-11430000D03*
X270500000Y-11430000D03*
X267960000Y-11430000D03*
X265420000Y-11430000D03*
X262880000Y-11430000D03*
X260340000Y-11430000D03*
D13*
X49535000Y-62210000D03*
D14*
X52075000Y-62210000D03*
X54615000Y-62210000D03*
X57155000Y-62210000D03*
X59695000Y-62210000D03*
X62235000Y-62210000D03*
X64775000Y-62210000D03*
X67315000Y-62210000D03*
X69855000Y-62210000D03*
X72395000Y-62210000D03*
X74935000Y-62210000D03*
X77475000Y-62210000D03*
X80015000Y-62210000D03*
X82555000Y-62210000D03*
X82555000Y-46970000D03*
X80015000Y-46970000D03*
X77475000Y-46970000D03*
X74935000Y-46970000D03*
X72395000Y-46970000D03*
X69855000Y-46970000D03*
X67315000Y-46970000D03*
X64775000Y-46970000D03*
X62235000Y-46970000D03*
X59695000Y-46970000D03*
X57155000Y-46970000D03*
X54615000Y-46970000D03*
X52075000Y-46970000D03*
X49535000Y-46970000D03*
D10*
X203200000Y-60960000D03*
D11*
X210820000Y-60960000D03*
D10*
X285750000Y-173990000D03*
D11*
X278130000Y-173990000D03*
D12*
X260350000Y-42926000D03*
D11*
X270510000Y-42926000D03*
D12*
X132080000Y-160020000D03*
D11*
X142240000Y-160020000D03*
D28*
X198038914Y-17018000D03*
D29*
X218038914Y-17018000D03*
D12*
X100838000Y-11430000D03*
D11*
X100838000Y-21590000D03*
D12*
X177698400Y-63703200D03*
D11*
X167538400Y-63703200D03*
D12*
X260350000Y-55118000D03*
D11*
X270510000Y-55118000D03*
D20*
X127000000Y-80010000D03*
D21*
X124460000Y-80010000D03*
D10*
X110490000Y-99055000D03*
D11*
X110490000Y-96515000D03*
X110490000Y-93975000D03*
X110490000Y-91435000D03*
X110490000Y-88895000D03*
X110490000Y-86355000D03*
X110490000Y-83815000D03*
X110490000Y-81275000D03*
X110490000Y-78735000D03*
X110490000Y-76195000D03*
X110490000Y-73655000D03*
X110490000Y-71115000D03*
X110490000Y-68575000D03*
X110490000Y-66035000D03*
X110490000Y-63495000D03*
X110490000Y-60955000D03*
X110490000Y-58415000D03*
X110490000Y-55875000D03*
X110490000Y-53335000D03*
X110490000Y-50795000D03*
X95250000Y-50795000D03*
X95250000Y-53335000D03*
X95250000Y-55875000D03*
X95250000Y-58415000D03*
X95250000Y-60955000D03*
X95250000Y-63495000D03*
X95250000Y-66035000D03*
X95250000Y-68575000D03*
X95250000Y-71115000D03*
X95250000Y-73655000D03*
X95250000Y-76195000D03*
X95250000Y-78735000D03*
X95250000Y-81275000D03*
X95250000Y-83815000D03*
X95250000Y-86355000D03*
X95250000Y-88895000D03*
X95250000Y-91435000D03*
X95250000Y-93975000D03*
X95250000Y-96515000D03*
X95250000Y-99055000D03*
D18*
X251460000Y-46990000D03*
D19*
X241300000Y-46990000D03*
D13*
X67300000Y-151145000D03*
D14*
X69840000Y-151145000D03*
X72380000Y-151145000D03*
X74920000Y-151145000D03*
X77460000Y-151145000D03*
X80000000Y-151145000D03*
X82540000Y-151145000D03*
X82540000Y-143525000D03*
X80000000Y-143525000D03*
X77460000Y-143525000D03*
X74920000Y-143525000D03*
X72380000Y-143525000D03*
X69840000Y-143525000D03*
X67300000Y-143525000D03*
D10*
X133350000Y-54610000D03*
D11*
X133350000Y-46990000D03*
D12*
X220980000Y-118070000D03*
X220980000Y-113070000D03*
X130860800Y-124561600D03*
D11*
X141020800Y-124561600D03*
D20*
X28554600Y-174650400D03*
D21*
X26014600Y-174650400D03*
D12*
X168910000Y-99060000D03*
D11*
X158750000Y-99060000D03*
D12*
X130860800Y-105206800D03*
D11*
X141020800Y-105206800D03*
D12*
X260350000Y-52070000D03*
D11*
X270510000Y-52070000D03*
D12*
X168960800Y-131064000D03*
D11*
X158800800Y-131064000D03*
D12*
X110998000Y-24638000D03*
D11*
X121158000Y-24638000D03*
D27*
X8382000Y-128905000D03*
D10*
X203327000Y-43307000D03*
D11*
X210947000Y-43307000D03*
D12*
X168808400Y-102209600D03*
D11*
X158648400Y-102209600D03*
D10*
X203327000Y-88900000D03*
D11*
X210947000Y-88900000D03*
D22*
X260335000Y-102875000D03*
D23*
X260335000Y-105415000D03*
X260335000Y-107955000D03*
X260335000Y-110495000D03*
X260335000Y-113035000D03*
X260335000Y-115575000D03*
X260335000Y-118115000D03*
X260335000Y-120655000D03*
X260335000Y-123195000D03*
X260335000Y-125735000D03*
X267955000Y-125735000D03*
X267955000Y-123195000D03*
X267955000Y-120655000D03*
X267955000Y-118115000D03*
X267955000Y-115575000D03*
X267955000Y-113035000D03*
X267955000Y-110495000D03*
X267955000Y-107955000D03*
X267955000Y-105415000D03*
X267955000Y-102875000D03*
D12*
X97790000Y-149860000D03*
D11*
X107950000Y-149860000D03*
D12*
X18084800Y-158851600D03*
D11*
X18084800Y-169011600D03*
D13*
X20310000Y-62245000D03*
D14*
X22850000Y-62245000D03*
X25390000Y-62245000D03*
X27930000Y-62245000D03*
X30470000Y-62245000D03*
X33010000Y-62245000D03*
X35550000Y-62245000D03*
X35550000Y-54625000D03*
X33010000Y-54625000D03*
X30470000Y-54625000D03*
X27930000Y-54625000D03*
X25390000Y-54625000D03*
X22850000Y-54625000D03*
X20310000Y-54625000D03*
D12*
X168910000Y-172720000D03*
D11*
X158750000Y-172720000D03*
D10*
X203327000Y-35687000D03*
D11*
X210947000Y-35687000D03*
D18*
X251460000Y-52070000D03*
D19*
X241300000Y-52070000D03*
D12*
X130810000Y-102108000D03*
D11*
X140970000Y-102108000D03*
D12*
X110998000Y-36830000D03*
D11*
X121158000Y-36830000D03*
D12*
X15235000Y-55880000D03*
X15235000Y-60880000D03*
D18*
X189230000Y-24638000D03*
D19*
X189230000Y-14478000D03*
D12*
X256286000Y-177800000D03*
D11*
X256286000Y-167640000D03*
D12*
X259334000Y-177800000D03*
D11*
X259334000Y-167640000D03*
D12*
X267970000Y-177800000D03*
D11*
X267970000Y-167640000D03*
D12*
X168910000Y-162560000D03*
D11*
X158750000Y-162560000D03*
D12*
X177800000Y-54610000D03*
D11*
X167640000Y-54610000D03*
D10*
X203327000Y-129667000D03*
D11*
X210947000Y-129667000D03*
D12*
X152360000Y-33020000D03*
X147360000Y-33020000D03*
X38354000Y-26710000D03*
X38354000Y-31710000D03*
X100325000Y-106680000D03*
D11*
X100325000Y-116840000D03*
D12*
X168859200Y-105359200D03*
D11*
X158699200Y-105359200D03*
D12*
X122580400Y-127050800D03*
D11*
X122580400Y-116890800D03*
D10*
X203327000Y-127127000D03*
D11*
X210947000Y-127127000D03*
D15*
X161285000Y-182880000D03*
D16*
X163825000Y-182880000D03*
X166365000Y-182880000D03*
X168905000Y-182880000D03*
X171445000Y-182880000D03*
X173985000Y-182880000D03*
X176525000Y-182880000D03*
X179065000Y-182880000D03*
X181605000Y-182880000D03*
D12*
X260350000Y-70358000D03*
D11*
X270510000Y-70358000D03*
D12*
X96275000Y-106680000D03*
D11*
X96275000Y-116840000D03*
D12*
X168910000Y-95961200D03*
D11*
X158750000Y-95961200D03*
D12*
X30475000Y-138430000D03*
X25475000Y-138430000D03*
D22*
X245095000Y-102875000D03*
D23*
X245095000Y-105415000D03*
X245095000Y-107955000D03*
X245095000Y-110495000D03*
X245095000Y-113035000D03*
X245095000Y-115575000D03*
X245095000Y-118115000D03*
X245095000Y-120655000D03*
X245095000Y-123195000D03*
X245095000Y-125735000D03*
X252715000Y-125735000D03*
X252715000Y-123195000D03*
X252715000Y-120655000D03*
X252715000Y-118115000D03*
X252715000Y-115575000D03*
X252715000Y-113035000D03*
X252715000Y-110495000D03*
X252715000Y-107955000D03*
X252715000Y-105415000D03*
X252715000Y-102875000D03*
D10*
X203200000Y-66040000D03*
D11*
X210820000Y-66040000D03*
D12*
X110998000Y-18542000D03*
D11*
X121158000Y-18542000D03*
D22*
X146035000Y-36845000D03*
D23*
X146035000Y-39385000D03*
X146035000Y-41925000D03*
X146035000Y-44465000D03*
X146035000Y-47005000D03*
X146035000Y-49545000D03*
X146035000Y-52085000D03*
X146035000Y-54625000D03*
X153655000Y-54625000D03*
X153655000Y-52085000D03*
X153655000Y-49545000D03*
X153655000Y-47005000D03*
X153655000Y-44465000D03*
X153655000Y-41925000D03*
X153655000Y-39385000D03*
X153655000Y-36845000D03*
D12*
X100370000Y-45720000D03*
X105370000Y-45720000D03*
D10*
X193548000Y-24638000D03*
D11*
X193548000Y-17018000D03*
D22*
X146035000Y-114295000D03*
D23*
X146035000Y-116835000D03*
X146035000Y-119375000D03*
X146035000Y-121915000D03*
X146035000Y-124455000D03*
X146035000Y-126995000D03*
X146035000Y-129535000D03*
X153655000Y-129535000D03*
X153655000Y-126995000D03*
X153655000Y-124455000D03*
X153655000Y-121915000D03*
X153655000Y-119375000D03*
X153655000Y-116835000D03*
X153655000Y-114295000D03*
D12*
X40386000Y-175260000D03*
D11*
X40386000Y-185420000D03*
D13*
X34290000Y-87635000D03*
D14*
X36830000Y-87635000D03*
X39370000Y-87635000D03*
X41910000Y-87635000D03*
X44450000Y-87635000D03*
X46990000Y-87635000D03*
X49530000Y-87635000D03*
X52070000Y-87635000D03*
X54610000Y-87635000D03*
X57150000Y-87635000D03*
X59690000Y-87635000D03*
X62230000Y-87635000D03*
X64770000Y-87635000D03*
X67310000Y-87635000D03*
X69850000Y-87635000D03*
X72390000Y-87635000D03*
X74930000Y-87635000D03*
X77470000Y-87635000D03*
X80010000Y-87635000D03*
X82550000Y-87635000D03*
X82550000Y-72395000D03*
X80010000Y-72395000D03*
X77470000Y-72395000D03*
X74930000Y-72395000D03*
X72390000Y-72395000D03*
X69850000Y-72395000D03*
X67310000Y-72395000D03*
X64770000Y-72395000D03*
X62230000Y-72395000D03*
X59690000Y-72395000D03*
X57150000Y-72395000D03*
X54610000Y-72395000D03*
X52070000Y-72395000D03*
X49530000Y-72395000D03*
X46990000Y-72395000D03*
X44450000Y-72395000D03*
X41910000Y-72395000D03*
X39370000Y-72395000D03*
X36830000Y-72395000D03*
X34290000Y-72395000D03*
D12*
X25395000Y-74930000D03*
X25395000Y-72430000D03*
D10*
X203327000Y-38227000D03*
D11*
X210947000Y-38227000D03*
D10*
X237490000Y-72390000D03*
D11*
X229870000Y-72390000D03*
D12*
X260350000Y-33782000D03*
D11*
X270510000Y-33782000D03*
D10*
X203327000Y-122047000D03*
D11*
X210947000Y-122047000D03*
D10*
X203327000Y-111887000D03*
D11*
X210947000Y-111887000D03*
D10*
X203327000Y-91567000D03*
D11*
X210947000Y-91567000D03*
D12*
X168960800Y-127863600D03*
D11*
X158800800Y-127863600D03*
D12*
X64765000Y-157480000D03*
D11*
X74925000Y-157480000D03*
D12*
X177647600Y-69951600D03*
D11*
X167487600Y-69951600D03*
D12*
X130810000Y-95961200D03*
D11*
X140970000Y-95961200D03*
D12*
X177800000Y-51460400D03*
D11*
X167640000Y-51460400D03*
D30*
X297130200Y-181827200D03*
X297130200Y-179287200D03*
X297130200Y-176747200D03*
X297168300Y-174258000D03*
X297130200Y-171667200D03*
X297130200Y-169127200D03*
X297130200Y-166587200D03*
X297130200Y-164047200D03*
X297130200Y-161507200D03*
X297130200Y-158967200D03*
X297130200Y-156427200D03*
X297130200Y-153887200D03*
X297142900Y-151321800D03*
D12*
X141020800Y-127711200D03*
D11*
X130860800Y-127711200D03*
D22*
X187960000Y-111887000D03*
D23*
X187960000Y-114427000D03*
X187960000Y-116967000D03*
X187960000Y-119507000D03*
X187960000Y-122047000D03*
X187960000Y-124587000D03*
X187960000Y-127127000D03*
X187960000Y-129667000D03*
X195580000Y-129667000D03*
X195580000Y-127127000D03*
X195580000Y-124587000D03*
X195580000Y-122047000D03*
X195580000Y-119507000D03*
X195580000Y-116967000D03*
X195580000Y-114427000D03*
X195580000Y-111887000D03*
D12*
X250190000Y-177800000D03*
D11*
X250190000Y-167640000D03*
D12*
X260350000Y-49022000D03*
D11*
X270510000Y-49022000D03*
D10*
X203327000Y-50927000D03*
D11*
X210947000Y-50927000D03*
D12*
X168859200Y-124460000D03*
D11*
X158699200Y-124460000D03*
D10*
X22860000Y-179425600D03*
D11*
X15240000Y-179425600D03*
D22*
X146035000Y-88895000D03*
D23*
X146035000Y-91435000D03*
X146035000Y-93975000D03*
X146035000Y-96515000D03*
X146035000Y-99055000D03*
X146035000Y-101595000D03*
X146035000Y-104135000D03*
X153655000Y-104135000D03*
X153655000Y-101595000D03*
X153655000Y-99055000D03*
X153655000Y-96515000D03*
X153655000Y-93975000D03*
X153655000Y-91435000D03*
X153655000Y-88895000D03*
D12*
X110998000Y-39878000D03*
D11*
X121158000Y-39878000D03*
D12*
X173975000Y-126995000D03*
D11*
X173975000Y-116835000D03*
D12*
X110998000Y-21590000D03*
D11*
X121158000Y-21590000D03*
D10*
X22860000Y-174599600D03*
D11*
X15240000Y-174599600D03*
D12*
X251405000Y-99060000D03*
X246405000Y-99060000D03*
D10*
X203327000Y-48387000D03*
D11*
X210947000Y-48387000D03*
D10*
X203327000Y-53467000D03*
D11*
X210947000Y-53467000D03*
D12*
X177088800Y-127050800D03*
D11*
X177088800Y-116890800D03*
D10*
X237490000Y-57150000D03*
D11*
X229870000Y-57150000D03*
D31*
X297475000Y-89564000D03*
X297475000Y-85614000D03*
X297475000Y-81564000D03*
X297475000Y-73564000D03*
X297475000Y-69614000D03*
X297475000Y-65564000D03*
X297475000Y-61614000D03*
X297475000Y-57564000D03*
X297475000Y-53614000D03*
X297475000Y-49564000D03*
X297475000Y-45614000D03*
D10*
X203200000Y-76250800D03*
D11*
X210820000Y-76250800D03*
D12*
X132080000Y-165100000D03*
D11*
X142240000Y-165100000D03*
D32*
X17865000Y-92680000D03*
X22765000Y-92680000D03*
D18*
X251460000Y-72390000D03*
D19*
X241300000Y-72390000D03*
D12*
X173975000Y-101600000D03*
D11*
X173975000Y-91440000D03*
D12*
X30485000Y-158765000D03*
D11*
X40645000Y-158765000D03*
D12*
X260350000Y-39878000D03*
D11*
X270510000Y-39878000D03*
D10*
X203327000Y-119507000D03*
D11*
X210947000Y-119507000D03*
D12*
X126238000Y-101600000D03*
D11*
X126238000Y-91440000D03*
D10*
X237490000Y-52070000D03*
D11*
X229870000Y-52070000D03*
D12*
X158735000Y-83820000D03*
D11*
X168895000Y-83820000D03*
D12*
X260350000Y-36830000D03*
D11*
X270510000Y-36830000D03*
D10*
X285750000Y-168910000D03*
D11*
X278130000Y-168910000D03*
D10*
X237490000Y-67310000D03*
D11*
X229870000Y-67310000D03*
D12*
X123175000Y-101600000D03*
D11*
X123175000Y-91440000D03*
D22*
X187960000Y-61087000D03*
D23*
X187960000Y-63627000D03*
X187960000Y-66167000D03*
X187960000Y-68707000D03*
X187960000Y-71247000D03*
X187960000Y-73787000D03*
X187960000Y-76327000D03*
X187960000Y-78867000D03*
X195580000Y-78867000D03*
X195580000Y-76327000D03*
X195580000Y-73787000D03*
X195580000Y-71247000D03*
X195580000Y-68707000D03*
X195580000Y-66167000D03*
X195580000Y-63627000D03*
X195580000Y-61087000D03*
D12*
X97795000Y-11430000D03*
D11*
X97795000Y-21590000D03*
D13*
X35565000Y-171465000D03*
D14*
X38105000Y-171465000D03*
X40645000Y-171465000D03*
X43185000Y-171465000D03*
X43185000Y-163845000D03*
X40645000Y-163845000D03*
X38105000Y-163845000D03*
X35565000Y-163845000D03*
D22*
X187960000Y-86487000D03*
D23*
X187960000Y-89027000D03*
X187960000Y-91567000D03*
X187960000Y-94107000D03*
X187960000Y-96647000D03*
X187960000Y-99187000D03*
X187960000Y-101727000D03*
X187960000Y-104267000D03*
X195580000Y-104267000D03*
X195580000Y-101727000D03*
X195580000Y-99187000D03*
X195580000Y-96647000D03*
X195580000Y-94107000D03*
X195580000Y-91567000D03*
X195580000Y-89027000D03*
X195580000Y-86487000D03*
D12*
X260350000Y-73406000D03*
D11*
X270510000Y-73406000D03*
D12*
X94742000Y-11430000D03*
D11*
X94742000Y-21590000D03*
D12*
X38095000Y-109220000D03*
D11*
X38095000Y-99060000D03*
D17*
X49276000Y-158750000D03*
D13*
X95255000Y-33035000D03*
D14*
X97795000Y-33035000D03*
X100335000Y-33035000D03*
X102875000Y-33035000D03*
X102875000Y-25415000D03*
X100335000Y-25415000D03*
X97795000Y-25415000D03*
X95255000Y-25415000D03*
D12*
X62225000Y-170180000D03*
X62225000Y-175180000D03*
D10*
X203327000Y-104267000D03*
D11*
X210947000Y-104267000D03*
D15*
X8885000Y-146055000D03*
D16*
X8885000Y-148595000D03*
X8885000Y-151135000D03*
X8885000Y-153675000D03*
X8885000Y-156215000D03*
X8885000Y-158755000D03*
X8885000Y-161295000D03*
X8885000Y-163835000D03*
X8885000Y-166375000D03*
X8885000Y-168915000D03*
X8885000Y-171455000D03*
X8885000Y-173995000D03*
X8885000Y-176535000D03*
X8885000Y-179075000D03*
X8885000Y-181615000D03*
D10*
X203327000Y-114427000D03*
D11*
X210947000Y-114427000D03*
D12*
X177647600Y-73101200D03*
D11*
X167487600Y-73101200D03*
D12*
X103886000Y-11430000D03*
D11*
X103886000Y-21590000D03*
D12*
X167625000Y-109215000D03*
X162625000Y-109215000D03*
D22*
X187960000Y-35687000D03*
D23*
X187960000Y-38227000D03*
X187960000Y-40767000D03*
X187960000Y-43307000D03*
X187960000Y-45847000D03*
X187960000Y-48387000D03*
X187960000Y-50927000D03*
X187960000Y-53467000D03*
X195580000Y-53467000D03*
X195580000Y-50927000D03*
X195580000Y-48387000D03*
X195580000Y-45847000D03*
X195580000Y-43307000D03*
X195580000Y-40767000D03*
X195580000Y-38227000D03*
X195580000Y-35687000D03*
D10*
X30475000Y-146050000D03*
D12*
X27975000Y-146050000D03*
X177139600Y-101600000D03*
D11*
X177139600Y-91440000D03*
D12*
X72385000Y-120650000D03*
D11*
X82545000Y-120650000D03*
D22*
X146035000Y-62245000D03*
D23*
X146035000Y-64785000D03*
X146035000Y-67325000D03*
X146035000Y-69865000D03*
X146035000Y-72405000D03*
X146035000Y-74945000D03*
X146035000Y-77485000D03*
X146035000Y-80025000D03*
X153655000Y-80025000D03*
X153655000Y-77485000D03*
X153655000Y-74945000D03*
X153655000Y-72405000D03*
X153655000Y-69865000D03*
X153655000Y-67325000D03*
X153655000Y-64785000D03*
X153655000Y-62245000D03*
D12*
X260350000Y-45974000D03*
D11*
X270510000Y-45974000D03*
D10*
X237490000Y-46990000D03*
D11*
X229870000Y-46990000D03*
D12*
X97790000Y-154940000D03*
D11*
X107950000Y-154940000D03*
D15*
X279400000Y-72385000D03*
D16*
X279400000Y-69845000D03*
X279400000Y-67305000D03*
X279400000Y-64765000D03*
X279400000Y-62225000D03*
X279400000Y-59685000D03*
X279400000Y-57145000D03*
X279400000Y-54605000D03*
X279400000Y-52065000D03*
X279400000Y-49525000D03*
X279400000Y-46985000D03*
X279400000Y-44445000D03*
X279400000Y-41905000D03*
X279400000Y-39365000D03*
X279400000Y-36825000D03*
D15*
X238506000Y-11176000D03*
D16*
X235966000Y-11176000D03*
X233426000Y-11176000D03*
D12*
X168895000Y-114295000D03*
D11*
X158735000Y-114295000D03*
D27*
X294640000Y-11430000D03*
D13*
X49510000Y-113035000D03*
D14*
X52050000Y-113035000D03*
X54590000Y-113035000D03*
X57130000Y-113035000D03*
X59670000Y-113035000D03*
X62210000Y-113035000D03*
X64750000Y-113035000D03*
X67290000Y-113035000D03*
X69830000Y-113035000D03*
X72370000Y-113035000D03*
X74910000Y-113035000D03*
X77450000Y-113035000D03*
X79990000Y-113035000D03*
X82530000Y-113035000D03*
X82530000Y-97795000D03*
X79990000Y-97795000D03*
X77450000Y-97795000D03*
X74910000Y-97795000D03*
X72370000Y-97795000D03*
X69830000Y-97795000D03*
X67290000Y-97795000D03*
X64750000Y-97795000D03*
X62210000Y-97795000D03*
X59670000Y-97795000D03*
X57130000Y-97795000D03*
X54590000Y-97795000D03*
X52050000Y-97795000D03*
X49510000Y-97795000D03*
D12*
X266645000Y-99065000D03*
X261645000Y-99065000D03*
X23266400Y-184302400D03*
D11*
X13106400Y-184302400D03*
D12*
X110998000Y-30734000D03*
D11*
X121158000Y-30734000D03*
D17*
X40386000Y-143256000D03*
D10*
X285750000Y-166370000D03*
D11*
X278130000Y-166370000D03*
D18*
X251460000Y-67310000D03*
D19*
X241300000Y-67310000D03*
D12*
X229870000Y-154940000D03*
X224870000Y-154940000D03*
X147345000Y-109220000D03*
X152345000Y-109220000D03*
D10*
X203327000Y-99187000D03*
D11*
X210947000Y-99187000D03*
D10*
X203327000Y-101727000D03*
D11*
X210947000Y-101727000D03*
D18*
X251460000Y-62230000D03*
D19*
X241300000Y-62230000D03*
D12*
X271018000Y-177800000D03*
D11*
X271018000Y-167640000D03*
D12*
X168859200Y-121259600D03*
D11*
X158699200Y-121259600D03*
D12*
X253238000Y-177800000D03*
D11*
X253238000Y-167640000D03*
D10*
X203327000Y-45847000D03*
D11*
X210947000Y-45847000D03*
D12*
X130795000Y-99060000D03*
D11*
X140955000Y-99060000D03*
D27*
X294640000Y-128905000D03*
D10*
X237490000Y-62230000D03*
D11*
X229870000Y-62230000D03*
D12*
X224790000Y-107950000D03*
D11*
X224790000Y-118110000D03*
D10*
X285750000Y-163830000D03*
D11*
X278130000Y-163830000D03*
D12*
X236165000Y-99055000D03*
X231165000Y-99055000D03*
D22*
X223520000Y-160020000D03*
D23*
X223520000Y-162560000D03*
X223520000Y-165100000D03*
X223520000Y-167640000D03*
X223520000Y-170180000D03*
X223520000Y-172720000D03*
X223520000Y-175260000D03*
X231140000Y-175260000D03*
X231140000Y-172720000D03*
X231140000Y-170180000D03*
X231140000Y-167640000D03*
X231140000Y-165100000D03*
X231140000Y-162560000D03*
X231140000Y-160020000D03*
D12*
X152400000Y-58420000D03*
X147400000Y-58420000D03*
D15*
X180325000Y-11430000D03*
D16*
X177785000Y-11430000D03*
X175245000Y-11430000D03*
X172705000Y-11430000D03*
X170165000Y-11430000D03*
X167625000Y-11430000D03*
X165085000Y-11430000D03*
X162545000Y-11430000D03*
X160005000Y-11430000D03*
D12*
X260350000Y-61214000D03*
D11*
X270510000Y-61214000D03*
D12*
X260350000Y-58166000D03*
D11*
X270510000Y-58166000D03*
D10*
X203327000Y-86309200D03*
D11*
X210947000Y-86309200D03*
D17*
X49276000Y-166624000D03*
D12*
X189230000Y-170195000D03*
D11*
X199390000Y-170195000D03*
D12*
X45715000Y-102910000D03*
X45715000Y-107910000D03*
M02*
