%TF.GenerationSoftware,KiCad,Pcbnew,6.0.1-79c1e3a40b~116~ubuntu20.04.1*%
%TF.CreationDate,2022-02-19T12:12:04-05:00*%
%TF.ProjectId,gp-mpu,67702d6d-7075-42e6-9b69-6361645f7063,rev?*%
%TF.SameCoordinates,Original*%
%TF.FileFunction,Copper,L1,Top*%
%TF.FilePolarity,Positive*%
%FSLAX46Y46*%
G04 Gerber Fmt 4.6, Leading zero omitted, Abs format (unit mm)*
G04 Created by KiCad (PCBNEW 6.0.1-79c1e3a40b~116~ubuntu20.04.1) date 2022-02-19 12:12:04*
%MOMM*%
%LPD*%
G01*
G04 APERTURE LIST*
%TA.AperFunction,ComponentPad*%
%ADD10R,1.600000X1.600000*%
%TD*%
%TA.AperFunction,ComponentPad*%
%ADD11O,1.600000X1.600000*%
%TD*%
%TA.AperFunction,ComponentPad*%
%ADD12C,1.600000*%
%TD*%
%TA.AperFunction,ComponentPad*%
%ADD13R,1.600000X2.400000*%
%TD*%
%TA.AperFunction,ComponentPad*%
%ADD14O,1.600000X2.400000*%
%TD*%
%TA.AperFunction,ComponentPad*%
%ADD15R,1.700000X1.700000*%
%TD*%
%TA.AperFunction,ComponentPad*%
%ADD16O,1.700000X1.700000*%
%TD*%
%TA.AperFunction,ComponentPad*%
%ADD17C,3.000000*%
%TD*%
%TA.AperFunction,ComponentPad*%
%ADD18R,2.200000X2.200000*%
%TD*%
%TA.AperFunction,ComponentPad*%
%ADD19O,2.200000X2.200000*%
%TD*%
%TA.AperFunction,ComponentPad*%
%ADD20R,1.800000X1.800000*%
%TD*%
%TA.AperFunction,ComponentPad*%
%ADD21C,1.800000*%
%TD*%
%TA.AperFunction,ComponentPad*%
%ADD22R,2.400000X1.600000*%
%TD*%
%TA.AperFunction,ComponentPad*%
%ADD23O,2.400000X1.600000*%
%TD*%
%TA.AperFunction,ComponentPad*%
%ADD24C,2.000000*%
%TD*%
%TA.AperFunction,ComponentPad*%
%ADD25R,1.050000X1.500000*%
%TD*%
%TA.AperFunction,ComponentPad*%
%ADD26O,1.050000X1.500000*%
%TD*%
%TA.AperFunction,ConnectorPad*%
%ADD27R,9.525000X1.780000*%
%TD*%
%TA.AperFunction,ConnectorPad*%
%ADD28R,9.000000X2.500000*%
%TD*%
%TA.AperFunction,ComponentPad*%
%ADD29C,1.500000*%
%TD*%
%TA.AperFunction,ViaPad*%
%ADD30C,0.685800*%
%TD*%
%TA.AperFunction,Conductor*%
%ADD31C,0.304800*%
%TD*%
%TA.AperFunction,Conductor*%
%ADD32C,1.524000*%
%TD*%
%TA.AperFunction,Conductor*%
%ADD33C,0.254000*%
%TD*%
%TA.AperFunction,Conductor*%
%ADD34C,1.270000*%
%TD*%
%TA.AperFunction,Conductor*%
%ADD35C,0.762000*%
%TD*%
%TA.AperFunction,Conductor*%
%ADD36C,0.152400*%
%TD*%
G04 APERTURE END LIST*
D10*
%TO.P,D42,1,K*%
%TO.N,Net-(D42-Pad1)*%
X203200000Y-73710800D03*
D11*
%TO.P,D42,2,A*%
%TO.N,SW_LINE5*%
X210820000Y-73710800D03*
%TD*%
D12*
%TO.P,C14,1*%
%TO.N,+5V*%
X152345000Y-153665000D03*
%TO.P,C14,2*%
%TO.N,GND*%
X147345000Y-153665000D03*
%TD*%
D13*
%TO.P,U6,1,VPP*%
%TO.N,unconnected-(U6-Pad1)*%
X44445000Y-36835000D03*
D14*
%TO.P,U6,2,A16*%
%TO.N,Net-(R4-Pad2)*%
X46985000Y-36835000D03*
%TO.P,U6,3,A15*%
%TO.N,Net-(R3-Pad2)*%
X49525000Y-36835000D03*
%TO.P,U6,4,A12*%
%TO.N,A12*%
X52065000Y-36835000D03*
%TO.P,U6,5,A7*%
%TO.N,A7*%
X54605000Y-36835000D03*
%TO.P,U6,6,A6*%
%TO.N,A6*%
X57145000Y-36835000D03*
%TO.P,U6,7,A5*%
%TO.N,A5*%
X59685000Y-36835000D03*
%TO.P,U6,8,A4*%
%TO.N,A4*%
X62225000Y-36835000D03*
%TO.P,U6,9,A3*%
%TO.N,A3*%
X64765000Y-36835000D03*
%TO.P,U6,10,A2*%
%TO.N,A2*%
X67305000Y-36835000D03*
%TO.P,U6,11,A1*%
%TO.N,A1*%
X69845000Y-36835000D03*
%TO.P,U6,12,A0*%
%TO.N,A0*%
X72385000Y-36835000D03*
%TO.P,U6,13,D0*%
%TO.N,D0*%
X74925000Y-36835000D03*
%TO.P,U6,14,D1*%
%TO.N,D1*%
X77465000Y-36835000D03*
%TO.P,U6,15,D2*%
%TO.N,D2*%
X80005000Y-36835000D03*
%TO.P,U6,16,GND*%
%TO.N,GND*%
X82545000Y-36835000D03*
%TO.P,U6,17,D3*%
%TO.N,D3*%
X82545000Y-21595000D03*
%TO.P,U6,18,D4*%
%TO.N,D4*%
X80005000Y-21595000D03*
%TO.P,U6,19,D5*%
%TO.N,D5*%
X77465000Y-21595000D03*
%TO.P,U6,20,D6*%
%TO.N,D6*%
X74925000Y-21595000D03*
%TO.P,U6,21,D7*%
%TO.N,D7*%
X72385000Y-21595000D03*
%TO.P,U6,22,~{CE}*%
%TO.N,{slash}ROM*%
X69845000Y-21595000D03*
%TO.P,U6,23,A10*%
%TO.N,A10*%
X67305000Y-21595000D03*
%TO.P,U6,24,~{OE}*%
%TO.N,{slash}RD*%
X64765000Y-21595000D03*
%TO.P,U6,25,A11*%
%TO.N,A11*%
X62225000Y-21595000D03*
%TO.P,U6,26,A9*%
%TO.N,A9*%
X59685000Y-21595000D03*
%TO.P,U6,27,A8*%
%TO.N,A8*%
X57145000Y-21595000D03*
%TO.P,U6,28,A13*%
%TO.N,A13*%
X54605000Y-21595000D03*
%TO.P,U6,29,A14*%
%TO.N,Net-(R2-Pad2)*%
X52065000Y-21595000D03*
%TO.P,U6,30,A17*%
%TO.N,Net-(R5-Pad2)*%
X49525000Y-21595000D03*
%TO.P,U6,31,~{PGM}*%
%TO.N,+5V*%
X46985000Y-21595000D03*
%TO.P,U6,32,VCC*%
X44445000Y-21595000D03*
%TD*%
D10*
%TO.P,D50,1,K*%
%TO.N,Net-(D50-Pad1)*%
X203327000Y-124587000D03*
D11*
%TO.P,D50,2,A*%
%TO.N,SW_LINE5*%
X210947000Y-124587000D03*
%TD*%
D12*
%TO.P,R21,1*%
%TO.N,DISP_CLK4*%
X270510000Y-67310000D03*
D11*
%TO.P,R21,2*%
%TO.N,STROBE3*%
X260350000Y-67310000D03*
%TD*%
D12*
%TO.P,C5,1*%
%TO.N,Net-(C5-Pad1)*%
X97745000Y-161290000D03*
%TO.P,C5,2*%
%TO.N,GND*%
X92745000Y-161290000D03*
%TD*%
D13*
%TO.P,U5,1*%
%TO.N,{slash}IOREQ*%
X67300000Y-176545000D03*
D14*
%TO.P,U5,2*%
X69840000Y-176545000D03*
%TO.P,U5,3*%
%TO.N,Net-(U5-Pad3)*%
X72380000Y-176545000D03*
%TO.P,U5,4*%
X74920000Y-176545000D03*
%TO.P,U5,5*%
%TO.N,A2*%
X77460000Y-176545000D03*
%TO.P,U5,6*%
%TO.N,PIO-CS*%
X80000000Y-176545000D03*
%TO.P,U5,7,GND*%
%TO.N,GND*%
X82540000Y-176545000D03*
%TO.P,U5,8*%
%TO.N,unconnected-(U5-Pad8)*%
X82540000Y-168925000D03*
%TO.P,U5,9*%
%TO.N,GND*%
X80000000Y-168925000D03*
%TO.P,U5,10*%
X77460000Y-168925000D03*
%TO.P,U5,11*%
%TO.N,unconnected-(U5-Pad11)*%
X74920000Y-168925000D03*
%TO.P,U5,12*%
%TO.N,GND*%
X72380000Y-168925000D03*
%TO.P,U5,13*%
X69840000Y-168925000D03*
%TO.P,U5,14,VCC*%
%TO.N,+5V*%
X67300000Y-168925000D03*
%TD*%
D15*
%TO.P,J4,1,Pin_1*%
%TO.N,PERIPH1_4*%
X279400000Y-115316000D03*
D16*
%TO.P,J4,2,Pin_2*%
%TO.N,PERIPH1_3*%
X279400000Y-112776000D03*
%TO.P,J4,3,Pin_3*%
%TO.N,unconnected-(J4-Pad3)*%
X279400000Y-110236000D03*
%TO.P,J4,4,Pin_4*%
%TO.N,PERIPH1_2*%
X279400000Y-107696000D03*
%TO.P,J4,5,Pin_5*%
%TO.N,PERIPH1_1*%
X279400000Y-105156000D03*
%TO.P,J4,6,Pin_6*%
%TO.N,unconnected-(J4-Pad6)*%
X279400000Y-102616000D03*
%TO.P,J4,7,Pin_7*%
%TO.N,unconnected-(J4-Pad7)*%
X279400000Y-100076000D03*
%TO.P,J4,8,Pin_8*%
%TO.N,unconnected-(J4-Pad8)*%
X279400000Y-97536000D03*
%TO.P,J4,9,Pin_9*%
%TO.N,DIGIT6*%
X279400000Y-94996000D03*
%TD*%
D12*
%TO.P,L1,1,1*%
%TO.N,5Volt*%
X40635000Y-133350000D03*
D11*
%TO.P,L1,2,2*%
%TO.N,+5V*%
X30475000Y-133350000D03*
%TD*%
D17*
%TO.P,TP6,1,1*%
%TO.N,Net-(R33-Pad2)*%
X88895000Y-153670000D03*
%TD*%
D12*
%TO.P,R32,1*%
%TO.N,GND*%
X88895000Y-161290000D03*
D11*
%TO.P,R32,2*%
%TO.N,Net-(R31-Pad2)*%
X78735000Y-161290000D03*
%TD*%
D12*
%TO.P,R69,1*%
%TO.N,Net-(R53-Pad2)*%
X125715000Y-126995000D03*
D11*
%TO.P,R69,2*%
%TO.N,PB0*%
X125715000Y-116835000D03*
%TD*%
D12*
%TO.P,R25,1*%
%TO.N,Net-(R24-Pad2)*%
X23368000Y-77724000D03*
D11*
%TO.P,R25,2*%
%TO.N,Net-(R25-Pad2)*%
X23368000Y-87884000D03*
%TD*%
D10*
%TO.P,D16,1,K*%
%TO.N,+5V*%
X285750000Y-171450000D03*
D11*
%TO.P,D16,2,A*%
%TO.N,DIGIT3*%
X278130000Y-171450000D03*
%TD*%
D10*
%TO.P,D19,1,K*%
%TO.N,+5V*%
X285750000Y-161290000D03*
D11*
%TO.P,D19,2,A*%
%TO.N,DIGIT6*%
X278130000Y-161290000D03*
%TD*%
D18*
%TO.P,D5,1,K*%
%TO.N,+5V*%
X251460000Y-57150000D03*
D19*
%TO.P,D5,2,A*%
%TO.N,DISP_CLK2*%
X241300000Y-57150000D03*
%TD*%
D12*
%TO.P,R17,1*%
%TO.N,Net-(D1-Pad2)*%
X270510000Y-64262000D03*
D11*
%TO.P,R17,2*%
%TO.N,LAMP_EN4*%
X260350000Y-64262000D03*
%TD*%
D12*
%TO.P,R37,1*%
%TO.N,+12V*%
X264922000Y-177800000D03*
D11*
%TO.P,R37,2*%
%TO.N,DIGIT1*%
X264922000Y-167640000D03*
%TD*%
D20*
%TO.P,D58,1,K*%
%TO.N,GND*%
X28656200Y-184353200D03*
D21*
%TO.P,D58,2,A*%
%TO.N,Net-(D58-Pad2)*%
X26116200Y-184353200D03*
%TD*%
D12*
%TO.P,R13,1*%
%TO.N,+5V*%
X177698400Y-66852800D03*
D11*
%TO.P,R13,2*%
%TO.N,DISP_CLK3*%
X167538400Y-66852800D03*
%TD*%
D12*
%TO.P,R54,1*%
%TO.N,SW_LINE0*%
X130860800Y-121412000D03*
D11*
%TO.P,R54,2*%
%TO.N,Net-(R54-Pad2)*%
X141020800Y-121412000D03*
%TD*%
D22*
%TO.P,U9,1*%
%TO.N,PA0*%
X146035000Y-157475000D03*
D23*
%TO.P,U9,2*%
%TO.N,ADDR1*%
X146035000Y-160015000D03*
%TO.P,U9,3*%
%TO.N,PA1*%
X146035000Y-162555000D03*
%TO.P,U9,4*%
%TO.N,ADDR2*%
X146035000Y-165095000D03*
%TO.P,U9,5*%
%TO.N,PA2*%
X146035000Y-167635000D03*
%TO.P,U9,6*%
%TO.N,ADDR3*%
X146035000Y-170175000D03*
%TO.P,U9,7,Gnd*%
%TO.N,GND*%
X146035000Y-172715000D03*
%TO.P,U9,8*%
%TO.N,ADDR4*%
X153655000Y-172715000D03*
%TO.P,U9,9*%
%TO.N,PA3*%
X153655000Y-170175000D03*
%TO.P,U9,10*%
%TO.N,DIGIT1*%
X153655000Y-167635000D03*
%TO.P,U9,11*%
%TO.N,Net-(U12-Pad11)*%
X153655000Y-165095000D03*
%TO.P,U9,12*%
%TO.N,PERIPH_EN*%
X153655000Y-162555000D03*
%TO.P,U9,13*%
%TO.N,PC4*%
X153655000Y-160015000D03*
%TO.P,U9,14,Vcc*%
%TO.N,+5V*%
X153655000Y-157475000D03*
%TD*%
D12*
%TO.P,R33,1*%
%TO.N,Net-(R30-Pad2)*%
X82545000Y-130810000D03*
D11*
%TO.P,R33,2*%
%TO.N,Net-(R33-Pad2)*%
X72385000Y-130810000D03*
%TD*%
D12*
%TO.P,C7,1*%
%TO.N,+5V*%
X30475000Y-82550000D03*
%TO.P,C7,2*%
%TO.N,GND*%
X30475000Y-77550000D03*
%TD*%
D10*
%TO.P,D21,1,K*%
%TO.N,Net-(D21-Pad1)*%
X203327000Y-40767000D03*
D11*
%TO.P,D21,2,A*%
%TO.N,SW_LINE2*%
X210947000Y-40767000D03*
%TD*%
D22*
%TO.P,U12,1*%
%TO.N,LATCH0*%
X229855000Y-102865000D03*
D23*
%TO.P,U12,2*%
%TO.N,LATCH1*%
X229855000Y-105405000D03*
%TO.P,U12,3*%
%TO.N,Net-(R16-Pad1)*%
X229855000Y-107945000D03*
%TO.P,U12,4*%
%TO.N,Net-(C1-Pad1)*%
X229855000Y-110485000D03*
%TO.P,U12,5*%
X229855000Y-113025000D03*
%TO.P,U12,6*%
%TO.N,Net-(U12-Pad10)*%
X229855000Y-115565000D03*
%TO.P,U12,7,GND*%
%TO.N,GND*%
X229855000Y-118105000D03*
%TO.P,U12,8*%
%TO.N,LATCH_CLK*%
X237475000Y-118105000D03*
%TO.P,U12,9*%
%TO.N,Net-(U12-Pad10)*%
X237475000Y-115565000D03*
%TO.P,U12,10*%
X237475000Y-113025000D03*
%TO.P,U12,11*%
%TO.N,Net-(U12-Pad11)*%
X237475000Y-110485000D03*
%TO.P,U12,12*%
%TO.N,Net-(U12-Pad12)*%
X237475000Y-107945000D03*
%TO.P,U12,13*%
X237475000Y-105405000D03*
%TO.P,U12,14,VCC*%
%TO.N,+5V*%
X237475000Y-102865000D03*
%TD*%
D22*
%TO.P,U17,1,A0*%
%TO.N,PC0*%
X204455000Y-157495000D03*
D23*
%TO.P,U17,2,A1*%
%TO.N,PC1*%
X204455000Y-160035000D03*
%TO.P,U17,3,A2*%
%TO.N,PC2*%
X204455000Y-162575000D03*
%TO.P,U17,4,E1*%
%TO.N,GND*%
X204455000Y-165115000D03*
%TO.P,U17,5,E2*%
X204455000Y-167655000D03*
%TO.P,U17,6,E3*%
%TO.N,Net-(R35-Pad2)*%
X204455000Y-170195000D03*
%TO.P,U17,7,O7*%
%TO.N,unconnected-(U17-Pad7)*%
X204455000Y-172735000D03*
%TO.P,U17,8,GND*%
%TO.N,GND*%
X204455000Y-175275000D03*
%TO.P,U17,9,O6*%
%TO.N,Net-(U17-Pad9)*%
X212075000Y-175275000D03*
%TO.P,U17,10,O5*%
%TO.N,Net-(U17-Pad10)*%
X212075000Y-172735000D03*
%TO.P,U17,11,O4*%
%TO.N,Net-(U17-Pad11)*%
X212075000Y-170195000D03*
%TO.P,U17,12,O3*%
%TO.N,Net-(U17-Pad12)*%
X212075000Y-167655000D03*
%TO.P,U17,13,O2*%
%TO.N,Net-(U17-Pad13)*%
X212075000Y-165115000D03*
%TO.P,U17,14,O1*%
%TO.N,Net-(U12-Pad12)*%
X212075000Y-162575000D03*
%TO.P,U17,15,O0*%
%TO.N,Net-(U17-Pad15)*%
X212075000Y-160035000D03*
%TO.P,U17,16,VCC*%
%TO.N,+5V*%
X212075000Y-157495000D03*
%TD*%
D12*
%TO.P,R8,1*%
%TO.N,+5V*%
X132080000Y-170180000D03*
D11*
%TO.P,R8,2*%
%TO.N,ADDR3*%
X142240000Y-170180000D03*
%TD*%
D13*
%TO.P,U4,1*%
%TO.N,A15*%
X20310000Y-49545000D03*
D14*
%TO.P,U4,2*%
%TO.N,{slash}MREQ*%
X22850000Y-49545000D03*
%TO.P,U4,3*%
%TO.N,{slash}ROM*%
X25390000Y-49545000D03*
%TO.P,U4,4*%
%TO.N,Net-(U3-Pad10)*%
X27930000Y-49545000D03*
%TO.P,U4,5*%
%TO.N,{slash}MREQ*%
X30470000Y-49545000D03*
%TO.P,U4,6*%
%TO.N,{slash}RAM*%
X33010000Y-49545000D03*
%TO.P,U4,7,GND*%
%TO.N,GND*%
X35550000Y-49545000D03*
%TO.P,U4,8*%
%TO.N,unconnected-(U4-Pad8)*%
X35550000Y-41925000D03*
%TO.P,U4,9*%
%TO.N,GND*%
X33010000Y-41925000D03*
%TO.P,U4,10*%
X30470000Y-41925000D03*
%TO.P,U4,11*%
%TO.N,unconnected-(U4-Pad11)*%
X27930000Y-41925000D03*
%TO.P,U4,12*%
%TO.N,GND*%
X25390000Y-41925000D03*
%TO.P,U4,13*%
X22850000Y-41925000D03*
%TO.P,U4,14,VCC*%
%TO.N,+5V*%
X20310000Y-41925000D03*
%TD*%
D12*
%TO.P,R24,1*%
%TO.N,Net-(C2-Pad1)*%
X20315000Y-67310000D03*
D11*
%TO.P,R24,2*%
%TO.N,Net-(R24-Pad2)*%
X20315000Y-77470000D03*
%TD*%
D12*
%TO.P,R31,1*%
%TO.N,+5V*%
X64765000Y-161290000D03*
D11*
%TO.P,R31,2*%
%TO.N,Net-(R31-Pad2)*%
X74925000Y-161290000D03*
%TD*%
D12*
%TO.P,C20,1*%
%TO.N,+5V*%
X44577000Y-51094000D03*
%TO.P,C20,2*%
%TO.N,GND*%
X44577000Y-56094000D03*
%TD*%
%TO.P,R85,1*%
%TO.N,+5V*%
X110998000Y-33782000D03*
D11*
%TO.P,R85,2*%
%TO.N,PB2*%
X121158000Y-33782000D03*
%TD*%
D24*
%TO.P,SW6,1,1*%
%TO.N,STROBE0*%
X128560000Y-66750000D03*
X128560000Y-60250000D03*
%TO.P,SW6,2,2*%
%TO.N,Net-(D53-Pad1)*%
X133060000Y-66750000D03*
X133060000Y-60250000D03*
%TD*%
D12*
%TO.P,R77,1*%
%TO.N,+5V*%
X120650000Y-69850000D03*
D11*
%TO.P,R77,2*%
%TO.N,Net-(D52-Pad2)*%
X120650000Y-80010000D03*
%TD*%
D10*
%TO.P,D30,1,K*%
%TO.N,Net-(D30-Pad1)*%
X203327000Y-96647000D03*
D11*
%TO.P,D30,2,A*%
%TO.N,SW_LINE4*%
X210947000Y-96647000D03*
%TD*%
D12*
%TO.P,R55,1*%
%TO.N,Net-(C6-Pad1)*%
X130860800Y-130860800D03*
D11*
%TO.P,R55,2*%
%TO.N,Net-(R55-Pad2)*%
X141020800Y-130860800D03*
%TD*%
D20*
%TO.P,D57,1,K*%
%TO.N,GND*%
X28605400Y-179425600D03*
D21*
%TO.P,D57,2,A*%
%TO.N,Net-(D56-Pad1)*%
X26065400Y-179425600D03*
%TD*%
D10*
%TO.P,D14,1,K*%
%TO.N,+5V*%
X285750000Y-176530000D03*
D11*
%TO.P,D14,2,A*%
%TO.N,DIGIT1*%
X278130000Y-176530000D03*
%TD*%
D10*
%TO.P,D43,1,K*%
%TO.N,Net-(D43-Pad1)*%
X203200000Y-78841600D03*
D11*
%TO.P,D43,2,A*%
%TO.N,SW_LINE7*%
X210820000Y-78841600D03*
%TD*%
D10*
%TO.P,D40,1,K*%
%TO.N,Net-(D40-Pad1)*%
X203200000Y-63500000D03*
D11*
%TO.P,D40,2,A*%
%TO.N,SW_LINE1*%
X210820000Y-63500000D03*
%TD*%
D12*
%TO.P,C19,1*%
%TO.N,+5V*%
X210805000Y-152415000D03*
%TO.P,C19,2*%
%TO.N,GND*%
X205805000Y-152415000D03*
%TD*%
D25*
%TO.P,Q1,1,E*%
%TO.N,GND*%
X133350000Y-80010000D03*
D26*
%TO.P,Q1,2,B*%
%TO.N,PC3*%
X132080000Y-80010000D03*
%TO.P,Q1,3,C*%
%TO.N,Net-(D52-Pad1)*%
X130810000Y-80010000D03*
%TD*%
D10*
%TO.P,D26,1,K*%
%TO.N,Net-(D26-Pad1)*%
X203200000Y-71120000D03*
D11*
%TO.P,D26,2,A*%
%TO.N,SW_LINE4*%
X210820000Y-71120000D03*
%TD*%
D10*
%TO.P,D33,1,K*%
%TO.N,Net-(D33-Pad1)*%
X203327000Y-116967000D03*
D11*
%TO.P,D33,2,A*%
%TO.N,SW_LINE2*%
X210947000Y-116967000D03*
%TD*%
D12*
%TO.P,R28,1*%
%TO.N,Net-(C5-Pad1)*%
X107950000Y-143510000D03*
D11*
%TO.P,R28,2*%
%TO.N,24V*%
X97790000Y-143510000D03*
%TD*%
D12*
%TO.P,R86,1*%
%TO.N,+5V*%
X110998000Y-27686000D03*
D11*
%TO.P,R86,2*%
%TO.N,PB3*%
X121158000Y-27686000D03*
%TD*%
D10*
%TO.P,D45,1,K*%
%TO.N,Net-(D45-Pad1)*%
X203327000Y-94107000D03*
D11*
%TO.P,D45,2,A*%
%TO.N,SW_LINE3*%
X210947000Y-94107000D03*
%TD*%
D10*
%TO.P,D41,1,K*%
%TO.N,Net-(D41-Pad1)*%
X203200000Y-68580000D03*
D11*
%TO.P,D41,2,A*%
%TO.N,SW_LINE3*%
X210820000Y-68580000D03*
%TD*%
D17*
%TO.P,TP5,1,1*%
%TO.N,{slash}CLK*%
X33015000Y-99060000D03*
%TD*%
D15*
%TO.P,J6,1,Pin_1*%
%TO.N,SW_LINE1*%
X280660000Y-11430000D03*
D16*
%TO.P,J6,2,Pin_2*%
%TO.N,unconnected-(J6-Pad2)*%
X278120000Y-11430000D03*
%TO.P,J6,3,Pin_3*%
%TO.N,STROBE0*%
X275580000Y-11430000D03*
%TO.P,J6,4,Pin_4*%
%TO.N,SW_LINE2*%
X273040000Y-11430000D03*
%TO.P,J6,5,Pin_5*%
%TO.N,SW_LINE7*%
X270500000Y-11430000D03*
%TO.P,J6,6,Pin_6*%
%TO.N,SW_LINE5*%
X267960000Y-11430000D03*
%TO.P,J6,7,Pin_7*%
%TO.N,SW_LINE4*%
X265420000Y-11430000D03*
%TO.P,J6,8,Pin_8*%
%TO.N,SW_LINE6*%
X262880000Y-11430000D03*
%TO.P,J6,9,Pin_9*%
%TO.N,STROBE3*%
X260340000Y-11430000D03*
%TD*%
D13*
%TO.P,U7,1*%
%TO.N,N/C*%
X49535000Y-62210000D03*
D14*
%TO.P,U7,2,A12*%
%TO.N,A12*%
X52075000Y-62210000D03*
%TO.P,U7,3,A7*%
%TO.N,A7*%
X54615000Y-62210000D03*
%TO.P,U7,4,A6*%
%TO.N,A6*%
X57155000Y-62210000D03*
%TO.P,U7,5,A5*%
%TO.N,A5*%
X59695000Y-62210000D03*
%TO.P,U7,6,A4*%
%TO.N,A4*%
X62235000Y-62210000D03*
%TO.P,U7,7,A3*%
%TO.N,A3*%
X64775000Y-62210000D03*
%TO.P,U7,8,A2*%
%TO.N,A2*%
X67315000Y-62210000D03*
%TO.P,U7,9,A1*%
%TO.N,A1*%
X69855000Y-62210000D03*
%TO.P,U7,10,A0*%
%TO.N,A0*%
X72395000Y-62210000D03*
%TO.P,U7,11,DQ0*%
%TO.N,D0*%
X74935000Y-62210000D03*
%TO.P,U7,12,DQ1*%
%TO.N,D1*%
X77475000Y-62210000D03*
%TO.P,U7,13,DQ2*%
%TO.N,D2*%
X80015000Y-62210000D03*
%TO.P,U7,14,VSS*%
%TO.N,GND*%
X82555000Y-62210000D03*
%TO.P,U7,15,DQ3*%
%TO.N,D3*%
X82555000Y-46970000D03*
%TO.P,U7,16,DQ4*%
%TO.N,D4*%
X80015000Y-46970000D03*
%TO.P,U7,17,DQ5*%
%TO.N,D5*%
X77475000Y-46970000D03*
%TO.P,U7,18,DQ6*%
%TO.N,D6*%
X74935000Y-46970000D03*
%TO.P,U7,19,DQ7*%
%TO.N,D7*%
X72395000Y-46970000D03*
%TO.P,U7,20,~{CE}*%
%TO.N,{slash}RAM*%
X69855000Y-46970000D03*
%TO.P,U7,21,A10*%
%TO.N,A10*%
X67315000Y-46970000D03*
%TO.P,U7,22,~{OE}*%
%TO.N,{slash}RD*%
X64775000Y-46970000D03*
%TO.P,U7,23,A11*%
%TO.N,A11*%
X62235000Y-46970000D03*
%TO.P,U7,24,A9*%
%TO.N,A9*%
X59695000Y-46970000D03*
%TO.P,U7,25,A8*%
%TO.N,A8*%
X57155000Y-46970000D03*
%TO.P,U7,26*%
%TO.N,N/C*%
X54615000Y-46970000D03*
%TO.P,U7,27,~{WE}*%
%TO.N,{slash}WR*%
X52075000Y-46970000D03*
%TO.P,U7,28,VDD*%
%TO.N,+5V*%
X49535000Y-46970000D03*
%TD*%
D10*
%TO.P,D24,1,K*%
%TO.N,Net-(D24-Pad1)*%
X203200000Y-60960000D03*
D11*
%TO.P,D24,2,A*%
%TO.N,SW_LINE0*%
X210820000Y-60960000D03*
%TD*%
D10*
%TO.P,D15,1,K*%
%TO.N,+5V*%
X285750000Y-173990000D03*
D11*
%TO.P,D15,2,A*%
%TO.N,DIGIT2*%
X278130000Y-173990000D03*
%TD*%
D12*
%TO.P,R50,1*%
%TO.N,SW_LINE6*%
X260350000Y-42926000D03*
D11*
%TO.P,R50,2*%
%TO.N,+5V*%
X270510000Y-42926000D03*
%TD*%
D12*
%TO.P,R6,1*%
%TO.N,+5V*%
X132080000Y-160020000D03*
D11*
%TO.P,R6,2*%
%TO.N,ADDR1*%
X142240000Y-160020000D03*
%TD*%
D12*
%TO.P,R4,1*%
%TO.N,+5V*%
X100838000Y-11430000D03*
D11*
%TO.P,R4,2*%
%TO.N,Net-(R4-Pad2)*%
X100838000Y-21590000D03*
%TD*%
D12*
%TO.P,R12,1*%
%TO.N,+5V*%
X177698400Y-63703200D03*
D11*
%TO.P,R12,2*%
%TO.N,DISP_CLK2*%
X167538400Y-63703200D03*
%TD*%
D12*
%TO.P,R47,1*%
%TO.N,SW_LINE3*%
X260350000Y-55118000D03*
D11*
%TO.P,R47,2*%
%TO.N,+5V*%
X270510000Y-55118000D03*
%TD*%
D20*
%TO.P,D52,1,K*%
%TO.N,Net-(D52-Pad1)*%
X127000000Y-80010000D03*
D21*
%TO.P,D52,2,A*%
%TO.N,Net-(D52-Pad2)*%
X124460000Y-80010000D03*
%TD*%
D10*
%TO.P,U8,1,PA3*%
%TO.N,PA3*%
X110490000Y-99055000D03*
D11*
%TO.P,U8,2,PA2*%
%TO.N,PA2*%
X110490000Y-96515000D03*
%TO.P,U8,3,PA1*%
%TO.N,PA1*%
X110490000Y-93975000D03*
%TO.P,U8,4,PA0*%
%TO.N,PA0*%
X110490000Y-91435000D03*
%TO.P,U8,5,~{RD}*%
%TO.N,{slash}RD*%
X110490000Y-88895000D03*
%TO.P,U8,6,~{CS}*%
%TO.N,PIO-CS*%
X110490000Y-86355000D03*
%TO.P,U8,7,GND*%
%TO.N,GND*%
X110490000Y-83815000D03*
%TO.P,U8,8,A1*%
%TO.N,A1*%
X110490000Y-81275000D03*
%TO.P,U8,9,A0*%
%TO.N,A0*%
X110490000Y-78735000D03*
%TO.P,U8,10,PC7*%
%TO.N,PC7*%
X110490000Y-76195000D03*
%TO.P,U8,11,PC6*%
%TO.N,PC6*%
X110490000Y-73655000D03*
%TO.P,U8,12,PC5*%
%TO.N,PC5*%
X110490000Y-71115000D03*
%TO.P,U8,13,PC4*%
%TO.N,PC4*%
X110490000Y-68575000D03*
%TO.P,U8,14,PC0*%
%TO.N,PC0*%
X110490000Y-66035000D03*
%TO.P,U8,15,PC1*%
%TO.N,PC1*%
X110490000Y-63495000D03*
%TO.P,U8,16,PC2*%
%TO.N,PC2*%
X110490000Y-60955000D03*
%TO.P,U8,17,PC3*%
%TO.N,PC3*%
X110490000Y-58415000D03*
%TO.P,U8,18,PB0*%
%TO.N,PB0*%
X110490000Y-55875000D03*
%TO.P,U8,19,PB1*%
%TO.N,PB1*%
X110490000Y-53335000D03*
%TO.P,U8,20,PB2*%
%TO.N,PB2*%
X110490000Y-50795000D03*
%TO.P,U8,21,PB3*%
%TO.N,PB3*%
X95250000Y-50795000D03*
%TO.P,U8,22,PB4*%
%TO.N,PB4*%
X95250000Y-53335000D03*
%TO.P,U8,23,PB5*%
%TO.N,PB5*%
X95250000Y-55875000D03*
%TO.P,U8,24,PB6*%
%TO.N,PB6*%
X95250000Y-58415000D03*
%TO.P,U8,25,PB7*%
%TO.N,PB7*%
X95250000Y-60955000D03*
%TO.P,U8,26,VCC*%
%TO.N,+5V*%
X95250000Y-63495000D03*
%TO.P,U8,27,D7*%
%TO.N,D7*%
X95250000Y-66035000D03*
%TO.P,U8,28,D6*%
%TO.N,D6*%
X95250000Y-68575000D03*
%TO.P,U8,29,D5*%
%TO.N,D5*%
X95250000Y-71115000D03*
%TO.P,U8,30,D4*%
%TO.N,D4*%
X95250000Y-73655000D03*
%TO.P,U8,31,D3*%
%TO.N,D3*%
X95250000Y-76195000D03*
%TO.P,U8,32,D2*%
%TO.N,D2*%
X95250000Y-78735000D03*
%TO.P,U8,33,D1*%
%TO.N,D1*%
X95250000Y-81275000D03*
%TO.P,U8,34,D0*%
%TO.N,D0*%
X95250000Y-83815000D03*
%TO.P,U8,35,RESET*%
%TO.N,RST*%
X95250000Y-86355000D03*
%TO.P,U8,36,~{WR}*%
%TO.N,{slash}WR*%
X95250000Y-88895000D03*
%TO.P,U8,37,PA7*%
%TO.N,PA7*%
X95250000Y-91435000D03*
%TO.P,U8,38,PA6*%
%TO.N,PA6*%
X95250000Y-93975000D03*
%TO.P,U8,39,PA5*%
%TO.N,PA5*%
X95250000Y-96515000D03*
%TO.P,U8,40,PA4*%
%TO.N,PA4*%
X95250000Y-99055000D03*
%TD*%
D18*
%TO.P,D1,1,K*%
%TO.N,+5V*%
X251460000Y-46990000D03*
D19*
%TO.P,D1,2,A*%
%TO.N,Net-(D1-Pad2)*%
X241300000Y-46990000D03*
%TD*%
D13*
%TO.P,U20,1*%
%TO.N,unconnected-(U20-Pad1)*%
X67300000Y-151145000D03*
D14*
%TO.P,U20,2*%
%TO.N,Net-(R33-Pad2)*%
X69840000Y-151145000D03*
%TO.P,U20,3,V+*%
%TO.N,+5V*%
X72380000Y-151145000D03*
%TO.P,U20,4,-*%
%TO.N,Net-(R31-Pad2)*%
X74920000Y-151145000D03*
%TO.P,U20,5,+*%
%TO.N,Net-(R30-Pad2)*%
X77460000Y-151145000D03*
%TO.P,U20,6,-*%
%TO.N,GND*%
X80000000Y-151145000D03*
%TO.P,U20,7,+*%
X82540000Y-151145000D03*
%TO.P,U20,8,-*%
X82540000Y-143525000D03*
%TO.P,U20,9,+*%
X80000000Y-143525000D03*
%TO.P,U20,10,-*%
X77460000Y-143525000D03*
%TO.P,U20,11,+*%
X74920000Y-143525000D03*
%TO.P,U20,12,V-*%
X72380000Y-143525000D03*
%TO.P,U20,13*%
%TO.N,unconnected-(U20-Pad13)*%
X69840000Y-143525000D03*
%TO.P,U20,14*%
%TO.N,unconnected-(U20-Pad14)*%
X67300000Y-143525000D03*
%TD*%
D10*
%TO.P,D53,1,K*%
%TO.N,Net-(D53-Pad1)*%
X133350000Y-54610000D03*
D11*
%TO.P,D53,2,A*%
%TO.N,SW_LINE0*%
X133350000Y-46990000D03*
%TD*%
D12*
%TO.P,C1,1*%
%TO.N,Net-(C1-Pad1)*%
X220980000Y-118070000D03*
%TO.P,C1,2*%
%TO.N,GND*%
X220980000Y-113070000D03*
%TD*%
%TO.P,R53,1*%
%TO.N,Net-(C6-Pad1)*%
X130860800Y-124561600D03*
D11*
%TO.P,R53,2*%
%TO.N,Net-(R53-Pad2)*%
X141020800Y-124561600D03*
%TD*%
D20*
%TO.P,D55,1,K*%
%TO.N,GND*%
X28554600Y-174650400D03*
D21*
%TO.P,D55,2,A*%
%TO.N,Net-(D54-Pad1)*%
X26014600Y-174650400D03*
%TD*%
D12*
%TO.P,R66,1*%
%TO.N,SW_LINE6*%
X168910000Y-99060000D03*
D11*
%TO.P,R66,2*%
%TO.N,Net-(R66-Pad2)*%
X158750000Y-99060000D03*
%TD*%
D12*
%TO.P,R63,1*%
%TO.N,Net-(C6-Pad1)*%
X130860800Y-105206800D03*
D11*
%TO.P,R63,2*%
%TO.N,Net-(R63-Pad2)*%
X141020800Y-105206800D03*
%TD*%
D12*
%TO.P,R45,1*%
%TO.N,SW_LINE1*%
X260350000Y-52070000D03*
D11*
%TO.P,R45,2*%
%TO.N,+5V*%
X270510000Y-52070000D03*
%TD*%
D12*
%TO.P,R60,1*%
%TO.N,SW_LINE3*%
X168960800Y-131064000D03*
D11*
%TO.P,R60,2*%
%TO.N,Net-(R60-Pad2)*%
X158800800Y-131064000D03*
%TD*%
D12*
%TO.P,R89,1*%
%TO.N,+5V*%
X110998000Y-24638000D03*
D11*
%TO.P,R89,2*%
%TO.N,PB6*%
X121158000Y-24638000D03*
%TD*%
D10*
%TO.P,D37,1,K*%
%TO.N,Net-(D37-Pad1)*%
X203327000Y-43307000D03*
D11*
%TO.P,D37,2,A*%
%TO.N,SW_LINE3*%
X210947000Y-43307000D03*
%TD*%
D12*
%TO.P,R67,1*%
%TO.N,Net-(C6-Pad1)*%
X168808400Y-102209600D03*
D11*
%TO.P,R67,2*%
%TO.N,Net-(R67-Pad2)*%
X158648400Y-102209600D03*
%TD*%
D10*
%TO.P,D44,1,K*%
%TO.N,Net-(D44-Pad1)*%
X203327000Y-88900000D03*
D11*
%TO.P,D44,2,A*%
%TO.N,SW_LINE1*%
X210947000Y-88900000D03*
%TD*%
D22*
%TO.P,U14,1,~{E}*%
%TO.N,LATCH1*%
X260335000Y-102875000D03*
D23*
%TO.P,U14,2,Q0*%
%TO.N,PERIPH1_1*%
X260335000Y-105415000D03*
%TO.P,U14,3,D0*%
%TO.N,ADDR1*%
X260335000Y-107955000D03*
%TO.P,U14,4,D1*%
%TO.N,ADDR2*%
X260335000Y-110495000D03*
%TO.P,U14,5,Q1*%
%TO.N,PERIPH1_2*%
X260335000Y-113035000D03*
%TO.P,U14,6,Q2*%
%TO.N,PERIPH1_3*%
X260335000Y-115575000D03*
%TO.P,U14,7,D2*%
%TO.N,ADDR3*%
X260335000Y-118115000D03*
%TO.P,U14,8,D3*%
%TO.N,ADDR4*%
X260335000Y-120655000D03*
%TO.P,U14,9,Q3*%
%TO.N,PERIPH1_4*%
X260335000Y-123195000D03*
%TO.P,U14,10,GND*%
%TO.N,GND*%
X260335000Y-125735000D03*
%TO.P,U14,11,CP*%
%TO.N,LATCH_CLK*%
X267955000Y-125735000D03*
%TO.P,U14,12,Q4*%
%TO.N,unconnected-(U14-Pad12)*%
X267955000Y-123195000D03*
%TO.P,U14,13,D4*%
%TO.N,GND*%
X267955000Y-120655000D03*
%TO.P,U14,14,D5*%
X267955000Y-118115000D03*
%TO.P,U14,15,Q5*%
%TO.N,unconnected-(U14-Pad15)*%
X267955000Y-115575000D03*
%TO.P,U14,16,Q6*%
%TO.N,unconnected-(U14-Pad16)*%
X267955000Y-113035000D03*
%TO.P,U14,17,D6*%
%TO.N,GND*%
X267955000Y-110495000D03*
%TO.P,U14,18,D7*%
X267955000Y-107955000D03*
%TO.P,U14,19,Q7*%
%TO.N,unconnected-(U14-Pad19)*%
X267955000Y-105415000D03*
%TO.P,U14,20,VCC*%
%TO.N,+5V*%
X267955000Y-102875000D03*
%TD*%
D12*
%TO.P,R30,1*%
%TO.N,Net-(C5-Pad1)*%
X97790000Y-149860000D03*
D11*
%TO.P,R30,2*%
%TO.N,Net-(R30-Pad2)*%
X107950000Y-149860000D03*
%TD*%
D12*
%TO.P,R80,1*%
%TO.N,24V*%
X18084800Y-158851600D03*
D11*
%TO.P,R80,2*%
%TO.N,Net-(D54-Pad2)*%
X18084800Y-169011600D03*
%TD*%
D13*
%TO.P,U3,1*%
%TO.N,Net-(C2-Pad1)*%
X20310000Y-62245000D03*
D14*
%TO.P,U3,2*%
%TO.N,Net-(R24-Pad2)*%
X22850000Y-62245000D03*
%TO.P,U3,3*%
X25390000Y-62245000D03*
%TO.P,U3,4*%
%TO.N,Net-(R25-Pad2)*%
X27930000Y-62245000D03*
%TO.P,U3,5*%
X30470000Y-62245000D03*
%TO.P,U3,6*%
%TO.N,{slash}CLK*%
X33010000Y-62245000D03*
%TO.P,U3,7,GND*%
%TO.N,GND*%
X35550000Y-62245000D03*
%TO.P,U3,8*%
%TO.N,ZERO*%
X35550000Y-54625000D03*
%TO.P,U3,9*%
%TO.N,Net-(R33-Pad2)*%
X33010000Y-54625000D03*
%TO.P,U3,10*%
%TO.N,Net-(U3-Pad10)*%
X30470000Y-54625000D03*
%TO.P,U3,11*%
%TO.N,A15*%
X27930000Y-54625000D03*
%TO.P,U3,12*%
%TO.N,{slash}CTC-CE*%
X25390000Y-54625000D03*
%TO.P,U3,13*%
%TO.N,A3*%
X22850000Y-54625000D03*
%TO.P,U3,14,VCC*%
%TO.N,+5V*%
X20310000Y-54625000D03*
%TD*%
D12*
%TO.P,R10,1*%
%TO.N,+5V*%
X168910000Y-172720000D03*
D11*
%TO.P,R10,2*%
%TO.N,ADDR4*%
X158750000Y-172720000D03*
%TD*%
D10*
%TO.P,D20,1,K*%
%TO.N,Net-(D20-Pad1)*%
X203327000Y-35687000D03*
D11*
%TO.P,D20,2,A*%
%TO.N,SW_LINE0*%
X210947000Y-35687000D03*
%TD*%
D18*
%TO.P,D3,1,K*%
%TO.N,+5V*%
X251460000Y-52070000D03*
D19*
%TO.P,D3,2,A*%
%TO.N,DISP_CLK1*%
X241300000Y-52070000D03*
%TD*%
D12*
%TO.P,R64,1*%
%TO.N,SW_LINE5*%
X130810000Y-102108000D03*
D11*
%TO.P,R64,2*%
%TO.N,Net-(R64-Pad2)*%
X140970000Y-102108000D03*
%TD*%
D12*
%TO.P,R83,1*%
%TO.N,+5V*%
X110998000Y-36830000D03*
D11*
%TO.P,R83,2*%
%TO.N,PB0*%
X121158000Y-36830000D03*
%TD*%
D12*
%TO.P,C16,1*%
%TO.N,+5V*%
X15235000Y-55880000D03*
%TO.P,C16,2*%
%TO.N,GND*%
X15235000Y-60880000D03*
%TD*%
%TO.P,R39,1*%
%TO.N,+12V*%
X256286000Y-177800000D03*
D11*
%TO.P,R39,2*%
%TO.N,DIGIT3*%
X256286000Y-167640000D03*
%TD*%
D12*
%TO.P,R40,1*%
%TO.N,+12V*%
X259334000Y-177800000D03*
D11*
%TO.P,R40,2*%
%TO.N,DIGIT4*%
X259334000Y-167640000D03*
%TD*%
D12*
%TO.P,R38,1*%
%TO.N,+12V*%
X267970000Y-177800000D03*
D11*
%TO.P,R38,2*%
%TO.N,DIGIT2*%
X267970000Y-167640000D03*
%TD*%
D12*
%TO.P,R23,1*%
%TO.N,+5V*%
X168910000Y-162560000D03*
D11*
%TO.P,R23,2*%
%TO.N,PERIPH_EN*%
X158750000Y-162560000D03*
%TD*%
D12*
%TO.P,R9,1*%
%TO.N,+5V*%
X177800000Y-54610000D03*
D11*
%TO.P,R9,2*%
%TO.N,Net-(D1-Pad2)*%
X167640000Y-54610000D03*
%TD*%
D10*
%TO.P,D51,1,K*%
%TO.N,Net-(D51-Pad1)*%
X203327000Y-129667000D03*
D11*
%TO.P,D51,2,A*%
%TO.N,SW_LINE7*%
X210947000Y-129667000D03*
%TD*%
D12*
%TO.P,C15,1*%
%TO.N,+5V*%
X152360000Y-33020000D03*
%TO.P,C15,2*%
%TO.N,GND*%
X147360000Y-33020000D03*
%TD*%
%TO.P,C9,1*%
%TO.N,+5V*%
X38354000Y-26710000D03*
%TO.P,C9,2*%
%TO.N,GND*%
X38354000Y-31710000D03*
%TD*%
%TO.P,R79,1*%
%TO.N,+5V*%
X100325000Y-106680000D03*
D11*
%TO.P,R79,2*%
%TO.N,{slash}WR*%
X100325000Y-116840000D03*
%TD*%
D12*
%TO.P,R68,1*%
%TO.N,SW_LINE7*%
X168859200Y-105359200D03*
D11*
%TO.P,R68,2*%
%TO.N,Net-(R68-Pad2)*%
X158699200Y-105359200D03*
%TD*%
D12*
%TO.P,R70,1*%
%TO.N,Net-(R55-Pad2)*%
X122580400Y-127050800D03*
D11*
%TO.P,R70,2*%
%TO.N,PB1*%
X122580400Y-116890800D03*
%TD*%
D10*
%TO.P,D35,1,K*%
%TO.N,Net-(D35-Pad1)*%
X203327000Y-127127000D03*
D11*
%TO.P,D35,2,A*%
%TO.N,SW_LINE6*%
X210947000Y-127127000D03*
%TD*%
D15*
%TO.P,J2,1,Pin_1*%
%TO.N,ADDR2*%
X161285000Y-182880000D03*
D16*
%TO.P,J2,2,Pin_2*%
%TO.N,ADDR1*%
X163825000Y-182880000D03*
%TO.P,J2,3,Pin_3*%
%TO.N,LAMP_EN4*%
X166365000Y-182880000D03*
%TO.P,J2,4,Pin_4*%
%TO.N,unconnected-(J2-Pad4)*%
X168905000Y-182880000D03*
%TO.P,J2,5,Pin_5*%
%TO.N,LAMP_EN3*%
X171445000Y-182880000D03*
%TO.P,J2,6,Pin_6*%
%TO.N,ADDR3*%
X173985000Y-182880000D03*
%TO.P,J2,7,Pin_7*%
%TO.N,ADDR4*%
X176525000Y-182880000D03*
%TO.P,J2,8,Pin_8*%
%TO.N,LAMP_EN2*%
X179065000Y-182880000D03*
%TO.P,J2,9,Pin_9*%
%TO.N,LAMP_EN1*%
X181605000Y-182880000D03*
%TD*%
D12*
%TO.P,R19,1*%
%TO.N,STROBE1*%
X260350000Y-70358000D03*
D11*
%TO.P,R19,2*%
%TO.N,DISP_CLK2*%
X270510000Y-70358000D03*
%TD*%
D12*
%TO.P,R78,1*%
%TO.N,+5V*%
X96275000Y-106680000D03*
D11*
%TO.P,R78,2*%
%TO.N,{slash}RD*%
X96275000Y-116840000D03*
%TD*%
D12*
%TO.P,R65,1*%
%TO.N,Net-(C6-Pad1)*%
X168910000Y-95961200D03*
D11*
%TO.P,R65,2*%
%TO.N,Net-(R65-Pad2)*%
X158750000Y-95961200D03*
%TD*%
D12*
%TO.P,C3,1*%
%TO.N,+5V*%
X30475000Y-138430000D03*
%TO.P,C3,2*%
%TO.N,GND*%
X25475000Y-138430000D03*
%TD*%
D22*
%TO.P,U13,1,~{E}*%
%TO.N,LATCH0*%
X245095000Y-102875000D03*
D23*
%TO.P,U13,2,Q0*%
%TO.N,PERIPH0_1*%
X245095000Y-105415000D03*
%TO.P,U13,3,D0*%
%TO.N,ADDR1*%
X245095000Y-107955000D03*
%TO.P,U13,4,D1*%
%TO.N,ADDR2*%
X245095000Y-110495000D03*
%TO.P,U13,5,Q1*%
%TO.N,PERIPH0_2*%
X245095000Y-113035000D03*
%TO.P,U13,6,Q2*%
%TO.N,PERIPH0_3*%
X245095000Y-115575000D03*
%TO.P,U13,7,D2*%
%TO.N,ADDR3*%
X245095000Y-118115000D03*
%TO.P,U13,8,D3*%
%TO.N,ADDR4*%
X245095000Y-120655000D03*
%TO.P,U13,9,Q3*%
%TO.N,PERIPH0_4*%
X245095000Y-123195000D03*
%TO.P,U13,10,GND*%
%TO.N,GND*%
X245095000Y-125735000D03*
%TO.P,U13,11,CP*%
%TO.N,LATCH_CLK*%
X252715000Y-125735000D03*
%TO.P,U13,12,Q4*%
%TO.N,unconnected-(U13-Pad12)*%
X252715000Y-123195000D03*
%TO.P,U13,13,D4*%
%TO.N,GND*%
X252715000Y-120655000D03*
%TO.P,U13,14,D5*%
X252715000Y-118115000D03*
%TO.P,U13,15,Q5*%
%TO.N,unconnected-(U13-Pad15)*%
X252715000Y-115575000D03*
%TO.P,U13,16,Q6*%
%TO.N,unconnected-(U13-Pad16)*%
X252715000Y-113035000D03*
%TO.P,U13,17,D6*%
%TO.N,GND*%
X252715000Y-110495000D03*
%TO.P,U13,18,D7*%
X252715000Y-107955000D03*
%TO.P,U13,19,Q7*%
%TO.N,unconnected-(U13-Pad19)*%
X252715000Y-105415000D03*
%TO.P,U13,20,VCC*%
%TO.N,+5V*%
X252715000Y-102875000D03*
%TD*%
D10*
%TO.P,D25,1,K*%
%TO.N,Net-(D25-Pad1)*%
X203200000Y-66040000D03*
D11*
%TO.P,D25,2,A*%
%TO.N,SW_LINE2*%
X210820000Y-66040000D03*
%TD*%
D12*
%TO.P,R88,1*%
%TO.N,+5V*%
X110998000Y-18542000D03*
D11*
%TO.P,R88,2*%
%TO.N,PB5*%
X121158000Y-18542000D03*
%TD*%
D22*
%TO.P,U10,1,A0*%
%TO.N,PA4*%
X146035000Y-36845000D03*
D23*
%TO.P,U10,2,A1*%
%TO.N,PA5*%
X146035000Y-39385000D03*
%TO.P,U10,3,A2*%
%TO.N,PA6*%
X146035000Y-41925000D03*
%TO.P,U10,4,E1*%
%TO.N,PA7*%
X146035000Y-44465000D03*
%TO.P,U10,5,E2*%
X146035000Y-47005000D03*
%TO.P,U10,6,E3*%
%TO.N,+5V*%
X146035000Y-49545000D03*
%TO.P,U10,7,O7*%
%TO.N,DISP_CLK1*%
X146035000Y-52085000D03*
%TO.P,U10,8,GND*%
%TO.N,GND*%
X146035000Y-54625000D03*
%TO.P,U10,9,O6*%
%TO.N,Net-(D1-Pad2)*%
X153655000Y-54625000D03*
%TO.P,U10,10,O5*%
%TO.N,LAMP_EN3*%
X153655000Y-52085000D03*
%TO.P,U10,11,O4*%
%TO.N,LAMP_EN2*%
X153655000Y-49545000D03*
%TO.P,U10,12,O3*%
%TO.N,LAMP_EN1*%
X153655000Y-47005000D03*
%TO.P,U10,13,O2*%
%TO.N,LATCH1*%
X153655000Y-44465000D03*
%TO.P,U10,14,O1*%
%TO.N,LATCH0*%
X153655000Y-41925000D03*
%TO.P,U10,15,O0*%
%TO.N,unconnected-(U10-Pad15)*%
X153655000Y-39385000D03*
%TO.P,U10,16,VCC*%
%TO.N,+5V*%
X153655000Y-36845000D03*
%TD*%
D12*
%TO.P,C13,1*%
%TO.N,+5V*%
X100370000Y-45720000D03*
%TO.P,C13,2*%
%TO.N,GND*%
X105370000Y-45720000D03*
%TD*%
D22*
%TO.P,U16,1*%
%TO.N,PB1*%
X146035000Y-114295000D03*
D23*
%TO.P,U16,2*%
%TO.N,PB0*%
X146035000Y-116835000D03*
%TO.P,U16,3,V+*%
%TO.N,+5V*%
X146035000Y-119375000D03*
%TO.P,U16,4,-*%
%TO.N,Net-(R54-Pad2)*%
X146035000Y-121915000D03*
%TO.P,U16,5,+*%
%TO.N,Net-(R53-Pad2)*%
X146035000Y-124455000D03*
%TO.P,U16,6,-*%
%TO.N,Net-(R56-Pad1)*%
X146035000Y-126995000D03*
%TO.P,U16,7,+*%
%TO.N,Net-(R55-Pad2)*%
X146035000Y-129535000D03*
%TO.P,U16,8,-*%
%TO.N,Net-(R60-Pad2)*%
X153655000Y-129535000D03*
%TO.P,U16,9,+*%
%TO.N,Net-(R59-Pad2)*%
X153655000Y-126995000D03*
%TO.P,U16,10,-*%
%TO.N,Net-(R58-Pad2)*%
X153655000Y-124455000D03*
%TO.P,U16,11,+*%
%TO.N,Net-(R57-Pad2)*%
X153655000Y-121915000D03*
%TO.P,U16,12,V-*%
%TO.N,GND*%
X153655000Y-119375000D03*
%TO.P,U16,13*%
%TO.N,PB2*%
X153655000Y-116835000D03*
%TO.P,U16,14*%
%TO.N,PB3*%
X153655000Y-114295000D03*
%TD*%
D12*
%TO.P,R82,1*%
%TO.N,+5V*%
X40386000Y-175260000D03*
D11*
%TO.P,R82,2*%
%TO.N,Net-(D58-Pad2)*%
X40386000Y-185420000D03*
%TD*%
D13*
%TO.P,U2,1,A11*%
%TO.N,A11*%
X34290000Y-87635000D03*
D14*
%TO.P,U2,2,A12*%
%TO.N,A12*%
X36830000Y-87635000D03*
%TO.P,U2,3,A13*%
%TO.N,A13*%
X39370000Y-87635000D03*
%TO.P,U2,4,A14*%
%TO.N,unconnected-(U2-Pad4)*%
X41910000Y-87635000D03*
%TO.P,U2,5,A15*%
%TO.N,A15*%
X44450000Y-87635000D03*
%TO.P,U2,6,~{CLK}*%
%TO.N,{slash}CLK*%
X46990000Y-87635000D03*
%TO.P,U2,7,D4*%
%TO.N,D4*%
X49530000Y-87635000D03*
%TO.P,U2,8,D3*%
%TO.N,D3*%
X52070000Y-87635000D03*
%TO.P,U2,9,D5*%
%TO.N,D5*%
X54610000Y-87635000D03*
%TO.P,U2,10,D6*%
%TO.N,D6*%
X57150000Y-87635000D03*
%TO.P,U2,11,VCC*%
%TO.N,+5V*%
X59690000Y-87635000D03*
%TO.P,U2,12,D2*%
%TO.N,D2*%
X62230000Y-87635000D03*
%TO.P,U2,13,D7*%
%TO.N,D7*%
X64770000Y-87635000D03*
%TO.P,U2,14,D0*%
%TO.N,D0*%
X67310000Y-87635000D03*
%TO.P,U2,15,D1*%
%TO.N,D1*%
X69850000Y-87635000D03*
%TO.P,U2,16,~{INT}*%
%TO.N,Net-(R1-Pad1)*%
X72390000Y-87635000D03*
%TO.P,U2,17,~{NMI}*%
%TO.N,+5V*%
X74930000Y-87635000D03*
%TO.P,U2,18,~{HALT}*%
%TO.N,unconnected-(U2-Pad18)*%
X77470000Y-87635000D03*
%TO.P,U2,19,~{MREQ}*%
%TO.N,{slash}MREQ*%
X80010000Y-87635000D03*
%TO.P,U2,20,~{IORQ}*%
%TO.N,{slash}IOREQ*%
X82550000Y-87635000D03*
%TO.P,U2,21,~{RD}*%
%TO.N,{slash}RD*%
X82550000Y-72395000D03*
%TO.P,U2,22,~{WR}*%
%TO.N,{slash}WR*%
X80010000Y-72395000D03*
%TO.P,U2,23,~{BUSACK}*%
%TO.N,unconnected-(U2-Pad23)*%
X77470000Y-72395000D03*
%TO.P,U2,24,~{WAIT}*%
%TO.N,+5V*%
X74930000Y-72395000D03*
%TO.P,U2,25,~{BUSRQ}*%
X72390000Y-72395000D03*
%TO.P,U2,26,~{RESET}*%
%TO.N,{slash}RST*%
X69850000Y-72395000D03*
%TO.P,U2,27,~{M1}*%
%TO.N,Net-(U1-Pad14)*%
X67310000Y-72395000D03*
%TO.P,U2,28,~{RFSH}*%
%TO.N,unconnected-(U2-Pad28)*%
X64770000Y-72395000D03*
%TO.P,U2,29,GND*%
%TO.N,GND*%
X62230000Y-72395000D03*
%TO.P,U2,30,A0*%
%TO.N,A0*%
X59690000Y-72395000D03*
%TO.P,U2,31,A1*%
%TO.N,A1*%
X57150000Y-72395000D03*
%TO.P,U2,32,A2*%
%TO.N,A2*%
X54610000Y-72395000D03*
%TO.P,U2,33,A3*%
%TO.N,A3*%
X52070000Y-72395000D03*
%TO.P,U2,34,A4*%
%TO.N,A4*%
X49530000Y-72395000D03*
%TO.P,U2,35,A5*%
%TO.N,A5*%
X46990000Y-72395000D03*
%TO.P,U2,36,A6*%
%TO.N,A6*%
X44450000Y-72395000D03*
%TO.P,U2,37,A7*%
%TO.N,A7*%
X41910000Y-72395000D03*
%TO.P,U2,38,A8*%
%TO.N,A8*%
X39370000Y-72395000D03*
%TO.P,U2,39,A9*%
%TO.N,A9*%
X36830000Y-72395000D03*
%TO.P,U2,40,A10*%
%TO.N,A10*%
X34290000Y-72395000D03*
%TD*%
D12*
%TO.P,C2,1*%
%TO.N,Net-(C2-Pad1)*%
X25395000Y-74930000D03*
%TO.P,C2,2*%
%TO.N,GND*%
X25395000Y-72430000D03*
%TD*%
D10*
%TO.P,D36,1,K*%
%TO.N,Net-(D36-Pad1)*%
X203327000Y-38227000D03*
D11*
%TO.P,D36,2,A*%
%TO.N,SW_LINE1*%
X210947000Y-38227000D03*
%TD*%
D10*
%TO.P,D12,1,K*%
%TO.N,DISP_CLK5*%
X237490000Y-72390000D03*
D11*
%TO.P,D12,2,A*%
%TO.N,GND*%
X229870000Y-72390000D03*
%TD*%
D12*
%TO.P,R46,1*%
%TO.N,SW_LINE2*%
X260350000Y-33782000D03*
D11*
%TO.P,R46,2*%
%TO.N,+5V*%
X270510000Y-33782000D03*
%TD*%
D10*
%TO.P,D34,1,K*%
%TO.N,Net-(D34-Pad1)*%
X203327000Y-122047000D03*
D11*
%TO.P,D34,2,A*%
%TO.N,SW_LINE4*%
X210947000Y-122047000D03*
%TD*%
D10*
%TO.P,D32,1,K*%
%TO.N,Net-(D32-Pad1)*%
X203327000Y-111887000D03*
D11*
%TO.P,D32,2,A*%
%TO.N,SW_LINE0*%
X210947000Y-111887000D03*
%TD*%
D10*
%TO.P,D29,1,K*%
%TO.N,Net-(D29-Pad1)*%
X203327000Y-91567000D03*
D11*
%TO.P,D29,2,A*%
%TO.N,SW_LINE2*%
X210947000Y-91567000D03*
%TD*%
D12*
%TO.P,R59,1*%
%TO.N,Net-(C6-Pad1)*%
X168960800Y-127863600D03*
D11*
%TO.P,R59,2*%
%TO.N,Net-(R59-Pad2)*%
X158800800Y-127863600D03*
%TD*%
D12*
%TO.P,R34,1*%
%TO.N,+5V*%
X64765000Y-157480000D03*
D11*
%TO.P,R34,2*%
%TO.N,Net-(R33-Pad2)*%
X74925000Y-157480000D03*
%TD*%
D12*
%TO.P,R14,1*%
%TO.N,+5V*%
X177647600Y-69951600D03*
D11*
%TO.P,R14,2*%
%TO.N,DISP_CLK4*%
X167487600Y-69951600D03*
%TD*%
D12*
%TO.P,R62,1*%
%TO.N,SW_LINE4*%
X130810000Y-95961200D03*
D11*
%TO.P,R62,2*%
%TO.N,Net-(R62-Pad2)*%
X140970000Y-95961200D03*
%TD*%
D12*
%TO.P,R11,1*%
%TO.N,+5V*%
X177800000Y-51460400D03*
D11*
%TO.P,R11,2*%
%TO.N,DISP_CLK1*%
X167640000Y-51460400D03*
%TD*%
D27*
%TO.P,J3,2,Pin_2*%
%TO.N,DISP_CLK2*%
X297130200Y-181827200D03*
%TO.P,J3,4,Pin_4*%
%TO.N,DISP_CLK1*%
X297130200Y-179287200D03*
%TO.P,J3,6,Pin_6*%
%TO.N,DIGIT1*%
X297130200Y-176747200D03*
%TO.P,J3,8,Pin_8*%
%TO.N,DIGIT2*%
X297168300Y-174258000D03*
%TO.P,J3,10,Pin_10*%
%TO.N,DIGIT3*%
X297130200Y-171667200D03*
%TO.P,J3,12,Pin_12*%
%TO.N,DIGIT5*%
X297130200Y-169127200D03*
%TO.P,J3,14,Pin_14*%
%TO.N,DIGIT4*%
X297130200Y-166587200D03*
%TO.P,J3,16,Pin_16*%
%TO.N,DIGIT0*%
X297130200Y-164047200D03*
%TO.P,J3,18,Pin_18*%
%TO.N,DIGIT6*%
X297130200Y-161507200D03*
%TO.P,J3,20,Pin_20*%
%TO.N,ADDR3*%
X297130200Y-158967200D03*
%TO.P,J3,22,Pin_22*%
%TO.N,unconnected-(J3-Pad22)*%
X297130200Y-156427200D03*
%TO.P,J3,24,Pin_24*%
%TO.N,ADDR1*%
X297130200Y-153887200D03*
%TO.P,J3,26,Pin_26*%
%TO.N,DISP_5V*%
X297142900Y-151321800D03*
%TD*%
D12*
%TO.P,R56,1*%
%TO.N,Net-(R56-Pad1)*%
X141020800Y-127711200D03*
D11*
%TO.P,R56,2*%
%TO.N,SW_LINE1*%
X130860800Y-127711200D03*
%TD*%
D22*
%TO.P,SW5,1*%
%TO.N,DIP_STROBE3*%
X187960000Y-111887000D03*
D23*
%TO.P,SW5,2*%
X187960000Y-114427000D03*
%TO.P,SW5,3*%
X187960000Y-116967000D03*
%TO.P,SW5,4*%
X187960000Y-119507000D03*
%TO.P,SW5,5*%
X187960000Y-122047000D03*
%TO.P,SW5,6*%
X187960000Y-124587000D03*
%TO.P,SW5,7*%
X187960000Y-127127000D03*
%TO.P,SW5,8*%
X187960000Y-129667000D03*
%TO.P,SW5,9*%
%TO.N,Net-(D51-Pad1)*%
X195580000Y-129667000D03*
%TO.P,SW5,10*%
%TO.N,Net-(D35-Pad1)*%
X195580000Y-127127000D03*
%TO.P,SW5,11*%
%TO.N,Net-(D50-Pad1)*%
X195580000Y-124587000D03*
%TO.P,SW5,12*%
%TO.N,Net-(D34-Pad1)*%
X195580000Y-122047000D03*
%TO.P,SW5,13*%
%TO.N,Net-(D49-Pad1)*%
X195580000Y-119507000D03*
%TO.P,SW5,14*%
%TO.N,Net-(D33-Pad1)*%
X195580000Y-116967000D03*
%TO.P,SW5,15*%
%TO.N,Net-(D48-Pad1)*%
X195580000Y-114427000D03*
%TO.P,SW5,16*%
%TO.N,Net-(D32-Pad1)*%
X195580000Y-111887000D03*
%TD*%
D12*
%TO.P,R42,1*%
%TO.N,+12V*%
X250190000Y-177800000D03*
D11*
%TO.P,R42,2*%
%TO.N,DIGIT6*%
X250190000Y-167640000D03*
%TD*%
D12*
%TO.P,R49,1*%
%TO.N,SW_LINE5*%
X260350000Y-49022000D03*
D11*
%TO.P,R49,2*%
%TO.N,+5V*%
X270510000Y-49022000D03*
%TD*%
D10*
%TO.P,D23,1,K*%
%TO.N,Net-(D23-Pad1)*%
X203327000Y-50927000D03*
D11*
%TO.P,D23,2,A*%
%TO.N,SW_LINE6*%
X210947000Y-50927000D03*
%TD*%
D12*
%TO.P,R58,1*%
%TO.N,SW_LINE2*%
X168859200Y-124460000D03*
D11*
%TO.P,R58,2*%
%TO.N,Net-(R58-Pad2)*%
X158699200Y-124460000D03*
%TD*%
D10*
%TO.P,D56,1,K*%
%TO.N,Net-(D56-Pad1)*%
X22860000Y-179425600D03*
D11*
%TO.P,D56,2,A*%
%TO.N,Net-(D56-Pad2)*%
X15240000Y-179425600D03*
%TD*%
D22*
%TO.P,U19,1*%
%TO.N,PB5*%
X146035000Y-88895000D03*
D23*
%TO.P,U19,2*%
%TO.N,PB4*%
X146035000Y-91435000D03*
%TO.P,U19,3,V+*%
%TO.N,+5V*%
X146035000Y-93975000D03*
%TO.P,U19,4,-*%
%TO.N,Net-(R62-Pad2)*%
X146035000Y-96515000D03*
%TO.P,U19,5,+*%
%TO.N,Net-(R61-Pad2)*%
X146035000Y-99055000D03*
%TO.P,U19,6,-*%
%TO.N,Net-(R64-Pad2)*%
X146035000Y-101595000D03*
%TO.P,U19,7,+*%
%TO.N,Net-(R63-Pad2)*%
X146035000Y-104135000D03*
%TO.P,U19,8,-*%
%TO.N,Net-(R68-Pad2)*%
X153655000Y-104135000D03*
%TO.P,U19,9,+*%
%TO.N,Net-(R67-Pad2)*%
X153655000Y-101595000D03*
%TO.P,U19,10,-*%
%TO.N,Net-(R66-Pad2)*%
X153655000Y-99055000D03*
%TO.P,U19,11,+*%
%TO.N,Net-(R65-Pad2)*%
X153655000Y-96515000D03*
%TO.P,U19,12,V-*%
%TO.N,GND*%
X153655000Y-93975000D03*
%TO.P,U19,13*%
%TO.N,PB6*%
X153655000Y-91435000D03*
%TO.P,U19,14*%
%TO.N,PB7*%
X153655000Y-88895000D03*
%TD*%
D12*
%TO.P,R90,1*%
%TO.N,+5V*%
X110998000Y-39878000D03*
D11*
%TO.P,R90,2*%
%TO.N,PB7*%
X121158000Y-39878000D03*
%TD*%
D12*
%TO.P,R71,1*%
%TO.N,Net-(R57-Pad2)*%
X173975000Y-126995000D03*
D11*
%TO.P,R71,2*%
%TO.N,PB2*%
X173975000Y-116835000D03*
%TD*%
D12*
%TO.P,R87,1*%
%TO.N,+5V*%
X110998000Y-21590000D03*
D11*
%TO.P,R87,2*%
%TO.N,PB4*%
X121158000Y-21590000D03*
%TD*%
D10*
%TO.P,D54,1,K*%
%TO.N,Net-(D54-Pad1)*%
X22860000Y-174599600D03*
D11*
%TO.P,D54,2,A*%
%TO.N,Net-(D54-Pad2)*%
X15240000Y-174599600D03*
%TD*%
D12*
%TO.P,C11,1*%
%TO.N,+5V*%
X251405000Y-99060000D03*
%TO.P,C11,2*%
%TO.N,GND*%
X246405000Y-99060000D03*
%TD*%
D10*
%TO.P,D38,1,K*%
%TO.N,Net-(D38-Pad1)*%
X203327000Y-48387000D03*
D11*
%TO.P,D38,2,A*%
%TO.N,SW_LINE5*%
X210947000Y-48387000D03*
%TD*%
D10*
%TO.P,D39,1,K*%
%TO.N,Net-(D39-Pad1)*%
X203327000Y-53467000D03*
D11*
%TO.P,D39,2,A*%
%TO.N,SW_LINE7*%
X210947000Y-53467000D03*
%TD*%
D12*
%TO.P,R72,1*%
%TO.N,Net-(R59-Pad2)*%
X177088800Y-127050800D03*
D11*
%TO.P,R72,2*%
%TO.N,PB3*%
X177088800Y-116890800D03*
%TD*%
D10*
%TO.P,D6,1,K*%
%TO.N,DISP_CLK2*%
X237490000Y-57150000D03*
D11*
%TO.P,D6,2,A*%
%TO.N,GND*%
X229870000Y-57150000D03*
%TD*%
D28*
%TO.P,J9,1,Pin_1*%
%TO.N,ADDR3*%
X297475000Y-89564000D03*
%TO.P,J9,2,Pin_2*%
%TO.N,ADDR1*%
X297475000Y-85614000D03*
%TO.P,J9,3,Pin_3*%
%TO.N,ADDR2*%
X297475000Y-81564000D03*
%TO.P,J9,5,Pin_5*%
%TO.N,ADDR4*%
X297475000Y-73564000D03*
%TO.P,J9,6,Pin_6*%
%TO.N,DIGIT1*%
X297475000Y-69614000D03*
%TO.P,J9,7,Pin_7*%
%TO.N,DISP_CLK5*%
X297475000Y-65564000D03*
%TO.P,J9,8,Pin_8*%
%TO.N,DIGIT2*%
X297475000Y-61614000D03*
%TO.P,J9,9,Pin_9*%
%TO.N,DIGIT5*%
X297475000Y-57564000D03*
%TO.P,J9,10,Pin_10*%
%TO.N,DISP_CLK3*%
X297475000Y-53614000D03*
%TO.P,J9,11,Pin_11*%
%TO.N,DISP_CLK4*%
X297475000Y-49564000D03*
%TO.P,J9,12,Pin_12*%
%TO.N,DISP_5V*%
X297475000Y-45614000D03*
%TD*%
D10*
%TO.P,D27,1,K*%
%TO.N,Net-(D27-Pad1)*%
X203200000Y-76250800D03*
D11*
%TO.P,D27,2,A*%
%TO.N,SW_LINE6*%
X210820000Y-76250800D03*
%TD*%
D12*
%TO.P,R7,1*%
%TO.N,+5V*%
X132080000Y-165100000D03*
D11*
%TO.P,R7,2*%
%TO.N,ADDR2*%
X142240000Y-165100000D03*
%TD*%
D29*
%TO.P,Y1,1,1*%
%TO.N,Net-(C2-Pad1)*%
X17865000Y-92680000D03*
%TO.P,Y1,2,2*%
%TO.N,Net-(R25-Pad2)*%
X22765000Y-92680000D03*
%TD*%
D18*
%TO.P,D11,1,K*%
%TO.N,+5V*%
X251460000Y-72390000D03*
D19*
%TO.P,D11,2,A*%
%TO.N,DISP_CLK5*%
X241300000Y-72390000D03*
%TD*%
D12*
%TO.P,R75,1*%
%TO.N,Net-(R65-Pad2)*%
X173975000Y-101600000D03*
D11*
%TO.P,R75,2*%
%TO.N,PB6*%
X173975000Y-91440000D03*
%TD*%
D12*
%TO.P,R26,1*%
%TO.N,+5V*%
X30485000Y-158765000D03*
D11*
%TO.P,R26,2*%
%TO.N,{slash}RST*%
X40645000Y-158765000D03*
%TD*%
D12*
%TO.P,R51,1*%
%TO.N,SW_LINE7*%
X260350000Y-39878000D03*
D11*
%TO.P,R51,2*%
%TO.N,+5V*%
X270510000Y-39878000D03*
%TD*%
D10*
%TO.P,D49,1,K*%
%TO.N,Net-(D49-Pad1)*%
X203327000Y-119507000D03*
D11*
%TO.P,D49,2,A*%
%TO.N,SW_LINE3*%
X210947000Y-119507000D03*
%TD*%
D12*
%TO.P,R73,1*%
%TO.N,Net-(R61-Pad2)*%
X126238000Y-101600000D03*
D11*
%TO.P,R73,2*%
%TO.N,PB4*%
X126238000Y-91440000D03*
%TD*%
D10*
%TO.P,D4,1,K*%
%TO.N,DISP_CLK1*%
X237490000Y-52070000D03*
D11*
%TO.P,D4,2,A*%
%TO.N,GND*%
X229870000Y-52070000D03*
%TD*%
D12*
%TO.P,R52,1*%
%TO.N,+5V*%
X158735000Y-83820000D03*
D11*
%TO.P,R52,2*%
%TO.N,Net-(C6-Pad1)*%
X168895000Y-83820000D03*
%TD*%
D12*
%TO.P,R48,1*%
%TO.N,SW_LINE4*%
X260350000Y-36830000D03*
D11*
%TO.P,R48,2*%
%TO.N,+5V*%
X270510000Y-36830000D03*
%TD*%
D10*
%TO.P,D18,1,K*%
%TO.N,+5V*%
X285750000Y-168910000D03*
D11*
%TO.P,D18,2,A*%
%TO.N,DIGIT5*%
X278130000Y-168910000D03*
%TD*%
D10*
%TO.P,D10,1,K*%
%TO.N,DISP_CLK4*%
X237490000Y-67310000D03*
D11*
%TO.P,D10,2,A*%
%TO.N,GND*%
X229870000Y-67310000D03*
%TD*%
D12*
%TO.P,R74,1*%
%TO.N,Net-(R63-Pad2)*%
X123175000Y-101600000D03*
D11*
%TO.P,R74,2*%
%TO.N,PB5*%
X123175000Y-91440000D03*
%TD*%
D22*
%TO.P,SW3,1*%
%TO.N,DIP_STROBE1*%
X187960000Y-61087000D03*
D23*
%TO.P,SW3,2*%
X187960000Y-63627000D03*
%TO.P,SW3,3*%
X187960000Y-66167000D03*
%TO.P,SW3,4*%
X187960000Y-68707000D03*
%TO.P,SW3,5*%
X187960000Y-71247000D03*
%TO.P,SW3,6*%
X187960000Y-73787000D03*
%TO.P,SW3,7*%
X187960000Y-76327000D03*
%TO.P,SW3,8*%
X187960000Y-78867000D03*
%TO.P,SW3,9*%
%TO.N,Net-(D43-Pad1)*%
X195580000Y-78867000D03*
%TO.P,SW3,10*%
%TO.N,Net-(D27-Pad1)*%
X195580000Y-76327000D03*
%TO.P,SW3,11*%
%TO.N,Net-(D42-Pad1)*%
X195580000Y-73787000D03*
%TO.P,SW3,12*%
%TO.N,Net-(D26-Pad1)*%
X195580000Y-71247000D03*
%TO.P,SW3,13*%
%TO.N,Net-(D41-Pad1)*%
X195580000Y-68707000D03*
%TO.P,SW3,14*%
%TO.N,Net-(D25-Pad1)*%
X195580000Y-66167000D03*
%TO.P,SW3,15*%
%TO.N,Net-(D40-Pad1)*%
X195580000Y-63627000D03*
%TO.P,SW3,16*%
%TO.N,Net-(D24-Pad1)*%
X195580000Y-61087000D03*
%TD*%
D12*
%TO.P,R3,1*%
%TO.N,+5V*%
X97795000Y-11430000D03*
D11*
%TO.P,R3,2*%
%TO.N,Net-(R3-Pad2)*%
X97795000Y-21590000D03*
%TD*%
D13*
%TO.P,U15,1,/PBRST*%
%TO.N,unconnected-(U15-Pad1)*%
X35565000Y-171465000D03*
D14*
%TO.P,U15,2,TD*%
%TO.N,unconnected-(U15-Pad2)*%
X38105000Y-171465000D03*
%TO.P,U15,3,TOL*%
%TO.N,+5V*%
X40645000Y-171465000D03*
%TO.P,U15,4,GND*%
%TO.N,GND*%
X43185000Y-171465000D03*
%TO.P,U15,5,RST*%
%TO.N,RST*%
X43185000Y-163845000D03*
%TO.P,U15,6,/RST*%
%TO.N,{slash}RST*%
X40645000Y-163845000D03*
%TO.P,U15,7,/ST*%
%TO.N,DISP_CLK4*%
X38105000Y-163845000D03*
%TO.P,U15,8,VCC*%
%TO.N,+5V*%
X35565000Y-163845000D03*
%TD*%
D22*
%TO.P,SW4,1*%
%TO.N,DIP_STROBE2*%
X187960000Y-86487000D03*
D23*
%TO.P,SW4,2*%
X187960000Y-89027000D03*
%TO.P,SW4,3*%
X187960000Y-91567000D03*
%TO.P,SW4,4*%
X187960000Y-94107000D03*
%TO.P,SW4,5*%
X187960000Y-96647000D03*
%TO.P,SW4,6*%
X187960000Y-99187000D03*
%TO.P,SW4,7*%
X187960000Y-101727000D03*
%TO.P,SW4,8*%
X187960000Y-104267000D03*
%TO.P,SW4,9*%
%TO.N,Net-(D47-Pad1)*%
X195580000Y-104267000D03*
%TO.P,SW4,10*%
%TO.N,Net-(D31-Pad1)*%
X195580000Y-101727000D03*
%TO.P,SW4,11*%
%TO.N,Net-(D46-Pad1)*%
X195580000Y-99187000D03*
%TO.P,SW4,12*%
%TO.N,Net-(D30-Pad1)*%
X195580000Y-96647000D03*
%TO.P,SW4,13*%
%TO.N,Net-(D45-Pad1)*%
X195580000Y-94107000D03*
%TO.P,SW4,14*%
%TO.N,Net-(D29-Pad1)*%
X195580000Y-91567000D03*
%TO.P,SW4,15*%
%TO.N,Net-(D44-Pad1)*%
X195580000Y-89027000D03*
%TO.P,SW4,16*%
%TO.N,Net-(D28-Pad1)*%
X195580000Y-86487000D03*
%TD*%
D12*
%TO.P,R20,1*%
%TO.N,DISP_CLK3*%
X260350000Y-73406000D03*
D11*
%TO.P,R20,2*%
%TO.N,STROBE2*%
X270510000Y-73406000D03*
%TD*%
D12*
%TO.P,R2,1*%
%TO.N,+5V*%
X94742000Y-11430000D03*
D11*
%TO.P,R2,2*%
%TO.N,Net-(R2-Pad2)*%
X94742000Y-21590000D03*
%TD*%
D12*
%TO.P,R27,1*%
%TO.N,+5V*%
X38095000Y-109220000D03*
D11*
%TO.P,R27,2*%
%TO.N,{slash}CLK*%
X38095000Y-99060000D03*
%TD*%
D17*
%TO.P,TP3,1,1*%
%TO.N,{slash}RST*%
X49276000Y-158750000D03*
%TD*%
D13*
%TO.P,SW1,1*%
%TO.N,GND*%
X95255000Y-33035000D03*
D14*
%TO.P,SW1,2*%
X97795000Y-33035000D03*
%TO.P,SW1,3*%
X100335000Y-33035000D03*
%TO.P,SW1,4*%
X102875000Y-33035000D03*
%TO.P,SW1,5*%
%TO.N,Net-(R5-Pad2)*%
X102875000Y-25415000D03*
%TO.P,SW1,6*%
%TO.N,Net-(R4-Pad2)*%
X100335000Y-25415000D03*
%TO.P,SW1,7*%
%TO.N,Net-(R3-Pad2)*%
X97795000Y-25415000D03*
%TO.P,SW1,8*%
%TO.N,Net-(R2-Pad2)*%
X95255000Y-25415000D03*
%TD*%
D12*
%TO.P,C10,1*%
%TO.N,+5V*%
X62225000Y-170180000D03*
%TO.P,C10,2*%
%TO.N,GND*%
X62225000Y-175180000D03*
%TD*%
D10*
%TO.P,D47,1,K*%
%TO.N,Net-(D47-Pad1)*%
X203327000Y-104267000D03*
D11*
%TO.P,D47,2,A*%
%TO.N,SW_LINE7*%
X210947000Y-104267000D03*
%TD*%
D15*
%TO.P,J1,1,Pin_1*%
%TO.N,DISP_5V*%
X8885000Y-146055000D03*
D16*
%TO.P,J1,2,Pin_2*%
%TO.N,GND*%
X8885000Y-148595000D03*
%TO.P,J1,3,Pin_3*%
%TO.N,24V*%
X8885000Y-151135000D03*
%TO.P,J1,4,Pin_4*%
%TO.N,DISP+*%
X8885000Y-153675000D03*
%TO.P,J1,5,Pin_5*%
X8885000Y-156215000D03*
%TO.P,J1,6,Pin_6*%
%TO.N,unconnected-(J1-Pad6)*%
X8885000Y-158755000D03*
%TO.P,J1,7,Pin_7*%
%TO.N,DISP+*%
X8885000Y-161295000D03*
%TO.P,J1,8,Pin_8*%
%TO.N,DISP_GND*%
X8885000Y-163835000D03*
%TO.P,J1,9,Pin_9*%
X8885000Y-166375000D03*
%TO.P,J1,10,Pin_10*%
X8885000Y-168915000D03*
%TO.P,J1,11,Pin_11*%
%TO.N,5Volt*%
X8885000Y-171455000D03*
%TO.P,J1,12,Pin_12*%
X8885000Y-173995000D03*
%TO.P,J1,13,Pin_13*%
%TO.N,+12V*%
X8885000Y-176535000D03*
%TO.P,J1,14,Pin_14*%
%TO.N,GND*%
X8885000Y-179075000D03*
%TO.P,J1,15,Pin_15*%
X8885000Y-181615000D03*
%TD*%
D10*
%TO.P,D48,1,K*%
%TO.N,Net-(D48-Pad1)*%
X203327000Y-114427000D03*
D11*
%TO.P,D48,2,A*%
%TO.N,SW_LINE1*%
X210947000Y-114427000D03*
%TD*%
D12*
%TO.P,R15,1*%
%TO.N,+5V*%
X177647600Y-73101200D03*
D11*
%TO.P,R15,2*%
%TO.N,DISP_CLK5*%
X167487600Y-73101200D03*
%TD*%
D12*
%TO.P,R5,1*%
%TO.N,+5V*%
X103886000Y-11430000D03*
D11*
%TO.P,R5,2*%
%TO.N,Net-(R5-Pad2)*%
X103886000Y-21590000D03*
%TD*%
D12*
%TO.P,C6,1*%
%TO.N,Net-(C6-Pad1)*%
X167625000Y-109215000D03*
%TO.P,C6,2*%
%TO.N,GND*%
X162625000Y-109215000D03*
%TD*%
D22*
%TO.P,SW2,1*%
%TO.N,DIP_STROBE0*%
X187960000Y-35687000D03*
D23*
%TO.P,SW2,2*%
X187960000Y-38227000D03*
%TO.P,SW2,3*%
X187960000Y-40767000D03*
%TO.P,SW2,4*%
X187960000Y-43307000D03*
%TO.P,SW2,5*%
X187960000Y-45847000D03*
%TO.P,SW2,6*%
X187960000Y-48387000D03*
%TO.P,SW2,7*%
X187960000Y-50927000D03*
%TO.P,SW2,8*%
X187960000Y-53467000D03*
%TO.P,SW2,9*%
%TO.N,Net-(D39-Pad1)*%
X195580000Y-53467000D03*
%TO.P,SW2,10*%
%TO.N,Net-(D23-Pad1)*%
X195580000Y-50927000D03*
%TO.P,SW2,11*%
%TO.N,Net-(D38-Pad1)*%
X195580000Y-48387000D03*
%TO.P,SW2,12*%
%TO.N,Net-(D22-Pad1)*%
X195580000Y-45847000D03*
%TO.P,SW2,13*%
%TO.N,Net-(D37-Pad1)*%
X195580000Y-43307000D03*
%TO.P,SW2,14*%
%TO.N,Net-(D21-Pad1)*%
X195580000Y-40767000D03*
%TO.P,SW2,15*%
%TO.N,Net-(D36-Pad1)*%
X195580000Y-38227000D03*
%TO.P,SW2,16*%
%TO.N,Net-(D20-Pad1)*%
X195580000Y-35687000D03*
%TD*%
D10*
%TO.P,C4,1*%
%TO.N,+5V*%
X30475000Y-146050000D03*
D12*
%TO.P,C4,2*%
%TO.N,GND*%
X27975000Y-146050000D03*
%TD*%
%TO.P,R76,1*%
%TO.N,Net-(R67-Pad2)*%
X177139600Y-101600000D03*
D11*
%TO.P,R76,2*%
%TO.N,PB7*%
X177139600Y-91440000D03*
%TD*%
D12*
%TO.P,R1,1*%
%TO.N,Net-(R1-Pad1)*%
X72385000Y-120650000D03*
D11*
%TO.P,R1,2*%
%TO.N,+5V*%
X82545000Y-120650000D03*
%TD*%
D22*
%TO.P,U11,1,A0*%
%TO.N,PA4*%
X146035000Y-62245000D03*
D23*
%TO.P,U11,2,A1*%
%TO.N,PA5*%
X146035000Y-64785000D03*
%TO.P,U11,3,A2*%
%TO.N,PA6*%
X146035000Y-67325000D03*
%TO.P,U11,4,E1*%
%TO.N,GND*%
X146035000Y-69865000D03*
%TO.P,U11,5,E2*%
X146035000Y-72405000D03*
%TO.P,U11,6,E3*%
%TO.N,PA7*%
X146035000Y-74945000D03*
%TO.P,U11,7,O7*%
%TO.N,DIP_STROBE3*%
X146035000Y-77485000D03*
%TO.P,U11,8,GND*%
%TO.N,GND*%
X146035000Y-80025000D03*
%TO.P,U11,9,O6*%
%TO.N,DIP_STROBE2*%
X153655000Y-80025000D03*
%TO.P,U11,10,O5*%
%TO.N,DIP_STROBE1*%
X153655000Y-77485000D03*
%TO.P,U11,11,O4*%
%TO.N,DIP_STROBE0*%
X153655000Y-74945000D03*
%TO.P,U11,12,O3*%
%TO.N,DISP_CLK5*%
X153655000Y-72405000D03*
%TO.P,U11,13,O2*%
%TO.N,DISP_CLK4*%
X153655000Y-69865000D03*
%TO.P,U11,14,O1*%
%TO.N,DISP_CLK3*%
X153655000Y-67325000D03*
%TO.P,U11,15,O0*%
%TO.N,DISP_CLK2*%
X153655000Y-64785000D03*
%TO.P,U11,16,VCC*%
%TO.N,+5V*%
X153655000Y-62245000D03*
%TD*%
D12*
%TO.P,R44,1*%
%TO.N,SW_LINE0*%
X260350000Y-45974000D03*
D11*
%TO.P,R44,2*%
%TO.N,+5V*%
X270510000Y-45974000D03*
%TD*%
D10*
%TO.P,D2,1,K*%
%TO.N,Net-(D1-Pad2)*%
X237490000Y-46990000D03*
D11*
%TO.P,D2,2,A*%
%TO.N,GND*%
X229870000Y-46990000D03*
%TD*%
D12*
%TO.P,R29,1*%
%TO.N,Net-(C5-Pad1)*%
X97790000Y-154940000D03*
D11*
%TO.P,R29,2*%
%TO.N,GND*%
X107950000Y-154940000D03*
%TD*%
D15*
%TO.P,J5,1,Pin_1*%
%TO.N,STROBE2*%
X279400000Y-72385000D03*
D16*
%TO.P,J5,2,Pin_2*%
%TO.N,STROBE1*%
X279400000Y-69845000D03*
%TO.P,J5,3,Pin_3*%
%TO.N,STROBE3*%
X279400000Y-67305000D03*
%TO.P,J5,4,Pin_4*%
%TO.N,unconnected-(J5-Pad4)*%
X279400000Y-64765000D03*
%TO.P,J5,5,Pin_5*%
%TO.N,LAMP_EN4*%
X279400000Y-62225000D03*
%TO.P,J5,6,Pin_6*%
%TO.N,STROBE0*%
X279400000Y-59685000D03*
%TO.P,J5,7,Pin_7*%
%TO.N,STROBE4*%
X279400000Y-57145000D03*
%TO.P,J5,8,Pin_8*%
%TO.N,SW_LINE3*%
X279400000Y-54605000D03*
%TO.P,J5,9,Pin_9*%
%TO.N,SW_LINE1*%
X279400000Y-52065000D03*
%TO.P,J5,10,Pin_10*%
%TO.N,SW_LINE5*%
X279400000Y-49525000D03*
%TO.P,J5,11,Pin_11*%
%TO.N,SW_LINE0*%
X279400000Y-46985000D03*
%TO.P,J5,12,Pin_12*%
%TO.N,SW_LINE6*%
X279400000Y-44445000D03*
%TO.P,J5,13,Pin_13*%
%TO.N,SW_LINE7*%
X279400000Y-41905000D03*
%TO.P,J5,14,Pin_14*%
%TO.N,SW_LINE4*%
X279400000Y-39365000D03*
%TO.P,J5,15,Pin_15*%
%TO.N,SW_LINE2*%
X279400000Y-36825000D03*
%TD*%
D12*
%TO.P,R43,1*%
%TO.N,Net-(C6-Pad1)*%
X168895000Y-114295000D03*
D11*
%TO.P,R43,2*%
%TO.N,GND*%
X158735000Y-114295000D03*
%TD*%
D13*
%TO.P,U1,1,D4*%
%TO.N,D4*%
X49510000Y-113035000D03*
D14*
%TO.P,U1,2,D5*%
%TO.N,D5*%
X52050000Y-113035000D03*
%TO.P,U1,3,D6*%
%TO.N,D6*%
X54590000Y-113035000D03*
%TO.P,U1,4,D7*%
%TO.N,D7*%
X57130000Y-113035000D03*
%TO.P,U1,5,GND*%
%TO.N,GND*%
X59670000Y-113035000D03*
%TO.P,U1,6,/RD*%
%TO.N,{slash}RD*%
X62210000Y-113035000D03*
%TO.P,U1,7,ZC/TC0*%
%TO.N,unconnected-(U1-Pad7)*%
X64750000Y-113035000D03*
%TO.P,U1,8,ZC/TC1*%
%TO.N,unconnected-(U1-Pad8)*%
X67290000Y-113035000D03*
%TO.P,U1,9,ZC/TC2*%
%TO.N,unconnected-(U1-Pad9)*%
X69830000Y-113035000D03*
%TO.P,U1,10,/IORQ*%
%TO.N,{slash}IOREQ*%
X72370000Y-113035000D03*
%TO.P,U1,11,IEO*%
%TO.N,unconnected-(U1-Pad11)*%
X74910000Y-113035000D03*
%TO.P,U1,12,/INT*%
%TO.N,Net-(R1-Pad1)*%
X77450000Y-113035000D03*
%TO.P,U1,13,IEI*%
%TO.N,+5V*%
X79990000Y-113035000D03*
%TO.P,U1,14,/M1*%
%TO.N,Net-(U1-Pad14)*%
X82530000Y-113035000D03*
%TO.P,U1,15,CLK*%
%TO.N,{slash}CLK*%
X82530000Y-97795000D03*
%TO.P,U1,16,/CE*%
%TO.N,{slash}CTC-CE*%
X79990000Y-97795000D03*
%TO.P,U1,17,/RESET*%
%TO.N,{slash}RST*%
X77450000Y-97795000D03*
%TO.P,U1,18,/CS0*%
%TO.N,A0*%
X74910000Y-97795000D03*
%TO.P,U1,19,/CS1*%
%TO.N,A1*%
X72370000Y-97795000D03*
%TO.P,U1,20,CLK/TRG3*%
%TO.N,GND*%
X69830000Y-97795000D03*
%TO.P,U1,21,CLK/TRG2*%
%TO.N,ZERO*%
X67290000Y-97795000D03*
%TO.P,U1,22,CLK/TRG1*%
%TO.N,GND*%
X64750000Y-97795000D03*
%TO.P,U1,23,CLK/TRG0*%
X62210000Y-97795000D03*
%TO.P,U1,24,+5V*%
%TO.N,+5V*%
X59670000Y-97795000D03*
%TO.P,U1,25,D0*%
%TO.N,D0*%
X57130000Y-97795000D03*
%TO.P,U1,26,D1*%
%TO.N,D1*%
X54590000Y-97795000D03*
%TO.P,U1,27,D2*%
%TO.N,D2*%
X52050000Y-97795000D03*
%TO.P,U1,28,D3*%
%TO.N,D3*%
X49510000Y-97795000D03*
%TD*%
D12*
%TO.P,C12,1*%
%TO.N,+5V*%
X266645000Y-99065000D03*
%TO.P,C12,2*%
%TO.N,GND*%
X261645000Y-99065000D03*
%TD*%
%TO.P,R81,1*%
%TO.N,+12V*%
X23266400Y-184302400D03*
D11*
%TO.P,R81,2*%
%TO.N,Net-(D56-Pad2)*%
X13106400Y-184302400D03*
%TD*%
D12*
%TO.P,R84,1*%
%TO.N,+5V*%
X110998000Y-30734000D03*
D11*
%TO.P,R84,2*%
%TO.N,PB1*%
X121158000Y-30734000D03*
%TD*%
D17*
%TO.P,TP1,1,1*%
%TO.N,5Volt*%
X40386000Y-143256000D03*
%TD*%
D10*
%TO.P,D17,1,K*%
%TO.N,+5V*%
X285750000Y-166370000D03*
D11*
%TO.P,D17,2,A*%
%TO.N,DIGIT4*%
X278130000Y-166370000D03*
%TD*%
D18*
%TO.P,D9,1,K*%
%TO.N,+5V*%
X251460000Y-67310000D03*
D19*
%TO.P,D9,2,A*%
%TO.N,DISP_CLK4*%
X241300000Y-67310000D03*
%TD*%
D12*
%TO.P,C17,1*%
%TO.N,+5V*%
X229870000Y-154940000D03*
%TO.P,C17,2*%
%TO.N,GND*%
X224870000Y-154940000D03*
%TD*%
%TO.P,C21,1*%
%TO.N,+5V*%
X147345000Y-109220000D03*
%TO.P,C21,2*%
%TO.N,GND*%
X152345000Y-109220000D03*
%TD*%
D10*
%TO.P,D46,1,K*%
%TO.N,Net-(D46-Pad1)*%
X203327000Y-99187000D03*
D11*
%TO.P,D46,2,A*%
%TO.N,SW_LINE5*%
X210947000Y-99187000D03*
%TD*%
D10*
%TO.P,D31,1,K*%
%TO.N,Net-(D31-Pad1)*%
X203327000Y-101727000D03*
D11*
%TO.P,D31,2,A*%
%TO.N,SW_LINE6*%
X210947000Y-101727000D03*
%TD*%
D18*
%TO.P,D7,1,K*%
%TO.N,+5V*%
X251460000Y-62230000D03*
D19*
%TO.P,D7,2,A*%
%TO.N,DISP_CLK3*%
X241300000Y-62230000D03*
%TD*%
D12*
%TO.P,R41,1*%
%TO.N,+12V*%
X271018000Y-177800000D03*
D11*
%TO.P,R41,2*%
%TO.N,DIGIT5*%
X271018000Y-167640000D03*
%TD*%
D12*
%TO.P,R57,1*%
%TO.N,Net-(C6-Pad1)*%
X168859200Y-121259600D03*
D11*
%TO.P,R57,2*%
%TO.N,Net-(R57-Pad2)*%
X158699200Y-121259600D03*
%TD*%
D12*
%TO.P,R36,1*%
%TO.N,+12V*%
X253238000Y-177800000D03*
D11*
%TO.P,R36,2*%
%TO.N,DIGIT0*%
X253238000Y-167640000D03*
%TD*%
D10*
%TO.P,D22,1,K*%
%TO.N,Net-(D22-Pad1)*%
X203327000Y-45847000D03*
D11*
%TO.P,D22,2,A*%
%TO.N,SW_LINE4*%
X210947000Y-45847000D03*
%TD*%
D12*
%TO.P,R61,1*%
%TO.N,Net-(C6-Pad1)*%
X130795000Y-99060000D03*
D11*
%TO.P,R61,2*%
%TO.N,Net-(R61-Pad2)*%
X140955000Y-99060000D03*
%TD*%
D10*
%TO.P,D8,1,K*%
%TO.N,DISP_CLK3*%
X237490000Y-62230000D03*
D11*
%TO.P,D8,2,A*%
%TO.N,GND*%
X229870000Y-62230000D03*
%TD*%
D12*
%TO.P,R16,1*%
%TO.N,Net-(R16-Pad1)*%
X224790000Y-107950000D03*
D11*
%TO.P,R16,2*%
%TO.N,Net-(C1-Pad1)*%
X224790000Y-118110000D03*
%TD*%
D10*
%TO.P,D13,1,K*%
%TO.N,+5V*%
X285750000Y-163830000D03*
D11*
%TO.P,D13,2,A*%
%TO.N,DIGIT0*%
X278130000Y-163830000D03*
%TD*%
D12*
%TO.P,C22,1*%
%TO.N,+5V*%
X236165000Y-99055000D03*
%TO.P,C22,2*%
%TO.N,GND*%
X231165000Y-99055000D03*
%TD*%
D22*
%TO.P,U18,1*%
%TO.N,Net-(U17-Pad15)*%
X223520000Y-160020000D03*
D23*
%TO.P,U18,2*%
%TO.N,DIGIT0*%
X223520000Y-162560000D03*
%TO.P,U18,3*%
%TO.N,Net-(U17-Pad13)*%
X223520000Y-165100000D03*
%TO.P,U18,4*%
%TO.N,DIGIT2*%
X223520000Y-167640000D03*
%TO.P,U18,5*%
%TO.N,Net-(U17-Pad12)*%
X223520000Y-170180000D03*
%TO.P,U18,6*%
%TO.N,DIGIT3*%
X223520000Y-172720000D03*
%TO.P,U18,7,Gnd*%
%TO.N,GND*%
X223520000Y-175260000D03*
%TO.P,U18,8*%
%TO.N,DIGIT4*%
X231140000Y-175260000D03*
%TO.P,U18,9*%
%TO.N,Net-(U17-Pad11)*%
X231140000Y-172720000D03*
%TO.P,U18,10*%
%TO.N,DIGIT5*%
X231140000Y-170180000D03*
%TO.P,U18,11*%
%TO.N,Net-(U17-Pad10)*%
X231140000Y-167640000D03*
%TO.P,U18,12*%
%TO.N,DIGIT6*%
X231140000Y-165100000D03*
%TO.P,U18,13*%
%TO.N,Net-(U17-Pad9)*%
X231140000Y-162560000D03*
%TO.P,U18,14,Vcc*%
%TO.N,+5V*%
X231140000Y-160020000D03*
%TD*%
D12*
%TO.P,C8,1*%
%TO.N,+5V*%
X152400000Y-58420000D03*
%TO.P,C8,2*%
%TO.N,GND*%
X147400000Y-58420000D03*
%TD*%
D15*
%TO.P,J7,1,Pin_1*%
%TO.N,PERIPH0_4*%
X180325000Y-11430000D03*
D16*
%TO.P,J7,2,Pin_2*%
%TO.N,PERIPH0_3*%
X177785000Y-11430000D03*
%TO.P,J7,3,Pin_3*%
%TO.N,unconnected-(J7-Pad3)*%
X175245000Y-11430000D03*
%TO.P,J7,4,Pin_4*%
%TO.N,PERIPH0_2*%
X172705000Y-11430000D03*
%TO.P,J7,5,Pin_5*%
%TO.N,PERIPH0_1*%
X170165000Y-11430000D03*
%TO.P,J7,6,Pin_6*%
%TO.N,unconnected-(J7-Pad6)*%
X167625000Y-11430000D03*
%TO.P,J7,7,Pin_7*%
%TO.N,PC5*%
X165085000Y-11430000D03*
%TO.P,J7,8,Pin_8*%
%TO.N,PC7*%
X162545000Y-11430000D03*
%TO.P,J7,9,Pin_9*%
%TO.N,PC6*%
X160005000Y-11430000D03*
%TD*%
D12*
%TO.P,R18,1*%
%TO.N,DISP_CLK1*%
X260350000Y-61214000D03*
D11*
%TO.P,R18,2*%
%TO.N,STROBE0*%
X270510000Y-61214000D03*
%TD*%
D12*
%TO.P,R22,1*%
%TO.N,DISP_CLK5*%
X260350000Y-58166000D03*
D11*
%TO.P,R22,2*%
%TO.N,STROBE4*%
X270510000Y-58166000D03*
%TD*%
D10*
%TO.P,D28,1,K*%
%TO.N,Net-(D28-Pad1)*%
X203327000Y-86309200D03*
D11*
%TO.P,D28,2,A*%
%TO.N,SW_LINE0*%
X210947000Y-86309200D03*
%TD*%
D17*
%TO.P,TP2,1,1*%
%TO.N,RST*%
X49276000Y-166624000D03*
%TD*%
D12*
%TO.P,R35,1*%
%TO.N,+5V*%
X189230000Y-170195000D03*
D11*
%TO.P,R35,2*%
%TO.N,Net-(R35-Pad2)*%
X199390000Y-170195000D03*
%TD*%
D12*
%TO.P,C18,1*%
%TO.N,+5V*%
X45715000Y-102910000D03*
%TO.P,C18,2*%
%TO.N,GND*%
X45715000Y-107910000D03*
%TD*%
D30*
%TO.N,GND*%
X220980000Y-99212400D03*
X138049000Y-54483000D03*
X42819400Y-180345000D03*
X148463000Y-93472000D03*
X229768400Y-24790400D03*
X260335000Y-136209800D03*
X1630600Y-180345000D03*
%TO.N,+5V*%
X278536400Y-159841720D03*
X80010000Y-67437000D03*
X143891000Y-83947000D03*
X149621000Y-49545000D03*
X153873200Y-135077200D03*
%TO.N,Net-(C6-Pad1)*%
X131013200Y-111709200D03*
%TO.N,Net-(D1-Pad2)*%
X237490000Y-29972000D03*
X264922000Y-47778489D03*
X170180000Y-39624000D03*
%TO.N,DISP_CLK1*%
X216763600Y-146354800D03*
X252882400Y-89204800D03*
X284581600Y-178816000D03*
X245618000Y-64770000D03*
X233883200Y-96164400D03*
%TO.N,DISP_CLK2*%
X272796000Y-55626000D03*
X281076400Y-179222400D03*
X263601200Y-147167600D03*
%TO.N,DISP_CLK3*%
X273812000Y-74168000D03*
X239268000Y-69850000D03*
X291358000Y-53614000D03*
X291782200Y-180035200D03*
X264261600Y-146304000D03*
X273812000Y-52324000D03*
X288188400Y-179324000D03*
%TO.N,DISP_CLK4*%
X114808000Y-151130000D03*
X272288000Y-50038000D03*
X291626000Y-49564000D03*
X262737600Y-147980400D03*
X281228800Y-183540400D03*
X280162000Y-179374800D03*
X143002000Y-151130000D03*
%TO.N,DISP_CLK5*%
X291084000Y-65278000D03*
X244348000Y-59436000D03*
%TO.N,DIGIT0*%
X288925000Y-66675000D03*
%TO.N,DIGIT1*%
X291465000Y-69850000D03*
X222560783Y-177006405D03*
X284480000Y-69850000D03*
X273456400Y-169926000D03*
%TO.N,DIGIT3*%
X287655000Y-63500000D03*
%TO.N,DIGIT4*%
X274650200Y-165735000D03*
X285750000Y-63500000D03*
%TO.N,DIGIT6*%
X261328267Y-161290000D03*
X269697200Y-95148400D03*
X250190000Y-162052000D03*
%TO.N,SW_LINE0*%
X211023200Y-31546800D03*
X217424000Y-112014000D03*
X128727680Y-73456320D03*
X136728680Y-73456320D03*
X217297000Y-86487000D03*
X217424000Y-60960000D03*
%TO.N,SW_LINE2*%
X214122000Y-66040000D03*
X213995000Y-91567000D03*
X214122000Y-116840000D03*
%TO.N,SW_LINE4*%
X206502000Y-95504000D03*
X206502000Y-121920000D03*
X206502000Y-71120000D03*
%TO.N,SW_LINE6*%
X208026000Y-127000000D03*
X226060000Y-51308000D03*
X208026000Y-100838000D03*
X208026000Y-75438000D03*
%TO.N,SW_LINE1*%
X208915000Y-32385000D03*
X215646000Y-63500000D03*
X215646000Y-88900000D03*
X215646000Y-114300000D03*
X129336800Y-113131600D03*
%TO.N,SW_LINE3*%
X212852000Y-50292000D03*
%TO.N,SW_LINE5*%
X207358000Y-73500000D03*
X207264000Y-124460000D03*
X207264000Y-98298000D03*
%TO.N,SW_LINE7*%
X208788000Y-129540000D03*
%TO.N,DISP_5V*%
X265493011Y-130848589D03*
X18694400Y-152400000D03*
X265328178Y-143052889D03*
X290576000Y-146354800D03*
%TO.N,DISP+*%
X284327600Y-80822800D03*
X254000000Y-75285600D03*
X230378000Y-6502400D03*
X274980400Y-146100800D03*
X230174800Y-13817600D03*
%TO.N,DISP_GND*%
X277926800Y-145034000D03*
X21336000Y-133858000D03*
X283464000Y-137058400D03*
%TO.N,ADDR2*%
X291465000Y-81915000D03*
X152908000Y-140970000D03*
X255905000Y-81915000D03*
X255016000Y-129540000D03*
X241046000Y-140716000D03*
%TO.N,ADDR1*%
X240284000Y-163830000D03*
X258445000Y-96520000D03*
X256540000Y-132842000D03*
X219964000Y-166624000D03*
X291465000Y-85725000D03*
X291628800Y-153887200D03*
%TO.N,LAMP_EN4*%
X242874800Y-145707600D03*
X165100000Y-144894800D03*
%TO.N,ADDR3*%
X291465000Y-90805000D03*
X284189200Y-158967200D03*
X272415000Y-90805000D03*
X272288000Y-147066000D03*
X272288000Y-116840000D03*
%TO.N,ADDR4*%
X264363200Y-76301600D03*
X289915600Y-76200000D03*
X257810000Y-131826000D03*
X251968000Y-161290000D03*
X264363200Y-118364000D03*
%TO.N,STROBE0*%
X140573000Y-78724000D03*
X222250000Y-60198000D03*
X222250000Y-81280000D03*
X140573000Y-64754000D03*
%TO.N,PERIPH0_4*%
X217881200Y-123139200D03*
X218071211Y-11442211D03*
%TO.N,PERIPH0_3*%
X218821000Y-122351800D03*
X218821000Y-9753600D03*
%TO.N,PERIPH0_2*%
X219456000Y-8636000D03*
X219532200Y-120726200D03*
%TO.N,PERIPH0_1*%
X231444800Y-17221200D03*
%TO.N,PC5*%
X105410000Y-71120000D03*
X109524800Y-15494000D03*
%TO.N,PC7*%
X104038400Y-76149200D03*
X108407200Y-13766800D03*
%TO.N,PC6*%
X103022400Y-73660000D03*
X107391200Y-11430000D03*
%TO.N,PERIPH_EN*%
X182880000Y-165735000D03*
X173990000Y-41467880D03*
%TO.N,PC3*%
X117983000Y-58420000D03*
%TO.N,{slash}CLK*%
X43180000Y-78740000D03*
X82530000Y-104882000D03*
%TO.N,Net-(R33-Pad2)*%
X31242000Y-107442000D03*
%TO.N,PB0*%
X124460000Y-55880000D03*
%TO.N,PB1*%
X128016000Y-53340000D03*
%TO.N,PB2*%
X127635000Y-115316000D03*
X126492000Y-51054000D03*
%TO.N,PB3*%
X129159000Y-47625000D03*
X149225000Y-53213000D03*
%TO.N,PB4*%
X117335789Y-50177211D03*
%TO.N,PB5*%
X116459000Y-52197000D03*
%TO.N,PB6*%
X160528000Y-60198000D03*
X130970689Y-57310689D03*
%TO.N,PB7*%
X105316689Y-85250689D03*
%TO.N,{slash}RD*%
X113030000Y-113284000D03*
X102768400Y-88900000D03*
%TO.N,{slash}WR*%
X54483000Y-50292000D03*
X54483000Y-59182000D03*
%TO.N,DIP_STROBE0*%
X182626000Y-75184000D03*
%TO.N,DIP_STROBE3*%
X174932680Y-73840680D03*
%TO.N,{slash}CTC-CE*%
X73494320Y-70523680D03*
%TO.N,A0*%
X75946000Y-78486000D03*
X74930000Y-90932000D03*
%TO.N,A1*%
X116586000Y-101346000D03*
%TO.N,ZERO*%
X36322000Y-60452000D03*
%TO.N,D0*%
X85191600Y-74320400D03*
%TO.N,D2*%
X62230000Y-84074000D03*
%TO.N,Net-(U1-Pad14)*%
X78994000Y-76200000D03*
X84950800Y-102235000D03*
%TO.N,A11*%
X42164000Y-44958000D03*
%TO.N,A8*%
X52070000Y-52324000D03*
%TO.N,{slash}MREQ*%
X78232000Y-77978000D03*
X30480000Y-80772000D03*
%TO.N,A9*%
X51422800Y-54864000D03*
%TO.N,A10*%
X47117000Y-56515000D03*
%TO.N,LATCH_CLK*%
X237475000Y-126832600D03*
%TO.N,Net-(U12-Pad11)*%
X160274000Y-137160000D03*
X235970680Y-139695320D03*
%TO.N,PIO-CS*%
X106172000Y-86614000D03*
%TO.N,PA3*%
X115316000Y-99060000D03*
X128938680Y-169070680D03*
%TO.N,PA2*%
X123444000Y-167640000D03*
%TO.N,PA1*%
X114300000Y-93980000D03*
X127005000Y-162555000D03*
%TO.N,PA0*%
X124973000Y-157475000D03*
%TO.N,PC4*%
X147828000Y-138684000D03*
X162052000Y-160020000D03*
X162052000Y-138430000D03*
%TO.N,PC0*%
X122428000Y-145542000D03*
%TO.N,PC1*%
X122428000Y-146812000D03*
%TO.N,PC2*%
X122428000Y-148082000D03*
%TO.N,PA7*%
X142621000Y-45974000D03*
X143002000Y-92710000D03*
%TO.N,PA6*%
X138303000Y-93726000D03*
X143749000Y-41925000D03*
X138303000Y-67183000D03*
%TO.N,PA5*%
X135001000Y-94602800D03*
X139065000Y-65786000D03*
X135001000Y-65786000D03*
%TO.N,PA4*%
X142240000Y-97790000D03*
X142255000Y-62245000D03*
%TO.N,LATCH1*%
X223266000Y-44577000D03*
%TO.N,LATCH0*%
X224521000Y-41925000D03*
%TO.N,Net-(U17-Pad9)*%
X218440000Y-163830000D03*
%TD*%
D31*
%TO.N,Net-(C1-Pad1)*%
X224790000Y-118110000D02*
X229855000Y-113045000D01*
X229855000Y-113025000D02*
X229855000Y-110485000D01*
X229855000Y-113045000D02*
X229855000Y-113025000D01*
D32*
%TO.N,GND*%
X8885000Y-180345000D02*
X8885000Y-179075000D01*
X11633200Y-187502800D02*
X1727200Y-187502800D01*
D31*
X28656200Y-187294600D02*
X28448000Y-187502800D01*
X82555000Y-62210000D02*
X82555000Y-51049000D01*
X266450680Y-111999320D02*
X266450680Y-116610680D01*
X138049000Y-54483000D02*
X138049000Y-38481000D01*
X146035000Y-69865000D02*
X146035000Y-72405000D01*
X206233000Y-152843000D02*
X205805000Y-152415000D01*
X251210680Y-111999320D02*
X251210680Y-116610680D01*
X162625000Y-109215000D02*
X162625000Y-110405000D01*
X82540000Y-151145000D02*
X82540000Y-143525000D01*
D32*
X229870000Y-72390000D02*
X229870000Y-97760000D01*
X229870000Y-57150000D02*
X229870000Y-52070000D01*
D31*
X229855000Y-124221000D02*
X229855000Y-118105000D01*
D32*
X9606200Y-180345000D02*
X10464800Y-181203600D01*
D31*
X146035000Y-172715000D02*
X140711000Y-172715000D01*
X267955000Y-110495000D02*
X266450680Y-111999320D01*
X204455000Y-165115000D02*
X206233000Y-165115000D01*
X34445680Y-61140680D02*
X35550000Y-62245000D01*
X143510000Y-33020000D02*
X147360000Y-33020000D01*
X147138640Y-72405000D02*
X146035000Y-72405000D01*
X146035000Y-85329000D02*
X148463000Y-87757000D01*
D32*
X49682400Y-187502800D02*
X290372800Y-187502800D01*
D31*
X82555000Y-51049000D02*
X84582000Y-49022000D01*
X229768400Y-24790400D02*
X229870000Y-24892000D01*
D32*
X1630600Y-187406200D02*
X1630600Y-180345000D01*
D31*
X205805000Y-148271000D02*
X229855000Y-124221000D01*
X80000000Y-172710000D02*
X80000000Y-168925000D01*
D32*
X290372800Y-186232800D02*
X290118800Y-185978800D01*
D31*
X140208000Y-172212000D02*
X140208000Y-158496000D01*
D32*
X1727200Y-187502800D02*
X1630600Y-187406200D01*
X8885000Y-181615000D02*
X8885000Y-180345000D01*
D31*
X206233000Y-165115000D02*
X206233000Y-152843000D01*
X86868000Y-161290000D02*
X82540000Y-156962000D01*
X151379800Y-94797000D02*
X152247600Y-93929200D01*
X267955000Y-107955000D02*
X267955000Y-110495000D01*
X146543000Y-80025000D02*
X147539320Y-79028680D01*
X82540000Y-175250000D02*
X80000000Y-172710000D01*
X145039000Y-153665000D02*
X147345000Y-153665000D01*
X38426000Y-62245000D02*
X44577000Y-56094000D01*
D32*
X229870000Y-72390000D02*
X229870000Y-67310000D01*
D31*
X30475000Y-77550000D02*
X30475000Y-67320000D01*
D32*
X229870000Y-67310000D02*
X229870000Y-62230000D01*
D33*
X33010000Y-37054000D02*
X38354000Y-31710000D01*
D31*
X158735000Y-114295000D02*
X153655000Y-119375000D01*
X82540000Y-176545000D02*
X82540000Y-175250000D01*
X150622000Y-145034000D02*
X150622000Y-120142000D01*
X266450680Y-116610680D02*
X267955000Y-118115000D01*
X205805000Y-152415000D02*
X205805000Y-148271000D01*
X147345000Y-148311000D02*
X150622000Y-145034000D01*
X221234000Y-178409600D02*
X221234000Y-175615600D01*
D32*
X42819400Y-180345000D02*
X42819400Y-180639800D01*
D31*
X105370000Y-35530000D02*
X102875000Y-33035000D01*
D32*
X8885000Y-180345000D02*
X1630600Y-180345000D01*
D31*
X221234000Y-175615600D02*
X221589600Y-175260000D01*
X140208000Y-158496000D02*
X145039000Y-153665000D01*
X148463000Y-87757000D02*
X148463000Y-93472000D01*
D32*
X229870000Y-24892000D02*
X229870000Y-46990000D01*
D31*
X147539320Y-79028680D02*
X147539320Y-72805680D01*
X267955000Y-118115000D02*
X267955000Y-120655000D01*
X150622000Y-120142000D02*
X151389000Y-119375000D01*
D33*
X35550000Y-44465000D02*
X33010000Y-41925000D01*
D32*
X25475000Y-143550000D02*
X27975000Y-146050000D01*
D31*
X221589600Y-175260000D02*
X223520000Y-175260000D01*
X220980000Y-113070000D02*
X220980000Y-99212400D01*
X138049000Y-38481000D02*
X143510000Y-33020000D01*
X153609200Y-93929200D02*
X153655000Y-93975000D01*
D32*
X10464800Y-186334400D02*
X11633200Y-187502800D01*
D31*
X84582000Y-49022000D02*
X84582000Y-38872000D01*
D33*
X33010000Y-41925000D02*
X33010000Y-37054000D01*
D31*
X204455000Y-165115000D02*
X204455000Y-167655000D01*
X148209000Y-67691000D02*
X146035000Y-69865000D01*
X30475000Y-67320000D02*
X35550000Y-62245000D01*
D32*
X229870000Y-62230000D02*
X229870000Y-57150000D01*
D31*
X28656200Y-184353200D02*
X28656200Y-179476400D01*
X252715000Y-110495000D02*
X251210680Y-111999320D01*
X251210680Y-116610680D02*
X252715000Y-118115000D01*
X140711000Y-172715000D02*
X140208000Y-172212000D01*
X34445680Y-50649320D02*
X34445680Y-61140680D01*
D32*
X229870000Y-52070000D02*
X229870000Y-46990000D01*
D31*
X64750000Y-100096000D02*
X64750000Y-97795000D01*
X28605400Y-179425600D02*
X28605400Y-174701200D01*
X229870000Y-97760000D02*
X230139000Y-98029000D01*
X148209000Y-59229000D02*
X148209000Y-67691000D01*
X147345000Y-153665000D02*
X147345000Y-148311000D01*
X152345000Y-109220000D02*
X151379800Y-108254800D01*
X151379800Y-108254800D02*
X151379800Y-94797000D01*
X35550000Y-49545000D02*
X34445680Y-50649320D01*
X146035000Y-80025000D02*
X146035000Y-85329000D01*
X152247600Y-93929200D02*
X153609200Y-93929200D01*
X28656200Y-184353200D02*
X28656200Y-187294600D01*
D32*
X260335000Y-136209800D02*
X260335000Y-125735000D01*
X8885000Y-180345000D02*
X9606200Y-180345000D01*
D31*
X82540000Y-156962000D02*
X82540000Y-151145000D01*
X28605400Y-174701200D02*
X28554600Y-174650400D01*
X28656200Y-179476400D02*
X28605400Y-179425600D01*
X59670000Y-105176000D02*
X64750000Y-100096000D01*
D32*
X42819400Y-180639800D02*
X49682400Y-187502800D01*
D31*
X105370000Y-45720000D02*
X105370000Y-35530000D01*
D33*
X35550000Y-49545000D02*
X35550000Y-44465000D01*
D32*
X290118800Y-185978800D02*
X217424000Y-185978800D01*
X10464800Y-181203600D02*
X10464800Y-186334400D01*
D31*
X252715000Y-118115000D02*
X252715000Y-120655000D01*
X217424000Y-185978800D02*
X217424000Y-182219600D01*
X59670000Y-113035000D02*
X59670000Y-105176000D01*
D32*
X49682400Y-187502800D02*
X28448000Y-187502800D01*
D31*
X35550000Y-62245000D02*
X38426000Y-62245000D01*
D32*
X290372800Y-187502800D02*
X290372800Y-186232800D01*
X230139000Y-98029000D02*
X231165000Y-99055000D01*
D31*
X147539320Y-72805680D02*
X147138640Y-72405000D01*
X147400000Y-58420000D02*
X148209000Y-59229000D01*
X252715000Y-110495000D02*
X252715000Y-107955000D01*
D32*
X28448000Y-187502800D02*
X11633200Y-187502800D01*
D31*
X162625000Y-110405000D02*
X158735000Y-114295000D01*
X151389000Y-119375000D02*
X153655000Y-119375000D01*
X146035000Y-80025000D02*
X146543000Y-80025000D01*
X217424000Y-182219600D02*
X221234000Y-178409600D01*
D32*
X25475000Y-138430000D02*
X25475000Y-143550000D01*
D31*
X84582000Y-38872000D02*
X82545000Y-36835000D01*
X88895000Y-161290000D02*
X86868000Y-161290000D01*
%TO.N,Net-(C2-Pad1)*%
X20315000Y-67310000D02*
X20315000Y-62250000D01*
X25395000Y-74930000D02*
X25395000Y-81285000D01*
X17865000Y-88815000D02*
X17865000Y-92680000D01*
X20315000Y-62250000D02*
X20310000Y-62245000D01*
X25395000Y-81285000D02*
X17865000Y-88815000D01*
D32*
%TO.N,+5V*%
X30475000Y-138430000D02*
X30475000Y-146050000D01*
D31*
X270510000Y-36830000D02*
X270510000Y-39370000D01*
X44450000Y-50165000D02*
X44450000Y-50967000D01*
D34*
X46716000Y-46970000D02*
X41402000Y-41656000D01*
D35*
X82545000Y-120650000D02*
X82545000Y-118216600D01*
D32*
X40787400Y-21595000D02*
X44445000Y-21595000D01*
D31*
X152360000Y-35550000D02*
X153655000Y-36845000D01*
X210805000Y-156225000D02*
X212075000Y-157495000D01*
D32*
X11226800Y-59888200D02*
X15235000Y-55880000D01*
D35*
X82545000Y-118216600D02*
X94081600Y-106680000D01*
X149621000Y-49545000D02*
X149621000Y-38339000D01*
D31*
X35565000Y-166375000D02*
X37338000Y-168148000D01*
D35*
X168910000Y-172720000D02*
X168910000Y-162560000D01*
D31*
X77470000Y-67437000D02*
X80010000Y-67437000D01*
X270510000Y-49530000D02*
X270510000Y-52070000D01*
D35*
X148082000Y-118008400D02*
X146715400Y-119375000D01*
D31*
X64765000Y-166390000D02*
X67300000Y-168925000D01*
D35*
X229870000Y-158750000D02*
X231140000Y-160020000D01*
D34*
X40386000Y-27686000D02*
X39330000Y-27686000D01*
D35*
X132080000Y-165100000D02*
X132080000Y-160020000D01*
D34*
X49535000Y-46970000D02*
X46716000Y-46970000D01*
D35*
X144267000Y-93975000D02*
X146035000Y-93975000D01*
D31*
X152360000Y-33020000D02*
X152360000Y-35550000D01*
D35*
X205435200Y-177800000D02*
X196835000Y-177800000D01*
X146959400Y-93975000D02*
X148285200Y-95300800D01*
D34*
X41402000Y-41656000D02*
X41402000Y-28702000D01*
D32*
X14130689Y-117005689D02*
X30475000Y-133350000D01*
D35*
X148285200Y-108279800D02*
X147345000Y-109220000D01*
X82545000Y-120650000D02*
X82545000Y-118562200D01*
D34*
X30475000Y-116840000D02*
X38095000Y-109220000D01*
D35*
X150622000Y-56642000D02*
X150622000Y-50546000D01*
X210551000Y-157495000D02*
X207314800Y-160731200D01*
D31*
X270510000Y-33782000D02*
X270510000Y-36830000D01*
D32*
X38354000Y-24028400D02*
X40787400Y-21595000D01*
D35*
X152400000Y-58420000D02*
X150622000Y-56642000D01*
D31*
X270510000Y-39370000D02*
X270510000Y-41910000D01*
D35*
X82545000Y-118562200D02*
X79990000Y-116007200D01*
D34*
X41402000Y-28702000D02*
X40386000Y-27686000D01*
D35*
X41108000Y-102910000D02*
X45715000Y-102910000D01*
X110998000Y-39878000D02*
X110998000Y-18592800D01*
D32*
X14130689Y-117005689D02*
X14034089Y-117005689D01*
D31*
X95250000Y-63495000D02*
X100370000Y-58375000D01*
X251405000Y-72445000D02*
X251460000Y-72390000D01*
D35*
X251460000Y-62230000D02*
X251460000Y-67310000D01*
D31*
X74930000Y-87635000D02*
X74930000Y-72395000D01*
D35*
X207314800Y-160731200D02*
X207314800Y-175920400D01*
D31*
X210805000Y-152415000D02*
X210805000Y-156225000D01*
D34*
X47645000Y-46970000D02*
X44450000Y-50165000D01*
D35*
X132080000Y-170180000D02*
X132080000Y-165100000D01*
X148285200Y-95300800D02*
X148285200Y-108279800D01*
X143891000Y-83947000D02*
X143891000Y-93599000D01*
D34*
X39330000Y-27686000D02*
X38354000Y-26710000D01*
D32*
X15235000Y-55880000D02*
X15235000Y-47000000D01*
D35*
X79990000Y-116007200D02*
X79990000Y-113035000D01*
X38095000Y-105923000D02*
X41108000Y-102910000D01*
D31*
X54610000Y-11430000D02*
X94996000Y-11430000D01*
X37338000Y-168148000D02*
X39624000Y-168148000D01*
D35*
X151145000Y-36845000D02*
X153655000Y-36845000D01*
X153655000Y-154975000D02*
X152345000Y-153665000D01*
D31*
X64765000Y-157480000D02*
X64765000Y-161290000D01*
X177800000Y-67310000D02*
X177800000Y-69850000D01*
X270510000Y-46990000D02*
X270510000Y-49530000D01*
D35*
X282739720Y-159841720D02*
X284188000Y-161290000D01*
D32*
X15235000Y-47000000D02*
X20310000Y-41925000D01*
D35*
X196835000Y-177800000D02*
X189230000Y-170195000D01*
D31*
X270510000Y-44450000D02*
X270510000Y-46990000D01*
X270510000Y-52070000D02*
X270510000Y-54610000D01*
D32*
X11226800Y-114198400D02*
X11226800Y-59888200D01*
D35*
X239207920Y-104597920D02*
X237475000Y-102865000D01*
D31*
X177800000Y-64770000D02*
X177800000Y-67310000D01*
X40645000Y-169169000D02*
X40645000Y-171465000D01*
D34*
X30475000Y-133350000D02*
X30475000Y-116840000D01*
D32*
X20310000Y-36179600D02*
X29779600Y-26710000D01*
D31*
X35565000Y-163845000D02*
X35565000Y-166375000D01*
D35*
X236165000Y-99055000D02*
X236165000Y-101555000D01*
D31*
X252715000Y-102875000D02*
X252715000Y-100370000D01*
D35*
X251460000Y-67310000D02*
X251460000Y-72390000D01*
D32*
X20310000Y-41925000D02*
X20310000Y-36179600D01*
D31*
X252715000Y-100370000D02*
X251405000Y-99060000D01*
D35*
X38095000Y-109220000D02*
X38095000Y-105923000D01*
D32*
X30475000Y-146050000D02*
X30475000Y-158755000D01*
D35*
X152345000Y-153665000D02*
X153924000Y-152086000D01*
D32*
X30475000Y-158755000D02*
X30485000Y-158765000D01*
D35*
X251460000Y-52070000D02*
X251460000Y-57150000D01*
X153655000Y-157475000D02*
X153655000Y-154975000D01*
D31*
X64765000Y-161290000D02*
X64765000Y-166390000D01*
D35*
X143891000Y-93599000D02*
X144267000Y-93975000D01*
X251460000Y-57150000D02*
X251460000Y-62230000D01*
D31*
X100370000Y-58375000D02*
X100370000Y-45720000D01*
X44445000Y-21595000D02*
X54610000Y-11430000D01*
X147345000Y-109220000D02*
X147345000Y-109753000D01*
D32*
X29779600Y-26710000D02*
X38354000Y-26710000D01*
D35*
X177800000Y-39370000D02*
X175275000Y-36845000D01*
X153655000Y-59675000D02*
X152400000Y-58420000D01*
D31*
X49535000Y-46970000D02*
X47645000Y-46970000D01*
X39624000Y-168148000D02*
X40645000Y-169169000D01*
X146715400Y-119375000D02*
X146035000Y-119375000D01*
D35*
X59670000Y-97795000D02*
X59670000Y-87655000D01*
X231902000Y-154940000D02*
X239207920Y-147634080D01*
X284188000Y-161290000D02*
X285750000Y-161290000D01*
X147345000Y-109753000D02*
X148082000Y-110490000D01*
X207314800Y-175920400D02*
X205435200Y-177800000D01*
X236165000Y-101555000D02*
X237475000Y-102865000D01*
X251460000Y-46990000D02*
X251460000Y-52070000D01*
X177800000Y-52070000D02*
X177800000Y-39370000D01*
D31*
X177800000Y-54610000D02*
X177800000Y-64770000D01*
D35*
X94081600Y-106680000D02*
X96275000Y-106680000D01*
D31*
X146035000Y-93975000D02*
X146959400Y-93975000D01*
D35*
X158735000Y-83820000D02*
X158735000Y-65771000D01*
X150622000Y-50546000D02*
X149621000Y-49545000D01*
X175275000Y-36845000D02*
X153655000Y-36845000D01*
D31*
X270510000Y-41910000D02*
X270510000Y-44450000D01*
D35*
X239207920Y-147634080D02*
X239207920Y-104597920D01*
D32*
X14034089Y-117005689D02*
X11226800Y-114198400D01*
D35*
X148082000Y-110490000D02*
X148082000Y-118008400D01*
X229870000Y-154940000D02*
X229870000Y-158750000D01*
D33*
X59670000Y-87655000D02*
X59690000Y-87635000D01*
D35*
X153924000Y-152086000D02*
X153924000Y-134874000D01*
X155209000Y-62245000D02*
X153655000Y-62245000D01*
X149621000Y-38339000D02*
X151130000Y-36830000D01*
D31*
X177800000Y-72390000D02*
X177800000Y-69850000D01*
X74930000Y-72395000D02*
X74930000Y-69977000D01*
D35*
X158735000Y-65771000D02*
X155209000Y-62245000D01*
D31*
X74930000Y-69977000D02*
X77470000Y-67437000D01*
D35*
X278536400Y-159841720D02*
X282739720Y-159841720D01*
D31*
X177800000Y-52070000D02*
X177800000Y-54610000D01*
D35*
X153655000Y-62245000D02*
X153655000Y-59675000D01*
X212075000Y-157495000D02*
X210551000Y-157495000D01*
D32*
X38354000Y-26710000D02*
X38354000Y-24028400D01*
D35*
X229870000Y-154940000D02*
X231902000Y-154940000D01*
D31*
X151130000Y-36830000D02*
X151145000Y-36845000D01*
X44450000Y-50967000D02*
X44577000Y-51094000D01*
D35*
X251405000Y-99060000D02*
X251405000Y-72445000D01*
D32*
X30475000Y-133350000D02*
X30475000Y-138430000D01*
D31*
%TO.N,Net-(C5-Pad1)*%
X97745000Y-161290000D02*
X97745000Y-154985000D01*
X101600000Y-149860000D02*
X107950000Y-143510000D01*
X97790000Y-149860000D02*
X101600000Y-149860000D01*
X97745000Y-154985000D02*
X97790000Y-154940000D01*
X97790000Y-149860000D02*
X97790000Y-154940000D01*
%TO.N,Net-(C6-Pad1)*%
X167790689Y-100495689D02*
X168895000Y-101600000D01*
X168895000Y-114295000D02*
X168895000Y-121915000D01*
X129794000Y-99060000D02*
X130795000Y-99060000D01*
X166776400Y-125679200D02*
X166776400Y-123342400D01*
X167625000Y-113025000D02*
X168895000Y-114295000D01*
X129184400Y-99669600D02*
X129794000Y-99060000D01*
X132638800Y-129082800D02*
X130860800Y-130860800D01*
X132842000Y-113538000D02*
X131013200Y-111709200D01*
X132638800Y-126339600D02*
X132638800Y-129082800D01*
X167625000Y-109215000D02*
X167625000Y-113025000D01*
X168895000Y-101600000D02*
X167625000Y-102870000D01*
X167625000Y-102870000D02*
X167625000Y-109215000D01*
X168960800Y-127863600D02*
X166776400Y-125679200D01*
X167790689Y-97624311D02*
X167790689Y-100495689D01*
X129641600Y-104140000D02*
X129184400Y-103682800D01*
X130795000Y-104140000D02*
X129641600Y-104140000D01*
X130795000Y-124455000D02*
X132842000Y-122408000D01*
X166776400Y-123342400D02*
X168859200Y-121259600D01*
X129184400Y-103682800D02*
X129184400Y-99669600D01*
X132842000Y-122408000D02*
X132842000Y-113538000D01*
X130860800Y-124561600D02*
X132638800Y-126339600D01*
X168895000Y-83820000D02*
X168895000Y-96520000D01*
X168895000Y-96520000D02*
X167790689Y-97624311D01*
X130795000Y-111491000D02*
X130795000Y-104140000D01*
X131013200Y-111709200D02*
X130795000Y-111491000D01*
%TO.N,Net-(D1-Pad2)*%
X170180000Y-39624000D02*
X170180000Y-53340000D01*
X264922000Y-47778489D02*
X264922000Y-59944000D01*
X170180000Y-53340000D02*
X168910000Y-54610000D01*
X269240000Y-64262000D02*
X270510000Y-64262000D01*
X264922000Y-59944000D02*
X269240000Y-64262000D01*
X237490000Y-46990000D02*
X237490000Y-29972000D01*
X168910000Y-54610000D02*
X167640000Y-54610000D01*
%TO.N,DISP_CLK1*%
X245618000Y-52832000D02*
X244856000Y-52070000D01*
X292530200Y-179287200D02*
X291665789Y-178422789D01*
X252882400Y-89204800D02*
X252882400Y-82753200D01*
X232105200Y-110185200D02*
X232105200Y-125171200D01*
X284974811Y-178422789D02*
X284581600Y-178816000D01*
X258826000Y-64770000D02*
X258826000Y-61722000D01*
X291665789Y-178422789D02*
X286448011Y-178422789D01*
X216763600Y-146405600D02*
X216763600Y-146354800D01*
X232105200Y-125171200D02*
X216763600Y-140512800D01*
X233883200Y-96164400D02*
X233883200Y-108407200D01*
X259334000Y-61214000D02*
X260350000Y-61214000D01*
X216763600Y-140512800D02*
X216763600Y-145237200D01*
X286448011Y-178422789D02*
X284974811Y-178422789D01*
X258826000Y-61722000D02*
X259334000Y-61214000D01*
X259842000Y-65786000D02*
X258826000Y-64770000D01*
X260807200Y-65786000D02*
X259842000Y-65786000D01*
X261671280Y-66650080D02*
X260807200Y-65786000D01*
X261671280Y-73964320D02*
X261671280Y-66650080D01*
X245618000Y-64770000D02*
X245618000Y-52832000D01*
X244856000Y-52070000D02*
X241300000Y-52070000D01*
X233883200Y-108407200D02*
X232105200Y-110185200D01*
X252882400Y-82753200D02*
X261671280Y-73964320D01*
X216763600Y-145237200D02*
X216763600Y-146405600D01*
%TO.N,DISP_CLK2*%
X272796000Y-69596000D02*
X272542000Y-69850000D01*
X263906000Y-69850000D02*
X263245600Y-70510400D01*
X272796000Y-55626000D02*
X272796000Y-69596000D01*
X272542000Y-69850000D02*
X270510000Y-69850000D01*
X281076400Y-179222400D02*
X283681200Y-181827200D01*
X270510000Y-69850000D02*
X263906000Y-69850000D01*
X283681200Y-181827200D02*
X292530200Y-181827200D01*
X263245600Y-146812000D02*
X263601200Y-147167600D01*
X263245600Y-70510400D02*
X263245600Y-146812000D01*
%TO.N,DISP_CLK3*%
X288188400Y-179324000D02*
X290017200Y-179324000D01*
X264261600Y-146304000D02*
X263702800Y-145745200D01*
X273558000Y-74930000D02*
X273812000Y-74676000D01*
X273812000Y-74676000D02*
X273812000Y-74168000D01*
X263702800Y-75641200D02*
X264414000Y-74930000D01*
X290830000Y-180136800D02*
X291693600Y-180136800D01*
X291782200Y-180048200D02*
X291782200Y-180035200D01*
X239268000Y-64262000D02*
X241300000Y-62230000D01*
X293275000Y-53614000D02*
X291358000Y-53614000D01*
X239268000Y-69850000D02*
X239268000Y-64262000D01*
X263702800Y-145745200D02*
X263702800Y-75641200D01*
X291693600Y-180136800D02*
X291782200Y-180048200D01*
X290017200Y-179324000D02*
X290830000Y-180136800D01*
X264414000Y-74930000D02*
X273558000Y-74930000D01*
X273812000Y-52324000D02*
X273812000Y-74168000D01*
%TO.N,DISP_CLK4*%
X149352000Y-144780000D02*
X143002000Y-151130000D01*
X262737600Y-147980400D02*
X262749311Y-147968689D01*
X41910000Y-172151744D02*
X41910000Y-167650000D01*
X153655000Y-69865000D02*
X149352000Y-74168000D01*
X52892256Y-183134000D02*
X41910000Y-172151744D01*
X280162000Y-182473600D02*
X281228800Y-183540400D01*
X280162000Y-179374800D02*
X280162000Y-182473600D01*
X272288000Y-50038000D02*
X272148789Y-50177211D01*
X272148789Y-65671211D02*
X270510000Y-67310000D01*
X114808000Y-151130000D02*
X82804000Y-183134000D01*
X149352000Y-74168000D02*
X149352000Y-144780000D01*
X82804000Y-183134000D02*
X52892256Y-183134000D01*
X262749311Y-69736689D02*
X262788400Y-69697600D01*
X293275000Y-49564000D02*
X291626000Y-49564000D01*
X41910000Y-167650000D02*
X38105000Y-163845000D01*
X272148789Y-50177211D02*
X272148789Y-65671211D01*
X270510000Y-67310000D02*
X265176000Y-67310000D01*
X265176000Y-67310000D02*
X262788400Y-69697600D01*
X262749311Y-147968689D02*
X262749311Y-69736689D01*
%TO.N,DISP_CLK5*%
X292132000Y-65564000D02*
X291370000Y-65564000D01*
X291370000Y-65564000D02*
X291084000Y-65278000D01*
X243078000Y-72390000D02*
X244348000Y-71120000D01*
X293275000Y-65564000D02*
X292132000Y-65564000D01*
X241300000Y-72390000D02*
X243078000Y-72390000D01*
X244348000Y-71120000D02*
X244348000Y-59436000D01*
%TO.N,DIGIT0*%
X288950400Y-153720800D02*
X284581600Y-158089600D01*
X288925000Y-149225000D02*
X288950400Y-149250400D01*
X278790400Y-158089600D02*
X276504400Y-160375600D01*
X288950400Y-149250400D02*
X288950400Y-153720800D01*
X276504400Y-163271200D02*
X277063200Y-163830000D01*
X288925000Y-66675000D02*
X288925000Y-149225000D01*
X284581600Y-158089600D02*
X278790400Y-158089600D01*
X277063200Y-163830000D02*
X278130000Y-163830000D01*
X276504400Y-160375600D02*
X276504400Y-163271200D01*
X291477400Y-165100000D02*
X292530200Y-164047200D01*
X279400000Y-165100000D02*
X291477400Y-165100000D01*
X278130000Y-163830000D02*
X279400000Y-165100000D01*
%TO.N,DIGIT1*%
X279400000Y-177800000D02*
X291477400Y-177800000D01*
X222504000Y-176949622D02*
X222560783Y-177006405D01*
X273685000Y-89585800D02*
X284480000Y-78790800D01*
X293039000Y-69850000D02*
X293275000Y-69614000D01*
X273659600Y-147345400D02*
X273685000Y-147320000D01*
X291465000Y-69850000D02*
X293039000Y-69850000D01*
X273456400Y-169926000D02*
X273659600Y-169722800D01*
X265430000Y-167640000D02*
X265430000Y-172720000D01*
X284480000Y-78790800D02*
X284480000Y-69850000D01*
X278130000Y-176530000D02*
X279400000Y-177800000D01*
X227584000Y-176784000D02*
X222504000Y-176784000D01*
X273659600Y-169722800D02*
X273659600Y-147345400D01*
X291477400Y-177800000D02*
X292530200Y-176747200D01*
X269240000Y-176530000D02*
X278130000Y-176530000D01*
X273685000Y-147320000D02*
X273685000Y-89585800D01*
X265430000Y-172720000D02*
X269240000Y-176530000D01*
X222504000Y-176784000D02*
X222504000Y-176949622D01*
X227838000Y-176530000D02*
X227584000Y-176784000D01*
X269240000Y-176530000D02*
X227838000Y-176530000D01*
%TO.N,DIGIT2*%
X271220720Y-142175179D02*
X271209821Y-142175179D01*
X257429000Y-164465000D02*
X264795000Y-164465000D01*
X267970000Y-171450000D02*
X270510000Y-173990000D01*
X273050000Y-167640000D02*
X273050000Y-168910000D01*
X270510000Y-170180000D02*
X267970000Y-167640000D01*
X223520000Y-167640000D02*
X227330000Y-171450000D01*
X293275000Y-61614000D02*
X292659000Y-62230000D01*
X264795000Y-164465000D02*
X267970000Y-167640000D01*
X278130000Y-173990000D02*
X279234311Y-175094311D01*
X291731989Y-175094311D02*
X292568300Y-174258000D01*
X254762000Y-167132000D02*
X257429000Y-164465000D01*
X285115000Y-62230000D02*
X283210000Y-64135000D01*
X292659000Y-62230000D02*
X285115000Y-62230000D01*
X267970000Y-167640000D02*
X267970000Y-171450000D01*
X254762000Y-169418000D02*
X254762000Y-167132000D01*
X282929704Y-79375000D02*
X271220720Y-91083984D01*
X271220720Y-91083984D02*
X271220720Y-142175179D01*
X273050000Y-168910000D02*
X271780000Y-170180000D01*
X283210000Y-64135000D02*
X283210000Y-79375000D01*
X271209821Y-142175179D02*
X271145000Y-142240000D01*
X271145000Y-142240000D02*
X271145000Y-165735000D01*
X283210000Y-79375000D02*
X282929704Y-79375000D01*
X270510000Y-173990000D02*
X278130000Y-173990000D01*
X252730000Y-171450000D02*
X254762000Y-169418000D01*
X271780000Y-170180000D02*
X270510000Y-170180000D01*
X227330000Y-171450000D02*
X252730000Y-171450000D01*
X271145000Y-165735000D02*
X273050000Y-167640000D01*
X279234311Y-175094311D02*
X291731989Y-175094311D01*
%TO.N,DIGIT3*%
X277977600Y-157378400D02*
X275894800Y-159461200D01*
X291477400Y-172720000D02*
X292530200Y-171667200D01*
X278130000Y-171450000D02*
X279400000Y-172720000D01*
X287655000Y-63500000D02*
X287655000Y-153492200D01*
X283768800Y-157378400D02*
X277977600Y-157378400D01*
X253530680Y-173824320D02*
X256540000Y-170815000D01*
X223520000Y-172720000D02*
X224624320Y-173824320D01*
X275894800Y-169214800D02*
X278130000Y-171450000D01*
X279400000Y-172720000D02*
X291477400Y-172720000D01*
X256540000Y-170815000D02*
X256540000Y-167640000D01*
X275894800Y-159461200D02*
X275894800Y-169214800D01*
X224624320Y-173824320D02*
X253530680Y-173824320D01*
X287655000Y-153492200D02*
X283768800Y-157378400D01*
%TO.N,DIGIT4*%
X277368000Y-156362400D02*
X274624800Y-159105600D01*
X255905000Y-175260000D02*
X259080000Y-172085000D01*
X274624800Y-159105600D02*
X274624800Y-165709600D01*
X285750000Y-153873200D02*
X283260800Y-156362400D01*
X292530200Y-166587200D02*
X292530200Y-166574800D01*
X274624800Y-165709600D02*
X274650200Y-165735000D01*
X283260800Y-156362400D02*
X277368000Y-156362400D01*
X292530200Y-166574800D02*
X288085200Y-166574800D01*
X259080000Y-172085000D02*
X259080000Y-167640000D01*
X279400000Y-167640000D02*
X278130000Y-166370000D01*
X288085200Y-166574800D02*
X287020000Y-167640000D01*
X287020000Y-167640000D02*
X279400000Y-167640000D01*
X231140000Y-175260000D02*
X255905000Y-175260000D01*
X285750000Y-63500000D02*
X285750000Y-153873200D01*
%TO.N,DIGIT5*%
X278130000Y-168910000D02*
X279400000Y-170180000D01*
X267970000Y-163195000D02*
X270510000Y-165735000D01*
X262763000Y-149987000D02*
X262763000Y-163195000D01*
X293275000Y-57564000D02*
X288587200Y-57564000D01*
X262763000Y-163195000D02*
X267970000Y-163195000D01*
X288587200Y-57564000D02*
X282448000Y-63703200D01*
X282448000Y-64262000D02*
X282448000Y-78740000D01*
X244475000Y-165735000D02*
X244475000Y-163195000D01*
X244475000Y-163195000D02*
X262763000Y-163195000D01*
X282448000Y-63703200D02*
X282448000Y-64262000D01*
X292530200Y-169127200D02*
X291477400Y-170180000D01*
X270764000Y-90424000D02*
X270764000Y-141986000D01*
X270764000Y-141986000D02*
X262763000Y-149987000D01*
X291477400Y-170180000D02*
X279400000Y-170180000D01*
X270510000Y-165735000D02*
X270510000Y-167640000D01*
X231140000Y-170180000D02*
X240030000Y-170180000D01*
X282448000Y-78740000D02*
X270764000Y-90424000D01*
X240030000Y-170180000D02*
X244475000Y-165735000D01*
%TO.N,DIGIT6*%
X270205200Y-95656400D02*
X269697200Y-95148400D01*
X261328267Y-150456533D02*
X270205200Y-141579600D01*
X250190000Y-162052000D02*
X254254000Y-162052000D01*
X291643089Y-162394311D02*
X292530200Y-161507200D01*
X278130000Y-161290000D02*
X279234311Y-162394311D01*
X261328267Y-161290000D02*
X261328267Y-150456533D01*
X279234311Y-162394311D02*
X291643089Y-162394311D01*
X254254000Y-162052000D02*
X255016000Y-161290000D01*
X255016000Y-161290000D02*
X261328267Y-161290000D01*
X270205200Y-141579600D02*
X270205200Y-95656400D01*
%TO.N,SW_LINE0*%
X128727680Y-110947680D02*
X128727680Y-73456320D01*
X130795000Y-113015000D02*
X128727680Y-110947680D01*
X210947000Y-35687000D02*
X217424000Y-42164000D01*
X217424000Y-42164000D02*
X217424000Y-112014000D01*
X136398000Y-46990000D02*
X133350000Y-46990000D01*
X136906000Y-73279000D02*
X136906000Y-47498000D01*
X210947000Y-31623000D02*
X210947000Y-35687000D01*
X136728680Y-73456320D02*
X136906000Y-73279000D01*
X136906000Y-47498000D02*
X136398000Y-46990000D01*
X130795000Y-121915000D02*
X130795000Y-113015000D01*
X211023200Y-31546800D02*
X210947000Y-31623000D01*
%TO.N,SW_LINE2*%
X214122000Y-43942000D02*
X214122000Y-116840000D01*
X273040000Y-11430000D02*
X273040000Y-30465000D01*
X210947000Y-40767000D02*
X214122000Y-43942000D01*
X273040000Y-30465000D02*
X279400000Y-36825000D01*
%TO.N,SW_LINE4*%
X209423000Y-45847000D02*
X206502000Y-48768000D01*
X206502000Y-48768000D02*
X206502000Y-121920000D01*
X260350000Y-36830000D02*
X262890000Y-36830000D01*
X262890000Y-36830000D02*
X265420000Y-34300000D01*
X265420000Y-11430000D02*
X265420000Y-34300000D01*
X210947000Y-45847000D02*
X209423000Y-45847000D01*
%TO.N,SW_LINE6*%
X257810000Y-20955000D02*
X257810000Y-41910000D01*
X262880000Y-8626000D02*
X262880000Y-11430000D01*
X262880000Y-15885000D02*
X257810000Y-20955000D01*
X230378000Y-8128000D02*
X262382000Y-8128000D01*
X226060000Y-12446000D02*
X230378000Y-8128000D01*
X257810000Y-41910000D02*
X258826000Y-42926000D01*
X262880000Y-11430000D02*
X262880000Y-15885000D01*
X226060000Y-51308000D02*
X226060000Y-12446000D01*
X262382000Y-8128000D02*
X262880000Y-8626000D01*
X258826000Y-42926000D02*
X260350000Y-42926000D01*
X208026000Y-52070000D02*
X208026000Y-127000000D01*
X210947000Y-50927000D02*
X209169000Y-50927000D01*
X209169000Y-50927000D02*
X208026000Y-52070000D01*
%TO.N,SW_LINE1*%
X129336800Y-113131600D02*
X129336800Y-126136400D01*
X130195400Y-126995000D02*
X130795000Y-126995000D01*
X208915000Y-32385000D02*
X208915000Y-36830000D01*
X280660000Y-50805000D02*
X279400000Y-52065000D01*
X280660000Y-11430000D02*
X280660000Y-50805000D01*
X210312000Y-38227000D02*
X210947000Y-38227000D01*
X215646000Y-42926000D02*
X215646000Y-114300000D01*
X129336800Y-126136400D02*
X130195400Y-126995000D01*
X210947000Y-38227000D02*
X215646000Y-42926000D01*
X208915000Y-36830000D02*
X210312000Y-38227000D01*
%TO.N,SW_LINE3*%
X212852000Y-118872000D02*
X212852000Y-93980000D01*
X210820000Y-68580000D02*
X212852000Y-68580000D01*
X212852000Y-45212000D02*
X210947000Y-43307000D01*
X212725000Y-94107000D02*
X212852000Y-93980000D01*
X210947000Y-119507000D02*
X212217000Y-119507000D01*
X212217000Y-119507000D02*
X212852000Y-118872000D01*
X212852000Y-68580000D02*
X212852000Y-45212000D01*
X210947000Y-94107000D02*
X212725000Y-94107000D01*
X212852000Y-93980000D02*
X212852000Y-68580000D01*
%TO.N,SW_LINE5*%
X207264000Y-124460000D02*
X207264000Y-50546000D01*
X267960000Y-11430000D02*
X267960000Y-41920000D01*
X207264000Y-50546000D02*
X209423000Y-48387000D01*
X267960000Y-41920000D02*
X260350000Y-49530000D01*
X209423000Y-48387000D02*
X210947000Y-48387000D01*
%TO.N,SW_LINE7*%
X270500000Y-11430000D02*
X270500000Y-30470000D01*
X209169000Y-53467000D02*
X210947000Y-53467000D01*
X270500000Y-30470000D02*
X274320000Y-34290000D01*
X210947000Y-104267000D02*
X208915000Y-104267000D01*
X274320000Y-40386000D02*
X275839000Y-41905000D01*
X210820000Y-78740000D02*
X208788000Y-78740000D01*
X208788000Y-53848000D02*
X209169000Y-53467000D01*
X275839000Y-41905000D02*
X279400000Y-41905000D01*
X208788000Y-129540000D02*
X208788000Y-104140000D01*
X208915000Y-104267000D02*
X208788000Y-104140000D01*
X274320000Y-34290000D02*
X274320000Y-40386000D01*
X208788000Y-104140000D02*
X208788000Y-78740000D01*
X208788000Y-78740000D02*
X208788000Y-53848000D01*
%TO.N,Net-(D53-Pad1)*%
X133350000Y-54610000D02*
X133350000Y-59960000D01*
X133350000Y-59960000D02*
X133060000Y-60250000D01*
X133060000Y-60250000D02*
X133060000Y-66750000D01*
D34*
%TO.N,DISP_5V*%
X265277600Y-143002000D02*
X265277600Y-131064000D01*
X291479000Y-151321800D02*
X290576000Y-150418800D01*
X290576000Y-150418800D02*
X290576000Y-146354800D01*
X281178000Y-60604400D02*
X289153600Y-52628800D01*
X289153600Y-45720000D02*
X289259600Y-45614000D01*
X265277600Y-131064000D02*
X265493011Y-130848589D01*
X268782800Y-97078800D02*
X267462000Y-95758000D01*
X289153600Y-52628800D02*
X289153600Y-45720000D01*
X265493011Y-101713811D02*
X266179789Y-101713811D01*
X18643600Y-152400000D02*
X18694400Y-152400000D01*
X267462000Y-95758000D02*
X267462000Y-89662000D01*
X267462000Y-89662000D02*
X281178000Y-75946000D01*
X268782800Y-100685600D02*
X268782800Y-97078800D01*
X13467000Y-146055000D02*
X18643600Y-151231600D01*
X292542900Y-151321800D02*
X291479000Y-151321800D01*
X281178000Y-75946000D02*
X281178000Y-60604400D01*
X265493011Y-130848589D02*
X265493011Y-101713811D01*
X8885000Y-146055000D02*
X13467000Y-146055000D01*
X267208000Y-100685600D02*
X268782800Y-100685600D01*
X18643600Y-151231600D02*
X18643600Y-152400000D01*
X289259600Y-45614000D02*
X293275000Y-45614000D01*
X266179789Y-101713811D02*
X267208000Y-100685600D01*
D32*
%TO.N,DISP+*%
X7411800Y-154640200D02*
X8885000Y-154640200D01*
X1778000Y-32156400D02*
X30175200Y-3759200D01*
X5842000Y-156210000D02*
X7411800Y-154640200D01*
X8885000Y-154640200D02*
X8885000Y-156215000D01*
X30175200Y-3759200D02*
X230378000Y-3759200D01*
D34*
X284327600Y-80822800D02*
X274980400Y-90170000D01*
D32*
X230073200Y-13919200D02*
X230174800Y-13817600D01*
X5237400Y-154640200D02*
X1778000Y-151180800D01*
X1778000Y-151180800D02*
X1778000Y-32156400D01*
X8885000Y-153675000D02*
X8885000Y-154640200D01*
X5842000Y-160020000D02*
X5842000Y-156210000D01*
X8885000Y-161295000D02*
X7117000Y-161295000D01*
X230378000Y-3759200D02*
X230378000Y-6502400D01*
X254000000Y-75285600D02*
X254000000Y-16967200D01*
X7117000Y-161295000D02*
X5842000Y-160020000D01*
D34*
X274980400Y-90170000D02*
X274980400Y-146100800D01*
D32*
X254000000Y-16967200D02*
X251002800Y-13970000D01*
X230073200Y-13970000D02*
X230073200Y-13919200D01*
X8885000Y-154640200D02*
X5237400Y-154640200D01*
X251002800Y-13970000D02*
X230073200Y-13970000D01*
%TO.N,DISP_GND*%
X8885000Y-168915000D02*
X8885000Y-166375000D01*
X17775000Y-166375000D02*
X8885000Y-166375000D01*
X283464000Y-137058400D02*
X277926800Y-142595600D01*
X21336000Y-133858000D02*
X21336000Y-162814000D01*
X21336000Y-162814000D02*
X17775000Y-166375000D01*
X277926800Y-142595600D02*
X277926800Y-145034000D01*
D31*
%TO.N,ADDR2*%
X255016000Y-129540000D02*
X255016000Y-108294256D01*
X253572424Y-106850680D02*
X248739320Y-106850680D01*
X153670000Y-182880000D02*
X161285000Y-182880000D01*
X254635000Y-96520000D02*
X254635000Y-106680000D01*
X152908000Y-149663733D02*
X152908000Y-140970000D01*
X241046000Y-111760000D02*
X242311000Y-110495000D01*
X142240000Y-165100000D02*
X142240000Y-162560000D01*
X241046000Y-140716000D02*
X241046000Y-111760000D01*
X148590000Y-167650000D02*
X148590000Y-177800000D01*
X147377733Y-155194000D02*
X152908000Y-149663733D01*
X248739320Y-106850680D02*
X245095000Y-110495000D01*
X145288000Y-155194000D02*
X147377733Y-155194000D01*
X144018000Y-160782000D02*
X144018000Y-156464000D01*
X146035000Y-165095000D02*
X148590000Y-167650000D01*
X148590000Y-177800000D02*
X153670000Y-182880000D01*
X254018372Y-107296628D02*
X253572424Y-106850680D01*
X142240000Y-162560000D02*
X144018000Y-160782000D01*
X291816000Y-81564000D02*
X291465000Y-81915000D01*
X255905000Y-81915000D02*
X255905000Y-95250000D01*
X255016000Y-108294256D02*
X254018372Y-107296628D01*
X242311000Y-110495000D02*
X245095000Y-110495000D01*
X254635000Y-106680000D02*
X254018372Y-107296628D01*
X144018000Y-156464000D02*
X145288000Y-155194000D01*
X293275000Y-81564000D02*
X291816000Y-81564000D01*
X255905000Y-95250000D02*
X254635000Y-96520000D01*
%TO.N,ADDR1*%
X213106000Y-185420000D02*
X219964000Y-178562000D01*
X163825000Y-185415000D02*
X163830000Y-185420000D01*
X293275000Y-85614000D02*
X291576000Y-85614000D01*
X152400000Y-180340000D02*
X162560000Y-180340000D01*
X240284000Y-155448000D02*
X240232720Y-155396720D01*
X258445000Y-106065000D02*
X260335000Y-107955000D01*
X292530200Y-153887200D02*
X291628800Y-153887200D01*
X258445000Y-96520000D02*
X258445000Y-106065000D01*
X256540000Y-132842000D02*
X256540000Y-110236000D01*
X146035000Y-160015000D02*
X149860000Y-163840000D01*
X219964000Y-178562000D02*
X219964000Y-166624000D01*
X149860000Y-163840000D02*
X149860000Y-177800000D01*
X240284000Y-163830000D02*
X240284000Y-155448000D01*
X240232720Y-111312480D02*
X240232720Y-155396720D01*
X163830000Y-185420000D02*
X213106000Y-185420000D01*
X162560000Y-180340000D02*
X163825000Y-181605000D01*
X149860000Y-177800000D02*
X152400000Y-180340000D01*
X243590200Y-107955000D02*
X240232720Y-111312480D01*
X163825000Y-182880000D02*
X163825000Y-185415000D01*
X163825000Y-181605000D02*
X163825000Y-182880000D01*
X291576000Y-85614000D02*
X291465000Y-85725000D01*
X258821000Y-107955000D02*
X260335000Y-107955000D01*
X245095000Y-107955000D02*
X243590200Y-107955000D01*
X256540000Y-110236000D02*
X258821000Y-107955000D01*
%TO.N,LAMP_EN4*%
X242874800Y-143967200D02*
X242874800Y-145707600D01*
X255892789Y-97421211D02*
X255892789Y-130949211D01*
X165100000Y-181615000D02*
X166365000Y-182880000D01*
X165100000Y-144983200D02*
X165100000Y-181615000D01*
X165100000Y-144983200D02*
X165100000Y-144894800D01*
X255892789Y-130949211D02*
X242874800Y-143967200D01*
X262128000Y-64516000D02*
X262128000Y-91186000D01*
X260350000Y-64262000D02*
X261874000Y-64262000D01*
X261874000Y-64262000D02*
X262128000Y-64516000D01*
X262128000Y-91186000D02*
X255892789Y-97421211D01*
%TO.N,LAMP_EN3*%
X171445000Y-147823000D02*
X171445000Y-182880000D01*
X163830000Y-140208000D02*
X171445000Y-147823000D01*
X161305000Y-52085000D02*
X163830000Y-54610000D01*
X153655000Y-52085000D02*
X161305000Y-52085000D01*
X163830000Y-54610000D02*
X163830000Y-140208000D01*
D36*
%TO.N,ADDR3*%
X272415000Y-116713000D02*
X272288000Y-116840000D01*
X292034000Y-90805000D02*
X291465000Y-90805000D01*
D31*
X292530200Y-158967200D02*
X284189200Y-158967200D01*
X243332000Y-118110000D02*
X243337000Y-118115000D01*
D36*
X293275000Y-89564000D02*
X292034000Y-90805000D01*
D31*
X173985000Y-182880000D02*
X173985000Y-184145000D01*
X240652789Y-164477211D02*
X242062000Y-163068000D01*
X222923680Y-163995680D02*
X239179680Y-163995680D01*
X216812680Y-163679320D02*
X217309211Y-163182789D01*
X239661211Y-164477211D02*
X240652789Y-164477211D01*
X272288000Y-147066000D02*
X272288000Y-116840000D01*
X210058000Y-175006000D02*
X210058000Y-164846000D01*
X239179680Y-163995680D02*
X239661211Y-164477211D01*
X222110789Y-163182789D02*
X222923680Y-163995680D01*
X200406000Y-184658000D02*
X210058000Y-175006000D01*
X173985000Y-184145000D02*
X174498000Y-184658000D01*
X272415000Y-90805000D02*
X272415000Y-116713000D01*
X242062000Y-163068000D02*
X242062000Y-119380000D01*
X211224680Y-163679320D02*
X216812680Y-163679320D01*
X210058000Y-164846000D02*
X211224680Y-163679320D01*
X243337000Y-118115000D02*
X245095000Y-118115000D01*
X217309211Y-163182789D02*
X222110789Y-163182789D01*
X174498000Y-184658000D02*
X200406000Y-184658000D01*
X242062000Y-119380000D02*
X243332000Y-118110000D01*
%TO.N,ADDR4*%
X251968000Y-161290000D02*
X251968000Y-140462000D01*
X292551600Y-73564000D02*
X293275000Y-73564000D01*
X251968000Y-140462000D02*
X257810000Y-134620000D01*
X257810000Y-134620000D02*
X257810000Y-131826000D01*
X264363200Y-76250800D02*
X264363200Y-76301600D01*
X257810000Y-131826000D02*
X257810000Y-123180000D01*
X264363200Y-118364000D02*
X264363200Y-76250800D01*
X257810000Y-123180000D02*
X260335000Y-120655000D01*
X289915600Y-76200000D02*
X292551600Y-73564000D01*
%TO.N,LAMP_EN2*%
X164846000Y-137922000D02*
X179065000Y-152141000D01*
X164846000Y-54102000D02*
X164846000Y-137922000D01*
X153655000Y-49545000D02*
X160289000Y-49545000D01*
X179065000Y-152141000D02*
X179065000Y-182880000D01*
X160289000Y-49545000D02*
X164846000Y-54102000D01*
%TO.N,LAMP_EN1*%
X181605000Y-153167000D02*
X181605000Y-182880000D01*
X159273000Y-47005000D02*
X165862000Y-53594000D01*
X153655000Y-47005000D02*
X159273000Y-47005000D01*
X181864000Y-152908000D02*
X181605000Y-153167000D01*
X165862000Y-53594000D02*
X165862000Y-136906000D01*
X165862000Y-136906000D02*
X181864000Y-152908000D01*
%TO.N,STROBE3*%
X256540000Y-16510000D02*
X256540000Y-63500000D01*
X260340000Y-12710000D02*
X256540000Y-16510000D01*
X256540000Y-63500000D02*
X260350000Y-67310000D01*
X260340000Y-11430000D02*
X260340000Y-12710000D01*
%TO.N,STROBE0*%
X222250000Y-81280000D02*
X222250000Y-60198000D01*
X281814311Y-10275689D02*
X281940000Y-10401378D01*
X275580000Y-11430000D02*
X276734311Y-10275689D01*
X281940000Y-57145000D02*
X279400000Y-59685000D01*
X128560000Y-66750000D02*
X128560000Y-60250000D01*
X276734311Y-10275689D02*
X281814311Y-10275689D01*
X140573000Y-64754000D02*
X140573000Y-78724000D01*
X281940000Y-10401378D02*
X281940000Y-57145000D01*
%TO.N,PERIPH0_4*%
X218071211Y-122949189D02*
X218071211Y-11442211D01*
X217881200Y-123139200D02*
X218071211Y-122949189D01*
%TO.N,PERIPH0_3*%
X218821000Y-122351800D02*
X218821000Y-9753600D01*
%TO.N,PERIPH0_2*%
X219532200Y-101320600D02*
X219532200Y-10467800D01*
X219532200Y-120726200D02*
X219532200Y-101320600D01*
X219532200Y-10467800D02*
X219532200Y-8712200D01*
X219532200Y-8712200D02*
X219456000Y-8636000D01*
%TO.N,PERIPH0_1*%
X231444800Y-72186800D02*
X231444800Y-17221200D01*
X244099000Y-105415000D02*
X242468400Y-103784400D01*
X245095000Y-105415000D02*
X244099000Y-105415000D01*
X242468400Y-83210400D02*
X231444800Y-72186800D01*
X242468400Y-103784400D02*
X242468400Y-83210400D01*
%TO.N,PC5*%
X105410000Y-56235600D02*
X105410000Y-71120000D01*
X109524800Y-15494000D02*
X108863920Y-16154880D01*
X108863920Y-52781680D02*
X105410000Y-56235600D01*
X108863920Y-16154880D02*
X108863920Y-52781680D01*
%TO.N,PC7*%
X104038400Y-56692800D02*
X104038400Y-76149200D01*
X108407200Y-52324000D02*
X104038400Y-56692800D01*
X108407200Y-13766800D02*
X108407200Y-52324000D01*
%TO.N,PC6*%
X107391200Y-51999699D02*
X103022400Y-56368499D01*
X103022400Y-56368499D02*
X103022400Y-73660000D01*
X107391200Y-11430000D02*
X107391200Y-51999699D01*
%TO.N,PERIPH_EN*%
X182880000Y-82703296D02*
X182880000Y-165735000D01*
X173990000Y-41467880D02*
X173990000Y-73813296D01*
X173990000Y-73813296D02*
X182880000Y-82703296D01*
D32*
%TO.N,5Volt*%
X40635000Y-143007000D02*
X40386000Y-143256000D01*
X21331000Y-171455000D02*
X40386000Y-152400000D01*
X40386000Y-152400000D02*
X40386000Y-143256000D01*
X8885000Y-171455000D02*
X8885000Y-173995000D01*
X8885000Y-171455000D02*
X21331000Y-171455000D01*
X40635000Y-133350000D02*
X40635000Y-143007000D01*
D31*
%TO.N,PC3*%
X132080000Y-72517000D02*
X117983000Y-58420000D01*
X132080000Y-80010000D02*
X132080000Y-72517000D01*
%TO.N,Net-(R1-Pad1)*%
X77450000Y-115555000D02*
X77450000Y-113035000D01*
X72385000Y-120650000D02*
X77465000Y-115570000D01*
X77465000Y-115570000D02*
X77450000Y-115555000D01*
D33*
%TO.N,Net-(R2-Pad2)*%
X94996000Y-21590000D02*
X94996000Y-25156000D01*
X94996000Y-25156000D02*
X95255000Y-25415000D01*
D31*
%TO.N,Net-(R3-Pad2)*%
X97795000Y-25415000D02*
X97795000Y-21590000D01*
%TO.N,Net-(R24-Pad2)*%
X22855000Y-62250000D02*
X22850000Y-62245000D01*
X22855000Y-77470000D02*
X22855000Y-62250000D01*
%TO.N,Net-(R25-Pad2)*%
X22855000Y-87630000D02*
X27930000Y-82555000D01*
X22765000Y-87720000D02*
X22855000Y-87630000D01*
X22765000Y-92680000D02*
X22765000Y-87720000D01*
X27930000Y-82555000D02*
X27930000Y-62245000D01*
%TO.N,{slash}RST*%
X77450000Y-98064000D02*
X66185680Y-109328320D01*
X40645000Y-163845000D02*
X40645000Y-158765000D01*
X77450000Y-96754000D02*
X70866000Y-90170000D01*
X68580000Y-89662000D02*
X68580000Y-83058000D01*
X77450000Y-97795000D02*
X77450000Y-98064000D01*
X66185680Y-109328320D02*
X66185680Y-118980320D01*
X68580000Y-83058000D02*
X69850000Y-81788000D01*
X66185680Y-118980320D02*
X49276000Y-135890000D01*
X69088000Y-90170000D02*
X68580000Y-89662000D01*
X77450000Y-97795000D02*
X77450000Y-96754000D01*
X49276000Y-135890000D02*
X49276000Y-158750000D01*
X69850000Y-81788000D02*
X69850000Y-72395000D01*
X70866000Y-90170000D02*
X69088000Y-90170000D01*
%TO.N,{slash}CLK*%
X43180000Y-82296000D02*
X46990000Y-86106000D01*
X46990000Y-88900000D02*
X46990000Y-87635000D01*
X38095000Y-99060000D02*
X38095000Y-97795000D01*
X46990000Y-86106000D02*
X46990000Y-87635000D01*
X82530000Y-97795000D02*
X82530000Y-104882000D01*
X38095000Y-97795000D02*
X46990000Y-88900000D01*
X43180000Y-78740000D02*
X43180000Y-82296000D01*
%TO.N,Net-(R30-Pad2)*%
X77460000Y-151145000D02*
X77460000Y-149108000D01*
X81435680Y-131919320D02*
X82545000Y-130810000D01*
X77460000Y-149108000D02*
X81435680Y-145132320D01*
X81435680Y-145132320D02*
X81435680Y-131919320D01*
%TO.N,Net-(R31-Pad2)*%
X74920000Y-154168000D02*
X74920000Y-151145000D01*
X78735000Y-157983000D02*
X74920000Y-154168000D01*
X78735000Y-161290000D02*
X78735000Y-157983000D01*
%TO.N,Net-(R33-Pad2)*%
X70944320Y-132250680D02*
X72385000Y-130810000D01*
X33010000Y-54625000D02*
X33010000Y-51506744D01*
X70944320Y-145717680D02*
X70944320Y-132250680D01*
X17780000Y-76708000D02*
X16810689Y-77677311D01*
X69840000Y-146822000D02*
X70944320Y-145717680D01*
X31750000Y-50246744D02*
X31750000Y-47244000D01*
X31750000Y-47244000D02*
X31496000Y-46990000D01*
X17780000Y-48514000D02*
X17780000Y-76708000D01*
X19304000Y-46990000D02*
X17780000Y-48514000D01*
X16810689Y-77677311D02*
X16810689Y-93116711D01*
X33010000Y-51506744D02*
X31750000Y-50246744D01*
X16810689Y-93116711D02*
X31135978Y-107442000D01*
X31496000Y-46990000D02*
X19304000Y-46990000D01*
X69840000Y-151145000D02*
X69840000Y-146822000D01*
%TO.N,PB0*%
X121158000Y-36830000D02*
X124460000Y-36830000D01*
X119380000Y-119507000D02*
X124587000Y-119507000D01*
X124587000Y-119507000D02*
X125857000Y-118237000D01*
X114300000Y-85471000D02*
X118110000Y-89281000D01*
X111120000Y-55875000D02*
X114300000Y-59055000D01*
X118110000Y-118237000D02*
X119380000Y-119507000D01*
X114300000Y-59055000D02*
X114300000Y-85471000D01*
X125857000Y-118237000D02*
X125857000Y-116977000D01*
X124460000Y-36830000D02*
X124460000Y-55880000D01*
X125857000Y-116977000D02*
X125715000Y-116835000D01*
X118110000Y-89281000D02*
X118110000Y-118237000D01*
X110490000Y-55875000D02*
X111120000Y-55875000D01*
%TO.N,PB1*%
X110490000Y-53335000D02*
X114935000Y-57780000D01*
X128016000Y-32258000D02*
X128016000Y-53340000D01*
X121158000Y-30734000D02*
X126492000Y-30734000D01*
X126492000Y-30734000D02*
X128016000Y-32258000D01*
X114935000Y-85217000D02*
X118872000Y-89154000D01*
X121920000Y-116840000D02*
X122834400Y-116840000D01*
X118872000Y-113792000D02*
X121920000Y-116840000D01*
X114935000Y-57780000D02*
X114935000Y-85217000D01*
X118872000Y-89154000D02*
X118872000Y-113792000D01*
%TO.N,PB2*%
X126492000Y-36322000D02*
X126492000Y-51054000D01*
X119634000Y-107315000D02*
X119634000Y-88519000D01*
X111633000Y-51943000D02*
X111633000Y-51938000D01*
X127635000Y-115316000D02*
X119634000Y-107315000D01*
X115824000Y-56134000D02*
X111633000Y-51943000D01*
X119634000Y-88519000D02*
X115824000Y-84709000D01*
X111633000Y-51938000D02*
X110490000Y-50795000D01*
X123952000Y-33782000D02*
X126492000Y-36322000D01*
X115824000Y-84709000D02*
X115824000Y-56134000D01*
X121158000Y-33782000D02*
X123952000Y-33782000D01*
%TO.N,PB3*%
X129286000Y-28956000D02*
X129286000Y-47498000D01*
X154662320Y-65889320D02*
X152797576Y-65889320D01*
X128016000Y-27686000D02*
X129286000Y-28956000D01*
X150241000Y-110881000D02*
X150241000Y-74803000D01*
X154582680Y-73509320D02*
X155159320Y-72932680D01*
X150241000Y-74803000D02*
X151534680Y-73509320D01*
X129286000Y-47498000D02*
X129159000Y-47625000D01*
X155159320Y-66386320D02*
X154662320Y-65889320D01*
X152797576Y-65889320D02*
X149225000Y-62316744D01*
X153655000Y-114295000D02*
X150241000Y-110881000D01*
X149225000Y-62316744D02*
X149225000Y-53213000D01*
X151534680Y-73509320D02*
X154582680Y-73509320D01*
X155159320Y-72932680D02*
X155159320Y-66386320D01*
X121158000Y-27686000D02*
X128016000Y-27686000D01*
%TO.N,PB4*%
X117335789Y-83060789D02*
X117335789Y-50177211D01*
X121158000Y-21590000D02*
X117475000Y-21590000D01*
X117335789Y-21729211D02*
X117335789Y-50177211D01*
X117475000Y-21590000D02*
X117335789Y-21729211D01*
X125715000Y-91440000D02*
X117335789Y-83060789D01*
%TO.N,PB5*%
X123175000Y-91440000D02*
X123175000Y-91044000D01*
X116459000Y-18796000D02*
X116662200Y-18592800D01*
X123175000Y-91044000D02*
X116459000Y-84328000D01*
X116459000Y-84328000D02*
X116459000Y-52197000D01*
X116662200Y-18592800D02*
X121158000Y-18592800D01*
X116459000Y-52197000D02*
X116459000Y-18796000D01*
%TO.N,PB6*%
X130970689Y-24925689D02*
X130970689Y-57310689D01*
X160528000Y-84455000D02*
X160528000Y-60198000D01*
X153655000Y-91435000D02*
X153655000Y-91328000D01*
X153655000Y-91328000D02*
X160528000Y-84455000D01*
X121158000Y-24638000D02*
X130683000Y-24638000D01*
X130683000Y-24638000D02*
X130970689Y-24925689D01*
%TO.N,PB7*%
X105316689Y-85250689D02*
X105316689Y-79662689D01*
X94145689Y-63952422D02*
X94145689Y-62059311D01*
X94145689Y-62059311D02*
X95250000Y-60955000D01*
X105316689Y-79662689D02*
X101981000Y-76327000D01*
X101981000Y-66675000D02*
X100236689Y-64930689D01*
X101981000Y-76327000D02*
X101981000Y-66675000D01*
X100236689Y-64930689D02*
X95123956Y-64930689D01*
X95123956Y-64930689D02*
X94145689Y-63952422D01*
D33*
%TO.N,{slash}RD*%
X64775000Y-38770823D02*
X63500000Y-37495823D01*
D31*
X94843600Y-82448400D02*
X101396800Y-82448400D01*
D33*
X63500000Y-22860000D02*
X64765000Y-21595000D01*
X63500000Y-37495823D02*
X63500000Y-22860000D01*
D31*
X113030000Y-91435000D02*
X110490000Y-88895000D01*
X82550000Y-72395000D02*
X84790200Y-72395000D01*
D33*
X64775000Y-46970000D02*
X64775000Y-38770823D01*
D31*
X113030000Y-113284000D02*
X113030000Y-91435000D01*
X101396800Y-82448400D02*
X102768400Y-83820000D01*
X102768400Y-83820000D02*
X102768400Y-88900000D01*
X84790200Y-72395000D02*
X94843600Y-82448400D01*
%TO.N,{slash}WR*%
X97023000Y-88895000D02*
X98298000Y-90170000D01*
X80010000Y-72644000D02*
X80010000Y-72395000D01*
X98298000Y-116078000D02*
X99060000Y-116840000D01*
X98298000Y-90170000D02*
X98298000Y-116078000D01*
X95250000Y-88895000D02*
X97023000Y-88895000D01*
X99060000Y-116840000D02*
X100325000Y-116840000D01*
X54483000Y-50292000D02*
X54483000Y-59182000D01*
X92285311Y-84919311D02*
X80010000Y-72644000D01*
X96354311Y-87790689D02*
X96354311Y-85897578D01*
X95376044Y-84919311D02*
X92285311Y-84919311D01*
X96354311Y-85897578D02*
X95376044Y-84919311D01*
X95250000Y-88895000D02*
X96354311Y-87790689D01*
%TO.N,DIP_STROBE0*%
X186817000Y-50927000D02*
X187960000Y-50927000D01*
X182626000Y-75184000D02*
X182626000Y-55118000D01*
X182626000Y-55118000D02*
X186817000Y-50927000D01*
X187960000Y-53467000D02*
X187960000Y-35687000D01*
%TO.N,DIP_STROBE1*%
X187960000Y-78867000D02*
X187960000Y-61087000D01*
%TO.N,DIP_STROBE2*%
X187960000Y-104267000D02*
X187960000Y-86487000D01*
%TO.N,DIP_STROBE3*%
X174932680Y-73840680D02*
X183896000Y-82804000D01*
X187960000Y-129667000D02*
X187960000Y-127127000D01*
X183896000Y-82804000D02*
X183896000Y-107823000D01*
X187960000Y-127127000D02*
X187960000Y-124587000D01*
X187960000Y-124587000D02*
X187960000Y-111887000D01*
X183896000Y-107823000D02*
X187960000Y-111887000D01*
%TO.N,RST*%
X95250000Y-86355000D02*
X85598000Y-96007000D01*
X73484320Y-142998936D02*
X73484320Y-171853784D01*
X85598000Y-96007000D02*
X85598000Y-105133896D01*
X70944320Y-174393784D02*
X70944320Y-177467680D01*
X70362689Y-178049311D02*
X60701311Y-178049311D01*
X70944320Y-177467680D02*
X70362689Y-178049311D01*
X85598000Y-105133896D02*
X78554320Y-112177576D01*
X73484320Y-171853784D02*
X70944320Y-174393784D01*
X60701311Y-178049311D02*
X49276000Y-166624000D01*
X78554320Y-112177576D02*
X78554320Y-137928936D01*
X78554320Y-137928936D02*
X73484320Y-142998936D01*
D33*
%TO.N,D4*%
X80015000Y-46970000D02*
X80015000Y-39375000D01*
D31*
X80005000Y-20579000D02*
X81280000Y-19304000D01*
X81280000Y-19304000D02*
X88646000Y-19304000D01*
D33*
X80005000Y-21595000D02*
X80005000Y-33650000D01*
D31*
X89662000Y-68067000D02*
X95250000Y-73655000D01*
D33*
X80015000Y-39375000D02*
X78740000Y-38100000D01*
X78740000Y-34915000D02*
X80005000Y-33650000D01*
X47625000Y-89540000D02*
X49530000Y-87635000D01*
D31*
X89662000Y-20320000D02*
X89662000Y-68067000D01*
D33*
X47625000Y-110750000D02*
X47625000Y-89540000D01*
X49510000Y-113035000D02*
X49510000Y-112635000D01*
D31*
X88646000Y-19304000D02*
X89662000Y-20320000D01*
D33*
X49510000Y-112635000D02*
X47625000Y-110750000D01*
D31*
X80005000Y-21595000D02*
X80005000Y-20579000D01*
D33*
X78740000Y-38100000D02*
X78740000Y-34915000D01*
D31*
%TO.N,D5*%
X89662000Y-18288000D02*
X78486000Y-18288000D01*
X78486000Y-18288000D02*
X77465000Y-19309000D01*
X95250000Y-71115000D02*
X90424000Y-66289000D01*
D33*
X76386080Y-34728920D02*
X77465000Y-33650000D01*
D31*
X53485680Y-111548520D02*
X53485680Y-92564320D01*
D33*
X52050000Y-113035000D02*
X53511080Y-111573920D01*
X77475000Y-46970000D02*
X77475000Y-39375000D01*
X77475000Y-39375000D02*
X76386080Y-38286080D01*
X77465000Y-33650000D02*
X77465000Y-21595000D01*
D31*
X90424000Y-66289000D02*
X90424000Y-19050000D01*
X77465000Y-19309000D02*
X77465000Y-21595000D01*
X90424000Y-19050000D02*
X89662000Y-18288000D01*
X53511080Y-111573920D02*
X53485680Y-111548520D01*
X53485680Y-92564320D02*
X54610000Y-91440000D01*
X54610000Y-91440000D02*
X54610000Y-87635000D01*
D33*
X76386080Y-38286080D02*
X76386080Y-34728920D01*
D31*
%TO.N,{slash}CTC-CE*%
X79990000Y-97795000D02*
X73494320Y-91299320D01*
X73494320Y-91299320D02*
X73494320Y-70523680D01*
%TO.N,D6*%
X76200000Y-17272000D02*
X74925000Y-18547000D01*
X91694000Y-65019000D02*
X91694000Y-19050000D01*
D33*
X57150000Y-92795840D02*
X57150000Y-87635000D01*
X55668920Y-94276920D02*
X57150000Y-92795840D01*
X74935000Y-46970000D02*
X74935000Y-38770823D01*
X73660000Y-34280000D02*
X74925000Y-33015000D01*
D31*
X74925000Y-18547000D02*
X74925000Y-21595000D01*
D33*
X54590000Y-113035000D02*
X55668920Y-111956080D01*
D31*
X95250000Y-68575000D02*
X91694000Y-65019000D01*
D33*
X73660000Y-37495823D02*
X73660000Y-34280000D01*
X74935000Y-38770823D02*
X73660000Y-37495823D01*
X74925000Y-21595000D02*
X74925000Y-33015000D01*
X55668920Y-111956080D02*
X55668920Y-94276920D01*
D31*
X91694000Y-19050000D02*
X89916000Y-17272000D01*
X89916000Y-17272000D02*
X76200000Y-17272000D01*
%TO.N,D7*%
X57130000Y-113035000D02*
X57130000Y-106446000D01*
D33*
X71120000Y-37495823D02*
X71120000Y-22860000D01*
D31*
X72385000Y-21595000D02*
X72385000Y-17282000D01*
D33*
X71120000Y-22860000D02*
X72385000Y-21595000D01*
D31*
X57130000Y-106446000D02*
X63500000Y-100076000D01*
X64770000Y-89154000D02*
X64770000Y-87635000D01*
X90683000Y-16515000D02*
X92964000Y-18796000D01*
X63500000Y-90424000D02*
X64770000Y-89154000D01*
X94483000Y-66035000D02*
X95250000Y-66035000D01*
X92964000Y-64516000D02*
X94483000Y-66035000D01*
X72385000Y-17282000D02*
X73152000Y-16515000D01*
X92964000Y-18796000D02*
X92964000Y-64516000D01*
X63500000Y-100076000D02*
X63500000Y-90424000D01*
X73152000Y-16515000D02*
X90683000Y-16515000D01*
D33*
X72395000Y-38770823D02*
X71120000Y-37495823D01*
X72395000Y-46970000D02*
X72395000Y-38770823D01*
%TO.N,A0*%
X72395000Y-62210000D02*
X73473920Y-61131080D01*
X59690000Y-70358000D02*
X60960000Y-69088000D01*
D31*
X76365680Y-78905680D02*
X76365680Y-89496320D01*
X75946000Y-78486000D02*
X76365680Y-78905680D01*
D33*
X65517000Y-69088000D02*
X72395000Y-62210000D01*
X60960000Y-69088000D02*
X65517000Y-69088000D01*
X73473920Y-37923920D02*
X72385000Y-36835000D01*
X73473920Y-61131080D02*
X73473920Y-37923920D01*
D31*
X76365680Y-89496320D02*
X74930000Y-90932000D01*
D33*
X59690000Y-72395000D02*
X59690000Y-70358000D01*
D31*
%TO.N,A1*%
X65874320Y-83908320D02*
X57150000Y-75184000D01*
D33*
X57150000Y-72395000D02*
X57150000Y-69493920D01*
X57150000Y-69493920D02*
X58063920Y-68580000D01*
D31*
X65874320Y-89242320D02*
X65874320Y-83908320D01*
X116586000Y-90424000D02*
X112268000Y-86106000D01*
D33*
X63485000Y-68580000D02*
X69855000Y-62210000D01*
D31*
X72370000Y-95738000D02*
X65874320Y-89242320D01*
D33*
X58063920Y-68580000D02*
X63485000Y-68580000D01*
X70933920Y-37923920D02*
X69845000Y-36835000D01*
X69855000Y-62210000D02*
X70933920Y-61131080D01*
D31*
X57150000Y-75184000D02*
X57150000Y-72395000D01*
X112268000Y-86106000D02*
X112268000Y-83053000D01*
X116586000Y-101346000D02*
X116586000Y-90424000D01*
D33*
X70933920Y-61131080D02*
X70933920Y-37923920D01*
D31*
X112268000Y-83053000D02*
X110490000Y-81275000D01*
X72370000Y-97795000D02*
X72370000Y-95738000D01*
%TO.N,ZERO*%
X35550000Y-55362000D02*
X35550000Y-54625000D01*
X36322000Y-60452000D02*
X36322000Y-56134000D01*
X36322000Y-56134000D02*
X35550000Y-55362000D01*
%TO.N,{slash}IOREQ*%
X79670744Y-100076000D02*
X81425680Y-98321064D01*
X68735680Y-175440680D02*
X68735680Y-119478320D01*
X72370000Y-115844000D02*
X72370000Y-113035000D01*
X81425680Y-98321064D02*
X81425680Y-88759320D01*
X81425680Y-88759320D02*
X82550000Y-87635000D01*
X68735680Y-119478320D02*
X72370000Y-115844000D01*
X72370000Y-104668000D02*
X76962000Y-100076000D01*
X72370000Y-113035000D02*
X72370000Y-104668000D01*
X69840000Y-176545000D02*
X68735680Y-175440680D01*
X76962000Y-100076000D02*
X79670744Y-100076000D01*
D33*
%TO.N,D0*%
X68388920Y-78550080D02*
X68388920Y-68756080D01*
D31*
X85755400Y-74320400D02*
X95250000Y-83815000D01*
D33*
X76013920Y-61131080D02*
X76013920Y-39183920D01*
X74935000Y-62210000D02*
X76013920Y-61131080D01*
X67310000Y-79629000D02*
X68388920Y-78550080D01*
X74925000Y-38095000D02*
X74925000Y-36835000D01*
D31*
X85191600Y-74320400D02*
X85755400Y-74320400D01*
D33*
X76013920Y-39183920D02*
X74925000Y-38095000D01*
X68388920Y-68756080D02*
X74935000Y-62210000D01*
X67310000Y-87635000D02*
X67310000Y-79629000D01*
%TO.N,D1*%
X78553920Y-48954080D02*
X78553920Y-38577920D01*
D31*
X78105000Y-64130000D02*
X77475000Y-64130000D01*
D33*
X69850000Y-87635000D02*
X70928920Y-86556080D01*
X78553920Y-38577920D02*
X77465000Y-37489000D01*
X77475000Y-64130000D02*
X77475000Y-62210000D01*
X77475000Y-50033000D02*
X78553920Y-48954080D01*
D31*
X95250000Y-81275000D02*
X78105000Y-64130000D01*
D33*
X77475000Y-62210000D02*
X77475000Y-50033000D01*
X77465000Y-37489000D02*
X77465000Y-36835000D01*
X70928920Y-70676080D02*
X77475000Y-64130000D01*
X70928920Y-86556080D02*
X70928920Y-70676080D01*
D31*
%TO.N,D2*%
X62230000Y-84074000D02*
X62230000Y-87635000D01*
D33*
X80015000Y-62210000D02*
X80015000Y-49779000D01*
D31*
X80015000Y-63500000D02*
X80015000Y-62210000D01*
X80005000Y-38349000D02*
X80005000Y-36835000D01*
X81280000Y-39624000D02*
X80005000Y-38349000D01*
D33*
X80015000Y-49779000D02*
X81093920Y-48700080D01*
D31*
X95250000Y-78735000D02*
X80015000Y-63500000D01*
X81093920Y-48700080D02*
X81280000Y-48514000D01*
X81280000Y-48514000D02*
X81280000Y-39624000D01*
%TO.N,Net-(U1-Pad14)*%
X84950800Y-82181200D02*
X84950800Y-102235000D01*
X78994000Y-76200000D02*
X84963000Y-82169000D01*
X84963000Y-82169000D02*
X84950800Y-82181200D01*
%TO.N,D3*%
X87625000Y-21595000D02*
X82545000Y-21595000D01*
D33*
X82545000Y-32517000D02*
X82545000Y-33015000D01*
D31*
X81280000Y-37531744D02*
X81280000Y-34798000D01*
X88646000Y-22606000D02*
X87630000Y-21590000D01*
X82550000Y-33020000D02*
X82545000Y-33015000D01*
X82555000Y-38806744D02*
X81280000Y-37531744D01*
X82555000Y-46970000D02*
X82555000Y-38806744D01*
X87630000Y-21590000D02*
X87625000Y-21595000D01*
X49510000Y-97795000D02*
X49510000Y-90195000D01*
X82550000Y-33528000D02*
X82550000Y-33020000D01*
X95250000Y-76195000D02*
X88646000Y-69591000D01*
D33*
X82545000Y-21595000D02*
X82545000Y-32517000D01*
D31*
X81280000Y-34798000D02*
X82550000Y-33528000D01*
X49510000Y-90195000D02*
X52070000Y-87635000D01*
X88646000Y-69591000D02*
X88646000Y-22606000D01*
D33*
%TO.N,A11*%
X60960000Y-22860000D02*
X62225000Y-21595000D01*
D31*
X34290000Y-87635000D02*
X34290000Y-76708000D01*
X42164000Y-51943000D02*
X42164000Y-44958000D01*
X32258000Y-70104000D02*
X45974000Y-56388000D01*
X44323000Y-52705000D02*
X42926000Y-52705000D01*
X34290000Y-76708000D02*
X32258000Y-74676000D01*
X45974000Y-54356000D02*
X44323000Y-52705000D01*
X45974000Y-56388000D02*
X45974000Y-54356000D01*
D33*
X62235000Y-46970000D02*
X62235000Y-38770823D01*
X62235000Y-38770823D02*
X60960000Y-37495823D01*
D31*
X32258000Y-74676000D02*
X32258000Y-70104000D01*
X42926000Y-52705000D02*
X42164000Y-51943000D01*
D33*
X60960000Y-37495823D02*
X60960000Y-22860000D01*
%TO.N,A12*%
X53153920Y-37923920D02*
X52065000Y-36835000D01*
X52075000Y-62210000D02*
X49515000Y-64770000D01*
X49515000Y-64770000D02*
X46482000Y-64770000D01*
X40640000Y-83058000D02*
X36830000Y-86868000D01*
X53153920Y-61131080D02*
X53153920Y-37923920D01*
X40640000Y-70612000D02*
X40640000Y-83058000D01*
X46482000Y-64770000D02*
X40640000Y-70612000D01*
X36830000Y-86868000D02*
X36830000Y-87635000D01*
X52075000Y-62210000D02*
X53153920Y-61131080D01*
D31*
%TO.N,A13*%
X37865680Y-89139320D02*
X35799320Y-89139320D01*
X35799320Y-89139320D02*
X35560000Y-88900000D01*
X50800000Y-53848000D02*
X50800000Y-29464000D01*
X54605000Y-25659000D02*
X54605000Y-21595000D01*
X50800000Y-29464000D02*
X54605000Y-25659000D01*
X35560000Y-88900000D02*
X35560000Y-69088000D01*
X35560000Y-69088000D02*
X50800000Y-53848000D01*
X39370000Y-87635000D02*
X37865680Y-89139320D01*
%TO.N,A15*%
X29034320Y-65900400D02*
X28448000Y-66486720D01*
X42169000Y-89916000D02*
X44450000Y-87635000D01*
X27930000Y-52822000D02*
X27930000Y-54625000D01*
X27930000Y-54625000D02*
X29034320Y-55729320D01*
X29034320Y-55729320D02*
X29034320Y-65900400D01*
X27051000Y-51943000D02*
X27930000Y-52822000D01*
X30480000Y-89916000D02*
X42169000Y-89916000D01*
X20310000Y-49545000D02*
X22708000Y-51943000D01*
X28448000Y-87884000D02*
X30480000Y-89916000D01*
X28448000Y-66486720D02*
X28448000Y-87884000D01*
X22708000Y-51943000D02*
X27051000Y-51943000D01*
%TO.N,A2*%
X52070000Y-179070000D02*
X46228000Y-173228000D01*
D33*
X68393920Y-61131080D02*
X68393920Y-37923920D01*
X54610000Y-72395000D02*
X54610000Y-69342000D01*
X61453000Y-68072000D02*
X67315000Y-62210000D01*
D31*
X53079760Y-88906240D02*
X53079760Y-88555262D01*
X76200000Y-179070000D02*
X52070000Y-179070000D01*
X50614311Y-120073689D02*
X50614311Y-91371689D01*
X53505680Y-88129342D02*
X53505680Y-73499320D01*
X77460000Y-177810000D02*
X76200000Y-179070000D01*
X77460000Y-176545000D02*
X77460000Y-177810000D01*
X53505680Y-73499320D02*
X54610000Y-72395000D01*
D33*
X55880000Y-68072000D02*
X61453000Y-68072000D01*
X54610000Y-69342000D02*
X55880000Y-68072000D01*
D31*
X46228000Y-124460000D02*
X50614311Y-120073689D01*
X53079760Y-88555262D02*
X53505680Y-88129342D01*
X46228000Y-173228000D02*
X46228000Y-124460000D01*
D33*
X67315000Y-62210000D02*
X68393920Y-61131080D01*
X68393920Y-37923920D02*
X67305000Y-36835000D01*
D31*
X50614311Y-91371689D02*
X53079760Y-88906240D01*
D33*
%TO.N,A3*%
X65853920Y-61131080D02*
X65853920Y-37923920D01*
X53086000Y-67564000D02*
X59421000Y-67564000D01*
X65853920Y-37923920D02*
X64765000Y-36835000D01*
X52070000Y-68580000D02*
X53086000Y-67564000D01*
X52070000Y-72395000D02*
X52070000Y-68580000D01*
X64775000Y-62210000D02*
X65853920Y-61131080D01*
X59421000Y-67564000D02*
X64775000Y-62210000D01*
%TO.N,A4*%
X49530000Y-68326000D02*
X50800000Y-67056000D01*
X63313920Y-61131080D02*
X63313920Y-37923920D01*
X49530000Y-72395000D02*
X49530000Y-68326000D01*
X57389000Y-67056000D02*
X62235000Y-62210000D01*
X62235000Y-62210000D02*
X63313920Y-61131080D01*
X63313920Y-37923920D02*
X62225000Y-36835000D01*
X50800000Y-67056000D02*
X57389000Y-67056000D01*
%TO.N,A5*%
X48514000Y-66548000D02*
X55357000Y-66548000D01*
X46990000Y-68072000D02*
X48514000Y-66548000D01*
X46990000Y-72395000D02*
X46990000Y-68072000D01*
X59695000Y-62210000D02*
X60773920Y-61131080D01*
X60773920Y-61131080D02*
X60773920Y-37923920D01*
X60773920Y-37923920D02*
X59685000Y-36835000D01*
X55357000Y-66548000D02*
X59695000Y-62210000D01*
%TO.N,A6*%
X48006000Y-66040000D02*
X53325000Y-66040000D01*
X44450000Y-72395000D02*
X44450000Y-69596000D01*
X53325000Y-66040000D02*
X57155000Y-62210000D01*
X58233920Y-37923920D02*
X57145000Y-36835000D01*
X57155000Y-62210000D02*
X58233920Y-61131080D01*
X44450000Y-69596000D02*
X48006000Y-66040000D01*
X58233920Y-61131080D02*
X58233920Y-37923920D01*
%TO.N,A7*%
X41910000Y-72395000D02*
X41910000Y-71120000D01*
X41910000Y-71120000D02*
X47498000Y-65532000D01*
X51293000Y-65532000D02*
X54615000Y-62210000D01*
X54615000Y-62210000D02*
X55693920Y-61131080D01*
X55693920Y-61131080D02*
X55693920Y-37923920D01*
X47498000Y-65532000D02*
X51293000Y-65532000D01*
X55693920Y-37923920D02*
X54605000Y-36835000D01*
%TO.N,A8*%
X55880000Y-22860000D02*
X57145000Y-21595000D01*
X57155000Y-46970000D02*
X57155000Y-38770823D01*
X55880000Y-37495823D02*
X55880000Y-22860000D01*
D31*
X52070000Y-55880000D02*
X52070000Y-52324000D01*
D33*
X57155000Y-38770823D02*
X55880000Y-37495823D01*
D31*
X39370000Y-68580000D02*
X52070000Y-55880000D01*
X39370000Y-72395000D02*
X39370000Y-68580000D01*
%TO.N,{slash}MREQ*%
X22850000Y-48905000D02*
X24130000Y-47625000D01*
X30470000Y-49545000D02*
X30470000Y-51044000D01*
X28550000Y-47625000D02*
X30470000Y-49545000D01*
X31750000Y-64770000D02*
X29370689Y-67149311D01*
X78232000Y-77978000D02*
X80010000Y-79756000D01*
X29370689Y-79662689D02*
X30480000Y-80772000D01*
X24130000Y-47625000D02*
X28550000Y-47625000D01*
X30470000Y-51044000D02*
X31574320Y-52148320D01*
X29370689Y-67149311D02*
X29370689Y-79662689D01*
X31750000Y-59944000D02*
X31750000Y-64770000D01*
X80010000Y-79756000D02*
X80010000Y-87635000D01*
X31574320Y-59768320D02*
X31750000Y-59944000D01*
X31574320Y-52148320D02*
X31574320Y-59768320D01*
X22850000Y-49545000D02*
X22850000Y-48905000D01*
%TO.N,A9*%
X36830000Y-69469000D02*
X51422789Y-54876211D01*
D33*
X59695000Y-46970000D02*
X59695000Y-38770823D01*
X58420000Y-22860000D02*
X59685000Y-21595000D01*
D31*
X51422789Y-54876211D02*
X51422789Y-54864011D01*
D33*
X58420000Y-37495823D02*
X58420000Y-22860000D01*
D31*
X36830000Y-72395000D02*
X36830000Y-69469000D01*
X51422789Y-54864011D02*
X51422800Y-54864000D01*
D33*
X59695000Y-38770823D02*
X58420000Y-37495823D01*
D31*
%TO.N,A10*%
X34290000Y-69342000D02*
X47117000Y-56515000D01*
D33*
X66040000Y-37495823D02*
X66040000Y-22860000D01*
D31*
X34290000Y-72395000D02*
X34290000Y-69342000D01*
D33*
X67315000Y-38770823D02*
X66040000Y-37495823D01*
X66040000Y-22860000D02*
X67305000Y-21595000D01*
X67315000Y-46970000D02*
X67315000Y-38770823D01*
D31*
%TO.N,Net-(U3-Pad10)*%
X30470000Y-54625000D02*
X30470000Y-52085000D01*
X30470000Y-52085000D02*
X27930000Y-49545000D01*
%TO.N,LATCH_CLK*%
X237475000Y-118105000D02*
X237475000Y-126832600D01*
%TO.N,Net-(U12-Pad10)*%
X237475000Y-115565000D02*
X237475000Y-113025000D01*
%TO.N,Net-(U12-Pad11)*%
X237475000Y-110485000D02*
X236479000Y-110485000D01*
X156464000Y-164846000D02*
X156215000Y-165095000D01*
X156464000Y-162052000D02*
X156464000Y-164846000D01*
X156215000Y-165095000D02*
X153655000Y-165095000D01*
X160274000Y-137160000D02*
X160274000Y-158242000D01*
X236479000Y-110485000D02*
X235970680Y-110993320D01*
X160274000Y-158242000D02*
X156464000Y-162052000D01*
X235970680Y-110993320D02*
X235970680Y-139695320D01*
%TO.N,Net-(U12-Pad12)*%
X212075000Y-162575000D02*
X214615000Y-162575000D01*
X234315000Y-125095000D02*
X234315000Y-109220000D01*
X237475000Y-107945000D02*
X237475000Y-105405000D01*
X214615000Y-162575000D02*
X220345000Y-156845000D01*
X220345000Y-156845000D02*
X220345000Y-139065000D01*
X234315000Y-109220000D02*
X235590000Y-107945000D01*
X220345000Y-139065000D02*
X234315000Y-125095000D01*
X235590000Y-107945000D02*
X237475000Y-107945000D01*
%TO.N,PIO-CS*%
X109880400Y-150723600D02*
X109880400Y-138531600D01*
X81504320Y-178049320D02*
X84078680Y-178049320D01*
X84078680Y-178049320D02*
X106172000Y-155956000D01*
X106172000Y-154432000D02*
X109880400Y-150723600D01*
X80000000Y-176545000D02*
X81504320Y-178049320D01*
X106172000Y-155956000D02*
X106172000Y-154432000D01*
X106172000Y-134823200D02*
X106172000Y-86614000D01*
X109880400Y-138531600D02*
X106172000Y-134823200D01*
%TO.N,PA3*%
X128938680Y-169070680D02*
X128938680Y-143162680D01*
X128938680Y-143162680D02*
X115316000Y-129540000D01*
X115316000Y-129540000D02*
X115316000Y-99060000D01*
%TO.N,PA2*%
X123444000Y-167640000D02*
X123444000Y-144780000D01*
X123444000Y-144780000D02*
X111760000Y-133096000D01*
X111760000Y-96774000D02*
X111501000Y-96515000D01*
X111760000Y-133096000D02*
X111760000Y-96774000D01*
X111501000Y-96515000D02*
X110490000Y-96515000D01*
%TO.N,PA1*%
X127005000Y-162555000D02*
X127005000Y-143769000D01*
X127005000Y-143769000D02*
X114300000Y-131064000D01*
X114300000Y-131064000D02*
X114300000Y-93980000D01*
%TO.N,PA0*%
X112382789Y-92570789D02*
X111247000Y-91435000D01*
X111247000Y-91435000D02*
X110490000Y-91435000D01*
X112382789Y-132448789D02*
X112382789Y-92570789D01*
X124973000Y-145039000D02*
X112382789Y-132448789D01*
X124973000Y-157475000D02*
X124973000Y-145039000D01*
%TO.N,PC4*%
X130556000Y-138938000D02*
X117233211Y-125615211D01*
X147828000Y-138684000D02*
X147574000Y-138938000D01*
X117233211Y-89420211D02*
X113538000Y-85725000D01*
X162052000Y-138430000D02*
X162052000Y-160020000D01*
X113538000Y-85725000D02*
X113538000Y-69469000D01*
X112644000Y-68575000D02*
X110490000Y-68575000D01*
X113538000Y-69469000D02*
X112644000Y-68575000D01*
X147574000Y-138938000D02*
X130556000Y-138938000D01*
X117233211Y-125615211D02*
X117233211Y-89420211D01*
%TO.N,PC0*%
X108712000Y-66802000D02*
X108712000Y-132588000D01*
X109479000Y-66035000D02*
X108712000Y-66802000D01*
X121666000Y-145542000D02*
X122428000Y-145542000D01*
X110490000Y-66035000D02*
X109479000Y-66035000D01*
X108712000Y-132588000D02*
X121666000Y-145542000D01*
%TO.N,PC1*%
X110490000Y-63495000D02*
X109733000Y-63495000D01*
X107696000Y-65532000D02*
X107696000Y-133096000D01*
X121412000Y-146812000D02*
X122428000Y-146812000D01*
X109733000Y-63495000D02*
X107696000Y-65532000D01*
X107696000Y-133096000D02*
X121412000Y-146812000D01*
%TO.N,PC2*%
X110490000Y-60955000D02*
X106680000Y-64765000D01*
X121666000Y-148082000D02*
X122428000Y-148082000D01*
X106680000Y-64765000D02*
X106680000Y-65786000D01*
X106819211Y-65925211D02*
X106819211Y-133235211D01*
X106680000Y-65786000D02*
X106819211Y-65925211D01*
X106819211Y-133235211D02*
X121666000Y-148082000D01*
%TO.N,PA7*%
X146035000Y-74945000D02*
X144892000Y-74945000D01*
X143002000Y-46355000D02*
X142621000Y-45974000D01*
X146035000Y-47005000D02*
X146035000Y-44465000D01*
X143002000Y-76835000D02*
X143002000Y-46355000D01*
X143002000Y-76835000D02*
X143002000Y-92710000D01*
X144892000Y-74945000D02*
X143002000Y-76835000D01*
%TO.N,PA6*%
X146035000Y-67325000D02*
X144033000Y-67325000D01*
X144033000Y-67325000D02*
X143637000Y-66929000D01*
X138303000Y-93726000D02*
X138303000Y-67183000D01*
X143637000Y-66929000D02*
X143637000Y-42037000D01*
%TO.N,PA5*%
X146035000Y-39385000D02*
X143876000Y-39385000D01*
X135001000Y-65786000D02*
X135001000Y-94602800D01*
X143876000Y-39385000D02*
X139065000Y-44196000D01*
X139065000Y-44196000D02*
X139065000Y-65786000D01*
%TO.N,PA4*%
X146035000Y-62245000D02*
X146035000Y-57546000D01*
X148336000Y-37592000D02*
X147589000Y-36845000D01*
X148336000Y-55245000D02*
X148336000Y-37592000D01*
X142255000Y-62245000D02*
X142240000Y-62260000D01*
X146035000Y-57546000D02*
X148336000Y-55245000D01*
X147589000Y-36845000D02*
X146035000Y-36845000D01*
X142240000Y-62260000D02*
X142240000Y-97790000D01*
%TO.N,LATCH1*%
X223266000Y-44577000D02*
X223266000Y-101600000D01*
X223266000Y-101600000D02*
X227076000Y-105410000D01*
X227076000Y-105410000D02*
X227081000Y-105405000D01*
X227081000Y-105405000D02*
X229855000Y-105405000D01*
%TO.N,LATCH0*%
X228341000Y-102865000D02*
X229855000Y-102865000D01*
X224521000Y-41925000D02*
X224521000Y-99045000D01*
X224521000Y-99045000D02*
X228341000Y-102865000D01*
%TO.N,Net-(U17-Pad9)*%
X218440000Y-172720000D02*
X218440000Y-163830000D01*
X215885000Y-175275000D02*
X218440000Y-172720000D01*
X212075000Y-175275000D02*
X215885000Y-175275000D01*
%TD*%
%TA.AperFunction,Conductor*%
%TO.N,GND*%
G36*
X5313993Y-180894558D02*
G01*
X5381375Y-180916922D01*
X5425969Y-180972166D01*
X5435600Y-181020481D01*
X5435600Y-184404000D01*
X5448183Y-184404377D01*
X5448185Y-184404378D01*
X10443556Y-184554239D01*
X10511047Y-184576274D01*
X10550256Y-184619597D01*
X12140479Y-187519415D01*
X12155696Y-187588762D01*
X12131005Y-187655327D01*
X12074247Y-187697976D01*
X12030001Y-187706000D01*
X1192800Y-187706000D01*
X1124679Y-187685998D01*
X1078186Y-187632342D01*
X1066800Y-187580000D01*
X1066800Y-180876872D01*
X1086802Y-180808751D01*
X1140458Y-180762258D01*
X1197193Y-180750949D01*
X5313993Y-180894558D01*
G37*
%TD.AperFunction*%
%TD*%
%TA.AperFunction,Conductor*%
%TO.N,GND*%
G36*
X277993531Y-182239602D02*
G01*
X278014505Y-182256505D01*
X281990800Y-186232800D01*
X290196000Y-186232800D01*
X290264121Y-186252802D01*
X290310614Y-186306458D01*
X290322000Y-186358800D01*
X290322000Y-187427600D01*
X290301998Y-187495721D01*
X290248342Y-187542214D01*
X290196000Y-187553600D01*
X214172190Y-187553600D01*
X214104069Y-187533598D01*
X214057576Y-187479942D01*
X214047472Y-187409668D01*
X214076966Y-187345088D01*
X214083095Y-187338505D01*
X219165095Y-182256505D01*
X219227407Y-182222479D01*
X219254190Y-182219600D01*
X277925410Y-182219600D01*
X277993531Y-182239602D01*
G37*
%TD.AperFunction*%
%TD*%
M02*
