G04 #@! TF.GenerationSoftware,KiCad,Pcbnew,6.0.5-a6ca702e91~116~ubuntu20.04.1*
G04 #@! TF.CreationDate,2022-08-26T23:18:17-04:00*
G04 #@! TF.ProjectId,gp-mpu,67702d6d-7075-42e6-9b69-6361645f7063,rev?*
G04 #@! TF.SameCoordinates,Original*
G04 #@! TF.FileFunction,Legend,Bot*
G04 #@! TF.FilePolarity,Positive*
%FSLAX46Y46*%
G04 Gerber Fmt 4.6, Leading zero omitted, Abs format (unit mm)*
G04 Created by KiCad (PCBNEW 6.0.5-a6ca702e91~116~ubuntu20.04.1) date 2022-08-26 23:18:17*
%MOMM*%
%LPD*%
G01*
G04 APERTURE LIST*
%ADD10C,0.150000*%
G04 APERTURE END LIST*
D10*
X289174228Y-185106723D02*
X289126609Y-184963866D01*
X289078990Y-184916247D01*
X288983752Y-184868628D01*
X288840895Y-184868628D01*
X288745657Y-184916247D01*
X288698038Y-184963866D01*
X288650419Y-185059104D01*
X288650419Y-185440057D01*
X289650419Y-185440057D01*
X289650419Y-185106723D01*
X289602800Y-185011485D01*
X289555180Y-184963866D01*
X289459942Y-184916247D01*
X289364704Y-184916247D01*
X289269466Y-184963866D01*
X289221847Y-185011485D01*
X289174228Y-185106723D01*
X289174228Y-185440057D01*
X288650419Y-184440057D02*
X289650419Y-184440057D01*
X289650419Y-184201961D01*
X289602800Y-184059104D01*
X289507561Y-183963866D01*
X289412323Y-183916247D01*
X289221847Y-183868628D01*
X289078990Y-183868628D01*
X288888514Y-183916247D01*
X288793276Y-183963866D01*
X288698038Y-184059104D01*
X288650419Y-184201961D01*
X288650419Y-184440057D01*
X289650419Y-183440057D02*
X288840895Y-183440057D01*
X288745657Y-183392438D01*
X288698038Y-183344819D01*
X288650419Y-183249580D01*
X288650419Y-183059104D01*
X288698038Y-182963866D01*
X288745657Y-182916247D01*
X288840895Y-182868628D01*
X289650419Y-182868628D01*
X288650419Y-181630533D02*
X289650419Y-181630533D01*
X289650419Y-181392438D01*
X289602800Y-181249580D01*
X289507561Y-181154342D01*
X289412323Y-181106723D01*
X289221847Y-181059104D01*
X289078990Y-181059104D01*
X288888514Y-181106723D01*
X288793276Y-181154342D01*
X288698038Y-181249580D01*
X288650419Y-181392438D01*
X288650419Y-181630533D01*
X288650419Y-180630533D02*
X289650419Y-180630533D01*
X288698038Y-180201961D02*
X288650419Y-180059104D01*
X288650419Y-179821009D01*
X288698038Y-179725771D01*
X288745657Y-179678152D01*
X288840895Y-179630533D01*
X288936133Y-179630533D01*
X289031371Y-179678152D01*
X289078990Y-179725771D01*
X289126609Y-179821009D01*
X289174228Y-180011485D01*
X289221847Y-180106723D01*
X289269466Y-180154342D01*
X289364704Y-180201961D01*
X289459942Y-180201961D01*
X289555180Y-180154342D01*
X289602800Y-180106723D01*
X289650419Y-180011485D01*
X289650419Y-179773390D01*
X289602800Y-179630533D01*
X288650419Y-179201961D02*
X289650419Y-179201961D01*
X289650419Y-178821009D01*
X289602800Y-178725771D01*
X289555180Y-178678152D01*
X289459942Y-178630533D01*
X289317085Y-178630533D01*
X289221847Y-178678152D01*
X289174228Y-178725771D01*
X289126609Y-178821009D01*
X289126609Y-179201961D01*
X288650419Y-177725771D02*
X288650419Y-178201961D01*
X289650419Y-178201961D01*
X288936133Y-177440057D02*
X288936133Y-176963866D01*
X288650419Y-177535295D02*
X289650419Y-177201961D01*
X288650419Y-176868628D01*
X289126609Y-176344819D02*
X288650419Y-176344819D01*
X289650419Y-176678152D02*
X289126609Y-176344819D01*
X289650419Y-176011485D01*
X289971219Y-45904114D02*
X290971219Y-45904114D01*
X289971219Y-45332685D01*
X290971219Y-45332685D01*
X291587180Y-182556114D02*
X291587180Y-181984685D01*
X291587180Y-182270400D02*
X290587180Y-182270400D01*
X290730038Y-182175161D01*
X290825276Y-182079923D01*
X290872895Y-181984685D01*
X290793466Y-89068304D02*
X290793466Y-89544495D01*
X291079180Y-88973066D02*
X290079180Y-89306400D01*
X291079180Y-89639733D01*
X290428419Y-150571295D02*
X290380800Y-150618914D01*
X290333180Y-150714152D01*
X290333180Y-150952247D01*
X290380800Y-151047485D01*
X290428419Y-151095104D01*
X290523657Y-151142723D01*
X290618895Y-151142723D01*
X290761752Y-151095104D01*
X291333180Y-150523676D01*
X291333180Y-151142723D01*
X290333180Y-152047485D02*
X290333180Y-151571295D01*
X290809371Y-151523676D01*
X290761752Y-151571295D01*
X290714133Y-151666533D01*
X290714133Y-151904628D01*
X290761752Y-151999866D01*
X290809371Y-152047485D01*
X290904609Y-152095104D01*
X291142704Y-152095104D01*
X291237942Y-152047485D01*
X291285561Y-151999866D01*
X291333180Y-151904628D01*
X291333180Y-151666533D01*
X291285561Y-151571295D01*
X291237942Y-151523676D01*
M02*
