M48
; DRILL file {KiCad 6.0.1-79c1e3a40b~116~ubuntu20.04.1} date Sat 19 Feb 2022 12:12:08 PM EST
; FORMAT={-:-/ absolute / inch / decimal}
; #@! TF.CreationDate,2022-02-19T12:12:08-05:00
; #@! TF.GenerationSoftware,Kicad,Pcbnew,6.0.1-79c1e3a40b~116~ubuntu20.04.1
; #@! TF.FileFunction,MixedPlating,1,2
FMAT,2
INCH
; #@! TA.AperFunction,Plated,PTH,ViaDrill
T1C0.0130
; #@! TA.AperFunction,Plated,PTH,ComponentDrill
T2C0.0200
; #@! TA.AperFunction,Plated,PTH,ComponentDrill
T3C0.0295
; #@! TA.AperFunction,Plated,PTH,ComponentDrill
T4C0.0315
; #@! TA.AperFunction,Plated,PTH,ComponentDrill
T5C0.0354
; #@! TA.AperFunction,Plated,PTH,ComponentDrill
T6C0.0394
; #@! TA.AperFunction,Plated,PTH,ComponentDrill
T7C0.0433
; #@! TA.AperFunction,NonPlated,NPTH,ComponentDrill
T8C0.1457
%
G90
G05
T1
X0.0642Y-7.1002
X0.736Y-6.0
X0.84Y-5.27
X1.2Y-3.18
X1.23Y-4.23
X1.43Y-2.38
X1.66Y-1.77
X1.6858Y-7.1002
X1.7Y-3.1
X1.855Y-2.225
X2.0245Y-2.16
X2.05Y-2.06
X2.145Y-1.98
X2.145Y-2.33
X2.45Y-3.31
X2.8935Y-2.7765
X2.95Y-3.58
X2.99Y-3.09
X3.08Y-3.07
X3.11Y-3.0
X3.15Y-2.655
X3.2492Y-4.1292
X3.3445Y-4.025
X3.354Y-2.926
X4.046Y-3.5
X4.056Y-2.9
X4.096Y-2.998
X4.1463Y-3.3563
X4.15Y-2.8
X4.18Y-3.41
X4.228Y-0.45
X4.268Y-0.542
X4.312Y-0.61
X4.45Y-4.46
X4.5Y-3.7
X4.52Y-5.95
X4.54Y-3.9
X4.585Y-2.055
X4.59Y-3.99
X4.6195Y-1.9755
X4.645Y-2.3
X4.82Y-5.73
X4.82Y-5.78
X4.82Y-5.83
X4.86Y-6.6
X4.9Y-2.2
X4.9202Y-6.1998
X4.98Y-2.01
X5.0002Y-6.3998
X5.025Y-4.54
X5.04Y-2.1
X5.068Y-2.892
X5.0763Y-6.6563
X5.085Y-1.875
X5.092Y-4.454
X5.1563Y-2.2563
X5.158Y-4.398
X5.315Y-2.59
X5.315Y-3.7245
X5.383Y-2.892
X5.435Y-2.145
X5.445Y-2.645
X5.445Y-3.69
X5.475Y-2.59
X5.5344Y-2.5494
X5.5344Y-3.0994
X5.6Y-3.85
X5.6006Y-2.4506
X5.615Y-1.81
X5.63Y-3.65
X5.63Y-5.95
X5.6594Y-1.6506
X5.665Y-3.305
X5.82Y-5.46
X5.845Y-3.68
X5.875Y-2.095
X5.8906Y-1.9506
X6.02Y-5.55
X6.058Y-5.318
X6.31Y-5.4
X6.32Y-2.37
X6.38Y-5.45
X6.38Y-6.3
X6.5Y-5.7045
X6.7Y-1.56
X6.85Y-1.6326
X6.8871Y-2.9071
X7.19Y-2.96
X7.2Y-6.525
X8.13Y-2.8
X8.13Y-3.76
X8.13Y-4.8
X8.16Y-3.87
X8.16Y-4.9
X8.1637Y-2.8937
X8.19Y-2.97
X8.19Y-3.97
X8.19Y-5.0
X8.22Y-5.1
X8.225Y-1.275
X8.308Y-1.242
X8.38Y-1.98
X8.425Y-3.605
X8.43Y-2.6
X8.43Y-4.6
X8.49Y-2.5
X8.49Y-3.5
X8.49Y-4.5
X8.534Y-5.762
X8.555Y-3.405
X8.56Y-2.4
X8.56Y-4.41
X8.578Y-4.848
X8.5855Y-0.4505
X8.6Y-6.45
X8.615Y-0.384
X8.615Y-4.817
X8.64Y-0.34
X8.643Y-4.753
X8.66Y-6.56
X8.7Y-3.906
X8.75Y-2.37
X8.75Y-3.2
X8.7622Y-6.9688
X8.79Y-1.755
X8.8394Y-1.6506
X8.9Y-2.02
X9.046Y-0.976
X9.062Y-0.544
X9.07Y-0.256
X9.112Y-0.678
X9.208Y-3.786
X9.2902Y-5.4998
X9.3494Y-4.9934
X9.35Y-1.18
X9.42Y-2.75
X9.46Y-6.45
X9.49Y-5.54
X9.562Y-5.7365
X9.62Y-2.34
X9.67Y-2.55
X9.85Y-6.38
X9.92Y-6.35
X9.956Y-3.512
X10.0Y-2.964
X10.04Y-5.1
X10.075Y-3.225
X10.1Y-5.23
X10.15Y-5.19
X10.175Y-3.8
X10.2494Y-5.3626
X10.2885Y-6.35
X10.344Y-5.826
X10.378Y-5.794
X10.404Y-5.76
X10.408Y-3.004
X10.408Y-4.66
X10.43Y-1.881
X10.446Y-5.632
X10.4525Y-5.1515
X10.618Y-3.746
X10.72Y-1.97
X10.72Y-4.6
X10.72Y-5.79
X10.725Y-3.575
X10.74Y-2.19
X10.766Y-6.69
X10.78Y-2.06
X10.78Y-2.92
X10.813Y-6.525
X10.826Y-5.752
X10.942Y-5.71
X10.966Y-6.293
X11.03Y-7.062
X11.066Y-7.056
X11.072Y-7.226
X11.16Y-5.396
X11.1886Y-6.2586
X11.194Y-3.182
X11.2Y-2.75
X11.204Y-7.04
X11.25Y-2.5
X11.325Y-2.5
X11.346Y-7.06
X11.375Y-2.625
X11.414Y-3.0
X11.44Y-5.762
X11.46Y-2.57
X11.4708Y-2.1108
X11.475Y-2.75
X11.475Y-3.225
X11.475Y-3.375
X11.475Y-3.575
X11.4813Y-1.9513
X11.4814Y-6.0586
X11.4875Y-7.088
T2
X1.2998Y-3.9
X1.59Y-5.64
X1.94Y-6.25
X1.94Y-6.56
X3.4998Y-6.05
T3
X5.15Y-3.15
X5.2Y-3.15
X5.25Y-3.15
T4
X0.516Y-7.256
X0.5998Y-2.2
X0.5998Y-2.3969
X0.6Y-6.874
X0.6Y-7.064
X0.7033Y-3.6488
X0.712Y-6.254
X0.712Y-6.654
X0.7996Y-1.6506
X0.7996Y-1.9506
X0.7996Y-2.1506
X0.7996Y-2.4506
X0.7998Y-2.65
X0.7998Y-3.05
X0.8963Y-3.6488
X0.8996Y-1.6506
X0.8996Y-1.9506
X0.8996Y-2.1506
X0.8996Y-2.4506
X0.9Y-6.874
X0.9Y-7.064
X0.916Y-7.256
X0.92Y-3.06
X0.92Y-3.46
X0.9996Y-1.6506
X0.9996Y-1.9506
X0.9996Y-2.1506
X0.9996Y-2.4506
X0.9998Y-2.8516
X0.9998Y-2.95
X1.003Y-5.45
X1.0996Y-1.6506
X1.0996Y-1.9506
X1.0996Y-2.1506
X1.0996Y-2.4506
X1.1014Y-5.75
X1.1996Y-1.6506
X1.1996Y-1.9506
X1.1996Y-2.1506
X1.1996Y-2.4506
X1.1998Y-3.0531
X1.1998Y-3.25
X1.1998Y-5.25
X1.1998Y-5.45
X1.1998Y-5.75
X1.2002Y-6.2506
X1.2996Y-1.6506
X1.2996Y-1.9506
X1.2996Y-2.1506
X1.2996Y-2.4506
X1.35Y-2.8502
X1.35Y-3.4502
X1.3996Y-1.6506
X1.3996Y-1.9506
X1.3996Y-2.1506
X1.3996Y-2.4506
X1.4002Y-6.4506
X1.4002Y-6.7506
X1.45Y-2.8502
X1.45Y-3.4502
X1.4998Y-3.9
X1.4998Y-4.3
X1.5002Y-6.4506
X1.5002Y-6.7506
X1.51Y-1.0516
X1.51Y-1.2484
X1.55Y-2.8502
X1.55Y-3.4502
X1.59Y-6.9
X1.59Y-7.3
X1.5998Y-5.25
X1.6002Y-6.2506
X1.6002Y-6.4506
X1.6002Y-6.7506
X1.65Y-2.8502
X1.65Y-3.4502
X1.7002Y-6.4506
X1.7002Y-6.7506
X1.7498Y-0.8502
X1.7498Y-1.4502
X1.75Y-2.8502
X1.75Y-3.4502
X1.755Y-2.0116
X1.755Y-2.2084
X1.7998Y-4.0516
X1.7998Y-4.2484
X1.8498Y-0.8502
X1.8498Y-1.4502
X1.85Y-2.8502
X1.85Y-3.4502
X1.9492Y-3.8502
X1.9492Y-4.4502
X1.9498Y-0.8502
X1.9498Y-1.4502
X1.95Y-2.8502
X1.95Y-3.4502
X1.9502Y-1.8492
X1.9502Y-2.4492
X2.0492Y-3.8502
X2.0492Y-4.4502
X2.0498Y-0.8502
X2.0498Y-1.4502
X2.05Y-2.8502
X2.05Y-3.4502
X2.0502Y-1.8492
X2.0502Y-2.4492
X2.1492Y-3.8502
X2.1492Y-4.4502
X2.1498Y-0.8502
X2.1498Y-1.4502
X2.15Y-2.8502
X2.15Y-3.4502
X2.1502Y-1.8492
X2.1502Y-2.4492
X2.2492Y-3.8502
X2.2492Y-4.4502
X2.2498Y-0.8502
X2.2498Y-1.4502
X2.25Y-2.8502
X2.25Y-3.4502
X2.2502Y-1.8492
X2.2502Y-2.4492
X2.3492Y-3.8502
X2.3492Y-4.4502
X2.3498Y-0.8502
X2.3498Y-1.4502
X2.35Y-2.8502
X2.35Y-3.4502
X2.3502Y-1.8492
X2.3502Y-2.4492
X2.4492Y-3.8502
X2.4492Y-4.4502
X2.4498Y-0.8502
X2.4498Y-1.4502
X2.4498Y-6.7
X2.4498Y-6.8969
X2.45Y-2.8502
X2.45Y-3.4502
X2.4502Y-1.8492
X2.4502Y-2.4492
X2.5492Y-3.8502
X2.5492Y-4.4502
X2.5498Y-0.8502
X2.5498Y-1.4502
X2.5498Y-6.2
X2.5498Y-6.35
X2.55Y-2.8502
X2.55Y-3.4502
X2.5502Y-1.8492
X2.5502Y-2.4492
X2.6492Y-3.8502
X2.6492Y-4.4502
X2.6496Y-5.6506
X2.6496Y-5.9506
X2.6496Y-6.6506
X2.6496Y-6.9506
X2.6498Y-0.8502
X2.6498Y-1.4502
X2.65Y-2.8502
X2.65Y-3.4502
X2.6502Y-1.8492
X2.6502Y-2.4492
X2.7492Y-3.8502
X2.7492Y-4.4502
X2.7496Y-5.6506
X2.7496Y-5.9506
X2.7496Y-6.6506
X2.7496Y-6.9506
X2.7498Y-0.8502
X2.7498Y-1.4502
X2.75Y-2.8502
X2.75Y-3.4502
X2.7502Y-1.8492
X2.7502Y-2.4492
X2.8492Y-3.8502
X2.8492Y-4.4502
X2.8496Y-5.6506
X2.8496Y-5.9506
X2.8496Y-6.6506
X2.8496Y-6.9506
X2.8498Y-0.8502
X2.8498Y-1.4502
X2.8498Y-4.75
X2.8498Y-5.15
X2.85Y-2.8502
X2.85Y-3.4502
X2.8502Y-1.8492
X2.8502Y-2.4492
X2.9492Y-3.8502
X2.9492Y-4.4502
X2.9496Y-5.6506
X2.9496Y-5.9506
X2.9496Y-6.6506
X2.9496Y-6.9506
X2.9498Y-0.8502
X2.9498Y-1.4502
X2.9498Y-6.2
X2.9498Y-6.35
X2.95Y-2.8502
X2.95Y-3.4502
X2.9502Y-1.8492
X2.9502Y-2.4492
X3.0492Y-3.8502
X3.0492Y-4.4502
X3.0496Y-5.6506
X3.0496Y-5.9506
X3.0496Y-6.6506
X3.0496Y-6.9506
X3.0498Y-0.8502
X3.0498Y-1.4502
X3.05Y-2.8502
X3.05Y-3.4502
X3.0502Y-1.8492
X3.0502Y-2.4492
X3.0998Y-6.35
X3.1492Y-3.8502
X3.1492Y-4.4502
X3.1496Y-5.6506
X3.1496Y-5.9506
X3.1496Y-6.6506
X3.1496Y-6.9506
X3.1498Y-0.8502
X3.1498Y-1.4502
X3.15Y-2.8502
X3.15Y-3.4502
X3.1502Y-1.8492
X3.1502Y-2.4492
X3.2492Y-3.8502
X3.2492Y-4.4502
X3.2496Y-5.6506
X3.2496Y-5.9506
X3.2496Y-6.6506
X3.2496Y-6.9506
X3.2498Y-0.8502
X3.2498Y-1.4502
X3.2498Y-4.75
X3.2498Y-5.15
X3.25Y-2.8502
X3.25Y-3.4502
X3.2502Y-1.8492
X3.2502Y-2.4492
X3.4998Y-6.35
X3.6514Y-6.35
X3.73Y-0.45
X3.73Y-0.85
X3.75Y-1.9998
X3.75Y-2.0998
X3.75Y-2.1998
X3.75Y-2.2998
X3.75Y-2.3998
X3.75Y-2.4998
X3.75Y-2.5998
X3.75Y-2.6998
X3.75Y-2.7998
X3.75Y-2.8998
X3.75Y-2.9998
X3.75Y-3.0998
X3.75Y-3.1998
X3.75Y-3.2998
X3.75Y-3.3998
X3.75Y-3.4998
X3.75Y-3.5998
X3.75Y-3.6998
X3.75Y-3.7998
X3.75Y-3.8998
X3.7502Y-1.0006
X3.7502Y-1.3006
X3.7904Y-4.2
X3.7904Y-4.6
X3.8482Y-6.35
X3.85Y-5.65
X3.85Y-5.9
X3.85Y-6.1
X3.8502Y-0.45
X3.8502Y-0.85
X3.8502Y-1.0006
X3.8502Y-1.3006
X3.9498Y-4.2
X3.9498Y-4.6
X3.9502Y-1.0006
X3.9502Y-1.3006
X3.9516Y-1.8
X3.97Y-0.45
X3.97Y-0.85
X4.0502Y-1.0006
X4.0502Y-1.3006
X4.09Y-0.45
X4.09Y-0.85
X4.1484Y-1.8
X4.25Y-5.65
X4.25Y-5.9
X4.25Y-6.1
X4.35Y-1.9998
X4.35Y-2.0998
X4.35Y-2.1998
X4.35Y-2.2998
X4.35Y-2.3998
X4.35Y-2.4998
X4.35Y-2.5998
X4.35Y-2.6998
X4.35Y-2.7998
X4.35Y-2.8998
X4.35Y-2.9998
X4.35Y-3.0998
X4.35Y-3.1998
X4.35Y-3.2998
X4.35Y-3.3998
X4.35Y-3.4998
X4.35Y-3.5998
X4.35Y-3.6998
X4.35Y-3.7998
X4.35Y-3.8998
X4.37Y-0.73
X4.37Y-0.85
X4.37Y-0.97
X4.37Y-1.09
X4.37Y-1.21
X4.37Y-1.33
X4.37Y-1.45
X4.37Y-1.57
X4.75Y-2.75
X4.75Y-3.15
X4.77Y-0.73
X4.77Y-0.85
X4.77Y-0.97
X4.77Y-1.09
X4.77Y-1.21
X4.77Y-1.33
X4.77Y-1.45
X4.77Y-1.57
X4.826Y-4.602
X4.826Y-5.002
X4.8494Y-3.6
X4.8494Y-4.0
X4.9494Y-4.5998
X4.9494Y-4.9998
X4.97Y-3.6
X4.97Y-4.0
X5.1494Y-3.9
X5.15Y-3.778
X5.15Y-4.02
X5.152Y-4.142
X5.152Y-4.78
X5.152Y-4.904
X5.152Y-5.028
X5.152Y-5.152
X5.2Y-6.3
X5.2Y-6.5
X5.2Y-6.7
X5.25Y-1.85
X5.25Y-2.15
X5.5494Y-3.9
X5.55Y-3.778
X5.55Y-4.02
X5.552Y-4.142
X5.552Y-4.78
X5.552Y-4.904
X5.552Y-5.028
X5.552Y-5.152
X5.6Y-6.3
X5.6Y-6.5
X5.6Y-6.7
X5.7494Y-1.4506
X5.7494Y-1.5506
X5.7494Y-1.6506
X5.7494Y-1.7506
X5.7494Y-1.8506
X5.7494Y-1.9506
X5.7494Y-2.0506
X5.7494Y-2.1506
X5.7494Y-2.4506
X5.7494Y-2.5506
X5.7494Y-2.6506
X5.7494Y-2.7506
X5.7494Y-2.8506
X5.7494Y-2.9506
X5.7494Y-3.0506
X5.7494Y-3.1506
X5.7494Y-3.4998
X5.7494Y-3.5998
X5.7494Y-3.6998
X5.7494Y-3.7998
X5.7494Y-3.8998
X5.7494Y-3.9998
X5.7494Y-4.0998
X5.7494Y-4.4998
X5.7494Y-4.5998
X5.7494Y-4.6998
X5.7494Y-4.7998
X5.7494Y-4.8998
X5.7494Y-4.9998
X5.7494Y-5.0998
X5.7494Y-6.1998
X5.7494Y-6.2998
X5.7494Y-6.3998
X5.7494Y-6.4998
X5.7494Y-6.5998
X5.7494Y-6.6998
X5.7494Y-6.7998
X5.801Y-4.3
X5.801Y-6.0498
X5.8016Y-1.3
X5.8031Y-2.3
X5.9978Y-4.3
X5.9978Y-6.0498
X5.9984Y-1.3
X6.0Y-2.3
X6.0494Y-1.4506
X6.0494Y-1.5506
X6.0494Y-1.6506
X6.0494Y-1.7506
X6.0494Y-1.8506
X6.0494Y-1.9506
X6.0494Y-2.0506
X6.0494Y-2.1506
X6.0494Y-2.4506
X6.0494Y-2.5506
X6.0494Y-2.6506
X6.0494Y-2.7506
X6.0494Y-2.8506
X6.0494Y-2.9506
X6.0494Y-3.0506
X6.0494Y-3.1506
X6.0494Y-3.4998
X6.0494Y-3.5998
X6.0494Y-3.6998
X6.0494Y-3.7998
X6.0494Y-3.8998
X6.0494Y-3.9998
X6.0494Y-4.0998
X6.0494Y-4.4998
X6.0494Y-4.5998
X6.0494Y-4.6998
X6.0494Y-4.7998
X6.0494Y-4.8998
X6.0494Y-4.9998
X6.0494Y-5.0998
X6.0494Y-6.1998
X6.0494Y-6.2998
X6.0494Y-6.3998
X6.0494Y-6.4998
X6.0494Y-6.5998
X6.0494Y-6.6998
X6.0494Y-6.7998
X6.246Y-4.024
X6.248Y-4.148
X6.248Y-4.774
X6.248Y-4.9
X6.2494Y-3.3
X6.2494Y-4.4998
X6.25Y-3.778
X6.25Y-3.9
X6.25Y-6.4
X6.25Y-6.8
X6.252Y-5.034
X6.252Y-5.16
X6.4026Y-4.2998
X6.594Y-2.754
X6.594Y-2.878
X6.596Y-2.508
X6.596Y-2.632
X6.5994Y-4.2998
X6.6Y-2.026
X6.6Y-2.15
X6.646Y-4.024
X6.648Y-4.148
X6.648Y-4.774
X6.648Y-4.9
X6.6494Y-3.3
X6.6494Y-4.4998
X6.65Y-3.778
X6.65Y-3.9
X6.65Y-6.4
X6.65Y-6.8
X6.652Y-5.034
X6.652Y-5.16
X6.8494Y-3.6
X6.8494Y-4.0
X6.8494Y-4.5998
X6.8494Y-4.9998
X6.972Y-4.602
X6.972Y-5.002
X6.974Y-3.6
X6.974Y-4.0
X6.994Y-2.754
X6.994Y-2.878
X6.996Y-2.508
X6.996Y-2.632
X7.0Y-2.026
X7.0Y-2.15
X7.4Y-1.405
X7.4Y-1.505
X7.4Y-1.605
X7.4Y-1.705
X7.4Y-1.805
X7.4Y-1.905
X7.4Y-2.005
X7.4Y-2.105
X7.4Y-2.405
X7.4Y-2.505
X7.4Y-2.605
X7.4Y-2.705
X7.4Y-2.805
X7.4Y-2.905
X7.4Y-3.005
X7.4Y-3.105
X7.4Y-3.405
X7.4Y-3.505
X7.4Y-3.605
X7.4Y-3.705
X7.4Y-3.805
X7.4Y-3.905
X7.4Y-4.005
X7.4Y-4.105
X7.4Y-4.405
X7.4Y-4.505
X7.4Y-4.605
X7.4Y-4.705
X7.4Y-4.805
X7.4Y-4.905
X7.4Y-5.005
X7.4Y-5.105
X7.45Y-6.7006
X7.7Y-1.405
X7.7Y-1.505
X7.7Y-1.605
X7.7Y-1.705
X7.7Y-1.805
X7.7Y-1.905
X7.7Y-2.005
X7.7Y-2.105
X7.7Y-2.405
X7.7Y-2.505
X7.7Y-2.605
X7.7Y-2.705
X7.7Y-2.805
X7.7Y-2.905
X7.7Y-3.005
X7.7Y-3.105
X7.7Y-3.405
X7.7Y-3.505
X7.7Y-3.605
X7.7Y-3.705
X7.7Y-3.805
X7.7Y-3.905
X7.7Y-4.005
X7.7Y-4.105
X7.7Y-4.405
X7.7Y-4.505
X7.7Y-4.605
X7.7Y-4.705
X7.7Y-4.805
X7.7Y-4.905
X7.7Y-5.005
X7.7Y-5.105
X7.85Y-6.7006
X8.0Y-2.4
X8.0Y-2.5
X8.0Y-2.6
X8.0Y-2.7
X8.0Y-2.8
X8.0Y-2.902
X8.0Y-3.002
X8.0Y-3.104
X8.005Y-1.405
X8.005Y-1.505
X8.005Y-1.605
X8.005Y-1.705
X8.005Y-1.805
X8.005Y-1.905
X8.005Y-2.005
X8.005Y-2.105
X8.005Y-3.398
X8.005Y-3.5
X8.005Y-3.605
X8.005Y-3.705
X8.005Y-3.805
X8.005Y-3.905
X8.005Y-4.005
X8.005Y-4.105
X8.005Y-4.405
X8.005Y-4.505
X8.005Y-4.605
X8.005Y-4.705
X8.005Y-4.805
X8.005Y-4.905
X8.005Y-5.005
X8.005Y-5.105
X8.0494Y-6.2006
X8.0494Y-6.3006
X8.0494Y-6.4006
X8.0494Y-6.5006
X8.0494Y-6.6006
X8.0494Y-6.7006
X8.0494Y-6.8006
X8.0494Y-6.9006
X8.1026Y-6.0006
X8.2994Y-6.0006
X8.3Y-2.4
X8.3Y-2.5
X8.3Y-2.6
X8.3Y-2.7
X8.3Y-2.8
X8.3Y-2.902
X8.3Y-3.002
X8.3Y-3.104
X8.305Y-1.405
X8.305Y-1.505
X8.305Y-1.605
X8.305Y-1.705
X8.305Y-1.805
X8.305Y-1.905
X8.305Y-2.005
X8.305Y-2.105
X8.305Y-3.398
X8.305Y-3.5
X8.305Y-3.605
X8.305Y-3.705
X8.305Y-3.805
X8.305Y-3.905
X8.305Y-4.005
X8.305Y-4.105
X8.305Y-4.405
X8.305Y-4.505
X8.305Y-4.605
X8.305Y-4.705
X8.305Y-4.805
X8.305Y-4.905
X8.305Y-5.005
X8.305Y-5.105
X8.3494Y-6.2006
X8.3494Y-6.3006
X8.3494Y-6.4006
X8.3494Y-6.5006
X8.3494Y-6.6006
X8.3494Y-6.7006
X8.3494Y-6.8006
X8.3494Y-6.9006
X8.7Y-4.4516
X8.7Y-4.6484
X8.8Y-6.3
X8.8Y-6.4
X8.8Y-6.5
X8.8Y-6.6
X8.8Y-6.7
X8.8Y-6.8
X8.8Y-6.9
X8.85Y-4.25
X8.85Y-4.65
X8.8531Y-6.1
X9.0494Y-4.0498
X9.0494Y-4.1498
X9.0494Y-4.2498
X9.0494Y-4.3498
X9.0494Y-4.4498
X9.0494Y-4.5498
X9.0494Y-4.6498
X9.05Y-1.85
X9.05Y-2.05
X9.05Y-2.25
X9.05Y-2.45
X9.05Y-2.65
X9.05Y-2.85
X9.05Y-6.1
X9.1Y-6.3
X9.1Y-6.4
X9.1Y-6.5
X9.1Y-6.6
X9.1Y-6.7
X9.1Y-6.8
X9.1Y-6.9
X9.101Y-3.8998
X9.2978Y-3.8998
X9.3494Y-4.0498
X9.3494Y-4.1498
X9.3494Y-4.2498
X9.3494Y-4.3498
X9.3494Y-4.4498
X9.3494Y-4.5498
X9.3494Y-4.6498
X9.35Y-1.85
X9.35Y-2.05
X9.35Y-2.25
X9.35Y-2.45
X9.35Y-2.65
X9.35Y-2.85
X9.6494Y-4.0502
X9.6494Y-4.1502
X9.6494Y-4.2502
X9.6494Y-4.3502
X9.6494Y-4.4502
X9.6494Y-4.5502
X9.6494Y-4.6502
X9.6494Y-4.7502
X9.6494Y-4.8502
X9.6494Y-4.9502
X9.701Y-3.9
X9.85Y-6.6
X9.85Y-7.0
X9.8978Y-3.9
X9.9494Y-4.0502
X9.9494Y-4.1502
X9.9494Y-4.2502
X9.9494Y-4.3502
X9.9494Y-4.4502
X9.9494Y-4.5502
X9.9494Y-4.6502
X9.9494Y-4.7502
X9.9494Y-4.8502
X9.9494Y-4.9502
X9.97Y-6.6
X9.97Y-7.0
X10.09Y-6.6
X10.09Y-7.0
X10.21Y-6.6
X10.21Y-7.0
X10.2494Y-4.0502
X10.2494Y-4.1502
X10.2494Y-4.2502
X10.2494Y-4.3502
X10.2494Y-4.4502
X10.2494Y-4.5502
X10.2494Y-4.6502
X10.2494Y-4.7502
X10.2494Y-4.8502
X10.2494Y-4.9502
X10.25Y-1.33
X10.25Y-1.45
X10.25Y-1.57
X10.25Y-1.69
X10.25Y-1.81
X10.25Y-1.93
X10.25Y-2.05
X10.25Y-2.17
X10.25Y-2.29
X10.25Y-2.41
X10.25Y-2.53
X10.25Y-2.65
X10.25Y-2.77
X10.25Y-2.89
X10.301Y-3.9002
X10.43Y-6.6
X10.43Y-7.0
X10.4978Y-3.9002
X10.5494Y-4.0502
X10.5494Y-4.1502
X10.5494Y-4.2502
X10.5494Y-4.3502
X10.5494Y-4.4502
X10.5494Y-4.5502
X10.5494Y-4.6502
X10.5494Y-4.7502
X10.5494Y-4.8502
X10.5494Y-4.9502
X10.55Y-6.6
X10.55Y-7.0
X10.65Y-1.33
X10.65Y-1.45
X10.65Y-1.57
X10.65Y-1.69
X10.65Y-1.81
X10.65Y-1.93
X10.65Y-2.05
X10.65Y-2.17
X10.65Y-2.29
X10.65Y-2.41
X10.65Y-2.53
X10.65Y-2.65
X10.65Y-2.77
X10.65Y-2.89
X10.67Y-6.6
X10.67Y-7.0
X10.95Y-6.35
X10.95Y-6.45
X10.95Y-6.55
X10.95Y-6.65
X10.95Y-6.75
X10.95Y-6.85
X10.95Y-6.95
X11.25Y-6.35
X11.25Y-6.45
X11.25Y-6.55
X11.25Y-6.65
X11.25Y-6.75
X11.25Y-6.85
X11.25Y-6.95
T5
X1.0242Y-6.876
X1.0262Y-7.064
X1.0282Y-7.258
X1.1242Y-6.876
X1.1262Y-7.064
X1.1282Y-7.258
X4.9Y-3.15
X5.0Y-3.15
T6
X0.3498Y-5.7502
X0.3498Y-5.8502
X0.3498Y-5.9502
X0.3498Y-6.0502
X0.3498Y-6.1502
X0.3498Y-6.2502
X0.3498Y-6.3502
X0.3498Y-6.4502
X0.3498Y-6.5502
X0.3498Y-6.6502
X0.3498Y-6.7502
X0.3498Y-6.8502
X0.3498Y-6.9502
X0.3498Y-7.0502
X0.3498Y-7.1502
X6.2994Y-0.45
X6.3498Y-7.2
X6.3994Y-0.45
X6.4498Y-7.2
X6.4994Y-0.45
X6.5498Y-7.2
X6.5994Y-0.45
X6.6498Y-7.2
X6.6994Y-0.45
X6.7498Y-7.2
X6.7994Y-0.45
X6.8498Y-7.2
X6.8994Y-0.45
X6.9498Y-7.2
X6.9994Y-0.45
X7.0498Y-7.2
X7.0994Y-0.45
X7.1498Y-7.2
X10.2496Y-0.45
X10.3496Y-0.45
X10.4496Y-0.45
X10.5496Y-0.45
X10.6496Y-0.45
X10.7496Y-0.45
X10.8496Y-0.45
X10.9496Y-0.45
X11.0Y-1.4498
X11.0Y-1.5498
X11.0Y-1.6498
X11.0Y-1.7498
X11.0Y-1.8498
X11.0Y-1.9498
X11.0Y-2.0498
X11.0Y-2.1498
X11.0Y-2.2498
X11.0Y-2.3498
X11.0Y-2.4498
X11.0Y-2.5498
X11.0Y-2.6498
X11.0Y-2.7498
X11.0Y-2.8498
X11.0Y-3.74
X11.0Y-3.84
X11.0Y-3.94
X11.0Y-4.04
X11.0Y-4.14
X11.0Y-4.24
X11.0Y-4.34
X11.0Y-4.44
X11.0Y-4.54
X11.0496Y-0.45
T7
X5.0614Y-2.372
X5.0614Y-2.628
X5.2386Y-2.372
X5.2386Y-2.628
X9.5Y-1.85
X9.5Y-2.05
X9.5Y-2.25
X9.5Y-2.45
X9.5Y-2.65
X9.5Y-2.85
X9.9Y-1.85
X9.9Y-2.05
X9.9Y-2.25
X9.9Y-2.45
X9.9Y-2.65
X9.9Y-2.85
T8
X0.33Y-0.45
X0.33Y-5.075
X11.6Y-0.45
X11.6Y-5.075
T0
M30
