%TF.GenerationSoftware,KiCad,Pcbnew,6.0.1-79c1e3a40b~116~ubuntu20.04.1*%
%TF.CreationDate,2022-02-19T12:12:05-05:00*%
%TF.ProjectId,gp-mpu,67702d6d-7075-42e6-9b69-6361645f7063,rev?*%
%TF.SameCoordinates,Original*%
%TF.FileFunction,Profile,NP*%
%FSLAX46Y46*%
G04 Gerber Fmt 4.6, Leading zero omitted, Abs format (unit mm)*
G04 Created by KiCad (PCBNEW 6.0.1-79c1e3a40b~116~ubuntu20.04.1) date 2022-02-19 12:12:05*
%MOMM*%
%LPD*%
G01*
G04 APERTURE LIST*
%TA.AperFunction,Profile*%
%ADD10C,0.100000*%
%TD*%
%TA.AperFunction,Profile*%
%ADD11C,0.120000*%
%TD*%
G04 APERTURE END LIST*
D10*
X292481000Y-103378000D02*
X292481000Y-93314000D01*
X292430200Y-143484600D02*
X302133000Y-143510000D01*
X302006000Y-1270000D02*
X-5000Y-1270000D01*
X302107600Y-105714800D02*
X302133000Y-143510000D01*
X-5000Y-189484000D02*
X292405200Y-189402200D01*
X-5000Y-1270000D02*
X-5000Y-189484000D01*
X292506400Y-29464000D02*
X292481000Y-31800800D01*
X302006000Y-29464000D02*
X302006000Y-1270000D01*
X302006000Y-29464000D02*
X292506400Y-29464000D01*
X292481000Y-31750000D02*
X292481000Y-41814000D01*
X292430200Y-146302200D02*
X292430200Y-143484600D01*
X292455600Y-105714800D02*
X302107600Y-105714800D01*
X292455600Y-105714800D02*
X292481000Y-103378000D01*
D11*
%TO.C,J3*%
X292480200Y-155502200D02*
X292480200Y-154852200D01*
X302030200Y-155502200D02*
X292480200Y-155502200D01*
X292480200Y-154852200D02*
X302030200Y-154852200D01*
X302030200Y-154852200D02*
X302030200Y-148827200D01*
X292405200Y-184402200D02*
X292405200Y-189402200D01*
X302030200Y-184402200D02*
X292405200Y-184402200D01*
X292430200Y-148752200D02*
X292430200Y-146302200D01*
X302030200Y-155502200D02*
X302030200Y-184402200D01*
D10*
X292418300Y-148827200D02*
X302030200Y-148827200D01*
D11*
%TO.C,J9*%
X302025000Y-93314000D02*
X292525000Y-93314000D01*
X293025000Y-76314000D02*
X302100000Y-76314000D01*
X302100000Y-78789000D02*
X293025000Y-78814000D01*
X302100000Y-41814000D02*
X302100000Y-76314000D01*
X293025000Y-78814000D02*
X293025000Y-76314000D01*
X302100000Y-41814000D02*
X292525000Y-41814000D01*
X302100000Y-78789000D02*
X302100000Y-93289000D01*
%TD*%
M02*
